<svg xmlns="http://www.w3.org/2000/svg" width="33" height="16" viewBox="0 0 33 16"><g><g><path fill="red" d="M23.978 6.393c1.254.024 2.293 1.067 2.23 2.352-.025 1.254-1.067 2.293-2.353 2.23-1.254-.024-2.293-1.067-2.23-2.352.025-1.254 1.067-2.293 2.353-2.23zM.772 3.487l5.236.048c.633.462 1.07 1.082 1.39 1.798l-1.16-.23c-.912 1.842-.95 4.602-.136 6.41l1.205-.195c-.326.719-.82 1.313-1.472 1.711l-5.228-.118c-.076.386 4.87 3.527 8.929 3.163 2.757-.284 2.897-1.956 2.753-3.659 3.356.856 7.28 1.77 10.81 1.316 5.602-.703 9.52-4.85 9.52-4.85s-3.708-4.338-9.28-5.283c-3.529-.586-7.482.147-10.892.83C12.665 2.69 12.489.95 9.688.62 5.57.187.738 3.125.772 3.487z"/></g></g></svg>