<svg xmlns="http://www.w3.org/2000/svg" width="38" height="37" viewBox="0 0 38 37"><g><g><g><path fill="#363636" d="M4.782 0C2.005 0 .189 1.823.189 4.22c0 2.344 1.762 4.22 4.486 4.22h.053c2.831 0 4.593-1.876 4.593-4.22C9.268 1.823 7.559 0 4.78 0z"/></g><g><path fill="#363636" d="M.669 11.774h8.118v24.423H.669z"/></g><g><path fill="#363636" d="M28.713 11.2c-4.38 0-7.316 4.116-7.316 4.116v-3.542h-8.118v24.423h8.117V22.558c0-.73.053-1.459.268-1.981.587-1.458 1.922-2.969 4.165-2.969 2.937 0 4.112 2.24 4.112 5.523v13.066h8.118V22.193c0-7.502-4.006-10.992-9.346-10.992z"/></g></g></g></svg>