<svg xmlns="http://www.w3.org/2000/svg" width="35" height="32" viewBox="0 0 35 32"><g><g><g><path fill="#040e16" d="M15.828 25.453a3.02 3.02 0 0 0-3.024 3.023 3.02 3.02 0 0 0 3.024 3.024 3.02 3.02 0 0 0 3.023-3.024 3.026 3.026 0 0 0-3.023-3.023z"/></g><g><path fill="#040e16" d="M26.84 25.453a3.02 3.02 0 0 0-3.024 3.023 3.02 3.02 0 0 0 3.023 3.024 3.02 3.02 0 0 0 3.024-3.024 3.026 3.026 0 0 0-3.024-3.023z"/></g><g><path fill="#040e16" d="M11.877 24.04l.052-.016h-.052z"/></g><g><path fill="#040e16" d="M12.692 17.535l-.2-.728a1.83 1.83 0 0 0-.147-.381L9.99 7.849h22.386l-3.76 9.677H12.692zm17.396 1.637a.528.528 0 0 0 .104-.139c.008-.017.017-.026.026-.043a.736.736 0 0 0 .078-.19L34.54 7.874a1.577 1.577 0 0 0-.563-1.871 2.366 2.366 0 0 0-1.352-.433H9.495L8.256 1.014A1.396 1.396 0 0 0 6.931.026L1.3 0C.563 0 0 .416 0 1.083s.572 1.351 1.308 1.343l4.964.121 5.675 21.468H30.14c.892 0 1.62-.511 1.62-1.144 0-.632-.728-1.143-1.62-1.143H13.827l-.59-2.175h15.941a1.18 1.18 0 0 0 .91-.381z"/></g></g></g></svg>