<svg xmlns="http://www.w3.org/2000/svg" width="36" height="36" viewBox="0 0 36 36"><g><g><g><path fill="#000000" d="M22.629 7.493V5.995H19.63V22.48a4.5 4.5 0 0 1-4.496 4.496 4.5 4.5 0 0 1-4.496-4.496 4.5 4.5 0 0 1 4.496-4.496h1.499v-2.997h-1.499c-4.132 0-7.493 3.361-7.493 7.493s3.361 7.494 7.493 7.494 7.494-3.362 7.494-7.494v-9.006a7.445 7.445 0 0 0 4.496 1.513h1.498v-2.998h-1.498a4.5 4.5 0 0 1-4.496-4.496z"/></g><g><path fill="#000000" d="M3.146 2.997h29.973v29.974H3.146zM.148 35.968h35.969V0H.148z"/></g></g></g></svg>