<svg xmlns="http://www.w3.org/2000/svg" width="34" height="35" viewBox="0 0 34 35"><g><g><g><path d="M30.94 24.644c-.073 1.672-.354 2.575-.588 3.177a5.679 5.679 0 0 1-3.25 3.25c-.602.234-1.511.515-3.177.588-1.805.08-2.347.1-6.915.1-4.567 0-5.116-.02-6.915-.1-1.672-.073-2.574-.354-3.176-.588a5.268 5.268 0 0 1-1.966-1.278 5.322 5.322 0 0 1-1.278-1.966c-.234-.602-.515-1.511-.588-3.176-.08-1.806-.1-2.348-.1-6.915 0-4.568.02-5.117.1-6.915.073-1.672.354-2.575.588-3.177A5.203 5.203 0 0 1 4.96 5.678 5.314 5.314 0 0 1 6.925 4.4c.602-.235 1.512-.515 3.177-.589 1.806-.08 2.348-.1 6.915-.1 4.574 0 5.116.02 6.915.1 1.672.074 2.575.354 3.177.589a5.264 5.264 0 0 1 1.966 1.277 5.321 5.321 0 0 1 1.277 1.966c.234.602.515 1.511.589 3.177.08 1.805.1 2.347.1 6.915 0 4.567-.02 5.102-.1 6.908zm3.084-13.977c-.08-1.82-.375-3.07-.796-4.153a8.354 8.354 0 0 0-1.98-3.037 8.425 8.425 0 0 0-3.03-1.972c-1.09-.422-2.333-.716-4.152-.796C22.233.622 21.65.602 17.004.602c-4.648 0-5.23.02-7.056.1-1.819.08-3.07.375-4.153.796a8.353 8.353 0 0 0-3.036 1.98A8.429 8.429 0 0 0 .786 6.506C.365 7.597.071 8.841-.01 10.66c-.087 1.832-.107 2.414-.107 7.062s.02 5.23.1 7.056c.08 1.819.375 3.07.796 4.153a8.442 8.442 0 0 0 1.98 3.036 8.425 8.425 0 0 0 3.03 1.973c1.09.421 2.333.715 4.153.795 1.825.08 2.407.1 7.055.1s5.23-.02 7.055-.1c1.82-.08 3.07-.374 4.153-.795a8.756 8.756 0 0 0 5.01-5.01c.42-1.09.715-2.333.795-4.152.08-1.826.1-2.408.1-7.056s-.006-5.23-.086-7.055z"/></g><g><path d="M17.004 23.427a5.706 5.706 0 0 1 0-11.41 5.705 5.705 0 0 1 0 11.41zm0-14.5a8.796 8.796 0 0 0-8.795 8.795 8.796 8.796 0 0 0 8.795 8.794 8.796 8.796 0 0 0 8.794-8.794 8.796 8.796 0 0 0-8.794-8.794z"/></g><g><path d="M28.199 8.58a2.053 2.053 0 1 1-4.107 0 2.053 2.053 0 0 1 4.107 0z"/></g></g></g></svg>