<svg xmlns="http://www.w3.org/2000/svg" width="36" height="36" viewBox="0 0 36 36"><g><g><path fill="#363636" d="M31.946 7.017l-2.981-2.981 1.49-1.49 2.982 2.98zm-6.505 19.337c0 .582-.473 1.054-1.055 1.054h-12.72c-.283 0-.555.115-.753.317l-4.518 4.618v-3.88c0-.583-.472-1.055-1.054-1.055H3.162a1.055 1.055 0 0 1-1.054-1.054V11.596c0-.582.473-1.054 1.054-1.054h16.315l-3.184 3.184a1.077 1.077 0 0 0-.233.352l-2.918 7.006H7.449a1.054 1.054 0 1 0 0 2.107h6.396c.136 0 .281-.028.414-.085l7.645-3.184a1.07 1.07 0 0 0 .352-.233l3.185-3.184zM17.406 16.33l2.246 2.246-3.85 1.604zm4.105 1.123l-2.982-2.981 8.945-8.945 2.982 2.981zM31.2.31a1.054 1.054 0 0 0-1.49 0l-8.125 8.124H3.163A3.166 3.166 0 0 0 0 11.596v14.758a3.166 3.166 0 0 0 3.163 3.163h1.124v5.411a1.054 1.054 0 0 0 1.808.737l6.015-6.148h12.277a3.166 3.166 0 0 0 3.162-3.163V14.397l8.125-8.125a1.055 1.055 0 0 0 0-1.49z"/></g></g></svg>