<svg xmlns="http://www.w3.org/2000/svg" width="36" height="36" viewBox="0 0 36 36"><g><g><path fill="#000000" d="M33.857 24.314a1.055 1.055 0 0 1-2.108 0v-2.108a1.055 1.055 0 0 1 2.108 0zM31.749 29.6c-4.787.14-8.893 1.246-12.72 3.434V20.67c3.786-2.41 7.767-3.578 12.72-3.72v2.275a3.167 3.167 0 0 0-2.108 2.98v2.109c0 1.374.88 2.546 2.108 2.98zM17.975 18.843a25.05 25.05 0 0 0-6.132-2.82 7.394 7.394 0 0 1 4.024-1.196h4.217c1.438 0 2.836.424 4.024 1.196a25.05 25.05 0 0 0-6.133 2.82zm-1.054 14.19C13.095 30.846 8.99 29.74 4.202 29.6v-2.305a3.167 3.167 0 0 0 2.108-2.981v-2.108a3.167 3.167 0 0 0-2.108-2.981V16.95c4.953.143 8.934 1.309 12.72 3.719zM3.148 25.369a1.055 1.055 0 0 1-1.054-1.054v-2.108a1.055 1.055 0 0 1 2.108 0v2.108c0 .581-.473 1.054-1.054 1.054zm9.557-17.92c0-2.944 2.364-5.34 5.27-5.34 2.907 0 5.27 2.396 5.27 5.34a5.276 5.276 0 0 1-5.27 5.271 5.276 5.276 0 0 1-5.27-5.27zm21.152 11.777V15.88c0-.582-.472-1.054-1.054-1.054-2.178 0-4.208.184-6.126.56a9.517 9.517 0 0 0-3.957-2.292 7.365 7.365 0 0 0 2.634-5.646C25.354 3.34 22.044 0 17.975 0c-4.068 0-7.378 3.341-7.378 7.449a7.365 7.365 0 0 0 2.634 5.646 9.519 9.519 0 0 0-3.957 2.291c-1.918-.375-3.948-.559-6.126-.559-.582 0-1.054.472-1.054 1.054v3.344a3.167 3.167 0 0 0-2.108 2.98v2.109c0 1.374.881 2.546 2.108 2.98v3.344c0 .582.472 1.054 1.054 1.054 5.512 0 10.037 1.306 14.243 4.11.352.235.816.235 1.17 0 4.205-2.804 8.73-4.11 14.242-4.11.582 0 1.054-.472 1.054-1.054v-3.343a3.167 3.167 0 0 0 2.108-2.981v-2.108a3.167 3.167 0 0 0-2.108-2.981z"/></g></g></svg>