<svg xmlns="http://www.w3.org/2000/svg" width="264" height="76" viewBox="0 0 264 76"><g><g><g><g><path fill="#fff" d="M247.408 29.44l-.756 3.48h6.456l-4.64 21.94h3.48l4.64-21.94h6.456l.756-3.48zm-23.2 18.207c-.454 2.118-.05 3.883 1.21 5.245 1.21 1.311 2.976 1.967 5.246 1.967 2.27 0 4.287-.656 6.052-1.967 1.866-1.362 3.026-3.127 3.48-5.245.454-2.018 0-3.632-1.311-4.792-.807-.706-2.32-1.462-4.64-2.32-1.614-.605-2.674-1.059-3.228-1.462-.908-.656-1.261-1.463-1.06-2.37.202-1.11.757-2.018 1.665-2.674 1.009-.706 2.169-1.11 3.631-1.11 1.463 0 2.472.404 3.178 1.11.655.656.857 1.564.605 2.673h3.48c.454-2.169 0-3.934-1.26-5.296-1.211-1.311-2.977-1.967-5.246-1.967-2.32 0-4.338.656-6.103 1.967-1.866 1.362-3.026 3.127-3.48 5.296-.454 2.018 0 3.632 1.311 4.792.807.706 2.32 1.462 4.64 2.32 1.564.554 2.623 1.059 3.178 1.462.908.656 1.311 1.463 1.11 2.37-.202 1.11-.807 2.018-1.715 2.674-1.009.756-2.22 1.11-3.632 1.11-1.462 0-2.471-.404-3.177-1.11-.605-.706-.807-1.564-.555-2.673zm-14.173-14.728c2.774 0 4.842.858 6.204 2.522 1.362 1.715 1.715 3.934 1.11 6.708-.606 2.774-1.917 4.993-3.934 6.708-2.068 1.665-4.49 2.522-7.263 2.522-2.774 0-4.792-.807-6.153-2.522-1.312-1.715-1.715-3.934-1.11-6.708.555-2.774 1.917-4.993 3.934-6.708 2.017-1.664 4.438-2.522 7.212-2.522zm.757-3.43c-3.732 0-7.061 1.16-9.936 3.531-2.875 2.37-4.69 5.397-5.498 9.13-.756 3.732-.252 6.758 1.614 9.128 1.917 2.37 4.691 3.581 8.423 3.581s7.01-1.21 9.886-3.58c2.875-2.32 4.69-5.397 5.497-9.13.807-3.682.252-6.758-1.614-9.129-1.866-2.37-4.64-3.58-8.372-3.53zm-29.606 3.43c2.774 0 4.842.858 6.204 2.522 1.361 1.715 1.714 3.934 1.11 6.708-.606 2.774-1.917 4.993-3.935 6.708-2.068 1.665-4.489 2.522-7.263 2.522s-4.791-.807-6.153-2.522c-1.311-1.715-1.715-3.934-1.11-6.708.555-2.774 1.917-4.993 3.935-6.708 2.017-1.664 4.438-2.522 7.212-2.522zm.756-3.43c-3.732 0-7.06 1.16-9.935 3.531-2.875 2.37-4.691 5.397-5.498 9.13-.756 3.732-.252 6.758 1.614 9.128 1.917 2.37 4.69 3.581 8.423 3.581 3.732 0 7.01-1.21 9.885-3.58 2.875-2.32 4.69-5.397 5.498-9.13.807-3.682.252-6.758-1.614-9.129-1.866-2.37-4.64-3.58-8.373-3.53zm-24.864-2.218c1.513 0 2.622.403 3.278 1.26.656.858.807 2.018.504 3.531-.302 1.513-.958 2.673-1.967 3.53-1.009.858-2.32 1.261-3.833 1.261h-6.002l2.018-9.582zm-8.726 13.012h6.557c1.765 0 3.026.504 3.782 1.463.757 1.008.959 2.37.606 4.085-.353 1.765-1.16 3.127-2.32 4.085-1.21.959-2.673 1.463-4.388 1.463h-6.607l2.37-11.045zm-6.557 14.526h10.088c2.471 0 4.64-.706 6.556-2.119a11.157 11.157 0 0 0 3.783-4.841c.252-.656.403-1.261.555-1.867.302-1.26.302-2.471 0-3.631-.404-1.866-1.463-3.228-3.077-4.085 1.614-.959 2.875-2.22 3.783-3.884.454-.857.807-1.765 1.009-2.673.1-.706.201-1.412.15-2.118-.1-1.665-.705-3.026-1.764-4.086-1.21-1.16-2.875-1.714-5.044-1.714h-9.482z"/></g><g><path fill="#fff" d="M105.28 40.334c.504-1.06 1.362-2.018 2.572-2.926 1.06-.807 2.22-1.16 3.38-1.16 1.21 0 2.168.404 2.924 1.16.807.858 1.261 1.816 1.312 2.926zm15.433-6.557c-1.866-2.32-4.59-3.53-8.22-3.53-3.632 0-6.86 1.16-9.685 3.53-2.874 2.37-4.69 5.346-5.447 8.977-.756 3.632-.252 6.608 1.614 8.928 1.866 2.37 4.59 3.53 8.17 3.53 3.632 0 6.86-1.16 9.735-3.53 1.362-1.16 2.522-2.472 3.43-3.985h-8.02c-1.664 1.463-3.379 1.917-5.094 1.412-1.815-.554-2.824-1.714-2.975-3.53h17.3c.352-1.16.604-2.118.756-2.825.807-3.63.252-6.607-1.564-8.977zm17.098-2.572l1.715-8.07-7.717 2.723-1.16 5.347h-3.984l-1.261 6.052h3.984l-3.732 17.653h7.111l3.733-17.653h5.346l1.26-6.052h-5.295zM8.997 39.224c-.807.958-2.27 1.11-3.227.252-.959-.807-1.11-2.27-.253-3.228.807-.958 2.27-1.11 3.228-.252.959.807 1.11 2.27.252 3.228zM23.12 41.09c-2.32-1.513-3.48-.252-4.439 1.11-2.118-2.825-4.59-6.002-7.616-7.868-4.791-2.976-10.44-2.22-10.44-2.22s.151 5.7 3.884 9.936c2.37 2.673 5.9 4.59 8.977 6.204-1.26 1.21-2.219 2.673-.252 4.69 2.875 2.926 8.473 3.682 8.675 3.38l-4.035-3.329c-.202-.757-.151-1.513.05-2.27l.757.908c1.866-.857 3.632-2.975 4.136-4.892l-1.06-.605c.707-.353 1.463-.505 2.22-.404l3.984 3.38c.353-.202-1.462-5.75-4.841-8.02zm35.305 29c-16.09-1.865-32.935-13.516-34.7-15.03 0 0 15.635 20.478 43.375 18.31 17.955-1.413 23.806-10.24 24.31-10.492-2.421 1.16-14.425 9.331-32.985 7.213zm17.3-67.13C53.027-5.16 37.745 6.138 37.392 6.39c2.824-1.563 31.573-10.188 47.41 6.506 7.363 7.768 7.767 15.686 6.052 23.05h-24.36l-1.766 8.322H78.7c-1.614 3.177-3.934 5.598-7.01 7.212-2.875 1.513-5.75 2.068-8.676 1.664-3.026-.403-5.295-1.664-6.859-3.883-1.715-2.421-2.169-5.599-1.311-9.432.706-3.278 2.068-6.052 4.236-8.322 1.917-2.068 4.187-3.53 6.86-4.388 2.521-.807 4.942-.958 7.262-.403 2.421.555 4.288 1.765 5.599 3.58h.202l6.052-9.935c-3.228-2.522-7.414-3.783-12.559-3.783-6.758 0-12.81 2.169-18.056 6.506-5.296 4.338-8.624 9.936-10.087 16.695-1.463 6.758-.454 12.357 2.976 16.694 1.311 1.664 2.875 3.026 4.69 4.035-12.003-2.421-21.183-8.322-21.183-8.322l-.202-.353c0 .05.05.151.05.202-1.663-.353-4.034-1.21-4.236-1.312C28.87 52.49 37.141 59.55 49.145 63.08c5.951 1.765 12.962 3.38 21.485 2.472a60.15 60.15 0 0 0 4.035-.606c7.061-1.412 13.82-6.556 17.35-14.02 8.625-18.36 6.153-39.946-16.29-47.966z"/></g><g><g><path fill="#fff" d="M103.262 65.602c0-.908-.201-1.513-.555-1.917-.403-.403-.907-.605-1.613-.605h-3.38v-.807h3.581c1.967 0 2.976 1.11 2.976 3.329V75.74h-.958V65.602z"/></g><g><path fill="#fff" d="M113.097 62.324v.857l-3.58 9.028h-.959l3.53-9.078h-5.699v-3.834h.959v3.027h5.75z"/></g><g><path fill="#fff" d="M122.024 70.444c-1.31 1.26-3.227 1.916-5.85 1.967l-1.261-10.087h.958l.656 5.346c.605-.353 1.11-.656 1.412-1.009a2.92 2.92 0 0 0 .757-1.26c.151-.505.252-1.16.302-1.968v-1.059h.959v1.009c-.05.908-.152 1.664-.404 2.27-.252.605-.555 1.16-1.059 1.563-.454.454-1.11.857-1.866 1.26l.353 3.027c1.967-.151 3.48-.757 4.489-1.816 1.008-1.059 1.513-2.723 1.513-4.892v-2.471h.958v2.42c.05 2.522-.605 4.439-1.917 5.7z"/></g><g><path fill="#fff" d="M129.792 75.84h1.008v-9.986h-.857l-.151 1.21zm2.774-3.58c1.21-.05 2.219-.505 3.026-1.362.807-.807 1.21-2.119 1.311-3.833l.303-3.934.05-.757h-7.565v.807h6.506l-.303 3.985c-.1 1.059-.302 1.916-.605 2.521-.302.606-.706 1.009-1.16 1.261-.454.202-1.009.353-1.664.454z"/></g><g><path fill="#fff" d="M144.922 70.141c-.907.706-2.168 1.16-3.631 1.312l-1.009-8.322h3.53c.757 0 1.363.252 1.766.807.454.554.656 1.26.656 2.118v.403c.05 1.715-.353 2.976-1.312 3.682zm.505.706c1.26-.857 1.866-2.32 1.715-4.438v-.504c-.05-1.16-.353-2.018-.908-2.673-.555-.656-1.362-.959-2.37-.959h-4.691l.1.807 1.11 9.28c2.119-.1 3.783-.605 5.044-1.513z"/></g><g><path fill="#fff" d="M156.422 62.324c0 2.471-.101 4.337-.303 5.548-.202 1.21-.605 2.168-1.311 2.824-.706.656-1.765 1.16-3.228 1.412l-2.673.555-.151-.807 2.874-.555.404-.1-2.421-8.877h1.009l2.32 8.624c.807-.302 1.362-.807 1.715-1.412.353-.656.554-1.463.655-2.471.101-1.01.152-2.623.152-4.741h.958z"/></g><g><path fill="#fff" d="M164.996 62.324v.857l-3.581 9.028h-.958l3.53-9.078h-5.699v-3.834h.958v3.027h5.75z"/></g><g><path fill="#fff" d="M170.393 62.324h1.008l1.11 9.129c1.463-.152 2.623-.606 3.53-1.463.908-.857 1.362-2.068 1.312-3.833v-.404c0-.807-.202-1.462-.605-1.967-.404-.504-1.06-.756-1.867-.807l-.907-.05.05-.807.958.05c2.119.152 3.228 1.261 3.279 3.38v.504c.05 2.068-.505 3.58-1.766 4.59-1.26 1.008-2.874 1.563-4.942 1.664z"/></g><g><path fill="#fff" d="M185.876 70.141c-.958.706-2.168 1.16-3.63 1.312l-1.01-8.322h3.53c.757 0 1.363.252 1.766.807.454.554.656 1.26.656 2.118v.403c.05 1.715-.353 2.976-1.312 3.682zm.505.706c1.26-.857 1.866-2.32 1.715-4.438v-.504c-.05-1.16-.353-2.018-.908-2.673-.555-.656-1.362-.959-2.37-.959h-4.691l.1.807 1.11 9.28c2.119-.1 3.783-.605 5.044-1.513z"/></g><g><path fill="#fff" d="M190.617 64.392l-.252-2.119h.959l.252 2.119v7.767h-1.009v-7.767z"/></g><g><path fill="#fff" d="M201.562 71.352v.807h-7.616v-.807h5.346v-5.75c0-.908-.201-1.513-.554-1.917-.404-.403-.908-.605-1.614-.605h-3.127v-.807h3.328c1.967 0 2.976 1.11 2.976 3.329v5.75z"/></g><g><path fill="#fff" d="M207.413 64.392l-.253-2.119h.959l.252 2.119V75.79h-1.009V64.392z"/></g><g><path fill="#fff" d="M210.187 71.705c.706-.05 1.21-.252 1.513-.656.302-.353.454-.908.403-1.614v-7.111h4.086c1.967 0 2.975 1.11 2.975 3.328v6.557h-.958v-6.557c0-.907-.202-1.513-.555-1.916-.403-.404-.908-.605-1.614-.605h-2.925v6.203c0 .959-.202 1.715-.656 2.22-.454.504-1.16.806-2.118.857z"/></g></g></g><g><path fill="#fff" d="M92.015 50.976c-3.48 7.464-10.289 12.659-17.35 14.02-1.412.253-2.723.505-4.035.606 18.107-14.374 20.225-29.505 20.225-29.505l-.05-.151h.15c1.564-6.557 1.413-13.568-3.832-20.528a32.622 32.622 0 0 0-2.169-2.572C69.067-3.848 40.369 4.776 37.544 6.34c.353-.252 15.635-11.5 38.332-3.43 9.179 3.278 15.03 8.826 18.106 15.484 4.338 9.734 3.127 21.687-1.967 32.582z"/></g></g></g></svg>