<svg xmlns="http://www.w3.org/2000/svg" width="31" height="37" viewBox="0 0 31 37"><g><g><g><g><path fill="#000000" d="M28.141 27.073h-3.687v1.804c0 .942.308 1.412.942 1.412.454 0 .718-.246.823-.74.017-.1.042-.509.042-1.248h1.88v.269c0 .594-.022 1.003-.039 1.188a2.627 2.627 0 0 1-.43 1.104c-.51.74-1.267 1.103-2.23 1.103-.965 0-1.7-.347-2.232-1.042-.391-.509-.592-1.311-.592-2.392v-3.564c0-1.088.178-1.884.57-2.398.532-.697 1.266-1.043 2.208-1.043.925 0 1.659.346 2.175 1.043.387.514.571 1.31.571 2.398v2.106zm-6.958 1.698c0 .941-.064 1.62-.187 2.05-.246.757-.74 1.144-1.473 1.144-.656 0-1.289-.364-1.905-1.126v.987h-1.844V18.168h1.844v4.46c.595-.733 1.227-1.104 1.905-1.104.734 0 1.227.387 1.473 1.148.124.41.187 1.083.187 2.046zm-8.85 3.054v-1.11c-.733.84-1.43 1.25-2.107 1.25-.595 0-1.004-.24-1.188-.756-.1-.308-.163-.795-.163-1.513v-8.047h1.844v7.492c0 .432 0 .657.016.717.045.287.185.432.432.432.37 0 .756-.285 1.165-.864V21.65h1.846v10.176zM8.606 20.09H6.398v11.735H4.347V20.09H2.179v-1.922h6.427zm21.281-1.79c-.373-1.624-1.7-2.82-3.298-2.999-3.783-.422-7.613-.424-11.424-.422-3.814-.002-7.643 0-11.427.422C2.141 15.48.815 16.677.442 18.3c-.532 2.311-.539 4.833-.539 7.213s0 4.901.532 7.212c.373 1.622 1.7 2.82 3.298 2.998 3.782.423 7.612.425 11.425.423 3.813.002 7.642 0 11.426-.423 1.597-.179 2.924-1.376 3.297-2.998.531-2.31.534-4.833.534-7.212 0-2.38.004-4.902-.528-7.213z"/></g><g><path fill="#000000" d="M25.38 23.185c-.617 0-.926.47-.926 1.411v.942h1.844v-.942c0-.94-.309-1.411-.919-1.411z"/></g><g><path fill="#000000" d="M18.537 23.185c-.304 0-.612.143-.92.448v6.202c.308.309.616.455.92.455.532 0 .802-.455.802-1.374v-4.343c0-.918-.27-1.388-.802-1.388z"/></g><g><path fill="#000000" d="M19.567 13.94c.68 0 1.387-.412 2.128-1.262V13.8h1.864V3.516h-1.864v7.86c-.413.583-.804.872-1.177.872-.25 0-.396-.148-.437-.437-.022-.06-.022-.287-.022-.724V3.516H18.2v8.132c0 .726.062 1.217.165 1.529.188.52.6.764 1.2.764z"/></g><g><path fill="#000000" d="M6.594 8.21v5.59H8.66V8.21L11.146 0h-2.09l-1.41 5.42L6.18 0H4.005c.436 1.28.89 2.565 1.325 3.845.663 1.925 1.076 3.376 1.264 4.366z"/></g><g><path fill="#000000" d="M13.026 6.495c0-.951.289-1.426.89-1.426.6 0 .888.474.888 1.426v4.326c0 .951-.288 1.427-.888 1.427-.601 0-.89-.476-.89-1.427zm.89 7.446c.933 0 1.659-.351 2.173-1.053.391-.515.579-1.325.579-2.418V6.869c0-1.1-.187-1.903-.579-2.423-.514-.703-1.24-1.055-2.173-1.055-.93 0-1.654.352-2.17 1.055-.396.52-.583 1.323-.583 2.423v3.6c0 1.094.187 1.904.583 2.419.515.702 1.24 1.053 2.17 1.053z"/></g></g></g></g></svg>