<svg xmlns="http://www.w3.org/2000/svg" width="42" height="34" viewBox="0 0 42 34"><g><g><g><g><path fill="#363636" d="M41.813 3.974a17.743 17.743 0 0 1-4.903 1.344A8.463 8.463 0 0 0 40.654.615a17.007 17.007 0 0 1-5.397 2.06A8.528 8.528 0 0 0 29.04-.02c-4.712 0-8.505 3.825-8.505 8.513 0 .675.057 1.323.197 1.94C13.658 10.09 7.397 6.7 3.19 1.534a8.568 8.568 0 0 0-1.164 4.302 8.523 8.523 0 0 0 3.78 7.072c-1.368-.026-2.709-.423-3.845-1.048v.093c0 4.136 2.95 7.571 6.818 8.363-.693.189-1.448.28-2.231.28-.545 0-1.095-.031-1.611-.145 1.102 3.37 4.231 5.848 7.952 5.928a17.1 17.1 0 0 1-10.552 3.63A15.94 15.94 0 0 1 .3 29.89c3.77 2.431 8.238 3.819 13.056 3.819 15.66 0 24.222-12.973 24.222-24.217 0-.376-.013-.74-.031-1.1 1.689-1.199 3.108-2.696 4.265-4.419z"/></g></g></g></g></svg>