<svg xmlns="http://www.w3.org/2000/svg" xmlns:xlink="http://www.w3.org/1999/xlink" width="263.175" height="75.841" viewBox="0 0 263.175 75.841">
  <defs>
    <linearGradient id="linear-gradient" x1="0.243" y1="1.019" x2="0.791" y2="-0.043" gradientUnits="objectBoundingBox">
      <stop offset="0" stop-color="#782ea0"/>
      <stop offset="1" stop-color="#279ced"/>
    </linearGradient>
    <linearGradient id="linear-gradient-2" x1="0.499" y1="1" x2="0.499" y2="0.001" gradientUnits="objectBoundingBox">
      <stop offset="0" stop-color="#3d7ed8" stop-opacity="0"/>
      <stop offset="1" stop-color="#97d0ff"/>
    </linearGradient>
  </defs>
  <g id="Group_579" data-name="Group 579" transform="translate(0 0.07)">
    <g id="Group_575" data-name="Group 575" transform="translate(0 -0.041)">
      <path id="Path_525" data-name="Path 525" d="M286.457,47.1h9.482a6.953,6.953,0,0,1,5.044,1.715,6.1,6.1,0,0,1,1.765,4.085,9.989,9.989,0,0,1-.151,2.118,10.769,10.769,0,0,1-1.009,2.673,10,10,0,0,1-3.783,3.884,5.834,5.834,0,0,1,3.077,4.085,7.373,7.373,0,0,1,0,3.631,15.347,15.347,0,0,1-.555,1.866A11.157,11.157,0,0,1,296.544,76a10.733,10.733,0,0,1-6.557,2.118H279.9Zm0,16.543-2.371,11.045h6.607a6.508,6.508,0,0,0,6.708-5.548,4.918,4.918,0,0,0-.605-4.085,4.548,4.548,0,0,0-3.783-1.463h-6.557ZM289.18,50.58l-2.017,9.583h6A5.758,5.758,0,0,0,297,58.9a5.983,5.983,0,0,0,1.967-3.531,4.223,4.223,0,0,0-.5-3.531,3.882,3.882,0,0,0-3.278-1.261Zm39.239,5.75c1.866,2.37,2.421,5.447,1.614,9.129a15.609,15.609,0,0,1-5.5,9.129,15.09,15.09,0,0,1-9.885,3.581c-3.732,0-6.506-1.21-8.423-3.581-1.866-2.37-2.37-5.4-1.614-9.129a15.764,15.764,0,0,1,5.5-9.129,15.175,15.175,0,0,1,9.936-3.531C323.779,52.749,326.553,53.959,328.419,56.33Zm-9.129-.1a11.026,11.026,0,0,0-7.212,2.522,11.548,11.548,0,0,0-3.934,6.708c-.605,2.774-.2,4.993,1.11,6.708,1.362,1.715,3.379,2.522,6.153,2.522a11.259,11.259,0,0,0,7.263-2.522,11.817,11.817,0,0,0,3.934-6.708c.605-2.774.252-4.993-1.11-6.708C324.132,57.086,322.064,56.229,319.29,56.229Zm37.978.1c1.866,2.37,2.421,5.447,1.614,9.129a15.608,15.608,0,0,1-5.5,9.129,15.091,15.091,0,0,1-9.885,3.581c-3.732,0-6.506-1.21-8.423-3.581-1.866-2.37-2.371-5.4-1.614-9.129a15.764,15.764,0,0,1,5.5-9.129A15.176,15.176,0,0,1,348.9,52.8C352.629,52.749,355.4,53.959,357.269,56.33Zm-9.129-.1a11.026,11.026,0,0,0-7.212,2.522,11.549,11.549,0,0,0-3.934,6.708c-.605,2.774-.2,4.993,1.11,6.708,1.362,1.715,3.379,2.522,6.153,2.522a11.259,11.259,0,0,0,7.263-2.522,11.817,11.817,0,0,0,3.934-6.708c.605-2.774.252-4.993-1.11-6.708C352.982,57.086,350.914,56.229,348.14,56.229Zm17.552,14.727a2.86,2.86,0,0,0,.555,2.673,4.25,4.25,0,0,0,3.177,1.11,5.864,5.864,0,0,0,3.631-1.11,4.163,4.163,0,0,0,1.715-2.673,2.254,2.254,0,0,0-1.11-2.37,13.769,13.769,0,0,0-3.177-1.463,15.983,15.983,0,0,1-4.64-2.32,4.615,4.615,0,0,1-1.311-4.791,8.549,8.549,0,0,1,3.48-5.3,9.926,9.926,0,0,1,6.1-1.967,6.809,6.809,0,0,1,5.245,1.967,5.659,5.659,0,0,1,1.261,5.3h-3.48a2.716,2.716,0,0,0-.605-2.673,4.25,4.25,0,0,0-3.177-1.11,6.089,6.089,0,0,0-3.631,1.11,4.1,4.1,0,0,0-1.664,2.673,2.216,2.216,0,0,0,1.059,2.37,15.761,15.761,0,0,0,3.228,1.463,15.983,15.983,0,0,1,4.64,2.32,4.615,4.615,0,0,1,1.311,4.791,8.578,8.578,0,0,1-3.48,5.245,9.885,9.885,0,0,1-6.052,1.967,6.809,6.809,0,0,1-5.245-1.967,5.581,5.581,0,0,1-1.21-5.245ZM401.9,52.749l-.757,3.48h-6.456l-4.64,21.94h-3.48l4.64-21.94h-6.456l.757-3.48H401.9Z" transform="translate(-138.73 -23.338)" fill="#071c3a"/>
      <path id="Path_526" data-name="Path 526" d="M75.1,2.919C52.4-5.2,37.121,6.1,36.768,6.349c2.824-1.564,31.573-10.188,47.41,6.506C91.541,20.622,91.945,28.54,90.23,35.9H65.869L64.1,44.226H78.075a16.169,16.169,0,0,1-7.011,7.212A14.094,14.094,0,0,1,62.389,53.1a9.423,9.423,0,0,1-6.859-3.884c-1.715-2.421-2.169-5.6-1.311-9.432a16.83,16.83,0,0,1,4.237-8.322,15.752,15.752,0,0,1,6.859-4.388,13.322,13.322,0,0,1,7.263-.4,9.172,9.172,0,0,1,5.6,3.581h.2l6.052-9.936q-4.842-3.783-12.559-3.783a27.591,27.591,0,0,0-18.056,6.506A28.828,28.828,0,0,0,43.728,39.737C42.265,46.5,43.274,52.094,46.7,56.432a15.6,15.6,0,0,0,4.691,4.035,68.623,68.623,0,0,1-21.183-8.322l-.2-.353c0,.05.05.151.05.2a32.143,32.143,0,0,1-4.237-1.311c2.421,1.765,10.692,8.826,22.7,12.357,5.951,1.765,12.962,3.379,21.486,2.471,1.311-.151,2.673-.353,4.035-.605A25.219,25.219,0,0,0,91.39,50.884C100.015,32.525,97.543,10.938,75.1,2.919ZM57.8,70.049c-16.089-1.866-32.935-13.517-34.7-15.03,0,0,15.635,20.477,43.375,18.308C84.43,71.915,90.28,63.089,90.785,62.837,88.364,64,76.36,72.168,57.8,70.049Zm-35.305-29c-2.32-1.513-3.48-.252-4.438,1.11-2.118-2.824-4.59-6-7.616-7.868A17.551,17.551,0,0,0,0,32.071a17.365,17.365,0,0,0,3.884,9.936c2.37,2.673,5.9,4.59,8.978,6.2-1.261,1.21-2.219,2.673-.252,4.691,2.875,2.925,8.473,3.682,8.675,3.379l-4.035-3.329a4.334,4.334,0,0,1,.05-2.27l.757.908A8.259,8.259,0,0,0,22.192,46.7l-1.059-.605a3.807,3.807,0,0,1,2.219-.4l3.984,3.379C27.689,48.866,25.874,43.318,22.494,41.049ZM8.372,39.182a2.289,2.289,0,1,1-.252-3.228A2.259,2.259,0,0,1,8.372,39.182Zm128.814-8.019,1.715-8.07-7.717,2.724-1.16,5.346H126.04l-1.261,6.052h3.984l-3.732,17.653h7.111l3.732-17.653h5.346l1.261-6.052h-5.3Zm-17.1,2.572c-1.866-2.32-4.59-3.531-8.221-3.531a14.615,14.615,0,0,0-9.684,3.531,15.373,15.373,0,0,0-5.447,8.978c-.757,3.631-.252,6.607,1.614,8.927,1.866,2.37,4.59,3.531,8.171,3.531a14.84,14.84,0,0,0,9.734-3.531,16.148,16.148,0,0,0,3.43-3.984h-8.019a5.218,5.218,0,0,1-5.094,1.412,3.8,3.8,0,0,1-2.976-3.531h17.3c.353-1.16.605-2.118.757-2.824C122.459,39.082,121.9,36.106,120.088,33.735Zm-15.433,6.557a8.108,8.108,0,0,1,2.572-2.925,5.488,5.488,0,0,1,3.379-1.16,3.951,3.951,0,0,1,2.925,1.16,4.464,4.464,0,0,1,1.311,2.925Z" transform="translate(0 0.013)" fill="url(#linear-gradient)"/>
      <g id="Group_574" data-name="Group 574" transform="translate(97.089 59.269)">
        <path id="Path_527" data-name="Path 527" d="M198.048,126.729a2.8,2.8,0,0,0-.555-1.917,2.13,2.13,0,0,0-1.614-.605H192.5V123.4h3.581c1.967,0,2.976,1.11,2.976,3.329v10.138H198.1V126.729Z" transform="translate(-192.5 -120.424)" fill="#071c3a"/>
        <path id="Path_528" data-name="Path 528" d="M216.408,120.526v.857l-3.581,9.028h-.958l3.531-9.078h-5.7V117.5h.958v3.026h5.75Z" transform="translate(-201.025 -117.5)" fill="#071c3a"/>
        <path id="Path_529" data-name="Path 529" d="M233.711,131.62c-1.311,1.261-3.228,1.917-5.851,1.967L226.6,123.5h.958l.656,5.346a5.677,5.677,0,0,0,1.412-1.009,2.92,2.92,0,0,0,.757-1.261,8.985,8.985,0,0,0,.3-1.967V123.55h.958v1.009a7.038,7.038,0,0,1-.4,2.27,3.753,3.753,0,0,1-1.059,1.564,8,8,0,0,1-1.866,1.261l.353,3.026a6.689,6.689,0,0,0,4.489-1.816,6.932,6.932,0,0,0,1.513-4.892V123.5h.958v2.421C235.678,128.443,235.023,130.359,233.711,131.62Z" transform="translate(-209.401 -120.474)" fill="#071c3a"/>
        <path id="Path_530" data-name="Path 530" d="M258.674,132.628a6.589,6.589,0,0,0,1.664-.454,2.846,2.846,0,0,0,1.16-1.261,7.382,7.382,0,0,0,.605-2.522l.3-3.984H255.9V123.6h7.565l-.05.757-.3,3.934a5.8,5.8,0,0,1-1.311,3.833,4.241,4.241,0,0,1-3.026,1.362ZM256,128.291l.151-1.21h.857v9.986H256Z" transform="translate(-223.924 -120.523)" fill="#071c3a"/>
        <path id="Path_531" data-name="Path 531" d="M280.954,131.974a9.2,9.2,0,0,1-5.044,1.513l-1.11-9.28-.1-.807h4.691a2.94,2.94,0,0,1,2.371.958,4.245,4.245,0,0,1,.908,2.673v.5C282.82,129.654,282.215,131.117,280.954,131.974Zm-.5-.706c.958-.706,1.362-1.967,1.311-3.682v-.4a3.223,3.223,0,0,0-.656-2.118,2.048,2.048,0,0,0-1.765-.807H275.81l1.009,8.322A7.1,7.1,0,0,0,280.45,131.268Z" transform="translate(-233.242 -120.424)" fill="#071c3a"/>
        <path id="Path_532" data-name="Path 532" d="M301.366,123.5a37.066,37.066,0,0,1-.3,5.548,4.785,4.785,0,0,1-1.311,2.824,6.2,6.2,0,0,1-3.228,1.412l-2.673.555-.151-.807,2.875-.555.4-.1-2.421-8.877h1.009l2.32,8.625a3.24,3.24,0,0,0,1.715-1.412,6.539,6.539,0,0,0,.656-2.471c.1-1.009.151-2.623.151-4.741h.958Z" transform="translate(-242.659 -120.474)" fill="#071c3a"/>
        <path id="Path_533" data-name="Path 533" d="M319.308,120.526v.857l-3.581,9.028h-.958l3.531-9.078h-5.7V117.5h.958v3.026h5.75Z" transform="translate(-252.026 -117.5)" fill="#071c3a"/>
        <path id="Path_534" data-name="Path 534" d="M336.6,123.3h1.009l1.11,9.129a5.78,5.78,0,0,0,3.531-1.463,4.739,4.739,0,0,0,1.311-3.833v-.4a3.053,3.053,0,0,0-.605-1.967,2.486,2.486,0,0,0-1.866-.807l-.908-.05.05-.807.958.05a3.124,3.124,0,0,1,3.278,3.379v.5a5.3,5.3,0,0,1-1.765,4.59,8.284,8.284,0,0,1-4.943,1.664Z" transform="translate(-263.922 -120.276)" fill="#071c3a"/>
        <path id="Path_535" data-name="Path 535" d="M362.154,131.974a9.2,9.2,0,0,1-5.044,1.513l-1.11-9.28-.1-.807h4.691a2.94,2.94,0,0,1,2.37.958,4.245,4.245,0,0,1,.908,2.673v.5C364.02,129.654,363.415,131.117,362.154,131.974Zm-.5-.706c.958-.706,1.362-1.967,1.311-3.682v-.4a3.223,3.223,0,0,0-.656-2.118,2.048,2.048,0,0,0-1.765-.807H357.01l1.009,8.322A7.277,7.277,0,0,0,361.65,131.268Z" transform="translate(-273.488 -120.424)" fill="#071c3a"/>
        <path id="Path_536" data-name="Path 536" d="M376.452,125.518,376.2,123.4h.958l.252,2.118v7.767H376.4v-7.767Z" transform="translate(-283.549 -120.424)" fill="#071c3a"/>
        <path id="Path_537" data-name="Path 537" d="M390.916,132.478v.807H383.3v-.807h5.346v-5.75a2.8,2.8,0,0,0-.555-1.917,2.13,2.13,0,0,0-1.614-.605H383.35V123.4h3.329c1.967,0,2.976,1.11,2.976,3.329v5.75Z" transform="translate(-287.068 -120.424)" fill="#071c3a"/>
        <path id="Path_538" data-name="Path 538" d="M409.752,125.518,409.5,123.4h.958l.252,2.118v11.4H409.7v-11.4Z" transform="translate(-300.054 -120.424)" fill="#071c3a"/>
        <path id="Path_539" data-name="Path 539" d="M415.5,132.881a1.944,1.944,0,0,0,1.513-.656,2.208,2.208,0,0,0,.4-1.614V123.5H421.5c1.967,0,2.976,1.11,2.976,3.329v6.557h-.958v-6.557a2.8,2.8,0,0,0-.555-1.917,2.13,2.13,0,0,0-1.614-.605h-2.925v6.2a3.241,3.241,0,0,1-.656,2.219,2.943,2.943,0,0,1-2.118.857Z" transform="translate(-303.028 -120.474)" fill="#071c3a"/>
      </g>
    </g>
    <path id="Path_540" data-name="Path 540" d="M127.671,50.906a24.991,24.991,0,0,1-17.35,14.021c-1.412.252-2.724.5-4.035.605,18.107-14.374,20.225-29.505,20.225-29.505l-.05-.151h.151c1.564-6.557,1.412-13.567-3.833-20.527a32.622,32.622,0,0,0-2.169-2.572C104.722-3.918,76.024,4.706,73.2,6.27c.353-.252,15.635-11.5,38.331-3.43,9.179,3.278,15.03,8.826,18.107,15.484C133.975,28.058,132.765,40.012,127.671,50.906Z" transform="translate(-36.281 0)" fill="url(#linear-gradient-2)"/>
  </g>
</svg>
