<svg xmlns="http://www.w3.org/2000/svg" width="80" height="81" viewBox="0 0 80 81"><g><g><g><g><g><path fill="#fff" d="M77.358 34.107c0 .366-.145.716-.403.975L34.263 77.774a1.377 1.377 0 0 1-1.948 0L3.158 48.617a1.377 1.377 0 0 1 0-1.947L45.85 3.977a1.39 1.39 0 0 1 .974-.403H75.98c.76 0 1.377.616 1.377 1.377zM46.824.819a4.105 4.105 0 0 0-2.921 1.21L1.21 44.723a4.132 4.132 0 0 0 0 5.843l29.158 29.157a4.132 4.132 0 0 0 5.842 0l42.692-42.693a4.106 4.106 0 0 0 1.21-2.922V4.95a4.131 4.131 0 0 0-4.13-4.132z"/></g></g></g><g><g><g><path fill="#fff" d="M62.21 22.854a4.131 4.131 0 1 1 0-8.263 4.131 4.131 0 0 1 0 8.263zm0-11.017a6.886 6.886 0 1 0 6.885 6.886 6.894 6.894 0 0 0-6.885-6.886z"/></g></g></g><g><g><g><path fill="#fff" d="M69.263 49.738L54.084 77.569a1.377 1.377 0 0 1-1.868.549l-.024-.013-7.197-4.114-1.377 2.391 7.2 4.115a4.103 4.103 0 0 0 3.177.393 4.099 4.099 0 0 0 2.5-1.997l15.187-27.836z"/></g></g></g><g><g><g><path fill="#fff" d="M30.938 30.713l-2.754-2.754 1.948-1.947 2.753 2.753z"/></g></g></g><g><g><g><path fill="#fff" d="M36.446 36.222l-2.754-2.754 1.948-1.948 2.754 2.754z"/></g></g></g><g><g><g><path fill="#fff" d="M41.955 41.73L39.2 38.976l1.947-1.947 2.754 2.754z"/></g></g></g><g><g><g><path fill="#fff" d="M47.463 47.239l-2.754-2.754 1.948-1.948 2.754 2.754z"/></g></g></g><g><g><g><path fill="#fff" d="M52.971 52.748l-2.753-2.754 1.947-1.948L54.92 50.8z"/></g></g></g><g><g><g><path fill="#fff" d="M39.771 59.634a5.277 5.277 0 0 0 0-7.456l-2.754-2.754a5.277 5.277 0 0 0-7.456 0l-2.755 2.754a2.58 2.58 0 0 1-3.56 0l-2.755-2.754a2.52 2.52 0 0 1 0-3.562l2.754-2.754a2.58 2.58 0 0 1 3.561 0l1.948-1.947a5.277 5.277 0 0 0-7.456 0l-.404.403-1.78-1.78-1.948 1.947 1.781 1.78-.404.404a5.277 5.277 0 0 0 0 7.456l2.755 2.755a5.277 5.277 0 0 0 7.456 0l2.754-2.755a2.58 2.58 0 0 1 3.562 0l2.754 2.755a2.52 2.52 0 0 1 0 3.56l-2.754 2.755a2.58 2.58 0 0 1-3.562 0l-1.947 1.948a5.277 5.277 0 0 0 7.456 0l.403-.404 1.781 1.78 1.947-1.947-1.78-1.78z"/></g></g></g><g><g><g><path fill="#fff" d="M35.64 25.206l-1.948-1.948 8.263-8.262 1.947 1.947z"/></g></g></g><g><g><g><path fill="#fff" d="M41.148 30.709L39.2 28.761l8.263-8.262 1.948 1.947z"/></g></g></g><g><g><g><path fill="#fff" d="M46.657 36.218l-1.948-1.948 8.263-8.263 1.947 1.948z"/></g></g></g><g><g><g><path fill="#fff" d="M52.165 41.726l-1.948-1.947 8.263-8.263 1.948 1.948z"/></g></g></g><g><g><g><path fill="#fff" d="M57.673 47.235l-1.947-1.948 8.263-8.262 1.947 1.947z"/></g></g></g></g></g></svg>