<svg xmlns="http://www.w3.org/2000/svg" width="54" height="81" viewBox="0 0 54 81"><g><g><g><path fill="#fff" d="M26.727 51.6c-7.377-.007-13.356-5.986-13.364-13.363v-10.69H40.09v10.69c0 1.84-.383 3.66-1.123 5.345h-4.222v2.673h2.647a13.337 13.337 0 0 1-10.665 5.346zM50.78 78.328h-5.345V64.964h-2.673v13.363h-14.7V62.123c.182-.053.36-.116.535-.189.08-.03.164-.05.243-.085a5.36 5.36 0 0 0 .842-.458c.057-.04.107-.087.163-.134.203-.145.395-.304.576-.476.08-.077.152-.163.227-.246.143-.152.277-.313.4-.48.072-.1.135-.2.201-.304.108-.173.205-.351.292-.534.052-.11.104-.218.148-.332a5.27 5.27 0 0 0 .196-.633c.027-.103.06-.202.08-.308.067-.329.102-.663.106-.998v-2.673H44.1a6.69 6.69 0 0 1 6.682 6.682zm-40.09 0V64.964H8.018v13.363H2.673V60.955a6.69 6.69 0 0 1 6.681-6.682h12.028v2.673A5.345 5.345 0 0 0 25.39 62.1v16.226zM29.4 54.273v2.673a2.673 2.673 0 0 1-5.346 0v-2.673zm-20.046-14.7a1.336 1.336 0 0 1-1.336-1.336V30.22a1.336 1.336 0 0 1 2.673 0v8.018c0 .738-.599 1.336-1.337 1.336zm-6.681-4.009v-2.672c0-.738.598-1.337 1.336-1.337h1.336v5.346H4.01a1.336 1.336 0 0 1-1.336-1.337zm5.345-21.019v4.983a7.992 7.992 0 0 0 2.673 5.96v.97a3.963 3.963 0 0 0-1.337-.248 4.01 4.01 0 0 0-3.763 2.673h-.246v-4.01a21.236 21.236 0 0 1 2.673-10.328zM26.727 3.492c11.803.013 21.368 9.578 21.381 21.382v4.009h-.246A4.01 4.01 0 0 0 44.1 26.21a3.961 3.961 0 0 0-1.336.246v-2.919a8.028 8.028 0 0 0-8.018-8.018H16.036a5.333 5.333 0 0 1-5.29-4.801 21.313 21.313 0 0 1 15.98-7.226zM50.78 35.564c0 .738-.598 1.337-1.336 1.337h-1.337v-5.346h1.337c.738 0 1.336.599 1.336 1.337zm-6.682 4.01a1.336 1.336 0 0 1-1.336-1.337V30.22a1.336 1.336 0 0 1 2.673 0v8.018c0 .738-.599 1.336-1.337 1.336zm-2.239 3.92a15.97 15.97 0 0 0 .485-1.67c.136.067.275.125.418.176v.246a1.327 1.327 0 0 1-.903 1.248zM10.69 19.528v-3.384a7.984 7.984 0 0 0 5.346 2.048h18.709a5.346 5.346 0 0 1 5.345 5.345v1.337H16.036a5.346 5.346 0 0 1-5.345-5.346zm30.737 26.727a4.01 4.01 0 0 0 4.009-4.009V42a4.005 4.005 0 0 0 2.426-2.427h1.583a4.01 4.01 0 0 0 4.009-4.009v-2.672a4.01 4.01 0 0 0-2.673-3.763v-4.255c0-13.285-10.77-24.055-24.054-24.055C13.442.82 2.673 11.59 2.673 24.874v4.255A4.01 4.01 0 0 0 0 32.892v2.672a4.01 4.01 0 0 0 4.009 4.01h1.582a4.01 4.01 0 0 0 3.763 2.672 3.96 3.96 0 0 0 1.755-.422 16.073 16.073 0 0 0 6.772 9.777H9.354A9.365 9.365 0 0 0 0 60.954V81h53.454V60.955a9.365 9.365 0 0 0-9.355-9.355h-8.527a16.14 16.14 0 0 0 5.02-5.345z"/></g><g><path fill="#fff" d="M21.381 35.564h2.673v-1.336a4.01 4.01 0 0 0-8.018 0v1.336h2.673v-1.336a1.336 1.336 0 0 1 2.672 0z"/></g><g><path fill="#fff" d="M34.745 35.564h2.673v-1.336a4.01 4.01 0 0 0-8.018 0v1.336h2.672v-1.336a1.336 1.336 0 0 1 2.673 0z"/></g><g><path fill="#fff" d="M29.4 43.582a2.673 2.673 0 0 1-5.346 0zm-8.018 0a5.346 5.346 0 0 0 10.69 0V40.91h-10.69z"/></g><g><path fill="#fff" d="M30.736 64.964h2.673v2.673h-2.673z"/></g><g><path fill="#fff" d="M30.736 71.646h2.673v2.672h-2.673z"/></g></g></g></svg>