<svg xmlns="http://www.w3.org/2000/svg" width="81" height="81" viewBox="0 0 81 81"><g><g><g><path fill="#fff" d="M16.043 38.237h18.709v2.673H16.043z"/></g><g><path fill="#fff" d="M16.043 43.583h24.054v2.672H16.043z"/></g><g><path fill="#fff" d="M16.043 48.928H32.08V51.6H16.043z"/></g><g><path fill="#fff" d="M16.043 54.273h29.4v2.673h-29.4z"/></g><g><path fill="#fff" d="M77.515 21.434A27.93 27.93 0 0 1 66.982 43.35l-8.176 6.538-8.175-6.54a27.928 27.928 0 0 1-10.534-21.914v-8.828l3.562-.712a30.63 30.63 0 0 0 15.147-7.868 30.63 30.63 0 0 0 15.148 7.862l3.561.718zM72.17 67.637H8.025v-40.09c0-.739.598-1.337 1.336-1.337h28.44c.142.902.32 1.793.535 2.673h-26.14c-.738 0-1.336.598-1.336 1.336v33.409c0 .738.598 1.336 1.336 1.336H68.16c.738 0 1.336-.598 1.336-1.336V44.72a30.974 30.974 0 0 0 2.673-2.587zM34.98 70.31h10.234a4.017 4.017 0 0 1-3.78 2.672H38.76a4.018 4.018 0 0 1-3.78-2.672zm42.535 4.009a4.009 4.009 0 0 1-4.009 4.009H6.69a4.01 4.01 0 0 1 0-8.018h25.524a6.694 6.694 0 0 0 6.548 5.345h2.673a6.694 6.694 0 0 0 6.548-5.345h25.524a4.009 4.009 0 0 1 4.01 4.009zM48.961 45.434l9.01 7.21c.488.39 1.182.39 1.67 0l7.183-5.746v15.393H13.532V31.555h25.593a30.631 30.631 0 0 0 9.836 13.88zm30.158-35.233l-4.635-.928a27.982 27.982 0 0 1-14.341-7.675l-.388-.387a1.336 1.336 0 0 0-1.89 0l-.387.387a27.984 27.984 0 0 1-14.344 7.675l-4.64.928a1.336 1.336 0 0 0-1.07 1.31v9.923c0 .706.033 1.406.08 2.103H9.36a4.01 4.01 0 0 0-4.009 4.01V67.77A6.682 6.682 0 0 0 6.69 81h66.817a6.682 6.682 0 0 0 1.336-13.23V38.76a30.589 30.589 0 0 0 5.346-17.327V11.51c0-.635-.446-1.183-1.069-1.31z"/></g><g><path fill="#fff" d="M64.475 38.615l-4.332 3.465V24.874h11.83a21.609 21.609 0 0 1-7.498 13.74zM45.552 24.874zm11.918 0v17.321l-4.477-3.58a20 20 0 0 1-7.44-13.741zm-9.718-8.576a22.724 22.724 0 0 0 9.718-4.521v10.424H45.443v-5.442zm24.418.37v5.533H60.143V11.889a22.788 22.788 0 0 0 9.637 4.42zm-1.927-2.99a20.054 20.054 0 0 1-10.28-5.502l-.282-.282a1.338 1.338 0 0 0-1.889-.003l-.284.283a20.047 20.047 0 0 1-10.28 5.504l-3.382.674a1.335 1.335 0 0 0-1.069 1.311v7.242c0 .18.025.353.03.534 0 .036-.02.066-.02.102.007.06.018.12.035.179a22.654 22.654 0 0 0 8.5 16.981l6.577 5.261c.237.19.531.293.835.293.014 0 .027-.006.04-.006.014 0 .02.006.032.006.122-.007.242-.031.356-.072h.01c.254-.072.48-.218.649-.42l6.325-5.06A24.465 24.465 0 0 0 74.842 22.2v-6.682c0-.662-.483-1.223-1.137-1.322z"/></g></g></g></svg>