<svg xmlns="http://www.w3.org/2000/svg" width="81" height="81" viewBox="0 0 81 81"><g><g><g><g><g><path fill="#fff" d="M40.09 78.327c-20.665 0-37.417-16.752-37.417-37.417 0-20.666 16.752-37.418 37.417-37.418 20.666 0 37.418 16.752 37.418 37.418-.024 20.655-16.762 37.394-37.418 37.417zm0-77.508C17.95.82 0 18.77 0 40.91 0 63.052 17.95 81 40.09 81c22.142 0 40.09-17.95 40.09-40.09C80.157 18.779 62.222.844 40.09.82z"/></g></g></g><g><g><g><path fill="#fff" d="M40.09 72.982c-17.713 0-32.072-14.36-32.072-32.072 0-17.713 14.36-32.073 32.072-32.073 17.713 0 32.073 14.36 32.073 32.073-.02 17.704-14.368 32.051-32.073 32.072zm0-66.817C20.901 6.165 5.345 21.72 5.345 40.91S20.901 75.655 40.09 75.655c19.19 0 34.745-15.556 34.745-34.745C74.814 21.73 59.271 6.186 40.09 6.165z"/></g></g></g><g><g><g><path fill="#fff" d="M9.208 42v-2h6v2z"/></g></g></g><g><g><g><path fill="#fff" d="M65.208 42v-2h5v2z"/></g></g></g><g><g><g><path fill="#fff" d="M14.138 57.437l-1.336-2.314 4.63-2.672 1.336 2.314z"/></g></g></g><g><g><g><path fill="#fff" d="M62.748 29.372l-1.336-2.315 4.63-2.672 1.336 2.314z"/></g></g></g><g><g><g><path fill="#fff" d="M17.433 29.37l-4.63-2.671 1.337-2.315 4.63 2.672z"/></g></g></g><g><g><g><path fill="#fff" d="M66.043 57.428l-4.63-2.672 1.336-2.315 4.63 2.672z"/></g></g></g><g><g><g><path fill="#fff" d="M26.232 19.59l-2.672-4.63 2.315-1.337 2.672 4.63z"/></g></g></g><g><g><g><path fill="#fff" d="M39.208 16v-6h2v6z"/></g></g></g><g><g><g><path fill="#fff" d="M53.942 19.587l-2.315-1.336 2.672-4.63 2.315 1.336z"/></g></g></g><g><g><g><path fill="#fff" d="M13.927 35.282l-3.872-1.038.692-2.581 3.872 1.037z"/></g></g></g><g><g><g><path fill="#fff" d="M69.424 50.153l-3.872-1.038.691-2.581 3.873 1.037z"/></g></g></g><g><g><g><path fill="#fff" d="M20.247 22.955l-2.835-2.834 1.89-1.89 2.835 2.835z"/></g></g></g><g><g><g><path fill="#fff" d="M31.876 15.44l-1.038-3.872 2.582-.691 1.038 3.872z"/></g></g></g><g><g><g><path fill="#fff" d="M48.296 15.447l-2.582-.691 1.038-3.873 2.582.692z"/></g></g></g><g><g><g><path fill="#fff" d="M59.934 22.96l-1.89-1.89 2.835-2.835 1.89 1.89z"/></g></g></g><g><g><g><path fill="#fff" d="M66.259 35.282l-.692-2.582 3.872-1.037.692 2.582z"/></g></g></g><g><g><g><path fill="#fff" d="M10.747 50.155l-.692-2.582 3.872-1.037.692 2.581z"/></g></g></g><g><g><g><path fill="#fff" d="M45.76 18.921c-12.15-3.13-24.537 4.183-27.666 16.333a22.718 22.718 0 0 0 2.319 17.014 1.336 1.336 0 0 0 2.313-1.336c-5.529-9.591-2.235-21.848 7.356-27.377S51.93 21.32 57.459 30.91a20.045 20.045 0 0 1 2.045 15.012 1.337 1.337 0 0 0 2.59.669v-.004C65.222 34.438 57.91 22.05 45.76 18.92z"/></g></g></g><g><g><g><path fill="#fff" d="M43.732 44.801a5.313 5.313 0 0 0 1.515-2.562l6.737 5.505zm-3.642-1.219a2.673 2.673 0 1 1 0-5.345 2.673 2.673 0 0 1 0 5.345zm19.555 6.984l-14.7-12.027a1.253 1.253 0 0 0-.124-.067 5.33 5.33 0 1 0-5.051 7.751l18.575 6.635a1.337 1.337 0 0 0 1.3-2.292z"/></g></g></g><g><g><g><path fill="#fff" d="M45.436 64.964H34.745a4.009 4.009 0 1 1 0-8.018h10.69a4.009 4.009 0 1 1 0 8.018zm0-10.69H34.745a6.682 6.682 0 0 0 0 13.363h10.69a6.682 6.682 0 0 0 0-13.364z"/></g></g></g><g><g><g><path fill="#fff" d="M37.418 59.618h-2.673a1.336 1.336 0 0 0 0 2.673h2.673a1.336 1.336 0 0 0 0-2.673z"/></g></g></g><g><g><g><path fill="#fff" d="M45.436 59.618h-2.673a1.336 1.336 0 0 0 0 2.673h2.673a1.336 1.336 0 0 0 0-2.673z"/></g></g></g></g></g></svg>