<svg xmlns="http://www.w3.org/2000/svg" width="67" height="81" viewBox="0 0 67 81"><g><g><g><g><g><path fill="#fff" d="M54.094 68.57a1.383 1.383 0 0 0-1.5.99l-2.024 7.06-7.263-9.34.475-.439a28.092 28.092 0 0 1 4.604-3.734 29.599 29.599 0 0 1 5.745-2.245l.765-.244 6.94 8.919zm-20.915 1.37c-3.193 0-5.88-2.488-8.724-5.125a30.473 30.473 0 0 0-5.1-4.102 32.054 32.054 0 0 0-6.294-2.488c-3.654-1.16-7.106-2.255-8.621-4.873-1.446-2.501-.7-5.986.092-9.677.57-2.264.905-4.58.999-6.913a33.84 33.84 0 0 0-.997-6.912c-.792-3.69-1.539-7.175-.093-9.677 1.52-2.618 4.967-3.713 8.621-4.873a32.063 32.063 0 0 0 6.293-2.488 30.471 30.471 0 0 0 5.098-4.102c2.847-2.637 5.533-5.126 8.726-5.126 3.193 0 5.88 2.489 8.725 5.126a30.473 30.473 0 0 0 5.1 4.102 32.054 32.054 0 0 0 6.293 2.488c3.654 1.16 7.106 2.255 8.621 4.873 1.446 2.501.7 5.986-.092 9.677a33.854 33.854 0 0 0-.998 6.912c.093 2.333.427 4.649.996 6.913.792 3.69 1.539 7.174.093 9.677-1.52 2.618-4.967 3.713-8.62 4.873a32.063 32.063 0 0 0-6.294 2.488 30.472 30.472 0 0 0-5.098 4.102c-2.846 2.637-5.533 5.126-8.726 5.126zm-17.39 6.68l-2.018-7.06a1.383 1.383 0 0 0-1.5-.99l-7.741.967 6.938-8.92.765.245a29.597 29.597 0 0 1 5.74 2.245 28.085 28.085 0 0 1 4.604 3.733l.476.44zm50.278-6.144L57.655 59.66a12.176 12.176 0 0 0 6.655-4.927c1.98-3.424 1.085-7.603.218-11.64a31.793 31.793 0 0 1-.936-6.332c.098-2.138.412-4.261.936-6.337.862-4.04 1.763-8.215-.218-11.634-2.052-3.545-6.182-4.857-10.178-6.123a29.606 29.606 0 0 1-5.746-2.25 28.085 28.085 0 0 1-4.605-3.733C40.817 3.934 37.456.819 33.179.819s-7.638 3.115-10.603 5.865a28.091 28.091 0 0 1-4.604 3.734 29.598 29.598 0 0 1-5.745 2.245C8.232 13.929 4.101 15.24 2.05 18.785.069 22.21.964 26.39 1.83 30.425c.524 2.076.837 4.199.935 6.337A31.783 31.783 0 0 1 1.83 43.1c-.861 4.04-1.763 8.216.218 11.635A12.176 12.176 0 0 0 8.71 59.66L.291 70.474a1.382 1.382 0 0 0 1.264 2.22l9.884-1.234 2.44 8.538a1.382 1.382 0 0 0 2.42.468l8.829-11.355a12.783 12.783 0 0 0 8.051 3.594 12.783 12.783 0 0 0 8.051-3.594l8.828 11.351a1.382 1.382 0 0 0 1.355.513c.511-.099.923-.477 1.066-.977l2.44-8.537 9.884 1.235a1.382 1.382 0 0 0 1.264-2.22z"/></g></g></g><g><g><g><path fill="#fff" d="M33.18 58.881c-12.217 0-22.12-9.903-22.12-22.119 0-12.215 9.903-22.118 22.12-22.118 12.215 0 22.118 9.903 22.118 22.118-.015 12.21-9.909 22.105-22.119 22.12zm0-47.002c-13.744 0-24.885 11.14-24.885 24.883 0 13.743 11.141 24.884 24.884 24.884s24.884-11.14 24.884-24.884c-.016-13.736-11.148-24.867-24.884-24.883z"/></g></g></g><g><g><g><path fill="#fff" d="M39.231 38.182a1.383 1.383 0 0 0-.502 1.547l2.928 9.01-7.665-5.568a1.382 1.382 0 0 0-1.624 0l-7.666 5.569 2.927-9.01a1.383 1.383 0 0 0-.502-1.546l-7.664-5.569h9.473c.6 0 1.13-.386 1.315-.955l2.928-9.01 2.928 9.009c.185.57.716.955 1.315.955l9.473.001zm9.898-7.194a2.764 2.764 0 0 0-2.234-1.138h-8.463l-2.626-8.055a2.765 2.765 0 0 0-5.254 0l-2.62 8.055h-8.47a2.765 2.765 0 0 0-1.628 5l6.851 4.977-2.616 8.056a2.765 2.765 0 0 0 4.255 3.09l6.855-4.975 6.853 4.977a2.726 2.726 0 0 0 3.251 0 2.725 2.725 0 0 0 1.004-3.091l-2.617-8.057 6.851-4.976a2.765 2.765 0 0 0 .608-3.863z"/></g></g></g></g></g></svg>