<svg xmlns="http://www.w3.org/2000/svg" width="81" height="81" viewBox="0 0 81 81"><g><g><g><path fill="#fff" d="M77.508 78.327H60.136v-40.09h17.372zM41.427 46.255h16.036v32.072H41.427zm-18.71 8.018h16.037v24.054H22.718zM2.674 62.291h17.372v16.036H2.673zm38.754-18.709v-5.345h5.345v5.345zm-6.682-24.054H29.4a4.014 4.014 0 0 1-4.01-4.009V3.492h2.673v12.027c0 .738.599 1.336 1.337 1.336h29.4v2.673H45.435c-.738 0-1.337.598-1.337 1.337v10.69c0 .738.599 1.337 1.337 1.337h2.672a4.014 4.014 0 0 1 4.01 4.009v6.681h-2.673v-6.681c0-.738-.599-1.337-1.337-1.337H40.09c-.738 0-1.336.599-1.336 1.337v14.7h-2.673V20.864c0-.739-.598-1.337-1.336-1.337zm2.673-8.018V8.837a2.673 2.673 0 0 1 5.345 0v2.673a2.673 2.673 0 1 1-5.345 0zm20.045-2.673V3.492h5.345v5.345a2.673 2.673 0 0 1-5.345 0zm-4.01 0a1.338 1.338 0 0 1-1.336-1.336V6.165h2.673v2.672zm14.7-2.672V7.5c0 .738-.598 1.336-1.336 1.336h-1.336V6.165zm-5.345 17.372v1.337h-5.345v-1.337c0-.738.598-1.335 1.336-1.336h2.673c.738 0 1.335.598 1.336 1.336zm16.036 12.027H58.8c-.738 0-1.336.599-1.336 1.337v6.681H54.79v-6.681a6.69 6.69 0 0 0-6.682-6.682h-1.336V22.2h8.264c-.158.428-.241.88-.246 1.336v2.673c0 .738.598 1.336 1.336 1.336h8.019c.738 0 1.336-.598 1.336-1.336v-2.673a4.014 4.014 0 0 0-4.01-4.009v-5.535a5.334 5.334 0 0 0 3.266-2.483h2.08a4.014 4.014 0 0 0 4.01-4.009V4.828c0-.738-.599-1.336-1.337-1.336h-4.01V2.156c0-.738-.597-1.337-1.335-1.337h-8.019c-.738 0-1.336.599-1.336 1.337v1.336h-4.009c-.738 0-1.336.598-1.336 1.336v2.673a4.014 4.014 0 0 0 4.009 4.01h2.08a5.334 5.334 0 0 0 3.265 2.482v.19H44.692a5.284 5.284 0 0 0 .744-2.673V8.837a5.345 5.345 0 0 0-10.691 0v2.673c.005.941.262 1.864.743 2.673h-4.752V2.156c0-.738-.598-1.337-1.336-1.337h-5.346c-.738 0-1.336.599-1.336 1.337v13.363a6.69 6.69 0 0 0 6.682 6.682h4.009v29.4H21.382c-.739 0-1.337.598-1.337 1.336v6.682H1.336c-.738 0-1.336.598-1.336 1.336v18.709C0 80.402.598 81 1.336 81h77.508c.738 0 1.337-.598 1.337-1.336V36.9c0-.738-.599-1.337-1.337-1.337z"/></g></g></g></svg>