<svg xmlns="http://www.w3.org/2000/svg" width="21" height="21" viewBox="0 0 21 21"><g><g><g><path fill="#fff" d="M8.219 17.746a.778.778 0 1 1-.002 1.556.778.778 0 0 1 .002-1.556zm8.096 0a.778.778 0 1 1-.002 1.556.778.778 0 0 1 .002-1.556zM20.752 4.76a.818.818 0 0 0-.634-.302H5.305l-.06-.557-.003-.018A4.474 4.474 0 0 0 .818 0a.818.818 0 1 0 0 1.636 2.834 2.834 0 0 1 2.801 2.45l.972 8.93a2.457 2.457 0 0 0-1.442 2.277c0 1.353 1.1 2.453 2.453 2.453h.333a2.415 2.415 0 0 0 2.284 3.19 2.415 2.415 0 0 0 2.284-3.19h3.528a2.415 2.415 0 0 0 2.284 3.19 2.415 2.415 0 0 0 2.413-2.413 2.415 2.415 0 0 0-2.413-2.412H5.602a.819.819 0 0 1-.818-.86c0-.45.367-.817.818-.817h10.44c1.452 0 2.784-.898 3.394-2.288a.818.818 0 0 0-1.497-.658c-.344.784-1.106 1.31-1.897 1.31h-9.83l-.729-6.705h13.629l-.4 1.918a.818.818 0 0 0 1.6.334l.606-2.903a.818.818 0 0 0-.166-.683z"/></g></g></g></svg>