<svg xmlns="http://www.w3.org/2000/svg" width="33" height="33" viewBox="0 0 33 33"><g><g><g><g><g><path fill="#fff" d="M26.931 26.93a1.013 1.013 0 0 1-1.428 0l-3.025-3.025a1.016 1.016 0 0 1-.294-.714v-4.033a1.009 1.009 0 0 1 2.017 0v3.616l2.73 2.73a1.01 1.01 0 0 1 0 1.426zm-3.739-12.814c-5.003 0-9.075 4.072-9.075 9.075 0 5.004 4.072 9.076 9.075 9.076 5.004 0 9.076-4.072 9.076-9.076 0-5.003-4.072-9.075-9.076-9.075z"/></g></g></g><g><g><g><path fill="#fff" d="M12.857 19.196c-.075-.084-.136-.181-.216-.262l-2.557-2.555-2.558 2.557A4.998 4.998 0 0 0 6.05 22.5v1.702h6.1c-.03-.333-.05-.67-.05-1.01 0-1.41.275-2.753.757-3.996z"/></g></g></g><g><g><g><path fill="#fff" d="M6.05 4.032v1.7c0 1.346.525 2.612 1.476 3.566l2.558 2.557 2.557-2.557a5.01 5.01 0 0 0 1.476-3.565v-1.7z"/></g></g></g><g><g><g><path fill="#fff" d="M19.159-.001H1.009a1.007 1.007 0 1 0 0 2.017h1.008v3.717c0 2.424.944 4.703 2.658 6.417l1.966 1.966-1.966 1.966A9.019 9.019 0 0 0 2.017 22.5v3.716H1.008a1.009 1.009 0 0 0 0 2.017l12.316-.002a10.923 10.923 0 0 1-.794-2.017l-8.497.002V22.5c0-1.886.735-3.657 2.068-4.992l2.68-2.678a1.016 1.016 0 0 0 0-1.428L6.1 10.724a7.013 7.013 0 0 1-2.068-4.991V2.016h12.1v3.717a7.016 7.016 0 0 1-2.066 4.991l-2.68 2.68a1.014 1.014 0 0 0 0 1.426l2.442 2.44c.365-.575.78-1.111 1.242-1.61l-1.545-1.544 1.966-1.968a9.007 9.007 0 0 0 2.659-6.415V2.016h1.008a1.009 1.009 0 0 0 0-2.017z"/></g></g></g></g></g></svg>