<svg xmlns="http://www.w3.org/2000/svg" width="61" height="56" viewBox="0 0 61 56"><g><g><g><g><g><path fill="#a02b75" d="M44.34 0h-28a8 8 0 0 0-8 8v18a8 8 0 0 0 8 8h8.73l4.33 7.48a1.08 1.08 0 0 0 1.88 0L35.61 34h8.73a8 8 0 0 0 8-8V8a8 8 0 0 0-8-8z"/></g><g><path fill="#d5d5d5" d="M60.17 51.38c0 2.43-13.47 4.39-30.08 4.39S0 53.81 0 51.38C0 48.95 13.47 47 30.09 47c16.62 0 30.08 2 30.08 4.38z"/></g><g><g><g><g><path fill="#fff" d="M30.184 21.62a5.297 5.297 0 0 1-5.29-5.29 5.297 5.297 0 0 1 5.29-5.29 5.297 5.297 0 0 1 5.29 5.29 5.297 5.297 0 0 1-5.29 5.29zm12.706-5.794c-.23-.257-5.77-6.298-12.706-6.298-6.937 0-12.476 6.041-12.706 6.298a.756.756 0 0 0 0 1.008c.23.257 5.769 6.298 12.706 6.298 6.937 0 12.475-6.041 12.706-6.298a.756.756 0 0 0 0-1.008z"/></g></g></g><g><g><g><path fill="#fff" d="M30.94 14.818c0-.76.377-1.429.951-1.84a3.73 3.73 0 0 0-1.707-.427 3.783 3.783 0 0 0-3.78 3.779 3.783 3.783 0 0 0 3.78 3.779 3.777 3.777 0 0 0 3.714-3.142c-1.522.49-2.958-.661-2.958-2.149z"/></g></g></g></g></g></g></g></g></svg>