<svg xmlns="http://www.w3.org/2000/svg" width="46" height="46" viewBox="0 0 46 46"><defs><linearGradient id="niw7a" x1="26.29" x2="26.29" y1="45.7" y2="45.79" gradientUnits="userSpaceOnUse"><stop offset="0" stop-color="#782ea0"/><stop offset="1" stop-color="#279ced"/></linearGradient><linearGradient id="niw7b" x1="26.91" x2="26.91" y1="45.63" y2="45.67" gradientUnits="userSpaceOnUse"><stop offset="0" stop-color="#782ea0"/><stop offset="1" stop-color="#279ced"/></linearGradient><linearGradient id="niw7c" x1="25.16" x2="25.16" y1="45.85" y2="45.92" gradientUnits="userSpaceOnUse"><stop offset="0" stop-color="#782ea0"/><stop offset="1" stop-color="#279ced"/></linearGradient><linearGradient id="niw7d" x1="25.78" x2="25.78" y1="45.8" y2="45.84" gradientUnits="userSpaceOnUse"><stop offset="0" stop-color="#782ea0"/><stop offset="1" stop-color="#279ced"/></linearGradient><linearGradient id="niw7e" x1="27.54" x2="27.54" y1="45.5" y2="45.55" gradientUnits="userSpaceOnUse"><stop offset="0" stop-color="#782ea0"/><stop offset="1" stop-color="#279ced"/></linearGradient><linearGradient id="niw7f" x1="29.11" x2="29.11" y1="45.12" y2="45.17" gradientUnits="userSpaceOnUse"><stop offset="0" stop-color="#782ea0"/><stop offset="1" stop-color="#279ced"/></linearGradient><linearGradient id="niw7g" x1="28.64" x2="28.64" y1="45.25" y2="45.3" gradientUnits="userSpaceOnUse"><stop offset="0" stop-color="#782ea0"/><stop offset="1" stop-color="#279ced"/></linearGradient><linearGradient id="niw7h" x1="28.02" x2="28.02" y1="45.4" y2="45.45" gradientUnits="userSpaceOnUse"><stop offset="0" stop-color="#782ea0"/><stop offset="1" stop-color="#279ced"/></linearGradient><linearGradient id="niw7i" x1="24.64" x2="24.64" y1="45.92" y2="45.95" gradientUnits="userSpaceOnUse"><stop offset="0" stop-color="#782ea0"/><stop offset="1" stop-color="#279ced"/></linearGradient><linearGradient id="niw7j" x1="22.89" x2="22.89" y1=".22" y2="46" gradientUnits="userSpaceOnUse"><stop offset="0" stop-color="#782ea0"/><stop offset="1" stop-color="#279ced"/></linearGradient><linearGradient id="niw7k" x1="24.05" x2="24.05" y1="45.95" y2="45.99" gradientUnits="userSpaceOnUse"><stop offset="0" stop-color="#782ea0"/><stop offset="1" stop-color="#279ced"/></linearGradient><linearGradient id="niw7l" x1="23.48" x2="23.48" y1="45.99" y2="46" gradientUnits="userSpaceOnUse"><stop offset="0" stop-color="#782ea0"/><stop offset="1" stop-color="#279ced"/></linearGradient></defs><g><g><g><path fill="url(#niw7a)" d="M26.582 45.702c-.191.031-.383.06-.575.086"/></g><g><path fill="url(#niw7b)" d="M27.04 45.624l-.274.048"/></g><g><path fill="url(#niw7c)" d="M25.496 45.852c-.223.025-.448.047-.673.066"/></g><g><path fill="url(#niw7d)" d="M25.936 45.798l-.323.04"/></g><g><path fill="url(#niw7e)" d="M27.663 45.5l-.242.05"/></g><g><path fill="url(#niw7f)" d="M29.21 45.116l-.196.054"/></g><g><path fill="url(#niw7g)" d="M28.742 45.244l-.213.055"/></g><g><path fill="url(#niw7h)" d="M28.13 45.397l-.226.05"/></g><g><path fill="url(#niw7i)" d="M24.816 45.919c-.121.01-.241.019-.362.027"/></g><g><path fill="url(#niw7j)" d="M45.781 23.11c0-12.64-10.25-22.891-22.89-22.891S0 10.469 0 23.109 10.25 46 22.89 46c.135 0 .269-.003.403-.005v-17.82h-4.918v-5.731h4.918v-4.218c0-4.89 2.986-7.553 7.35-7.553 2.089 0 3.885.156 4.408.225v5.112h-3.008c-2.374 0-2.834 1.128-2.834 2.784v3.65h5.676l-.74 5.731H29.21v16.94c9.568-2.742 16.572-11.557 16.572-22.006z"/></g><g><path fill="url(#niw7k)" d="M24.403 45.949a23.21 23.21 0 0 1-.717.036"/></g><g><path fill="url(#niw7l)" d="M23.673 45.985c-.126.005-.253.008-.38.01"/></g></g></g></svg>