<svg xmlns="http://www.w3.org/2000/svg" width="33" height="32" viewBox="0 0 33 32"><g><g><g><path fill="#0f8ff2" d="M19.007 31.38c-.132.022-.264.042-.397.06"/></g><g><path fill="#0f8ff2" d="M19.323 31.326c-.063.012-.126.023-.19.033"/></g><g><path fill="#0f8ff2" d="M18.258 31.484a16.31 16.31 0 0 1-.465.045"/></g><g><path fill="#0f8ff2" d="M18.561 31.446c-.074.01-.148.02-.223.028"/></g><g><path fill="#0f8ff2" d="M19.752 31.241l-.166.035"/></g><g><path fill="#0f8ff2" d="M20.82 30.976l-.135.037"/></g><g><path fill="#0f8ff2" d="M20.497 31.064l-.147.038"/></g><g><path fill="#0f8ff2" d="M20.075 31.17l-.156.035"/></g><g><path fill="#0f8ff2" d="M17.788 31.53l-.25.019"/></g><g><path fill="#0f8ff2" d="M32.253 15.793C32.253 7.073 25.181 0 16.46 0 7.74 0 .667 7.072.667 15.793c0 8.72 7.072 15.793 15.793 15.793.093 0 .185-.002.278-.004V19.288h-3.393v-3.954h3.393v-2.91c0-3.375 2.06-5.211 5.07-5.211 1.442 0 2.681.107 3.042.155v3.527h-2.076c-1.637 0-1.954.778-1.954 1.92v2.519h3.916l-.51 3.954H20.82v11.688c6.6-1.893 11.433-7.974 11.433-15.183z"/></g><g><path fill="#0f8ff2" d="M17.504 31.55c-.165.011-.33.02-.495.025"/></g><g><path fill="#0f8ff2" d="M17 31.576c-.087.003-.174.005-.262.006"/></g></g></g></svg>