<svg xmlns="http://www.w3.org/2000/svg" width="534" height="158" viewBox="0 0 534 158"><defs><clipPath id="dppma"><path fill="#fff" d="M279 121V47h255v74zm216.3-56.63l-1.5 6.9h12.8l-9.2 43.5h6.9l9.2-43.5h12.8l1.5-6.9zm-46 36.1c-.9 4.2-.1 7.7 2.4 10.4 2.4 2.6 5.9 3.9 10.4 3.9s8.5-1.3 12-3.9c3.7-2.7 6-6.2 6.9-10.4.9-4 0-7.2-2.6-9.5-1.6-1.4-4.6-2.9-9.2-4.6-3.2-1.2-5.3-2.1-6.4-2.9-1.8-1.3-2.5-2.9-2.1-4.7.4-2.2 1.5-4 3.3-5.3 2-1.4 4.3-2.2 7.2-2.2 2.9 0 4.9.8 6.3 2.2 1.3 1.3 1.7 3.1 1.2 5.3h6.9c.9-4.3 0-7.8-2.5-10.5-2.4-2.6-5.9-3.9-10.4-3.9-4.6 0-8.6 1.3-12.1 3.9-3.7 2.7-6 6.2-6.9 10.5-.9 4 0 7.2 2.6 9.5 1.6 1.4 4.6 2.9 9.2 4.6 3.1 1.1 5.2 2.1 6.3 2.9 1.8 1.3 2.6 2.9 2.2 4.7-.4 2.2-1.6 4-3.4 5.3-2 1.5-4.4 2.2-7.2 2.2-2.9 0-4.9-.8-6.3-2.2-1.2-1.4-1.6-3.1-1.1-5.3zm-28.1-29.2c5.5 0 9.6 1.7 12.3 5 2.7 3.4 3.4 7.8 2.2 13.3-1.2 5.5-3.8 9.9-7.8 13.3-4.1 3.3-8.9 5-14.4 5s-9.5-1.6-12.2-5c-2.6-3.4-3.4-7.8-2.2-13.3 1.1-5.5 3.8-9.9 7.8-13.3 4-3.3 8.8-5 14.3-5zm1.5-6.8c-7.4 0-14 2.3-19.7 7-5.7 4.7-9.3 10.7-10.9 18.1-1.5 7.4-.5 13.4 3.2 18.1 3.8 4.7 9.3 7.1 16.7 7.1 7.4 0 13.9-2.4 19.6-7.1 5.7-4.6 9.3-10.7 10.9-18.1 1.6-7.3.5-13.4-3.2-18.1-3.7-4.7-9.2-7.1-16.6-7zm-58.7 6.8c5.5 0 9.6 1.7 12.3 5 2.7 3.4 3.4 7.8 2.2 13.3-1.2 5.5-3.8 9.9-7.8 13.3-4.1 3.3-8.9 5-14.4 5s-9.5-1.6-12.2-5c-2.6-3.4-3.4-7.8-2.2-13.3 1.1-5.5 3.8-9.9 7.8-13.3 4-3.3 8.8-5 14.3-5zm1.5-6.8c-7.4 0-14 2.3-19.7 7-5.7 4.7-9.3 10.7-10.9 18.1-1.5 7.4-.5 13.4 3.2 18.1 3.8 4.7 9.3 7.1 16.7 7.1 7.4 0 13.9-2.4 19.6-7.1 5.7-4.6 9.3-10.7 10.9-18.1 1.6-7.3.5-13.4-3.2-18.1-3.7-4.7-9.2-7.1-16.6-7zm-49.3-4.4c3 0 5.2.8 6.5 2.5 1.3 1.7 1.6 4 1 7-.6 3-1.9 5.3-3.9 7-2 1.7-4.6 2.5-7.6 2.5h-11.9l4-19zm-17.3 25.8h13c3.5 0 6 1 7.5 2.9 1.5 2 1.9 4.7 1.2 8.1-.7 3.5-2.3 6.2-4.6 8.1-2.4 1.9-5.3 2.9-8.7 2.9h-13.1l4.7-21.9zm-13 28.8h20c4.9 0 9.2-1.4 13-4.2 3.4-2.5 5.9-5.7 7.5-9.6.5-1.3.8-2.5 1.1-3.7.6-2.5.6-4.9 0-7.2-.8-3.7-2.9-6.4-6.1-8.1 3.2-1.9 5.7-4.4 7.5-7.7.9-1.7 1.6-3.5 2-5.3.2-1.4.4-2.8.3-4.2-.2-3.3-1.4-6-3.5-8.1-2.4-2.3-5.7-3.4-10-3.4h-18.8z"/></clipPath><clipPath id="dppmb"><path fill="#fff" d="M0 157.84V.16h295v157.68zm213.5-71.87c1-2.1 2.7-4 5.1-5.8 2.1-1.6 4.4-2.3 6.7-2.3 2.4 0 4.3.8 5.8 2.3 1.6 1.7 2.5 3.6 2.6 5.8zm30.6-13c-3.7-4.6-9.1-7-16.3-7-7.2 0-13.6 2.3-19.2 7-5.7 4.7-9.3 10.6-10.8 17.8-1.5 7.2-.5 13.1 3.2 17.7 3.7 4.7 9.1 7 16.2 7 7.2 0 13.6-2.3 19.3-7 2.7-2.3 5-4.9 6.8-7.9h-15.9c-3.3 2.9-6.7 3.8-10.1 2.8-3.6-1.1-5.6-3.4-5.9-7h34.3c.7-2.3 1.2-4.2 1.5-5.6 1.6-7.2.5-13.1-3.1-17.8zm33.9-5.1l3.4-16-15.3 5.4-2.3 10.6h-7.9l-2.5 12h7.9l-7.4 35H268l7.4-35H286l2.5-12zM22.6 83.77c-1.6 1.9-4.5 2.2-6.4.5-1.9-1.6-2.2-4.5-.5-6.4 1.6-1.9 4.5-2.2 6.4-.5 1.9 1.6 2.2 4.5.5 6.4zm28 3.7c-4.6-3-6.9-.5-8.8 2.2-4.2-5.6-9.1-11.9-15.1-15.6-9.5-5.9-20.7-4.4-20.7-4.4s.3 11.3 7.7 19.7c4.7 5.3 11.7 9.1 17.8 12.3-2.5 2.4-4.4 5.3-.5 9.3 5.7 5.8 16.8 7.3 17.2 6.7l-8-6.6c-.4-1.5-.3-3 .1-4.5l1.5 1.8c3.7-1.7 7.2-5.9 8.2-9.7l-2.1-1.2c1.4-.7 2.9-1 4.4-.8l7.9 6.7c.7-.4-2.9-11.4-9.6-15.9zm70 57.5c-31.9-3.7-65.3-26.8-68.8-29.8 0 0 31 40.6 86 36.3 35.6-2.8 47.2-20.3 48.2-20.8-4.8 2.3-28.6 18.5-65.4 14.3zm34.3-133.1c-45-16.1-75.3 6.3-76 6.8 5.6-3.1 62.6-20.2 94 12.9 14.6 15.4 15.4 31.1 12 45.7h-48.3l-3.5 16.5h27.7c-3.2 6.3-7.8 11.1-13.9 14.3-5.7 3-11.4 4.1-17.2 3.3-6-.8-10.5-3.3-13.6-7.7-3.4-4.8-4.3-11.1-2.6-18.7 1.4-6.5 4.1-12 8.4-16.5 3.8-4.1 8.3-7 13.6-8.7 5-1.6 9.8-1.9 14.4-.8 4.8 1.1 8.5 3.5 11.1 7.1h.4l12-19.7c-6.4-5-14.7-7.5-24.9-7.5-13.4 0-25.4 4.3-35.8 12.9-10.5 8.6-17.1 19.7-20 33.1-2.9 13.4-.9 24.5 5.9 33.1 2.6 3.3 5.7 6 9.3 8-23.8-4.8-42-16.5-42-16.5l-.4-.7c0 .1.1.3.1.4-3.3-.7-8-2.4-8.4-2.6 4.8 3.5 21.2 17.5 45 24.5 11.8 3.5 25.7 6.7 42.6 4.9 2.6-.3 5.3-.7 8-1.2 14-2.8 27.4-13 34.4-27.8 17.1-36.4 12.2-79.2-32.3-95.1z"/></clipPath><linearGradient id="dppmc" x1="74.65" x2="229.41" y1="154.6" y2="-.15" gradientUnits="userSpaceOnUse"><stop offset="0" stop-color="#782ea0"/><stop offset="1" stop-color="#279ced"/></linearGradient></defs><g><g><path fill="none" stroke="#f3f3f3" stroke-linecap="square" stroke-linejoin="round" stroke-miterlimit="20" stroke-width="12" d="M495.3 64.37l-1.5 6.9h12.8l-9.2 43.5h6.9l9.2-43.5h12.8l1.5-6.9zm-46 36.1c-.9 4.2-.1 7.7 2.4 10.4 2.4 2.6 5.9 3.9 10.4 3.9s8.5-1.3 12-3.9c3.7-2.7 6-6.2 6.9-10.4.9-4 0-7.2-2.6-9.5-1.6-1.4-4.6-2.9-9.2-4.6-3.2-1.2-5.3-2.1-6.4-2.9-1.8-1.3-2.5-2.9-2.1-4.7.4-2.2 1.5-4 3.3-5.3 2-1.4 4.3-2.2 7.2-2.2 2.9 0 4.9.8 6.3 2.2 1.3 1.3 1.7 3.1 1.2 5.3h6.9c.9-4.3 0-7.8-2.5-10.5-2.4-2.6-5.9-3.9-10.4-3.9-4.6 0-8.6 1.3-12.1 3.9-3.7 2.7-6 6.2-6.9 10.5-.9 4 0 7.2 2.6 9.5 1.6 1.4 4.6 2.9 9.2 4.6 3.1 1.1 5.2 2.1 6.3 2.9 1.8 1.3 2.6 2.9 2.2 4.7-.4 2.2-1.6 4-3.4 5.3-2 1.5-4.4 2.2-7.2 2.2-2.9 0-4.9-.8-6.3-2.2-1.2-1.4-1.6-3.1-1.1-5.3zm-28.1-29.2c5.5 0 9.6 1.7 12.3 5 2.7 3.4 3.4 7.8 2.2 13.3-1.2 5.5-3.8 9.9-7.8 13.3-4.1 3.3-8.9 5-14.4 5s-9.5-1.6-12.2-5c-2.6-3.4-3.4-7.8-2.2-13.3 1.1-5.5 3.8-9.9 7.8-13.3 4-3.3 8.8-5 14.3-5zm1.5-6.8c-7.4 0-14 2.3-19.7 7-5.7 4.7-9.3 10.7-10.9 18.1-1.5 7.4-.5 13.4 3.2 18.1 3.8 4.7 9.3 7.1 16.7 7.1 7.4 0 13.9-2.4 19.6-7.1 5.7-4.6 9.3-10.7 10.9-18.1 1.6-7.3.5-13.4-3.2-18.1-3.7-4.7-9.2-7.1-16.6-7zm-58.7 6.8c5.5 0 9.6 1.7 12.3 5 2.7 3.4 3.4 7.8 2.2 13.3-1.2 5.5-3.8 9.9-7.8 13.3-4.1 3.3-8.9 5-14.4 5s-9.5-1.6-12.2-5c-2.6-3.4-3.4-7.8-2.2-13.3 1.1-5.5 3.8-9.9 7.8-13.3 4-3.3 8.8-5 14.3-5zm1.5-6.8c-7.4 0-14 2.3-19.7 7-5.7 4.7-9.3 10.7-10.9 18.1-1.5 7.4-.5 13.4 3.2 18.1 3.8 4.7 9.3 7.1 16.7 7.1 7.4 0 13.9-2.4 19.6-7.1 5.7-4.6 9.3-10.7 10.9-18.1 1.6-7.3.5-13.4-3.2-18.1-3.7-4.7-9.2-7.1-16.6-7zm-49.3-4.4c3 0 5.2.8 6.5 2.5 1.3 1.7 1.6 4 1 7-.6 3-1.9 5.3-3.9 7-2 1.7-4.6 2.5-7.6 2.5h-11.9l4-19zm-17.3 25.8h13c3.5 0 6 1 7.5 2.9 1.5 2 1.9 4.7 1.2 8.1-.7 3.5-2.3 6.2-4.6 8.1-2.4 1.9-5.3 2.9-8.7 2.9h-13.1l4.7-21.9zm-13 28.8h20c4.9 0 9.2-1.4 13-4.2 3.4-2.5 5.9-5.7 7.5-9.6.5-1.3.8-2.5 1.1-3.7.6-2.5.6-4.9 0-7.2-.8-3.7-2.9-6.4-6.1-8.1 3.2-1.9 5.7-4.4 7.5-7.7.9-1.7 1.6-3.5 2-5.3.2-1.4.4-2.8.3-4.2-.2-3.3-1.4-6-3.5-8.1-2.4-2.3-5.7-3.4-10-3.4h-18.8z" clip-path="url(&quot;#dppma&quot;)"/></g><g><path fill="none" stroke="#f3f3f3" stroke-linecap="square" stroke-linejoin="round" stroke-miterlimit="20" stroke-width="12" d="M213.5 85.97c1-2.1 2.7-4 5.1-5.8 2.1-1.6 4.4-2.3 6.7-2.3 2.4 0 4.3.8 5.8 2.3 1.6 1.7 2.5 3.6 2.6 5.8zm30.6-13c-3.7-4.6-9.1-7-16.3-7-7.2 0-13.6 2.3-19.2 7-5.7 4.7-9.3 10.6-10.8 17.8-1.5 7.2-.5 13.1 3.2 17.7 3.7 4.7 9.1 7 16.2 7 7.2 0 13.6-2.3 19.3-7 2.7-2.3 5-4.9 6.8-7.9h-15.9c-3.3 2.9-6.7 3.8-10.1 2.8-3.6-1.1-5.6-3.4-5.9-7h34.3c.7-2.3 1.2-4.2 1.5-5.6 1.6-7.2.5-13.1-3.1-17.8zm33.9-5.1l3.4-16-15.3 5.4-2.3 10.6h-7.9l-2.5 12h7.9l-7.4 35H268l7.4-35H286l2.5-12zM22.6 83.77c-1.6 1.9-4.5 2.2-6.4.5-1.9-1.6-2.2-4.5-.5-6.4 1.6-1.9 4.5-2.2 6.4-.5 1.9 1.6 2.2 4.5.5 6.4zm28 3.7c-4.6-3-6.9-.5-8.8 2.2-4.2-5.6-9.1-11.9-15.1-15.6-9.5-5.9-20.7-4.4-20.7-4.4s.3 11.3 7.7 19.7c4.7 5.3 11.7 9.1 17.8 12.3-2.5 2.4-4.4 5.3-.5 9.3 5.7 5.8 16.8 7.3 17.2 6.7l-8-6.6c-.4-1.5-.3-3 .1-4.5l1.5 1.8c3.7-1.7 7.2-5.9 8.2-9.7l-2.1-1.2c1.4-.7 2.9-1 4.4-.8l7.9 6.7c.7-.4-2.9-11.4-9.6-15.9zm70 57.5c-31.9-3.7-65.3-26.8-68.8-29.8 0 0 31 40.6 86 36.3 35.6-2.8 47.2-20.3 48.2-20.8-4.8 2.3-28.6 18.5-65.4 14.3zm34.3-133.1c-45-16.1-75.3 6.3-76 6.8 5.6-3.1 62.6-20.2 94 12.9 14.6 15.4 15.4 31.1 12 45.7h-48.3l-3.5 16.5h27.7c-3.2 6.3-7.8 11.1-13.9 14.3-5.7 3-11.4 4.1-17.2 3.3-6-.8-10.5-3.3-13.6-7.7-3.4-4.8-4.3-11.1-2.6-18.7 1.4-6.5 4.1-12 8.4-16.5 3.8-4.1 8.3-7 13.6-8.7 5-1.6 9.8-1.9 14.4-.8 4.8 1.1 8.5 3.5 11.1 7.1h.4l12-19.7c-6.4-5-14.7-7.5-24.9-7.5-13.4 0-25.4 4.3-35.8 12.9-10.5 8.6-17.1 19.7-20 33.1-2.9 13.4-.9 24.5 5.9 33.1 2.6 3.3 5.7 6 9.3 8-23.8-4.8-42-16.5-42-16.5l-.4-.7c0 .1.1.3.1.4-3.3-.7-8-2.4-8.4-2.6 4.8 3.5 21.2 17.5 45 24.5 11.8 3.5 25.7 6.7 42.6 4.9 2.6-.3 5.3-.7 8-1.2 14-2.8 27.4-13 34.4-27.8 17.1-36.4 12.2-79.2-32.3-95.1z" clip-path="url(&quot;#dppmb&quot;)"/></g><g><g><path fill="none" stroke="#707070" stroke-linecap="square" stroke-linejoin="round" stroke-miterlimit="20" d="M209.5 136.07c0-1.8-.4-3-1.1-3.8-.8-.8-1.8-1.2-3.2-1.2h-6.7v0-1.6 0h7.1c3.9 0 5.9 2.2 5.9 6.6v20.1h-1.9v0-20.1 0z"/></g><g><path fill="none" stroke="#707070" stroke-linecap="square" stroke-linejoin="round" stroke-miterlimit="20" d="M229 129.57v1.7l-7.1 17.9v0H220v0l7-18v0h-11.3v0-7.6 0h1.9v6H229v0z"/></g><g><path fill="none" stroke="#707070" stroke-linecap="square" stroke-linejoin="round" stroke-miterlimit="20" d="M246.7 145.67c-2.6 2.5-6.4 3.8-11.6 3.9l-2.5-20v0h1.9v0l1.3 10.6c1.2-.7 2.2-1.3 2.8-2 .7-.7 1.2-1.5 1.5-2.5.3-1 .5-2.3.6-3.9v-2.1 0h1.9v2c-.1 1.8-.3 3.3-.8 4.5-.5 1.2-1.1 2.3-2.1 3.1-.9.9-2.2 1.7-3.7 2.5l.7 6c3.9-.3 6.9-1.5 8.9-3.6s3-5.4 3-9.7v-4.9 0h1.9v4.8c.1 5-1.2 8.8-3.8 11.3z"/></g><g><path fill="none" stroke="#707070" stroke-linecap="square" stroke-linejoin="round" stroke-miterlimit="20" d="M262.1 156.37h2v-19.8h-1.7l-.3 2.4zm5.5-7.1c2.4-.1 4.4-1 6-2.7 1.6-1.6 2.4-4.2 2.6-7.6l.6-7.8.1-1.5h-15v1.6h12.9l-.6 7.9c-.2 2.1-.6 3.8-1.2 5-.6 1.2-1.4 2-2.3 2.5-.9.4-2 .7-3.3.9z"/></g><g><path fill="none" stroke="#707070" stroke-linecap="square" stroke-linejoin="round" stroke-miterlimit="20" d="M284.9 147.67l-2-16.5h7c1.5 0 2.7.5 3.5 1.6.9 1.1 1.3 2.5 1.3 4.2v.8c.1 3.4-.7 5.9-2.6 7.3-1.8 1.4-4.3 2.3-7.2 2.6zm8.2-1.2c2.5-1.7 3.7-4.6 3.4-8.8v-1c-.1-2.3-.7-4-1.8-5.3-1.1-1.3-2.7-1.9-4.7-1.9h-9.3l.2 1.6 2.2 18.4c4.2-.2 7.5-1.2 10-3z"/></g><g><path fill="none" stroke="#707070" stroke-linecap="square" stroke-linejoin="round" stroke-miterlimit="20" d="M314.9 129.57c0 4.9-.2 8.6-.6 11-.4 2.4-1.2 4.3-2.6 5.6-1.4 1.3-3.5 2.3-6.4 2.8l-5.3 1.1v0l-.3-1.6v0l5.7-1.1v0l.8-.2v0l-4.8-17.6v0h2v0l4.6 17.1c1.6-.6 2.7-1.6 3.4-2.8.7-1.3 1.1-2.9 1.3-4.9.2-2 .3-5.2.3-9.4h1.9v0z"/></g><g><path fill="none" stroke="#707070" stroke-linecap="square" stroke-linejoin="round" stroke-miterlimit="20" d="M331.9 129.57v1.7l-7.1 17.9v0h-1.9v0l7-18v0h-11.3v0-7.6 0h1.9v6h11.4v0z"/></g><g><path fill="none" stroke="#707070" stroke-linecap="square" stroke-linejoin="round" stroke-miterlimit="20" d="M342.6 129.57v0h2v0l2.2 18.1c2.9-.3 5.2-1.2 7-2.9 1.8-1.7 2.7-4.1 2.6-7.6v-.8c0-1.6-.4-2.9-1.2-3.9-.8-1-2.1-1.5-3.7-1.6l-1.8-.1v0l.1-1.6v0l1.9.1c4.2.3 6.4 2.5 6.5 6.7v1c.1 4.1-1 7.1-3.5 9.1s-5.7 3.1-9.8 3.3z"/></g><g><path fill="none" stroke="#707070" stroke-linecap="square" stroke-linejoin="round" stroke-miterlimit="20" d="M366.1 147.67l-2-16.5h7c1.5 0 2.7.5 3.5 1.6.9 1.1 1.3 2.5 1.3 4.2v.8c.1 3.4-.7 5.9-2.6 7.3-1.9 1.4-4.3 2.3-7.2 2.6zm8.2-1.2c2.5-1.7 3.7-4.6 3.4-8.8v-1c-.1-2.3-.7-4-1.8-5.3-1.1-1.3-2.7-1.9-4.7-1.9h-9.3l.2 1.6 2.2 18.4c4.2-.2 7.5-1.2 10-3z"/></g><g><path fill="none" stroke="#707070" stroke-linecap="square" stroke-linejoin="round" stroke-miterlimit="20" d="M382.7 133.67v0l-.5-4.2v0h1.9v0l.5 4.2v15.4h-2v0-15.4 0z"/></g><g><path fill="none" stroke="#707070" stroke-linecap="square" stroke-linejoin="round" stroke-miterlimit="20" d="M404.4 147.47v1.6h-4.5v0h-10.6v0-1.6 0h10.6v0-11.4c0-1.8-.4-3-1.1-3.8-.8-.8-1.8-1.2-3.2-1.2h-6.2v0-1.6 0h6.6c3.9 0 5.9 2.2 5.9 6.6v11.4z"/></g><g><path fill="none" stroke="#707070" stroke-linecap="square" stroke-linejoin="round" stroke-miterlimit="20" d="M416 133.67v0l-.5-4.2v0h1.9v0l.5 4.2v22.6h-2v0-22.6 0z"/></g><g><path fill="none" stroke="#707070" stroke-linecap="square" stroke-linejoin="round" stroke-miterlimit="20" d="M421.5 148.17c1.4-.1 2.4-.5 3-1.3.6-.7.9-1.8.8-3.2v-14.1 0h8.1c3.9 0 5.9 2.2 5.9 6.6v13h-1.9v0-13c0-1.8-.4-3-1.1-3.8-.8-.8-1.8-1.2-3.2-1.2h-5.8v12.3c0 1.9-.4 3.4-1.3 4.4-.9 1-2.3 1.6-4.2 1.7z"/></g></g><g><path fill="#071c3a" d="M495.3 64.37l-1.5 6.9h12.8l-9.2 43.5h6.9l9.2-43.5h12.8l1.5-6.9zm-46 36.1c-.9 4.2-.1 7.7 2.4 10.4 2.4 2.6 5.9 3.9 10.4 3.9s8.5-1.3 12-3.9c3.7-2.7 6-6.2 6.9-10.4.9-4 0-7.2-2.6-9.5-1.6-1.4-4.6-2.9-9.2-4.6-3.2-1.2-5.3-2.1-6.4-2.9-1.8-1.3-2.5-2.9-2.1-4.7.4-2.2 1.5-4 3.3-5.3 2-1.4 4.3-2.2 7.2-2.2 2.9 0 4.9.8 6.3 2.2 1.3 1.3 1.7 3.1 1.2 5.3h6.9c.9-4.3 0-7.8-2.5-10.5-2.4-2.6-5.9-3.9-10.4-3.9-4.6 0-8.6 1.3-12.1 3.9-3.7 2.7-6 6.2-6.9 10.5-.9 4 0 7.2 2.6 9.5 1.6 1.4 4.6 2.9 9.2 4.6 3.1 1.1 5.2 2.1 6.3 2.9 1.8 1.3 2.6 2.9 2.2 4.7-.4 2.2-1.6 4-3.4 5.3-2 1.5-4.4 2.2-7.2 2.2-2.9 0-4.9-.8-6.3-2.2-1.2-1.4-1.6-3.1-1.1-5.3zm-28.1-29.2c5.5 0 9.6 1.7 12.3 5 2.7 3.4 3.4 7.8 2.2 13.3-1.2 5.5-3.8 9.9-7.8 13.3-4.1 3.3-8.9 5-14.4 5s-9.5-1.6-12.2-5c-2.6-3.4-3.4-7.8-2.2-13.3 1.1-5.5 3.8-9.9 7.8-13.3 4-3.3 8.8-5 14.3-5zm1.5-6.8c-7.4 0-14 2.3-19.7 7-5.7 4.7-9.3 10.7-10.9 18.1-1.5 7.4-.5 13.4 3.2 18.1 3.8 4.7 9.3 7.1 16.7 7.1 7.4 0 13.9-2.4 19.6-7.1 5.7-4.6 9.3-10.7 10.9-18.1 1.6-7.3.5-13.4-3.2-18.1-3.7-4.7-9.2-7.1-16.6-7zm-58.7 6.8c5.5 0 9.6 1.7 12.3 5 2.7 3.4 3.4 7.8 2.2 13.3-1.2 5.5-3.8 9.9-7.8 13.3-4.1 3.3-8.9 5-14.4 5s-9.5-1.6-12.2-5c-2.6-3.4-3.4-7.8-2.2-13.3 1.1-5.5 3.8-9.9 7.8-13.3 4-3.3 8.8-5 14.3-5zm1.5-6.8c-7.4 0-14 2.3-19.7 7-5.7 4.7-9.3 10.7-10.9 18.1-1.5 7.4-.5 13.4 3.2 18.1 3.8 4.7 9.3 7.1 16.7 7.1 7.4 0 13.9-2.4 19.6-7.1 5.7-4.6 9.3-10.7 10.9-18.1 1.6-7.3.5-13.4-3.2-18.1-3.7-4.7-9.2-7.1-16.6-7zm-49.3-4.4c3 0 5.2.8 6.5 2.5 1.3 1.7 1.6 4 1 7-.6 3-1.9 5.3-3.9 7-2 1.7-4.6 2.5-7.6 2.5h-11.9l4-19zm-17.3 25.8h13c3.5 0 6 1 7.5 2.9 1.5 2 1.9 4.7 1.2 8.1-.7 3.5-2.3 6.2-4.6 8.1-2.4 1.9-5.3 2.9-8.7 2.9h-13.1l4.7-21.9zm-13 28.8h20c4.9 0 9.2-1.4 13-4.2 3.4-2.5 5.9-5.7 7.5-9.6.5-1.3.8-2.5 1.1-3.7.6-2.5.6-4.9 0-7.2-.8-3.7-2.9-6.4-6.1-8.1 3.2-1.9 5.7-4.4 7.5-7.7.9-1.7 1.6-3.5 2-5.3.2-1.4.4-2.8.3-4.2-.2-3.3-1.4-6-3.5-8.1-2.4-2.3-5.7-3.4-10-3.4h-18.8z"/></g><g><path fill="url(#dppmc)" d="M213.5 85.97c1-2.1 2.7-4 5.1-5.8 2.1-1.6 4.4-2.3 6.7-2.3 2.4 0 4.3.8 5.8 2.3 1.6 1.7 2.5 3.6 2.6 5.8zm30.6-13c-3.7-4.6-9.1-7-16.3-7-7.2 0-13.6 2.3-19.2 7-5.7 4.7-9.3 10.6-10.8 17.8-1.5 7.2-.5 13.1 3.2 17.7 3.7 4.7 9.1 7 16.2 7 7.2 0 13.6-2.3 19.3-7 2.7-2.3 5-4.9 6.8-7.9h-15.9c-3.3 2.9-6.7 3.8-10.1 2.8-3.6-1.1-5.6-3.4-5.9-7h34.3c.7-2.3 1.2-4.2 1.5-5.6 1.6-7.2.5-13.1-3.1-17.8zm33.9-5.1l3.4-16-15.3 5.4-2.3 10.6h-7.9l-2.5 12h7.9l-7.4 35H268l7.4-35H286l2.5-12zM22.6 83.77c-1.6 1.9-4.5 2.2-6.4.5-1.9-1.6-2.2-4.5-.5-6.4 1.6-1.9 4.5-2.2 6.4-.5 1.9 1.6 2.2 4.5.5 6.4zm28 3.7c-4.6-3-6.9-.5-8.8 2.2-4.2-5.6-9.1-11.9-15.1-15.6-9.5-5.9-20.7-4.4-20.7-4.4s.3 11.3 7.7 19.7c4.7 5.3 11.7 9.1 17.8 12.3-2.5 2.4-4.4 5.3-.5 9.3 5.7 5.8 16.8 7.3 17.2 6.7l-8-6.6c-.4-1.5-.3-3 .1-4.5l1.5 1.8c3.7-1.7 7.2-5.9 8.2-9.7l-2.1-1.2c1.4-.7 2.9-1 4.4-.8l7.9 6.7c.7-.4-2.9-11.4-9.6-15.9zm70 57.5c-31.9-3.7-65.3-26.8-68.8-29.8 0 0 31 40.6 86 36.3 35.6-2.8 47.2-20.3 48.2-20.8-4.8 2.3-28.6 18.5-65.4 14.3zm34.3-133.1c-45-16.1-75.3 6.3-76 6.8 5.6-3.1 62.6-20.2 94 12.9 14.6 15.4 15.4 31.1 12 45.7h-48.3l-3.5 16.5h27.7c-3.2 6.3-7.8 11.1-13.9 14.3-5.7 3-11.4 4.1-17.2 3.3-6-.8-10.5-3.3-13.6-7.7-3.4-4.8-4.3-11.1-2.6-18.7 1.4-6.5 4.1-12 8.4-16.5 3.8-4.1 8.3-7 13.6-8.7 5-1.6 9.8-1.9 14.4-.8 4.8 1.1 8.5 3.5 11.1 7.1h.4l12-19.7c-6.4-5-14.7-7.5-24.9-7.5-13.4 0-25.4 4.3-35.8 12.9-10.5 8.6-17.1 19.7-20 33.1-2.9 13.4-.9 24.5 5.9 33.1 2.6 3.3 5.7 6 9.3 8-23.8-4.8-42-16.5-42-16.5l-.4-.7c0 .1.1.3.1.4-3.3-.7-8-2.4-8.4-2.6 4.8 3.5 21.2 17.5 45 24.5 11.8 3.5 25.7 6.7 42.6 4.9 2.6-.3 5.3-.7 8-1.2 14-2.8 27.4-13 34.4-27.8 17.1-36.4 12.2-79.2-32.3-95.1z"/></g><g><path fill="#071c3a" d="M209.5 136.07c0-1.8-.4-3-1.1-3.8-.8-.8-1.8-1.2-3.2-1.2h-6.7v-1.6h7.1c3.9 0 5.9 2.2 5.9 6.6v20.1h-1.9v-20.1z"/></g><g><path fill="#071c3a" d="M229 129.57v1.7l-7.1 17.9H220l7-18h-11.3v-7.6h1.9v6H229z"/></g><g><path fill="#071c3a" d="M246.7 145.67c-2.6 2.5-6.4 3.8-11.6 3.9l-2.5-20h1.9l1.3 10.6c1.2-.7 2.2-1.3 2.8-2 .7-.7 1.2-1.5 1.5-2.5.3-1 .5-2.3.6-3.9v-2.1h1.9v2c-.1 1.8-.3 3.3-.8 4.5-.5 1.2-1.1 2.3-2.1 3.1-.9.9-2.2 1.7-3.7 2.5l.7 6c3.9-.3 6.9-1.5 8.9-3.6s3-5.4 3-9.7v-4.9h1.9v4.8c.1 5-1.2 8.8-3.8 11.3z"/></g><g><path fill="#071c3a" d="M262.1 156.37h2v-19.8h-1.7l-.3 2.4zm5.5-7.1c2.4-.1 4.4-1 6-2.7 1.6-1.6 2.4-4.2 2.6-7.6l.6-7.8.1-1.5h-15v1.6h12.9l-.6 7.9c-.2 2.1-.6 3.8-1.2 5-.6 1.2-1.4 2-2.3 2.5-.9.4-2 .7-3.3.9z"/></g><g><path fill="#071c3a" d="M284.9 147.67l-2-16.5h7c1.5 0 2.7.5 3.5 1.6.9 1.1 1.3 2.5 1.3 4.2v.8c.1 3.4-.7 5.9-2.6 7.3-1.8 1.4-4.3 2.3-7.2 2.6zm8.2-1.2c2.5-1.7 3.7-4.6 3.4-8.8v-1c-.1-2.3-.7-4-1.8-5.3-1.1-1.3-2.7-1.9-4.7-1.9h-9.3l.2 1.6 2.2 18.4c4.2-.2 7.5-1.2 10-3z"/></g><g><path fill="#071c3a" d="M314.9 129.57c0 4.9-.2 8.6-.6 11-.4 2.4-1.2 4.3-2.6 5.6-1.4 1.3-3.5 2.3-6.4 2.8l-5.3 1.1-.3-1.6 5.7-1.1.8-.2-4.8-17.6h2l4.6 17.1c1.6-.6 2.7-1.6 3.4-2.8.7-1.3 1.1-2.9 1.3-4.9.2-2 .3-5.2.3-9.4h1.9z"/></g><g><path fill="#071c3a" d="M331.9 129.57v1.7l-7.1 17.9h-1.9l7-18h-11.3v-7.6h1.9v6h11.4z"/></g><g><path fill="#071c3a" d="M342.6 129.57h2l2.2 18.1c2.9-.3 5.2-1.2 7-2.9 1.8-1.7 2.7-4.1 2.6-7.6v-.8c0-1.6-.4-2.9-1.2-3.9-.8-1-2.1-1.5-3.7-1.6l-1.8-.1.1-1.6 1.9.1c4.2.3 6.4 2.5 6.5 6.7v1c.1 4.1-1 7.1-3.5 9.1s-5.7 3.1-9.8 3.3z"/></g><g><path fill="#071c3a" d="M366.1 147.67l-2-16.5h7c1.5 0 2.7.5 3.5 1.6.9 1.1 1.3 2.5 1.3 4.2v.8c.1 3.4-.7 5.9-2.6 7.3-1.9 1.4-4.3 2.3-7.2 2.6zm8.2-1.2c2.5-1.7 3.7-4.6 3.4-8.8v-1c-.1-2.3-.7-4-1.8-5.3-1.1-1.3-2.7-1.9-4.7-1.9h-9.3l.2 1.6 2.2 18.4c4.2-.2 7.5-1.2 10-3z"/></g><g><path fill="#071c3a" d="M382.7 133.67l-.5-4.2h1.9l.5 4.2v15.4h-2v-15.4z"/></g><g><path fill="#071c3a" d="M404.4 147.47v1.6h-15.1v-1.6h10.6v-11.4c0-1.8-.4-3-1.1-3.8-.8-.8-1.8-1.2-3.2-1.2h-6.2v-1.6h6.6c3.9 0 5.9 2.2 5.9 6.6v11.4z"/></g><g><path fill="#071c3a" d="M416 133.67l-.5-4.2h1.9l.5 4.2v22.6h-2v-22.6z"/></g><g><path fill="#071c3a" d="M421.5 148.17c1.4-.1 2.4-.5 3-1.3.6-.7.9-1.8.8-3.2v-14.1h8.1c3.9 0 5.9 2.2 5.9 6.6v13h-1.9v-13c0-1.8-.4-3-1.1-3.8-.8-.8-1.8-1.2-3.2-1.2h-5.8v12.3c0 1.9-.4 3.4-1.3 4.4-.9 1-2.3 1.6-4.2 1.7z"/></g></g></svg>