<svg xmlns="http://www.w3.org/2000/svg" width="783" height="70" viewBox="0 0 783 70"><defs><clipPath id="86waa"><path fill="#fff" d="M375 56V17h114v39zm94.1-27.343l-.632 2.903h5.387l-3.872 18.305h2.904l3.871-18.305h5.386l.632-2.903zm-19.357 15.19c-.38 1.768-.042 3.24 1.01 4.377 1.01 1.094 2.482 1.641 4.376 1.641 1.894 0 3.577-.547 5.05-1.641 1.556-1.136 2.524-2.609 2.903-4.376.379-1.684 0-3.03-1.094-3.998-.673-.59-1.936-1.22-3.871-1.936-1.347-.505-2.23-.883-2.694-1.22-.757-.547-1.052-1.22-.883-1.978.168-.926.63-1.683 1.388-2.23.842-.59 1.81-.926 3.03-.926 1.22 0 2.062.337 2.651.926.547.547.716 1.305.505 2.23h2.904c.378-1.81 0-3.282-1.052-4.418-1.01-1.094-2.483-1.641-4.377-1.641-1.935 0-3.619.547-5.091 1.64-1.557 1.137-2.525 2.61-2.904 4.42-.379 1.682 0 3.029 1.094 3.997.674.589 1.936 1.22 3.872 1.936 1.304.462 2.188.883 2.65 1.22.758.547 1.095 1.22.926 1.978-.168.925-.673 1.683-1.43 2.23-.842.631-1.852.926-3.03.926-1.22 0-2.062-.337-2.651-.926-.505-.59-.673-1.305-.463-2.23zm-6.649-10.183c1.136 1.431 1.43 3.282.926 5.597-.505 2.314-1.6 4.166-3.283 5.597-1.725 1.388-3.745 2.104-6.06 2.104-2.313 0-3.997-.674-5.133-2.104-1.094-1.431-1.43-3.283-.926-5.597.463-2.315 1.6-4.166 3.283-5.597 1.683-1.388 3.703-2.104 6.017-2.104 2.314 0 4.04.716 5.176 2.104zm-4.545-4.965c-3.114 0-5.89.968-8.29 2.945-2.398 1.978-3.913 4.503-4.586 7.617-.631 3.114-.21 5.639 1.346 7.616 1.6 1.978 3.914 2.988 7.028 2.988 3.114 0 5.849-1.01 8.247-2.988 2.399-1.935 3.914-4.502 4.587-7.616.673-3.072.21-5.639-1.346-7.617-1.557-1.977-3.872-2.987-6.986-2.945zm-19.525 4.965c1.136 1.431 1.43 3.282.926 5.597-.505 2.314-1.6 4.166-3.282 5.597-1.726 1.388-3.746 2.104-6.06 2.104-2.314 0-3.998-.674-5.134-2.104-1.094-1.431-1.43-3.283-.925-5.597.462-2.315 1.599-4.166 3.282-5.597 1.683-1.388 3.703-2.104 6.017-2.104 2.315 0 4.04.716 5.176 2.104zM414.48 28.7c-3.114 0-5.89.968-8.29 2.945-2.398 1.978-3.913 4.503-4.586 7.617-.631 3.114-.21 5.639 1.346 7.616 1.6 1.978 3.914 2.988 7.028 2.988 3.114 0 5.849-1.01 8.248-2.988 2.398-1.935 3.913-4.502 4.586-7.616.674-3.072.21-5.639-1.346-7.617-1.557-1.977-3.872-2.987-6.986-2.945zm-20.745-1.852c1.262 0 2.188.337 2.735 1.052.547.716.673 1.683.42 2.946-.252 1.262-.799 2.23-1.64 2.945-.842.716-1.936 1.052-3.198 1.052h-5.008l1.683-7.995zm-7.28 10.857h5.47c1.473 0 2.525.42 3.156 1.22.632.842.8 1.978.505 3.409-.294 1.473-.967 2.609-1.935 3.408-1.01.8-2.23 1.22-3.661 1.22h-5.513l1.978-9.215zm-5.47 12.119h8.416c2.062 0 3.871-.59 5.47-1.767a9.309 9.309 0 0 0 3.156-4.04c.21-.547.337-1.052.463-1.557.252-1.052.252-2.062 0-3.03-.337-1.557-1.22-2.693-2.567-3.408 1.347-.8 2.399-1.852 3.156-3.24a8.985 8.985 0 0 0 .842-2.23c.084-.59.168-1.179.126-1.768-.084-1.389-.59-2.525-1.473-3.409-1.01-.967-2.398-1.43-4.208-1.43h-7.911z"/></clipPath><clipPath id="86wab"><path fill="#fff" d="M259 69.933V.067h128v69.866zm91.518-32.187c.42-.884 1.136-1.683 2.146-2.44a4.58 4.58 0 0 1 2.819-.968c1.01 0 1.81.336 2.44.967.674.716 1.053 1.515 1.095 2.441zm12.876-5.47c-1.557-1.936-3.83-2.946-6.859-2.946-3.03 0-5.723.968-8.08 2.946-2.398 1.977-3.913 4.46-4.544 7.49-.631 3.03-.21 5.512 1.347 7.448 1.556 1.978 3.829 2.946 6.817 2.946 3.03 0 5.722-.968 8.121-2.946 1.136-.968 2.104-2.062 2.861-3.324h-6.69c-1.389 1.22-2.82 1.599-4.25 1.178-1.515-.463-2.357-1.43-2.483-2.946h14.433c.295-.968.505-1.767.632-2.356.673-3.03.21-5.513-1.305-7.49zm14.265-2.146l1.431-6.733-6.438 2.272-.968 4.46h-3.324l-1.052 5.05h3.324l-3.114 14.728h5.933l3.114-14.728h4.46l1.053-5.05zm-107.473 6.69c-.673.8-1.893.926-2.693.21-.8-.673-.925-1.893-.21-2.692.673-.8 1.894-.926 2.693-.21.8.672.926 1.893.21 2.692zm11.783 1.557c-1.936-1.262-2.904-.21-3.703.926-1.768-2.356-3.83-5.008-6.354-6.564-3.998-2.483-8.71-1.852-8.71-1.852s.125 4.755 3.24 8.29c1.977 2.23 4.923 3.829 7.49 5.176-1.052 1.01-1.852 2.23-.21 3.913 2.398 2.44 7.069 3.072 7.237 2.82l-3.366-2.778c-.169-.631-.127-1.262.042-1.893l.63.757c1.558-.715 3.03-2.483 3.451-4.082l-.883-.505c.589-.294 1.22-.42 1.851-.336l3.325 2.819c.294-.168-1.22-4.797-4.04-6.69zm29.456 24.196c-13.424-1.557-27.478-11.277-28.951-12.54 0 0 13.045 17.085 36.189 15.275 14.98-1.178 19.862-8.542 20.282-8.752-2.02.968-12.034 7.785-27.52 6.017zM325.86 6.565c-18.937-6.775-31.687 2.65-31.981 2.861 2.356-1.304 26.342-8.5 39.555 5.429 6.144 6.48 6.48 13.086 5.05 19.23h-20.325l-1.473 6.943h11.656c-1.346 2.651-3.282 4.671-5.849 6.018-2.398 1.262-4.797 1.725-7.238 1.388-2.524-.336-4.418-1.388-5.723-3.24-1.43-2.02-1.809-4.67-1.094-7.869.59-2.735 1.726-5.05 3.535-6.943 1.6-1.725 3.493-2.946 5.723-3.66 2.104-.674 4.124-.8 6.06-.338 2.02.463 3.576 1.473 4.67 2.988h.169l5.05-8.29c-2.694-2.104-6.186-3.156-10.479-3.156-5.638 0-10.688 1.81-15.064 5.429-4.419 3.619-7.196 8.29-8.416 13.928-1.22 5.639-.379 10.31 2.482 13.929 1.094 1.388 2.399 2.524 3.914 3.366-10.015-2.02-17.674-6.943-17.674-6.943l-.168-.295c0 .042.042.126.042.169-1.389-.295-3.366-1.01-3.535-1.094 2.02 1.472 8.921 7.364 18.936 10.31 4.966 1.472 10.815 2.818 17.926 2.061a50.178 50.178 0 0 0 3.367-.505c5.891-1.178 11.53-5.47 14.475-11.698 7.196-15.317 5.134-33.328-13.591-40.018z"/></clipPath><linearGradient id="86wac" x1="292.09" x2="357.21" y1="66.62" y2="1.51" gradientUnits="userSpaceOnUse"><stop offset="0" stop-color="#782ea0"/><stop offset="1" stop-color="#279ced"/></linearGradient><linearGradient id="86wad" x1="318.59" x2="318.59" y1="58.83" y2="4.12" gradientUnits="userSpaceOnUse"><stop offset="0" stop-color="#3d7ed8" stop-opacity="0"/><stop offset="1" stop-color="#97d0ff"/></linearGradient></defs><g><g><path fill="#7632a2" d="M0 35v-4h311v4z"/></g><g><path fill="#2a96e9" d="M482 36v-4h301v4z"/></g><g><path fill="none" stroke="#f3f3f3" stroke-linecap="square" stroke-linejoin="round" stroke-miterlimit="20" stroke-width="12" d="M469.1 28.657l-.632 2.903h5.387l-3.872 18.305h2.904l3.871-18.305h5.386l.632-2.903zm-19.357 15.19c-.38 1.768-.042 3.24 1.01 4.377 1.01 1.094 2.482 1.641 4.376 1.641 1.894 0 3.577-.547 5.05-1.641 1.556-1.136 2.524-2.609 2.903-4.376.379-1.684 0-3.03-1.094-3.998-.673-.59-1.936-1.22-3.871-1.936-1.347-.505-2.23-.883-2.694-1.22-.757-.547-1.052-1.22-.883-1.978.168-.926.63-1.683 1.388-2.23.842-.59 1.81-.926 3.03-.926 1.22 0 2.062.337 2.651.926.547.547.716 1.305.505 2.23h2.904c.378-1.81 0-3.282-1.052-4.418-1.01-1.094-2.483-1.641-4.377-1.641-1.935 0-3.619.547-5.091 1.64-1.557 1.137-2.525 2.61-2.904 4.42-.379 1.682 0 3.029 1.094 3.997.674.589 1.936 1.22 3.872 1.936 1.304.462 2.188.883 2.65 1.22.758.547 1.095 1.22.926 1.978-.168.925-.673 1.683-1.43 2.23-.842.631-1.852.926-3.03.926-1.22 0-2.062-.337-2.651-.926-.505-.59-.673-1.305-.463-2.23zm-6.649-10.183c1.136 1.431 1.43 3.282.926 5.597-.505 2.314-1.6 4.166-3.283 5.597-1.725 1.388-3.745 2.104-6.06 2.104-2.313 0-3.997-.674-5.133-2.104-1.094-1.431-1.43-3.283-.926-5.597.463-2.315 1.6-4.166 3.283-5.597 1.683-1.388 3.703-2.104 6.017-2.104 2.314 0 4.04.716 5.176 2.104zm-4.545-4.965c-3.114 0-5.89.968-8.29 2.945-2.398 1.978-3.913 4.503-4.586 7.617-.631 3.114-.21 5.639 1.346 7.616 1.6 1.978 3.914 2.988 7.028 2.988 3.114 0 5.849-1.01 8.247-2.988 2.399-1.935 3.914-4.502 4.587-7.616.673-3.072.21-5.639-1.346-7.617-1.557-1.977-3.872-2.987-6.986-2.945zm-19.525 4.965c1.136 1.431 1.43 3.282.926 5.597-.505 2.314-1.6 4.166-3.282 5.597-1.726 1.388-3.746 2.104-6.06 2.104-2.314 0-3.998-.674-5.134-2.104-1.094-1.431-1.43-3.283-.925-5.597.462-2.315 1.599-4.166 3.282-5.597 1.683-1.388 3.703-2.104 6.017-2.104 2.315 0 4.04.716 5.176 2.104zM414.48 28.7c-3.114 0-5.89.968-8.29 2.945-2.398 1.978-3.913 4.503-4.586 7.617-.631 3.114-.21 5.639 1.346 7.616 1.6 1.978 3.914 2.988 7.028 2.988 3.114 0 5.849-1.01 8.248-2.988 2.398-1.935 3.913-4.502 4.586-7.616.674-3.072.21-5.639-1.346-7.617-1.557-1.977-3.872-2.987-6.986-2.945zm-20.745-1.852c1.262 0 2.188.337 2.735 1.052.547.716.673 1.683.42 2.946-.252 1.262-.799 2.23-1.64 2.945-.842.716-1.936 1.052-3.198 1.052h-5.008l1.683-7.995zm-7.28 10.857h5.47c1.473 0 2.525.42 3.156 1.22.632.842.8 1.978.505 3.409-.294 1.473-.967 2.609-1.935 3.408-1.01.8-2.23 1.22-3.661 1.22h-5.513l1.978-9.215zm-5.47 12.119h8.416c2.062 0 3.871-.59 5.47-1.767a9.309 9.309 0 0 0 3.156-4.04c.21-.547.337-1.052.463-1.557.252-1.052.252-2.062 0-3.03-.337-1.557-1.22-2.693-2.567-3.408 1.347-.8 2.399-1.852 3.156-3.24a8.985 8.985 0 0 0 .842-2.23c.084-.59.168-1.179.126-1.768-.084-1.389-.59-2.525-1.473-3.409-1.01-.967-2.398-1.43-4.208-1.43h-7.911z" clip-path="url(&quot;#86waa&quot;)"/></g><g><path fill="none" stroke="#f3f3f3" stroke-linecap="square" stroke-linejoin="round" stroke-miterlimit="20" stroke-width="8" d="M350.518 37.746c.42-.884 1.136-1.683 2.146-2.44a4.58 4.58 0 0 1 2.819-.968c1.01 0 1.81.336 2.44.967.674.716 1.053 1.515 1.095 2.441zm12.876-5.47c-1.557-1.936-3.83-2.946-6.859-2.946-3.03 0-5.723.968-8.08 2.946-2.398 1.977-3.913 4.46-4.544 7.49-.631 3.03-.21 5.512 1.347 7.448 1.556 1.978 3.829 2.946 6.817 2.946 3.03 0 5.722-.968 8.121-2.946 1.136-.968 2.104-2.062 2.861-3.324h-6.69c-1.389 1.22-2.82 1.599-4.25 1.178-1.515-.463-2.357-1.43-2.483-2.946h14.433c.295-.968.505-1.767.632-2.356.673-3.03.21-5.513-1.305-7.49zm14.265-2.146l1.431-6.733-6.438 2.272-.968 4.46h-3.324l-1.052 5.05h3.324l-3.114 14.728h5.933l3.114-14.728h4.46l1.053-5.05zm-107.473 6.69c-.673.8-1.893.926-2.693.21-.8-.673-.925-1.893-.21-2.692.673-.8 1.894-.926 2.693-.21.8.672.926 1.893.21 2.692zm11.783 1.557c-1.936-1.262-2.904-.21-3.703.926-1.768-2.356-3.83-5.008-6.354-6.564-3.998-2.483-8.71-1.852-8.71-1.852s.125 4.755 3.24 8.29c1.977 2.23 4.923 3.829 7.49 5.176-1.052 1.01-1.852 2.23-.21 3.913 2.398 2.44 7.069 3.072 7.237 2.82l-3.366-2.778c-.169-.631-.127-1.262.042-1.893l.63.757c1.558-.715 3.03-2.483 3.451-4.082l-.883-.505c.589-.294 1.22-.42 1.851-.336l3.325 2.819c.294-.168-1.22-4.797-4.04-6.69zm29.456 24.196c-13.424-1.557-27.478-11.277-28.951-12.54 0 0 13.045 17.085 36.189 15.275 14.98-1.178 19.862-8.542 20.282-8.752-2.02.968-12.034 7.785-27.52 6.017zM325.86 6.565c-18.937-6.775-31.687 2.65-31.981 2.861 2.356-1.304 26.342-8.5 39.555 5.429 6.144 6.48 6.48 13.086 5.05 19.23h-20.325l-1.473 6.943h11.656c-1.346 2.651-3.282 4.671-5.849 6.018-2.398 1.262-4.797 1.725-7.238 1.388-2.524-.336-4.418-1.388-5.723-3.24-1.43-2.02-1.809-4.67-1.094-7.869.59-2.735 1.726-5.05 3.535-6.943 1.6-1.725 3.493-2.946 5.723-3.66 2.104-.674 4.124-.8 6.06-.338 2.02.463 3.576 1.473 4.67 2.988h.169l5.05-8.29c-2.694-2.104-6.186-3.156-10.479-3.156-5.638 0-10.688 1.81-15.064 5.429-4.419 3.619-7.196 8.29-8.416 13.928-1.22 5.639-.379 10.31 2.482 13.929 1.094 1.388 2.399 2.524 3.914 3.366-10.015-2.02-17.674-6.943-17.674-6.943l-.168-.295c0 .042.042.126.042.169-1.389-.295-3.366-1.01-3.535-1.094 2.02 1.472 8.921 7.364 18.936 10.31 4.966 1.472 10.815 2.818 17.926 2.061a50.178 50.178 0 0 0 3.367-.505c5.891-1.178 11.53-5.47 14.475-11.698 7.196-15.317 5.134-33.328-13.591-40.018z" clip-path="url(&quot;#86wab&quot;)"/></g><g><g><g><path fill="#071c3a" d="M469.1 28.657l-.632 2.903h5.387l-3.872 18.305h2.904l3.871-18.305h5.386l.632-2.903zm-19.357 15.19c-.38 1.768-.042 3.24 1.01 4.377 1.01 1.094 2.482 1.641 4.376 1.641 1.894 0 3.577-.547 5.05-1.641 1.556-1.136 2.524-2.609 2.903-4.376.379-1.684 0-3.03-1.094-3.998-.673-.59-1.936-1.22-3.871-1.936-1.347-.505-2.23-.883-2.694-1.22-.757-.547-1.052-1.22-.883-1.978.168-.926.63-1.683 1.388-2.23.842-.59 1.81-.926 3.03-.926 1.22 0 2.062.337 2.651.926.547.547.716 1.305.505 2.23h2.904c.378-1.81 0-3.282-1.052-4.418-1.01-1.094-2.483-1.641-4.377-1.641-1.935 0-3.619.547-5.091 1.64-1.557 1.137-2.525 2.61-2.904 4.42-.379 1.682 0 3.029 1.094 3.997.674.589 1.936 1.22 3.872 1.936 1.304.462 2.188.883 2.65 1.22.758.547 1.095 1.22.926 1.978-.168.925-.673 1.683-1.43 2.23-.842.631-1.852.926-3.03.926-1.22 0-2.062-.337-2.651-.926-.505-.59-.673-1.305-.463-2.23zm-6.649-10.183c1.136 1.431 1.43 3.282.926 5.597-.505 2.314-1.6 4.166-3.283 5.597-1.725 1.388-3.745 2.104-6.06 2.104-2.313 0-3.997-.674-5.133-2.104-1.094-1.431-1.43-3.283-.926-5.597.463-2.315 1.6-4.166 3.283-5.597 1.683-1.388 3.703-2.104 6.017-2.104 2.314 0 4.04.716 5.176 2.104zm-4.545-4.965c-3.114 0-5.89.968-8.29 2.945-2.398 1.978-3.913 4.503-4.586 7.617-.631 3.114-.21 5.639 1.346 7.616 1.6 1.978 3.914 2.988 7.028 2.988 3.114 0 5.849-1.01 8.247-2.988 2.399-1.935 3.914-4.502 4.587-7.616.673-3.072.21-5.639-1.346-7.617-1.557-1.977-3.872-2.987-6.986-2.945zm-19.525 4.965c1.136 1.431 1.43 3.282.926 5.597-.505 2.314-1.6 4.166-3.282 5.597-1.726 1.388-3.746 2.104-6.06 2.104-2.314 0-3.998-.674-5.134-2.104-1.094-1.431-1.43-3.283-.925-5.597.462-2.315 1.599-4.166 3.282-5.597 1.683-1.388 3.703-2.104 6.017-2.104 2.315 0 4.04.716 5.176 2.104zM414.48 28.7c-3.114 0-5.89.968-8.29 2.945-2.398 1.978-3.913 4.503-4.586 7.617-.631 3.114-.21 5.639 1.346 7.616 1.6 1.978 3.914 2.988 7.028 2.988 3.114 0 5.849-1.01 8.248-2.988 2.398-1.935 3.913-4.502 4.586-7.616.674-3.072.21-5.639-1.346-7.617-1.557-1.977-3.872-2.987-6.986-2.945zm-20.745-1.852c1.262 0 2.188.337 2.735 1.052.547.716.673 1.683.42 2.946-.252 1.262-.799 2.23-1.64 2.945-.842.716-1.936 1.052-3.198 1.052h-5.008l1.683-7.995zm-7.28 10.857h5.47c1.473 0 2.525.42 3.156 1.22.632.842.8 1.978.505 3.409-.294 1.473-.967 2.609-1.935 3.408-1.01.8-2.23 1.22-3.661 1.22h-5.513l1.978-9.215zm-5.47 12.119h8.416c2.062 0 3.871-.59 5.47-1.767a9.309 9.309 0 0 0 3.156-4.04c.21-.547.337-1.052.463-1.557.252-1.052.252-2.062 0-3.03-.337-1.557-1.22-2.693-2.567-3.408 1.347-.8 2.399-1.852 3.156-3.24a8.985 8.985 0 0 0 .842-2.23c.084-.59.168-1.179.126-1.768-.084-1.389-.59-2.525-1.473-3.409-1.01-.967-2.398-1.43-4.208-1.43h-7.911z"/></g><g><path fill="url(#86wac)" d="M350.518 37.746c.42-.884 1.136-1.683 2.146-2.44a4.58 4.58 0 0 1 2.819-.968c1.01 0 1.81.336 2.44.967.674.716 1.053 1.515 1.095 2.441zm12.876-5.47c-1.557-1.936-3.83-2.946-6.859-2.946-3.03 0-5.723.968-8.08 2.946-2.398 1.977-3.913 4.46-4.544 7.49-.631 3.03-.21 5.512 1.347 7.448 1.556 1.978 3.829 2.946 6.817 2.946 3.03 0 5.722-.968 8.121-2.946 1.136-.968 2.104-2.062 2.861-3.324h-6.69c-1.389 1.22-2.82 1.599-4.25 1.178-1.515-.463-2.357-1.43-2.483-2.946h14.433c.295-.968.505-1.767.632-2.356.673-3.03.21-5.513-1.305-7.49zm14.265-2.146l1.431-6.733-6.438 2.272-.968 4.46h-3.324l-1.052 5.05h3.324l-3.114 14.728h5.933l3.114-14.728h4.46l1.053-5.05zm-107.473 6.69c-.673.8-1.893.926-2.693.21-.8-.673-.925-1.893-.21-2.692.673-.8 1.894-.926 2.693-.21.8.672.926 1.893.21 2.692zm11.783 1.557c-1.936-1.262-2.904-.21-3.703.926-1.768-2.356-3.83-5.008-6.354-6.564-3.998-2.483-8.71-1.852-8.71-1.852s.125 4.755 3.24 8.29c1.977 2.23 4.923 3.829 7.49 5.176-1.052 1.01-1.852 2.23-.21 3.913 2.398 2.44 7.069 3.072 7.237 2.82l-3.366-2.778c-.169-.631-.127-1.262.042-1.893l.63.757c1.558-.715 3.03-2.483 3.451-4.082l-.883-.505c.589-.294 1.22-.42 1.851-.336l3.325 2.819c.294-.168-1.22-4.797-4.04-6.69zm29.456 24.196c-13.424-1.557-27.478-11.277-28.951-12.54 0 0 13.045 17.085 36.189 15.275 14.98-1.178 19.862-8.542 20.282-8.752-2.02.968-12.034 7.785-27.52 6.017zM325.86 6.565c-18.937-6.775-31.687 2.65-31.981 2.861 2.356-1.304 26.342-8.5 39.555 5.429 6.144 6.48 6.48 13.086 5.05 19.23h-20.325l-1.473 6.943h11.656c-1.346 2.651-3.282 4.671-5.849 6.018-2.398 1.262-4.797 1.725-7.238 1.388-2.524-.336-4.418-1.388-5.723-3.24-1.43-2.02-1.809-4.67-1.094-7.869.59-2.735 1.726-5.05 3.535-6.943 1.6-1.725 3.493-2.946 5.723-3.66 2.104-.674 4.124-.8 6.06-.338 2.02.463 3.576 1.473 4.67 2.988h.169l5.05-8.29c-2.694-2.104-6.186-3.156-10.479-3.156-5.638 0-10.688 1.81-15.064 5.429-4.419 3.619-7.196 8.29-8.416 13.928-1.22 5.639-.379 10.31 2.482 13.929 1.094 1.388 2.399 2.524 3.914 3.366-10.015-2.02-17.674-6.943-17.674-6.943l-.168-.295c0 .042.042.126.042.169-1.389-.295-3.366-1.01-3.535-1.094 2.02 1.472 8.921 7.364 18.936 10.31 4.966 1.472 10.815 2.818 17.926 2.061a50.178 50.178 0 0 0 3.367-.505c5.891-1.178 11.53-5.47 14.475-11.698 7.196-15.317 5.134-33.328-13.591-40.018z"/></g><g><g><path fill="#071c3a" d="M348.834 58.828c0-.757-.168-1.262-.463-1.599-.336-.337-.757-.505-1.346-.505h-2.82v-.673h2.988c1.641 0 2.483.926 2.483 2.777v8.458h-.8v-8.458z"/></g><g><path fill="#071c3a" d="M357.04 56.093v.715l-2.988 7.533h-.8l2.946-7.575h-4.755v-3.198h.8v2.525z"/></g><g><path fill="#071c3a" d="M364.488 62.868c-1.094 1.052-2.693 1.599-4.881 1.64l-1.052-8.415h.8l.546 4.46c.505-.294.926-.547 1.179-.841.294-.295.505-.631.63-1.052.127-.421.211-.968.253-1.641v-.884h.8v.842c-.042.757-.126 1.388-.337 1.893-.21.505-.463.968-.883 1.305-.38.378-.926.715-1.557 1.052l.294 2.524c1.641-.126 2.904-.63 3.745-1.514.842-.884 1.263-2.273 1.263-4.082v-2.062h.8v2.02c.041 2.104-.506 3.703-1.6 4.755z"/></g><g><path fill="#071c3a" d="M370.969 67.37h.841v-8.332h-.715l-.126 1.01zm2.314-2.987c1.01-.042 1.851-.421 2.525-1.136.673-.674 1.01-1.768 1.094-3.199l.252-3.282.042-.631h-6.312v.673h5.429l-.253 3.325c-.084.883-.252 1.599-.505 2.104-.252.505-.589.841-.968 1.052-.378.168-.841.294-1.388.378z"/></g><g><path fill="#071c3a" d="M380.563 63.71l-.842-6.944h2.946c.631 0 1.136.21 1.473.673.378.463.547 1.052.547 1.768v.336c.042 1.431-.295 2.483-1.094 3.072-.758.59-1.81.968-3.03 1.094zm3.45-.506c1.052-.715 1.557-1.935 1.431-3.703v-.42c-.042-.968-.294-1.684-.757-2.23-.463-.548-1.137-.8-1.978-.8h-3.914l.085.673.925 7.743c1.768-.084 3.156-.505 4.208-1.263z"/></g><g><path fill="#071c3a" d="M393.187 56.093c0 2.062-.084 3.619-.253 4.629-.168 1.01-.505 1.81-1.094 2.356-.589.547-1.473.968-2.693 1.178l-2.23.463-.126-.673 2.398-.463.337-.084-2.02-7.406h.842l1.935 7.196c.674-.253 1.136-.674 1.431-1.179.295-.547.463-1.22.547-2.062.084-.841.126-2.188.126-3.955h.8z"/></g><g><path fill="#071c3a" d="M400.34 56.093v.715l-2.987 7.533h-.8l2.946-7.575h-4.755v-3.198h.8v2.525z"/></g><g><path fill="#071c3a" d="M404.843 56.093h.842l.925 7.616c1.22-.126 2.189-.505 2.946-1.22.757-.715 1.136-1.725 1.094-3.198v-.337c0-.673-.168-1.22-.505-1.64-.336-.422-.884-.632-1.557-.674l-.757-.042.042-.673.8.042c1.767.126 2.692 1.052 2.735 2.819v.42c.042 1.726-.421 2.989-1.473 3.83-1.052.842-2.399 1.305-4.124 1.389z"/></g><g><path fill="#071c3a" d="M417.762 62.615c-.8.59-1.81.968-3.03 1.094l-.842-6.943h2.946c.631 0 1.136.21 1.473.673.378.463.547 1.052.547 1.768v.336c.042 1.431-.295 2.483-1.094 3.072zm1.851-3.114v-.42c-.042-.968-.294-1.684-.757-2.23-.463-.548-1.136-.8-1.978-.8h-3.913l.084.673.925 7.743c1.768-.084 3.156-.505 4.208-1.263 1.052-.715 1.557-1.935 1.431-3.703z"/></g><g><path fill="#071c3a" d="M421.717 57.818l-.21-1.767h.8l.21 1.767v6.48h-.842v-6.48z"/></g><g><path fill="#071c3a" d="M430.849 63.625v.673h-6.354v-.673h4.46v-4.797c0-.757-.168-1.262-.463-1.599-.337-.337-.757-.505-1.346-.505h-2.61v-.673h2.778c1.641 0 2.483.926 2.483 2.777v4.797z"/></g><g><path fill="#071c3a" d="M435.73 57.818l-.21-1.767h.799l.21 1.767v9.51h-.841v-9.51z"/></g><g><path fill="#071c3a" d="M438.044 63.92c.59-.042 1.01-.21 1.263-.547.252-.295.378-.758.336-1.347v-5.933h3.409c1.641 0 2.483.926 2.483 2.777v5.47h-.8v-5.47c0-.757-.168-1.262-.463-1.599-.336-.337-.757-.505-1.346-.505h-2.441v5.176c0 .8-.168 1.43-.547 1.852-.379.42-.968.673-1.767.715z"/></g></g></g><g><path fill="url(#86wad)" d="M339.45 46.625c-2.903 6.228-8.584 10.562-14.475 11.698-1.178.21-2.272.42-3.367.505 15.107-11.993 16.875-24.617 16.875-24.617l-.042-.126h.126c1.304-5.47 1.178-11.32-3.198-17.127a27.22 27.22 0 0 0-1.81-2.146C320.304.884 296.36 8.08 294.004 9.384c.294-.21 13.045-9.594 31.98-2.861 7.66 2.735 12.54 7.364 15.108 12.918 3.618 8.122 2.609 18.095-1.642 27.184z"/></g></g></g></svg>