<svg xmlns="http://www.w3.org/2000/svg" width="279" height="45" viewBox="0 0 279 45"><defs><clipPath id="h6eca"><path fill="#fff" d="M0 45V0h279v45zm274.59-23.819c0-3.92-.74-6.852-2.224-8.799-1.483-1.946-3.641-2.92-6.475-2.92-1.43 0-2.701.404-3.814 1.212-1.112.808-1.946 2.033-2.502 3.675l-1.59-4.529h-5.958l3.178 7.389-2.741 15.294h5.72l2.463-15.016c.186-1.086.642-1.946 1.37-2.582.729-.636 1.623-.953 2.682-.953 1.51 0 2.629.589 3.357 1.767.728 1.179 1.092 3.079 1.092 5.7 0 2.358-.384 4.139-1.152 5.344-.768 1.205-2.052 1.807-3.853 1.807-.662 0-1.483-.106-2.463-.317l-.516 4.29c1.324.318 2.542.477 3.654.477 3.099 0 5.502-1.053 7.21-3.159 1.709-2.105 2.563-4.998 2.563-8.68zm-27.807 7.032V17.288c0-2.568-.609-4.455-1.827-5.66s-2.887-1.808-5.006-1.808h-9.375v4.29h7.786c1.801 0 2.702.967 2.702 2.9v11.203h-10.488v4.29h18.87v-4.29zM227.636 9.82h-5.641l-3.258 7.985-4.489-7.985h-5.76l10.368 18.393h-10.805v4.29h18.989l-5.244-9.296zm-28.126 0v2.582c0 3.443-.06 6.012-.179 7.707-.119 1.695-.443 3.138-.973 4.33-.53 1.192-1.39 2.079-2.582 2.662l-4.012-17.28h-5.72l4.568 18.55-6.317 1.193.795 4.488 8.501-1.668c3.655-.715 6.303-1.993 7.945-3.833 1.642-1.841 2.655-4.105 3.039-6.794.384-2.688.59-6.667.616-11.937zm-36.865 0v-5.8h-5.164v10.09H169l-7.11 18.393h5.72l7.15-17.956V9.82zm-17.28 22.683h5.72V18.758c0-1.033.033-1.92.1-2.661.066-.742.244-1.404.536-1.987h2.979V9.82h-11.798v4.29h3.575c-.344.477-.616 1.12-.814 1.927-.2.808-.298 1.715-.298 2.721zm-5.562-11.322c0-3.92-.742-6.852-2.225-8.799-1.483-1.946-3.641-2.92-6.475-2.92-1.43 0-2.701.404-3.813 1.212-1.113.808-1.947 2.033-2.503 3.675l-1.59-4.529h-5.958l3.178 7.389-2.74 15.294h5.72l2.462-15.016c.186-1.086.643-1.946 1.371-2.582.728-.636 1.622-.953 2.681-.953 1.51 0 2.629.589 3.357 1.767.729 1.179 1.093 3.079 1.093 5.7 0 2.358-.384 4.139-1.152 5.344-.768 1.205-2.053 1.807-3.854 1.807-.662 0-1.483-.106-2.463-.317l-.516 4.29c1.324.318 2.542.477 3.655.477 3.098 0 5.502-1.053 7.21-3.159 1.708-2.105 2.562-4.998 2.562-8.68zm-31.82 19.267h5.72v-25.98l-.476-4.648h-5.72l.476 4.648zM96.066 21.181c0-3.92-.742-6.852-2.225-8.799-1.483-1.946-3.642-2.92-6.475-2.92-1.43 0-2.702.404-3.814 1.212-1.112.808-1.946 2.033-2.503 3.675L79.46 9.82h-5.958l3.178 7.389-2.741 15.294h5.72l2.463-15.016c.185-1.086.642-1.946 1.37-2.582.729-.636 1.623-.953 2.682-.953 1.51 0 2.628.589 3.357 1.767.728 1.179 1.092 3.079 1.092 5.7 0 2.358-.384 4.139-1.152 5.344-.768 1.205-2.052 1.807-3.853 1.807-.662 0-1.483-.106-2.463-.317l-.517 4.29c1.325.318 2.543.477 3.655.477 3.099 0 5.502-1.053 7.21-3.159 1.708-2.105 2.563-4.998 2.563-8.68zm-31.82 11.322h5.72V14.468L69.49 9.82h-5.72l.477 4.648zm-4.052 0l-1.272-8.898v-7.548c0-1.854-.384-3.277-1.152-4.27-.768-.994-1.96-1.596-3.575-1.808l-4.687-.636-.715 4.211 2.502.358c.689.106 1.179.357 1.47.755.291.397.437 1.072.437 2.026v6.475c-1.324 2.542-3.84 4.396-7.548 5.561l2.106 4.529c1.456-.503 2.681-1.165 3.674-1.986.993-.821 1.86-1.828 2.602-3.02l.715 4.251zm-19.068-4.29V17.288c0-2.568-.61-4.455-1.828-5.66S36.411 9.82 34.293 9.82h-9.375v4.29h7.786c1.8 0 2.701.967 2.701 2.9v11.203H24.918v4.29h18.87v-4.29zM10.02 9.82v-5.8H4.856v10.09h11.52l-7.11 18.393h5.72l7.15-17.956V9.82z"/></clipPath></defs><g><g><path fill="#fff" d="M274.59 21.181c0 3.682-.853 6.575-2.561 8.68-1.709 2.106-4.112 3.159-7.21 3.159-1.113 0-2.331-.16-3.655-.477l.516-4.29c.98.211 1.801.317 2.463.317 1.8 0 3.085-.602 3.853-1.807.768-1.205 1.152-2.986 1.152-5.343 0-2.622-.364-4.522-1.092-5.7-.728-1.18-1.847-1.768-3.357-1.768-1.06 0-1.953.317-2.681.953-.729.636-1.185 1.496-1.37 2.582l-2.464 15.016h-5.72l2.74-15.294-3.177-7.389h5.959l1.589 4.529c.556-1.642 1.39-2.867 2.502-3.675 1.113-.808 2.384-1.211 3.814-1.211 2.834 0 4.992.973 6.475 2.92 1.483 1.946 2.225 4.879 2.225 8.799zm-25.145 7.032v4.29h-18.87v-4.29h10.488V17.01c0-1.933-.9-2.9-2.702-2.9h-7.786V9.82h9.375c2.12 0 3.788.603 5.006 1.808 1.218 1.205 1.827 3.092 1.827 5.66v10.925zm-27.65-5.006l5.245 9.296H208.05v-4.29h10.805L208.488 9.82h5.76l4.49 7.985 3.257-7.985h5.64zM205.192 9.82c-.027 5.27-.232 9.25-.616 11.938-.384 2.688-1.397 4.952-3.039 6.793-1.642 1.84-4.29 3.118-7.945 3.833l-8.501 1.668-.795-4.488 6.317-1.192-4.569-18.552h5.72l4.013 17.28c1.192-.582 2.052-1.47 2.582-2.661.53-1.192.854-2.635.973-4.33.12-1.695.18-4.264.18-7.707V9.82zm-30.43 0v4.727l-7.15 17.956h-5.72L169 14.11h-11.52V4.02h5.164v5.8zm-29.396 8.938c0-1.006.099-1.913.298-2.72.198-.809.47-1.45.814-1.928h-3.575V9.82H154.7v4.29h-2.98c-.29.583-.47 1.245-.536 1.987-.066.741-.099 1.628-.099 2.661v13.745h-5.72zm-5.562 2.423c0 3.682-.854 6.575-2.562 8.68-1.708 2.106-4.112 3.159-7.21 3.159-1.113 0-2.33-.16-3.655-.477l.516-4.29c.98.211 1.801.317 2.463.317 1.801 0 3.086-.602 3.854-1.807.768-1.205 1.152-2.986 1.152-5.343 0-2.622-.364-4.522-1.093-5.7-.728-1.18-1.847-1.768-3.357-1.768-1.059 0-1.953.317-2.681.953-.728.636-1.185 1.496-1.37 2.582l-2.463 15.016h-5.72l2.74-15.294-3.178-7.389h5.959l1.589 4.529c.556-1.642 1.39-2.867 2.503-3.675 1.112-.808 2.383-1.211 3.813-1.211 2.834 0 4.992.973 6.475 2.92 1.483 1.946 2.225 4.879 2.225 8.799zm-31.82-6.713l-.477-4.648h5.72l.478 4.648v25.98h-5.72zM96.066 21.18c0 3.682-.855 6.575-2.563 8.68-1.708 2.106-4.111 3.159-7.21 3.159-1.112 0-2.33-.16-3.655-.477l.517-4.29c.98.211 1.8.317 2.463.317 1.8 0 3.085-.602 3.853-1.807.768-1.205 1.152-2.986 1.152-5.343 0-2.622-.364-4.522-1.092-5.7-.729-1.18-1.847-1.768-3.357-1.768-1.06 0-1.953.317-2.681.953-.729.636-1.186 1.496-1.371 2.582l-2.463 15.016h-5.72l2.74-15.294-3.177-7.389h5.958l1.59 4.529c.556-1.642 1.39-2.867 2.502-3.675 1.112-.808 2.384-1.211 3.814-1.211 2.833 0 4.992.973 6.475 2.92 1.483 1.946 2.225 4.879 2.225 8.798zm-31.82-6.713l-.477-4.648h5.72l.477 4.648v18.035h-5.72zM54.75 32.503l-.715-4.25c-.741 1.191-1.609 2.198-2.602 3.019-.993.82-2.218 1.483-3.674 1.986l-2.106-4.529c3.708-1.165 6.224-3.019 7.548-5.561v-6.475c0-.954-.146-1.63-.437-2.026-.291-.398-.781-.65-1.47-.755l-2.502-.358.715-4.21 4.687.635c1.616.212 2.807.814 3.575 1.807.768.994 1.152 2.417 1.152 4.27v7.549l1.272 8.898zm-10.964-4.29v4.29h-18.87v-4.29h10.488V17.01c0-1.933-.9-2.9-2.701-2.9h-7.786V9.82h9.375c2.118 0 3.787.603 5.005 1.808s1.828 3.092 1.828 5.66v10.925zM22.137 9.82v4.727l-7.15 17.956H9.265l7.11-18.393H4.857V4.02h5.165v5.8z"/><path fill="none" stroke="#9a2860" stroke-miterlimit="20" stroke-width="8" d="M274.59 21.181c0 3.682-.853 6.575-2.561 8.68-1.709 2.106-4.112 3.159-7.21 3.159-1.113 0-2.331-.16-3.655-.477l.516-4.29c.98.211 1.801.317 2.463.317 1.8 0 3.085-.602 3.853-1.807.768-1.205 1.152-2.986 1.152-5.343 0-2.622-.364-4.522-1.092-5.7-.728-1.18-1.847-1.768-3.357-1.768-1.06 0-1.953.317-2.681.953-.729.636-1.185 1.496-1.37 2.582l-2.464 15.016h-5.72l2.74-15.294-3.177-7.389h5.959l1.589 4.529c.556-1.642 1.39-2.867 2.502-3.675 1.113-.808 2.384-1.211 3.814-1.211 2.834 0 4.992.973 6.475 2.92 1.483 1.946 2.225 4.879 2.225 8.799zm-25.145 7.032v4.29h-18.87v-4.29h10.488V17.01c0-1.933-.9-2.9-2.702-2.9h-7.786V9.82h9.375c2.12 0 3.788.603 5.006 1.808 1.218 1.205 1.827 3.092 1.827 5.66v10.925zm-27.65-5.006l5.245 9.296H208.05v-4.29h10.805L208.488 9.82h5.76l4.49 7.985 3.257-7.985h5.64zM205.192 9.82c-.027 5.27-.232 9.25-.616 11.938-.384 2.688-1.397 4.952-3.039 6.793-1.642 1.84-4.29 3.118-7.945 3.833l-8.501 1.668-.795-4.488 6.317-1.192-4.569-18.552h5.72l4.013 17.28c1.192-.582 2.052-1.47 2.582-2.661.53-1.192.854-2.635.973-4.33.12-1.695.18-4.264.18-7.707V9.82zm-30.43 0v4.727l-7.15 17.956h-5.72L169 14.11h-11.52V4.02h5.164v5.8zm-29.396 8.938c0-1.006.099-1.913.298-2.72.198-.809.47-1.45.814-1.928h-3.575V9.82H154.7v4.29h-2.98c-.29.583-.47 1.245-.536 1.987-.066.741-.099 1.628-.099 2.661v13.745h-5.72zm-5.562 2.423c0 3.682-.854 6.575-2.562 8.68-1.708 2.106-4.112 3.159-7.21 3.159-1.113 0-2.33-.16-3.655-.477l.516-4.29c.98.211 1.801.317 2.463.317 1.801 0 3.086-.602 3.854-1.807.768-1.205 1.152-2.986 1.152-5.343 0-2.622-.364-4.522-1.093-5.7-.728-1.18-1.847-1.768-3.357-1.768-1.059 0-1.953.317-2.681.953-.728.636-1.185 1.496-1.37 2.582l-2.463 15.016h-5.72l2.74-15.294-3.178-7.389h5.959l1.589 4.529c.556-1.642 1.39-2.867 2.503-3.675 1.112-.808 2.383-1.211 3.813-1.211 2.834 0 4.992.973 6.475 2.92 1.483 1.946 2.225 4.879 2.225 8.799zm-31.82-6.713l-.477-4.648h5.72l.478 4.648v25.98h-5.72zM96.066 21.18c0 3.682-.855 6.575-2.563 8.68-1.708 2.106-4.111 3.159-7.21 3.159-1.112 0-2.33-.16-3.655-.477l.517-4.29c.98.211 1.8.317 2.463.317 1.8 0 3.085-.602 3.853-1.807.768-1.205 1.152-2.986 1.152-5.343 0-2.622-.364-4.522-1.092-5.7-.729-1.18-1.847-1.768-3.357-1.768-1.06 0-1.953.317-2.681.953-.729.636-1.186 1.496-1.371 2.582l-2.463 15.016h-5.72l2.74-15.294-3.177-7.389h5.958l1.59 4.529c.556-1.642 1.39-2.867 2.502-3.675 1.112-.808 2.384-1.211 3.814-1.211 2.833 0 4.992.973 6.475 2.92 1.483 1.946 2.225 4.879 2.225 8.798zm-31.82-6.713l-.477-4.648h5.72l.477 4.648v18.035h-5.72zM54.75 32.503l-.715-4.25c-.741 1.191-1.609 2.198-2.602 3.019-.993.82-2.218 1.483-3.674 1.986l-2.106-4.529c3.708-1.165 6.224-3.019 7.548-5.561v-6.475c0-.954-.146-1.63-.437-2.026-.291-.398-.781-.65-1.47-.755l-2.502-.358.715-4.21 4.687.635c1.616.212 2.807.814 3.575 1.807.768.994 1.152 2.417 1.152 4.27v7.549l1.272 8.898zm-10.964-4.29v4.29h-18.87v-4.29h10.488V17.01c0-1.933-.9-2.9-2.701-2.9h-7.786V9.82h9.375c2.118 0 3.787.603 5.005 1.808s1.828 3.092 1.828 5.66v10.925zM22.137 9.82v4.727l-7.15 17.956H9.265l7.11-18.393H4.857V4.02h5.165v5.8z" clip-path="url(&quot;#h6eca&quot;)"/></g></g></svg>