<svg xmlns="http://www.w3.org/2000/svg" width="33" height="32" viewBox="0 0 33 32"><g><g><g><path fill="#fbbd00" d="M8.244 16c0-1.585.437-3.07 1.196-4.342V6.263H4.046A15.879 15.879 0 0 0 .744 16c0 3.567 1.16 6.956 3.302 9.737H9.44v-5.395A8.448 8.448 0 0 1 8.244 16z"/></g><g><path fill="#0f9d58" d="M16.744 24.5l-3.75 3.75 3.75 3.75c3.568 0 6.956-1.16 9.737-3.301V23.31h-5.389a8.5 8.5 0 0 1-4.348 1.19z"/></g><g><path fill="#31aa52" d="M9.44 20.342l-5.394 5.395c.424.55.885 1.077 1.385 1.577A15.895 15.895 0 0 0 16.744 32v-7.5a8.503 8.503 0 0 1-7.304-4.158z"/></g><g><path fill="#3c79e6" d="M32.744 16c0-.973-.088-1.949-.262-2.899l-.14-.768H16.744v7.5h7.591a8.462 8.462 0 0 1-3.243 3.477l5.389 5.389c.55-.424 1.078-.886 1.577-1.385A15.895 15.895 0 0 0 32.744 16z"/></g><g><path fill="#cf2d48" d="M22.755 9.99l.663.662L28.72 5.35l-.663-.663A15.895 15.895 0 0 0 16.744 0l-3.75 3.75 3.75 3.75c2.27 0 4.405.884 6.01 2.49z"/></g><g><path fill="#eb4132" d="M16.744 7.5V0A15.896 15.896 0 0 0 5.431 4.686c-.5.5-.961 1.027-1.385 1.577l5.394 5.395A8.504 8.504 0 0 1 16.744 7.5z"/></g></g></g></svg>