<svg xmlns="http://www.w3.org/2000/svg" width="61" height="56" viewBox="0 0 61 56"><g><g><g><path fill="#a02b75" d="M44.34 0h-28a8 8 0 0 0-8 8v18a8 8 0 0 0 8 8h8.73l4.33 7.48a1.08 1.08 0 0 0 1.88 0L35.61 34h8.73a8 8 0 0 0 8-8V8a8 8 0 0 0-8-8z"/></g><g><path fill="#fff" d="M37.25 8.84c-2.49-1-5.25.55-6.83 2.58a.09.09 0 0 1-.16 0c-1.58-2-4.34-3.56-6.84-2.58-3 1.21-3.8 4.64-2.6 7.68 1.83 4.61 8.71 9.29 9.45 9.77a.13.13 0 0 0 .12 0c.69-.46 7.67-5.22 9.47-9.77 1.2-3.04.43-6.47-2.61-7.68z"/></g><g><path fill="#d5d5d5" d="M60.17 51.38c0 2.43-13.47 4.39-30.08 4.39S0 53.81 0 51.38C0 48.95 13.47 47 30.09 47c16.62 0 30.08 2 30.08 4.38z"/></g></g></g></svg>