<svg xmlns="http://www.w3.org/2000/svg" width="46" height="46" viewBox="0 0 46 46"><defs><linearGradient id="1oh5a" x1="22.89" x2="22.89" y1="18.73" y2="27.49" gradientUnits="userSpaceOnUse"><stop offset="0" stop-color="#782ea0"/><stop offset="1" stop-color="#279ced"/></linearGradient><linearGradient id="1oh5b" x1="22.89" x2="22.89" y1="12.33" y2="33.89" gradientUnits="userSpaceOnUse"><stop offset="0" stop-color="#782ea0"/><stop offset="1" stop-color="#279ced"/></linearGradient><linearGradient id="1oh5c" x1="22.89" x2="22.89" y1=".22" y2="46" gradientUnits="userSpaceOnUse"><stop offset="0" stop-color="#782ea0"/><stop offset="1" stop-color="#279ced"/></linearGradient></defs><g><g><g><path fill="url(#1oh5a)" d="M27.272 23.11a4.381 4.381 0 1 1-8.763 0 4.381 4.381 0 0 1 8.763 0z"/></g><g><path fill="url(#1oh5b)" d="M29.907 17.67a1.577 1.577 0 1 1 0-3.154 1.577 1.577 0 0 1 0 3.154zM22.891 29.86a6.75 6.75 0 1 1-.001-13.5 6.75 6.75 0 0 1 0 13.5zm10.246-14.502a4.073 4.073 0 0 0-.983-1.51 4.07 4.07 0 0 0-1.511-.984c-.463-.18-1.16-.394-2.44-.452-1.387-.064-1.803-.077-5.312-.077-3.51 0-3.926.013-5.312.076-1.281.059-1.978.273-2.44.453a4.067 4.067 0 0 0-1.512.983c-.436.424-.772.94-.983 1.511-.18.464-.394 1.16-.453 2.441-.063 1.386-.076 1.802-.076 5.312 0 3.51.013 3.925.076 5.311.059 1.282.273 1.978.453 2.44.21.572.546 1.088.983 1.512.424.437.94.773 1.511.983.464.18 1.16.395 2.441.453 1.386.063 1.801.076 5.311.076s3.926-.013 5.312-.076c1.281-.058 1.978-.272 2.44-.453a4.353 4.353 0 0 0 2.495-2.494c.18-.463.394-1.16.453-2.44.063-1.387.076-1.803.076-5.312 0-3.51-.013-3.926-.076-5.312-.058-1.281-.272-1.977-.453-2.44z"/></g><g><path fill="url(#1oh5c)" d="M35.956 28.528c-.064 1.4-.286 2.355-.611 3.191a6.72 6.72 0 0 1-3.845 3.844c-.835.325-1.791.547-3.19.611-1.402.064-1.85.08-5.419.08-3.57 0-4.017-.016-5.42-.08-1.398-.064-2.354-.286-3.19-.61a6.44 6.44 0 0 1-2.328-1.517 6.442 6.442 0 0 1-1.516-2.328c-.325-.836-.547-1.791-.611-3.19-.065-1.402-.08-1.85-.08-5.42s.015-4.017.08-5.419c.063-1.4.285-2.354.61-3.19a6.44 6.44 0 0 1 1.517-2.329 6.438 6.438 0 0 1 2.328-1.516c.836-.325 1.791-.547 3.19-.61 1.402-.065 1.85-.08 5.42-.08s4.017.015 5.419.08c1.399.063 2.354.285 3.19.61.878.33 1.672.848 2.329 1.516a6.44 6.44 0 0 1 1.516 2.328c.325.837.547 1.792.61 3.191.065 1.402.08 1.85.08 5.42 0 3.569-.015 4.017-.08 5.418zM22.89.218C10.25.219 0 10.47 0 23.11 0 35.75 10.25 46 22.89 46s22.891-10.25 22.891-22.89S35.531.218 22.891.218z"/></g></g></g></svg>