<svg xmlns="http://www.w3.org/2000/svg" width="61" height="56" viewBox="0 0 61 56"><g><g><g><g><g><path fill="#a02b75" d="M44.34 0h-28a8 8 0 0 0-8 8v18a8 8 0 0 0 8 8h8.73l4.33 7.48a1.08 1.08 0 0 0 1.88 0L35.61 34h8.73a8 8 0 0 0 8-8V8a8 8 0 0 0-8-8z"/></g><g><path fill="#d5d5d5" d="M60.17 51.38c0 2.43-13.47 4.39-30.08 4.39S0 53.81 0 51.38C0 48.95 13.47 47 30.09 47c16.62 0 30.08 2 30.08 4.38z"/></g><g><g><path fill="#fff" d="M30.293 17.108a4.407 4.407 0 0 0 3.22-1.334 4.406 4.406 0 0 0 1.335-3.22c0-1.251-.45-2.334-1.335-3.22A4.408 4.408 0 0 0 30.293 8a4.406 4.406 0 0 0-3.22 1.334 4.407 4.407 0 0 0-1.334 3.22c0 1.251.449 2.335 1.334 3.22.886.885 1.97 1.334 3.22 1.334z"/></g><g><path fill="#fff" d="M38.262 22.54c-.025-.369-.077-.77-.153-1.195a9.415 9.415 0 0 0-.294-1.201 5.934 5.934 0 0 0-.494-1.12 4.227 4.227 0 0 0-.744-.971 3.283 3.283 0 0 0-1.07-.672 3.697 3.697 0 0 0-1.366-.247c-.193 0-.38.079-.74.314-.222.144-.481.312-.77.497-.249.158-.584.305-.999.44-.404.13-.815.197-1.22.197s-.815-.067-1.22-.198c-.414-.133-.75-.281-.997-.44-.287-.182-.547-.35-.772-.496-.36-.235-.547-.314-.74-.314-.492 0-.95.083-1.365.247a3.28 3.28 0 0 0-1.07.672 4.23 4.23 0 0 0-.745.97 5.946 5.946 0 0 0-.493 1.12c-.119.37-.217.774-.294 1.202-.076.424-.128.826-.153 1.195-.025.362-.038.737-.038 1.117 0 .987.314 1.786.932 2.375.611.582 1.42.877 2.403.877h9.105c.983 0 1.791-.295 2.403-.877.619-.589.932-1.388.932-2.375 0-.381-.013-.757-.038-1.117z"/></g></g></g></g></g></g></svg>