<svg xmlns="http://www.w3.org/2000/svg" width="46" height="46" viewBox="0 0 46 46"><defs><linearGradient id="r8cwa" x1="23.01" x2="23.01" y1="19.02" y2="26.87" gradientUnits="userSpaceOnUse"><stop offset="0" stop-color="#782ea0"/><stop offset="1" stop-color="#279ced"/></linearGradient><linearGradient id="r8cwb" x1="22.89" x2="22.89" y1=".22" y2="46" gradientUnits="userSpaceOnUse"><stop offset="0" stop-color="#782ea0"/><stop offset="1" stop-color="#279ced"/></linearGradient></defs><g><g><g><path fill="url(#r8cwa)" d="M21.6 19.015l-7.417 7.853 6.75-3.703 3.528 3.703 7.375-7.853-6.675 3.639z"/></g><g><path fill="url(#r8cwb)" d="M23.07 35.363a14.7 14.7 0 0 1-4.072-.571l-4.616 2.624v-4.937c-3.092-2.353-5.067-5.936-5.067-9.95 0-7.087 6.158-12.832 13.754-12.832 7.597 0 13.755 5.745 13.755 12.833 0 7.087-6.158 12.833-13.755 12.833zM22.89.219C10.25.219 0 10.469 0 23.109S10.25 46 22.89 46s22.891-10.25 22.891-22.89S35.531.218 22.891.218z"/></g></g></g></svg>