<svg xmlns="http://www.w3.org/2000/svg" width="328" height="328" viewBox="0 0 328 328"><g><g opacity=".1"><g opacity=".1"><g opacity=".1"><path fill="#279ced" d="M277.018 294.655c0 4.104-3.591 7.695-7.695 7.695s-7.695-3.59-7.695-7.695c0-4.104 3.591-7.695 7.695-7.695s7.695 3.591 7.695 7.695zm5.13 0c0-7.182-5.643-12.825-12.825-12.825-7.182 0-12.825 5.643-12.825 12.825 0 7.182 5.643 12.825 12.825 12.825 7.182 0 12.825-5.643 12.825-12.825z"/></g><g opacity=".1"><path fill="#279ced" d="M123.12 79.197c0 4.104-3.592 7.695-7.696 7.695-4.104 0-7.695-3.591-7.695-7.695s3.591-7.695 7.695-7.695 7.695 3.59 7.695 7.695zm5.13 0c0-7.182-5.644-12.825-12.826-12.825S102.6 72.015 102.6 79.197c0 7.182 5.643 12.825 12.825 12.825 7.182 0 12.825-5.643 12.825-12.825z"/></g><g opacity=".1"><path fill="#279ced" d="M296.512 49.443c-.513-.513-3.078-1.539-4.104-2.052-.513-.513-1.54-1.026-1.54-1.539-.512-.513-2.051-3.59-2.051-4.104-.513-.513-1.026-1.026-1.54-1.026-.512 0-1.025.513-1.538 1.026-.513.513-1.54 3.078-2.052 4.104-.513.513-1.026 1.539-1.54 1.539-.512.513-3.59 2.052-4.103 2.052-.513.513-1.026 1.026-1.026 1.539 0 .513.513 1.026 1.026 1.539.513.513 3.078 1.539 4.104 2.052.513.513 1.539 1.026 1.539 1.539.513.513 2.052 3.59 2.052 4.104.513.513 1.026 1.026 1.539 1.026.513 0 1.026-.513 1.539-1.026.513-.513 1.539-3.078 2.052-4.104.513-.513 1.026-1.539 1.539-1.539.513-.513 3.59-2.052 4.104-2.052.513-.513 1.026-1.026 1.026-1.539 0-.513-.513-1.026-1.026-1.539z"/></g><g opacity=".1"><path fill="#279ced" d="M75.923 59.703c-.513-.513-3.078-1.54-4.104-2.052-.513-.513-1.539-1.026-1.539-1.539-.513-.513-2.051-3.591-2.051-4.104-.513-.513-1.026-1.026-1.54-1.026-.512 0-1.025.513-1.538 1.026-.513.513-1.54 3.078-2.052 4.104-.513.513-1.026 1.539-1.54 1.539-.512.513-3.59 2.052-4.103 2.052-.513.513-1.026 1.026-1.026 1.539 0 .513.513 1.026 1.026 1.539.513.513 3.078 1.539 4.104 2.052.513.513 1.539 1.026 1.539 1.539.513.513 2.052 3.59 2.052 4.104.513.513 1.026 1.026 1.539 1.026.513 0 1.026-.513 1.539-1.026.513-.513 1.539-3.078 2.051-4.104.513-.513 1.026-1.54 1.54-1.54.512-.512 3.59-2.051 4.103-2.051.513-.513 1.026-1.026 1.026-1.54 0-.512-.513-1.025-1.026-1.538z"/></g><g opacity=".1"><path fill="#279ced" d="M153.386 32.001c-.513 0-2.565-1.539-3.078-1.539-.513-.513-1.026-.513-1.54-1.539-.512-1.026-1.538-2.565-1.538-3.078 0-.513-.513-.513-1.026-.513s-1.026 0-1.026.513-1.54 2.565-1.54 3.078c0 .513-1.025 1.026-1.538 1.54-.513.512-2.565 1.538-3.078 1.538-.513 0-.513.513-.513 1.026s0 1.026.513 1.026 2.565 1.54 3.078 1.54c.513.512 1.026.512 1.539 1.538.513 1.026 1.539 2.565 1.539 3.078 0 .513.513.513 1.026.513s1.026 0 1.026-.513 1.539-2.565 1.539-3.078c0-.513.513-1.026 1.539-1.539.513-.513 2.565-1.539 3.078-1.539.513 0 .513-.513.513-1.026s0-1.026-.513-1.026z"/></g><g opacity=".1"><path fill="#279ced" d="M55.917 108.95c-.513 0-2.565-1.538-3.078-1.538-.513 0-1.026-.513-1.54-1.54-.512-.512-1.538-2.564-1.538-3.077 0-.513-.513-.513-1.026-.513s-1.026 0-1.026.513-1.54 2.565-1.54 3.078c-.512.513-.512 1.026-1.538 1.539-1.026.513-2.565 1.539-3.078 1.539-.513 0-.513.513-.513 1.026s0 1.026.513 1.026 2.565 1.539 3.078 1.539c.513 0 1.026.513 1.539 1.539.513.513 1.539 2.565 1.539 3.078 0 .513.513.513 1.026.513s1.026 0 1.026-.513 1.539-2.565 1.539-3.078c.513-.513.513-1.026 1.539-1.54 1.026-.512 2.565-1.538 3.078-1.538.513 0 .513-.513.513-1.026s0-1.026-.513-1.026z"/></g><g opacity=".1"><path fill="#279ced" d="M312.415 257.72c-.513 0-2.565-1.54-3.078-1.54-.513-.512-1.026-.512-1.54-1.538-.512-.513-1.538-2.565-1.538-3.078 0-.513-.513-.513-1.026-.513s-1.026 0-1.026.513-1.54 2.565-1.54 3.078c-.512.513-.512 1.026-1.538 1.539-.513.512-2.565 1.538-3.078 1.538-.513 0-.513.513-.513 1.026s0 1.026.513 1.026 2.565 1.54 3.078 1.54c.513.512 1.026.512 1.539 1.538.513.513 1.539 2.565 1.539 3.078 0 .513.513.513 1.026.513s1.026 0 1.026-.513 1.539-2.565 1.539-3.078c.513-.513.513-1.026 1.539-1.539.513-.513 2.565-1.539 3.078-1.539.513 0 .513-.513.513-1.026s0-1.026-.513-1.026z"/></g><g opacity=".1"><path fill="#279ced" d="M133.379 311.584a4.104 4.104 0 1 1 8.208 0 4.104 4.104 0 0 1-8.208 0z"/></g><g opacity=".1"><path fill="#279ced" d="M13.85 117.672c-2.051 0-3.59 2.051-3.59 4.103 0 2.052 2.052 3.591 4.104 3.591s3.59-2.052 3.59-4.104-2.051-3.59-4.103-3.59z"/></g><g opacity=".1"><path fill="#279ced" d="M256.498 75.606a4.104 4.104 0 1 1 8.208 0 4.104 4.104 0 0 1-8.208 0z"/></g><g opacity=".1"><path fill="#279ced" d="M175 325.5a2.5 2.5 0 1 1 5 0 2.5 2.5 0 0 1-5 0z"/></g><g opacity=".1"><path fill="#279ced" d="M0 177c0-1.105 1.12-2 2.5-2s2.5.895 2.5 2-1.12 2-2.5 2-2.5-.895-2.5-2z"/></g><g opacity=".1"><path fill="#279ced" d="M153 2.5c0-1.38 1.343-2.5 3-2.5s3 1.12 3 2.5-1.343 2.5-3 2.5-3-1.12-3-2.5z"/></g><g opacity=".1"><path fill="#279ced" d="M323 48.5a2.5 2.5 0 1 1 5 0 2.5 2.5 0 0 1-5 0z"/></g><g opacity=".1"><path fill="#279ced" d="M313 217.5a2.5 2.5 0 1 1 5 0 2.5 2.5 0 0 1-5 0z"/></g><g opacity=".1"><path fill="#279ced" d="M216 307.5a4.5 4.5 0 1 1 9 0 4.5 4.5 0 0 1-9 0z"/></g></g><g opacity=".1"><g opacity=".1"><g opacity=".1"><path fill="#279ced" d="M205.199 266.44h-66.69c-12.312 0-16.929-5.643-20.007-8.72-.513-.513-1.026-1.026-1.026-1.54h-9.747c-3.078 0-5.13-2.051-5.13-5.13 0-3.077 2.052-5.13 5.13-5.13h10.26c4.104 0 6.67 3.079 8.208 5.13 2.565 2.566 4.617 5.13 12.312 5.13h66.69c3.077 0 5.13 2.053 5.13 5.13 0 3.078-2.053 5.13-5.13 5.13z"/></g><g opacity=".1"><path fill="#279ced" d="M120.554 158.198c-1.026 0-2.565-.513-3.59-1.539-2.053-2.052-2.053-5.13 0-7.182l38.987-41.04c5.643-6.155 10.26-13.337 12.825-21.032l6.669-19.494c2.565-6.67 9.234-11.799 16.929-11.799 9.747 0 17.954 8.208 17.954 17.955v12.825c0 14.364-3.59 28.215-9.746 41.04l-2.565 5.13h32.831c3.078 0 5.13 2.051 5.13 5.13 0 3.077-2.052 5.13-5.13 5.13h-41.04c-1.538 0-3.59-1.027-4.616-2.566a4.66 4.66 0 0 1 0-5.13l6.156-12.312c5.643-11.285 8.72-24.11 8.72-36.422V74.067c0-4.104-3.59-7.695-7.694-7.695-3.078 0-6.156 2.052-7.182 5.13l-6.67 19.494c-3.077 9.234-8.207 17.442-14.876 24.624l-38.988 41.04c-1.026 1.025-2.565 1.538-4.104 1.538z"/></g><g opacity=".1"><path fill="#279ced" d="M148.769 210.01h-20.52c-3.078 0-5.13-2.051-5.13-5.13 0-3.077 2.052-5.13 5.13-5.13h20.52c20.007 0 35.91-15.902 35.91-35.909 0-3.078 2.052-5.13 5.13-5.13s5.13 2.052 5.13 5.13c0 25.65-20.52 46.17-46.17 46.17z"/></g></g><g opacity=".1"><g opacity=".1"><g opacity=".1"><path fill="#279ced" d="M256.498 235.66c5.643 0 10.26 4.618 10.26 10.26 0 5.644-4.617 10.26-10.26 10.26h-25.65c-5.643 0-10.26-4.616-10.26-10.26 0-5.642 4.617-10.26 10.26-10.26zm20.52 10.26c0-11.285-9.234-20.52-20.52-20.52h-25.65c-11.286 0-20.52 9.235-20.52 20.52 0 11.287 9.234 20.52 20.52 20.52h25.65c11.286 0 20.52-9.233 20.52-20.52z"/></g><g opacity=".1"><path fill="#279ced" d="M271.888 204.88c5.643 0 10.26 4.618 10.26 10.26 0 5.644-4.617 10.26-10.26 10.26h-41.04c-5.643 0-10.26-4.616-10.26-10.26 0-5.642 4.617-10.26 10.26-10.26zm20.52 10.26c0-11.285-9.234-20.519-20.52-20.519h-41.04c-11.286 0-20.52 9.234-20.52 20.52s9.234 20.52 20.52 20.52h41.04c11.286 0 20.52-9.234 20.52-20.52z"/></g><g opacity=".1"><path fill="#279ced" d="M277.018 174.101c5.643 0 10.26 4.617 10.26 10.26s-4.617 10.26-10.26 10.26h-46.17c-5.643 0-10.26-4.617-10.26-10.26s4.617-10.26 10.26-10.26zm20.52 10.26c0-11.286-9.234-20.52-20.52-20.52h-46.17c-11.286 0-20.52 9.234-20.52 20.52s9.234 20.52 20.52 20.52h46.17c11.286 0 20.52-9.234 20.52-20.52z"/></g><g opacity=".1"><path fill="#279ced" d="M271.888 143.321c5.643 0 10.26 4.617 10.26 10.26s-4.617 10.26-10.26 10.26h-41.04c-5.643 0-10.26-4.617-10.26-10.26s4.617-10.26 10.26-10.26zm20.52 10.26c0-11.286-9.234-20.52-20.52-20.52h-41.04c-11.286 0-20.52 9.234-20.52 20.52s9.234 20.52 20.52 20.52h41.04c11.286 0 20.52-9.234 20.52-20.52z"/></g></g></g><g opacity=".1"><g opacity=".1"><g opacity=".1"><path fill="#279ced" d="M46.17 215.14c-3.078 0-5.13-2.051-5.13-5.13v-46.169c0-8.72 6.669-15.39 15.39-15.39h20.52c3.077 0 5.13 2.052 5.13 5.13s-2.053 5.13-5.13 5.13H56.43c-3.078 0-5.13 2.052-5.13 5.13v46.17c0 3.078-2.052 5.13-5.13 5.13z"/></g><g opacity=".1"><path fill="#279ced" d="M46.17 235.66c-3.078 0-5.13-2.051-5.13-5.13v-5.13c0-3.077 2.052-5.13 5.13-5.13s5.13 2.053 5.13 5.13v5.13c0 3.079-2.052 5.13-5.13 5.13z"/></g><g opacity=".1"><path fill="#279ced" d="M97.47 266.44H56.43c-8.721 0-15.39-6.669-15.39-15.39v-5.13c0-3.077 2.052-5.13 5.13-5.13s5.13 2.053 5.13 5.13v5.13c0 3.079 2.052 5.13 5.13 5.13h41.04c3.077 0 5.13-2.051 5.13-5.13v-87.209c0-3.078-2.053-5.13-5.13-5.13h-5.13c-3.079 0-5.13-2.052-5.13-5.13s2.051-5.13 5.13-5.13h5.13c8.72 0 15.39 6.67 15.39 15.39v87.21c0 8.72-6.67 15.39-15.39 15.39z"/></g></g></g></g></g></g></svg>