<svg xmlns="http://www.w3.org/2000/svg" width="18" height="21" viewBox="0 0 18 21"><g><g><g><path fill="#fff" d="M8.52 9.989c1.372 0 2.56-.492 3.53-1.463.972-.971 1.464-2.16 1.464-3.532 0-1.372-.492-2.56-1.463-3.531C11.08.493 9.89 0 8.519 0 7.147 0 5.96.492 4.99 1.463c-.972.971-1.464 2.16-1.464 3.531 0 1.373.492 2.56 1.463 3.532.971.97 2.16 1.463 3.531 1.463z"/></g><g><path fill="#fff" d="M17.259 15.945a12.336 12.336 0 0 0-.168-1.31 10.324 10.324 0 0 0-.323-1.317 6.507 6.507 0 0 0-.541-1.23 4.635 4.635 0 0 0-.817-1.063 3.6 3.6 0 0 0-1.173-.737 4.054 4.054 0 0 0-1.498-.271c-.211 0-.416.086-.811.344-.244.159-.528.342-.846.545-.272.173-.64.335-1.094.482a4.345 4.345 0 0 1-1.338.216c-.445 0-.895-.072-1.339-.216-.454-.147-.822-.309-1.093-.482-.315-.2-.6-.384-.846-.545-.395-.258-.6-.345-.812-.345-.539 0-1.043.092-1.497.272-.456.18-.85.428-1.174.737a4.638 4.638 0 0 0-.816 1.064 6.52 6.52 0 0 0-.541 1.229c-.13.405-.238.848-.322 1.317-.084.465-.14.906-.168 1.31A17.77 17.77 0 0 0 0 17.17c0 1.083.344 1.959 1.023 2.605.67.638 1.557.961 2.635.961h9.985c1.078 0 1.964-.323 2.635-.96.678-.647 1.022-1.523 1.022-2.606 0-.418-.014-.83-.042-1.225z"/></g></g></g></svg>