<svg xmlns="http://www.w3.org/2000/svg" width="46" height="46" viewBox="0 0 46 46"><defs><linearGradient id="q3y8a" x1="22.89" x2="22.89" y1=".22" y2="46" gradientUnits="userSpaceOnUse"><stop offset="0" stop-color="#782ea0"/><stop offset="1" stop-color="#279ced"/></linearGradient><linearGradient id="q3y8b" x1="23.38" x2="23.38" y1="11.35" y2="34.12" gradientUnits="userSpaceOnUse"><stop offset="0" stop-color="#782ea0"/><stop offset="1" stop-color="#279ced"/></linearGradient></defs><g><g><g><path fill="url(#q3y8a)" d="M23.376 36.437h-.006a13.695 13.695 0 0 1-6.547-1.667L9.56 36.674l1.944-7.097a13.665 13.665 0 0 1-1.829-6.847c.003-7.551 6.15-13.695 13.7-13.695a13.614 13.614 0 0 1 9.692 4.016 13.611 13.611 0 0 1 4.01 9.69c-.004 7.552-6.15 13.696-13.701 13.696zM22.89.219C10.25.219 0 10.469 0 23.109S10.25 46 22.89 46s22.891-10.25 22.891-22.89S35.531.218 22.891.218z"/></g><g><path fill="url(#q3y8b)" d="M30.078 27.625c-.285.8-1.653 1.53-2.31 1.628-.59.088-1.336.124-2.156-.136a19.774 19.774 0 0 1-1.952-.72c-3.434-1.483-5.677-4.94-5.848-5.168-.171-.229-1.398-1.856-1.398-3.54 0-1.685.885-2.513 1.198-2.855.314-.343.685-.428.913-.428.228 0 .457.002.656.011.21.01.493-.08.77.588.286.685.97 2.37 1.056 2.54.086.172.143.372.029.6-.115.229-.494.722-.856 1.17-.152.19-.35.357-.15.7.2.342.887 1.463 1.904 2.37 1.308 1.166 2.41 1.527 2.753 1.699.342.17.542.142.742-.086.199-.228.855-1 1.083-1.342.229-.343.457-.285.77-.171.315.114 1.997.942 2.34 1.113.342.172.57.257.656.4.086.143.086.828-.2 1.627zM23.38 11.348c-6.28 0-11.39 5.106-11.392 11.383 0 2.151.602 4.246 1.741 6.058l.271.43-1.15 4.202 4.31-1.13.415.246a11.369 11.369 0 0 0 5.796 1.587h.005c6.276 0 11.384-5.107 11.387-11.384a11.314 11.314 0 0 0-3.332-8.053 11.312 11.312 0 0 0-8.05-3.339z"/></g></g></g></svg>