<svg xmlns="http://www.w3.org/2000/svg" xmlns:xlink="http://www.w3.org/1999/xlink" width="301" height="240.115" viewBox="0 0 301 240.115">
  <defs>
    <linearGradient id="linear-gradient" x1="0.5" x2="0.5" y2="1" gradientUnits="objectBoundingBox">
      <stop offset="0" stop-color="#782ea0"/>
      <stop offset="1" stop-color="#279ced"/>
    </linearGradient>
  </defs>
  <g id="Group_631" data-name="Group 631" transform="translate(-88 -2103.109)">
    <path id="Subtraction_4" data-name="Subtraction 4" d="M2505.694,240.115a1.126,1.126,0,0,1-.282-.036,41.962,41.962,0,0,1-12.784-5.966,41.178,41.178,0,0,1-10-9.914,1.047,1.047,0,0,0-.244.039l-.015,0a1.085,1.085,0,0,1-.257.043c-8.95.184-17.916.373-26.586.557l-1.981.042-.465.01c-27.615.583-56.166,1.185-84.284,1.635-1.24.019-2.489.04-3.716.061H2365l-.976.016-.138,0c-4.777.081-9.716.165-14.6.165a206.053,206.053,0,0,1-31.92-2.058,44.354,44.354,0,0,1-16.075-5.631,25.3,25.3,0,0,1-10.767-12.492l-.011-.018c-.251-.419-.51-.851-.766-1.363a24.347,24.347,0,0,1-2.518-9.592,87.814,87.814,0,0,1-.028-10.39V185.2l0-.087V185.1c.064-1.783.125-3.467.125-5.091V145.75c-6.554.641-13.623.966-21.011.966-.956,0-1.93-.005-2.894-.016a57.513,57.513,0,0,1-5.837,10.4,22.884,22.884,0,0,1-9.008,7.551,20.9,20.9,0,0,1-8.542,1.8,22.488,22.488,0,0,1-12.688-3.958.654.654,0,0,1-.432.086c-.028,0-.057,0-.084,0a1.307,1.307,0,0,1-1.169-.924,1.162,1.162,0,0,1,.305-1.323,37.315,37.315,0,0,0,9.666-11.738c.855-1.819,1.467-3.256,1.984-4.66a35.948,35.948,0,0,1-11.175-10.454,48.473,48.473,0,0,1-6.775-13.883V119c-2.224-7.482-2.341-15.917-2.453-24.075v-.043l0-.134v-.035c-.031-2.211-.06-4.3-.134-6.35-.226-5.607-.514-11.321-.792-16.847v-.028l0-.087,0-.059v-.028c-.567-11.266-1.153-22.915-1.269-34.387a27.69,27.69,0,0,1,6.4-18.167,25.807,25.807,0,0,1,16.818-9.105,60.194,60.194,0,0,1,6.338-.386c.485-.012,1.048-.027,1.6-.045,7.053-.3,14.206-.579,21.123-.851l.038,0,.383-.015h.021c6.545-.257,13.963-.547,21.327-.858l134.633-5.437c7.673-.289,15.466-.6,23-.9l.984-.039c8.637-.348,16.423-.66,24.258-.955,2.081-.081,4.311-.157,6.516-.157,6.655,0,11.457.71,15.571,2.3a23.452,23.452,0,0,1,12.174,10.627,25.7,25.7,0,0,1,3.12,9.119,75.32,75.32,0,0,1,.7,9.572v.009l0,.109v.035c.019.608.04,1.3.064,1.955q.247,6.045.495,12.091l.24,5.861.3,7.437.254,6.2c.214,4.9.408,9.851.6,14.64l0,.065,0,.071.026.667c.173,4.39.369,9.367.579,14.159.029.608.068,1.229.105,1.81v.008c.072,1.124.153,2.4.153,3.62.089,8.449-3.071,13.529-8.2,18.986a20.244,20.244,0,0,1,6.862,5.7,19.8,19.8,0,0,1,3.754,8.544c1.056,5.652.771,11.822.5,17.79v.017c-.1,2.24-.212,4.556-.236,6.79v33.917a35.394,35.394,0,0,1-.517,6.127,1.062,1.062,0,0,1,.431,1.122,52.42,52.42,0,0,1-3.516,13.636c-2.144,4.725-5.2,7.915-9.343,9.751a27.975,27.975,0,0,0,8.285,10.012.994.994,0,0,1,.346,1.036,1.025,1.025,0,0,1,.086.863,12.2,12.2,0,0,1-3.711,5.178,1.188,1.188,0,0,1-.76.286,1.436,1.436,0,0,1-.536-.113A1.8,1.8,0,0,1,2505.694,240.115Zm-19.442-20.922h0a19.842,19.842,0,0,0-1.381,3.8,38.45,38.45,0,0,0,21.315,14.672,14.188,14.188,0,0,0,2.244-2.848,28.712,28.712,0,0,1-10.442-2.945,24.938,24.938,0,0,1-8.371-6.893,39.459,39.459,0,0,1-3.093-5.257l-.13-.25-.143-.275Zm-168.894-5.523c8.975.086,18.057.086,26.84.086h.319c46.286.085,94.148.172,141.477.172a1.389,1.389,0,0,1,1.208.949c.042.129.086.238.127.338l0,.007,0,.011c.04.1.082.2.125.334.017.033.033.062.048.089l.018.033a.574.574,0,0,1,.106.31c3.251,8.519,9.779,14.159,18.382,15.88a29.374,29.374,0,0,1-5.6-7.594,30.479,30.479,0,0,1-2.946-9.148v-.259a1.114,1.114,0,0,1,.864-1.294c8.744-2.1,14.228-8.909,14.671-18.21.575-12.029.381-24.326.192-36.219v-.074c-.094-5.918-.191-12.037-.191-18.078,0-10.255-4.829-21.377-18.382-21.835-1.106-.026-2.313-.039-3.689-.039-1.142,0-2.3.009-3.427.017h-.022l-.2,0h-.019l-.213,0h-.008c-1.134.008-2.306.017-3.467.017H2312.265c-6.88,0-15.364,1.02-19.935,8.976-3.152,5.481-2.875,12.98-2.63,19.6v.055c.064,1.737.125,3.378.125,4.944v33.141c0,5.558,0,11.3,1.639,16.224a.882.882,0,0,1,.517.69,9.073,9.073,0,0,0,.432,1.639c2.121,4.343,5.622,7.138,10.7,8.546a30.042,30.042,0,0,0,7.65.8c1.172,0,2.4-.031,3.389-.056h.006C2315.216,213.7,2316.306,213.67,2317.358,213.67Zm-19.764-.6c8.874,9.229,25.554,10.063,36.592,10.615,6.394.316,13.259.47,20.99.47,8.687,0,17.5-.194,26.026-.381l.1,0c16.07-.33,32.445-.646,48.281-.952h.069l2.008-.039h.111c16.482-.317,33.525-.645,50.335-.991a.559.559,0,0,1,.23.054l.006,0a.3.3,0,0,0,.108.03,15.27,15.27,0,0,1,2.243-5.179,1.226,1.226,0,0,1-.349-.075l-.01,0-.005,0-.029-.009c-.08-.024-.178-.055-.3-.084a7.057,7.057,0,0,0-2-.23c-.759,0-1.556.062-2.328.121l-.026,0h-.018c-.7.054-1.361.106-1.931.106H2461.4c-13.721-.086-27.673-.086-41.166-.086-27.876,0-56.7,0-85.095-.086-2.4,0-5.028.114-7.8.235h-.034c-3.079.134-6.263.273-9.481.273a66.625,66.625,0,0,1-10.689-.739,29.946,29.946,0,0,1-9.531-3.049Zm213.512-4.833a20.084,20.084,0,0,1-10.874,7.421,26.984,26.984,0,0,0,1.382,4.747c4.543-1.936,7.648-5.916,9.492-12.168ZM2257.2,139.19a18.807,18.807,0,0,0-1.506,3.568,19.761,19.761,0,0,1-1.169,2.9,33.747,33.747,0,0,1-22.957,16.312,20.89,20.89,0,0,0,8.675,1.953,17.773,17.773,0,0,0,9.017-2.385c5.719-3.28,8.934-9.558,11.738-15.707v-.346c-1.206-2.154-2.516-4.249-3.783-6.276l0,0-.012-.02ZM2245.575,11.875h-.025c-1.606.038-3.268.076-4.915.19-13.439.856-23.131,11.382-23.045,25.028.06,11.183.656,22.536,1.232,33.516v.044c.263,5,.535,10.18.751,15.287.174,3.949.326,7.891.473,11.7l0,.093c.138,3.61.295,7.7.473,11.765.564,13.736,8.178,23.286,20.368,25.546a1.2,1.2,0,0,1,.949,1.209,38.336,38.336,0,0,1-10.96,23.215c12.2-2.407,21.5-11.246,24.854-23.648a1.14,1.14,0,0,1,1.208-.949c12.677-.524,23.939-.993,31.156-1.294a22.092,22.092,0,0,1,3.151-8.156,19.186,19.186,0,0,1,7.032-6.343c4.117-2.238,8.472-2.424,12.945-2.424q.644,0,1.29,0t1.3,0h57.133c13.662,0,27.507-.059,40.9-.115h.075c13.394-.057,27.244-.115,40.907-.115,15.289,0,28.677.075,40.93.23a24.306,24.306,0,0,1,8.371,1.553c0-.086,0-.086.086-.173,5.036-5.279,8.122-10.224,7.941-18.554-.287-11.317-.812-22.85-1.319-34v-.02l-.008-.164c-.253-5.564-.515-11.318-.744-16.989-.062-1.718-.12-3.509-.172-5.088l-.009-.265v-.01c-.174-5.316-.354-10.813-.682-16.3-.89-14.33-11.146-24.338-24.942-24.338-15.667.057-31.694.9-47.194,1.71l-.07,0h-.005c-7.679.4-15.616.819-23.412,1.135-40.341,1.691-80.952,3.308-120.227,4.871h-.043l-3.316.132c-12.724.579-25.707,1.085-38.262,1.574h-.015l-.249.01h-.015l-1.416.055c-.757.027-1.538.046-2.294.064h-.012l-.167,0Zm16.957,125.231a9.694,9.694,0,0,0-3.344.444l1.737,2.821,2.406,3.911c.8.008,1.617.013,2.431.013,6.986,0,14.038-.315,21.561-.962a64.716,64.716,0,0,1,.347-7.163l-1.153.054h-.006c-6.873.319-13.979.649-21.023.9-.221.01-.472.014-.769.014-.355,0-.714-.006-1.019-.013h-.069l-.089,0c-.326-.006-.663-.012-1.007-.012Zm-32.945-3.785h0a34.762,34.762,0,0,0,8.717,8.024l.054-.153a1.489,1.489,0,0,0,.119-.537c.427-2.995.037-3.353-2.589-4.229a28.442,28.442,0,0,1-6.3-3.106Z" transform="translate(-2127 2103.109)" opacity="0.2" fill="url(#linear-gradient)"/>
    <path id="Subtraction_5" data-name="Subtraction 5" d="M258.557,178.845a1.394,1.394,0,0,1-.976-.362l-.2-.2-.029-.029c-1.375-1.37-3.086-3.076-3.739-5.034a46.073,46.073,0,0,1-13.954,2.544c-4.124,0-7.482-.857-9.981-2.547-2.954-2-4.686-5.162-5.149-9.4a19.987,19.987,0,0,1,1.306-9.332,17.1,17.1,0,0,1,5.513-7.584,16.185,16.185,0,0,1,9.988-2.921,36.368,36.368,0,0,1,6.151.591,10.757,10.757,0,0,0-.863-6.386,8.023,8.023,0,0,0-6.182-3.363c-2.38,0-3.87,1.54-4.088,4.226a1.449,1.449,0,0,1-1.335,1.335,1.116,1.116,0,0,1-.649-.214c-1.427-.908-2.879-1.854-4.283-2.768l-.011-.007c-1.393-.907-2.833-1.846-4.25-2.747a1.211,1.211,0,0,1-.133.007,1.311,1.311,0,0,1-1.049-.533,1.094,1.094,0,0,1-.114-1.028,18.059,18.059,0,0,1,6.965-9.1,18.834,18.834,0,0,1,10.565-3.168,20.349,20.349,0,0,1,10.346,2.863,23.939,23.939,0,0,1,7.25,6.732,26.709,26.709,0,0,1,4.143,9.062,33.151,33.151,0,0,1,.777,10.875,39,39,0,0,1-.6,3.923,24.34,24.34,0,0,0-.625,7.263,6.965,6.965,0,0,0,3.983,5.643,1.3,1.3,0,0,1,.63.856,1.462,1.462,0,0,1-.112,1.128c-1.173,1.071-7.078,6.54-8.2,9.062A1.135,1.135,0,0,1,258.557,178.845Zm-3.922-8.655a1.048,1.048,0,0,1,.8.418,1.548,1.548,0,0,1,.329,1.23c-.133.8.629,2.01,2.33,3.711a11.3,11.3,0,0,1,.943-.963c.171-.162.348-.329.524-.5.8-.76,1.537-1.579,2.252-2.371a31.543,31.543,0,0,1,2.84-2.893,9.6,9.6,0,0,1-3.884-7.249,37.879,37.879,0,0,1,.523-9.1c.495-3.54,1.006-7.2.253-11.01-1.776-8.6-7.985-15.607-15.449-17.433a17.354,17.354,0,0,0-4.024-.476,15.718,15.718,0,0,0-14.617,9.279c1.341.912,2.743,1.808,4.1,2.675.833.532,1.694,1.083,2.546,1.64a6.463,6.463,0,0,1,2.534-3.545,6.925,6.925,0,0,1,3.911-1.131,10.123,10.123,0,0,1,8.227,4.59.309.309,0,0,0,.043.13.309.309,0,0,1,.043.13,14.82,14.82,0,0,1,.777,9.234c-.076.6-.737.879-1.32.879a1.655,1.655,0,0,1-.233-.016,34.166,34.166,0,0,0-6.753-.781c-4.222,0-7.433,1.159-9.817,3.543-3.763,3.672-5.66,10.564-4.229,15.362,1.6,5.313,5.639,8.006,11.989,8.006,4.034,0,8.92-1.066,14.937-3.26A1.013,1.013,0,0,1,254.635,170.19Zm-66.9,8.646a1.293,1.293,0,0,1-1.176-1.3l.016-.227q.121-1.7.242-3.4a23.945,23.945,0,0,1-3.9.322,23.118,23.118,0,0,1-17.29-7.674,21.658,21.658,0,0,1-5.305-17.158,20.93,20.93,0,0,1,6.108-12.129,19.608,19.608,0,0,1,5.447-3.874,14.374,14.374,0,0,1,6.141-1.451,12.207,12.207,0,0,1,7.849,2.869,228.79,228.79,0,0,1,2.157-26.753.946.946,0,0,1,.69-.863c.086-.086.086-.086.173-.086h.431c2.146.171,4.327.324,6.437.472h.006c2.131.149,4.335.3,6.5.477a1.734,1.734,0,0,1,.938.42,1.007,1.007,0,0,1,.357.874c-.931,12.8-1.764,25.757-2.57,38.292-.613,9.545-1.247,19.411-1.919,29.11a1.332,1.332,0,0,1-1.294,1.294c-1.612.127-3.244.255-4.877.382l-.085.007c-1.661.129-3.323.259-4.963.388A.873.873,0,0,1,187.731,178.836Zm.5-7.835a1.34,1.34,0,0,1,.979.432,1.076,1.076,0,0,1,.283.836c-.082,1.756-.141,3.025.424,3.617a1.583,1.583,0,0,0,1.219.4,11.388,11.388,0,0,0,2.931-.57,3.712,3.712,0,0,0,2.685-2.623,14.647,14.647,0,0,0,.372-4.2c0-.774,0-1.574.049-2.33.259-3.715.5-7.51.734-11.179l0-.038c.233-3.657.473-7.438.731-11.135q.776-11.78,1.553-23.56c.038-.512.142-1.2.261-2,.434-2.886,1.029-6.84-.521-8.186-.714-.714-3.647-.806-6.122-.806-.711,0-1.423.009-2.051.016h-.005c-.539.007-1.048.013-1.488.013a269.072,269.072,0,0,0-1.978,27.455l-.006.162v.086a1.4,1.4,0,0,1-.973,2.258,1.069,1.069,0,0,1-.839-.445c0-.086-.088-.174-.173-.259a.938.938,0,0,1-.518-.6c-2.4-2.666-5.11-4.019-8.048-4.019-3.263,0-6.631,1.715-9.484,4.828-3.719,4.059-5.849,9.8-5.426,14.638.922,10.35,9.3,17.863,19.93,17.863a22.106,22.106,0,0,0,5.1-.6A1.185,1.185,0,0,1,188.227,171Zm21.264,7.433a1.181,1.181,0,0,1-1.274-1.246c-.173-8.586-.37-17.293-.561-25.714s-.388-17.121-.561-25.723a1.08,1.08,0,0,1,.69-1.121.085.085,0,0,1,.086-.086,1.09,1.09,0,0,0,.259-.043,1.087,1.087,0,0,1,.259-.043l5.575-.227.768-.031.072,0,6.271-.256a.953.953,0,0,1,.118-.007,1.293,1.293,0,0,1,1.177,1.3c.174,16.982.436,33.9.689,50.258v.056a1.4,1.4,0,0,1-.949,1.209c-2.039.26-4.133.547-6.159.824h-.005c-2,.274-4.07.557-6.09.815A1.855,1.855,0,0,1,209.491,178.435Zm.193-51.474q.506,23.841,1.015,47.68l.021.994c.769-.116,1.558-.254,2.321-.388a37.176,37.176,0,0,1,6.222-.735,5.021,5.021,0,0,0,1.294-.085c0-.26-.022-.523-.043-.777s-.043-.519-.043-.777c-.415-5.1-.381-10.406-.348-15.534v-.01c.015-2.322.03-4.724,0-7.067-.03-2.566-.144-5.221-.255-7.789a133.389,133.389,0,0,1-.091-14.823v-1.208h-.1a3.248,3.248,0,0,0-.85.085,28.624,28.624,0,0,1-5.783.455c-.567,0-1.137-.006-1.688-.011h-.021c-.545-.006-1.109-.011-1.656-.011Zm-99.491,50.261a1.235,1.235,0,0,1-1.31-1.241c-.163-5.456-.558-11.13-1.209-17.348-.054-.486-.1-1.212-.165-2.132V156.5c-.321-4.772-.988-14.7-4.409-16.159-1.966.918-2.765,5.118-2.374,12.485.319,6.012,1.347,12.607,1.9,16.151v.007c.136.874.243,1.564.3,2a1.438,1.438,0,0,1-.251,1.205,1.179,1.179,0,0,1-.957.435h-10.7a1.329,1.329,0,0,1-1.294-1.3c-.006-.33-.01-.783-.016-1.356a152.451,152.451,0,0,0-1-17.885c-1.114-8.387-3.126-12.656-5.979-12.691-1.816,1.064-2.712,3.332-2.741,6.931A51.3,51.3,0,0,0,81.05,155.4c.205,1.143.382,2.13.474,2.894l1.985,15.62a1.019,1.019,0,0,1-.28.8,1.461,1.461,0,0,1-1.015.5H68.147a1.34,1.34,0,0,1-1.294-1.3c-.607-7.762-1.2-15.677-1.779-23.331v-.005c-.569-7.57-1.158-15.4-1.76-23.094a1.041,1.041,0,0,1,.253-.826,1.293,1.293,0,0,1,.953-.393,1.421,1.421,0,0,1,.175.011,1.913,1.913,0,0,0,.216-.13,1.9,1.9,0,0,1,.216-.13,25.971,25.971,0,0,1,7.189-1.228,8.6,8.6,0,0,1,3.823.727,3.556,3.556,0,0,1,2.019,2.658,19.1,19.1,0,0,1,10-3.526,7.952,7.952,0,0,1,4.16,1.059,7.62,7.62,0,0,1,3.01,3.589,25.885,25.885,0,0,1,5.092-3.883.449.449,0,0,1,.18-.1,1.677,1.677,0,0,0,.165-.071,13.84,13.84,0,0,1,5.075-1.048c5.428,0,9.6,4.005,11.15,10.714,2.3,9.661,2.953,19.993,3.585,29.985v.009c.2,3.086.4,6.276.644,9.36a1.2,1.2,0,0,1-.95,1.208c-1.64.3-3.285.587-4.876.863h-.005c-1.589.276-3.233.561-4.871.862A1.684,1.684,0,0,1,110.192,177.223Zm-7.266-39.559h.6c4.328,1.119,4.913,6.109,5.384,10.119.074.634.144,1.231.226,1.791a219.457,219.457,0,0,1,2.33,24.941l.485-.041.037,0c1.953-.163,4.385-.366,5.174-1.077,1.622-1.488,1.334-3.316,1.056-5.083-.077-.487-.156-.99-.193-1.476-.441-4.756-.882-9.43-1.3-13.809-.092-.92-.175-2.014-.262-3.172v-.006c-.65-8.6-1.737-22.981-10.668-22.981a11.73,11.73,0,0,0-4.172.872,27.889,27.889,0,0,0-6.041,4.919,1.237,1.237,0,0,1-.88.363,1.324,1.324,0,0,1-1.278-.967c-.786-3.27-2.653-4.928-5.548-4.928-3.507,0-7.859,2.51-10.418,4.842a1.357,1.357,0,0,1-.869.31,1.38,1.38,0,0,1-1.094-.522,1.221,1.221,0,0,1-.194-1.083,3.107,3.107,0,0,0-.147-2.77,3.062,3.062,0,0,0-2.58-.92,22.816,22.816,0,0,0-6.254,1.336l-.34.11c.7,9.171,1.4,18.417,2.071,27.358.078,1.3.086,2.705.093,4.193.018,3.473.037,7.065.943,9.96.731,2.266,1.109,2.305,2.7,2.471.293.031.625.065,1.008.118,1.548.141,2.845.212,3.855.212a6.209,6.209,0,0,0,2.014-.212c2.629-1.078,1.847-4.84,1.156-8.159-.191-.919-.372-1.787-.466-2.542-.259-1.983-.522-4.022-.776-5.994-.242-1.874-.515-3.993-.777-6q-.042-.351-.086-.7l0-.024c-.592-4.792-1.2-9.748,3.887-12.13a1.1,1.1,0,0,0,.259-.043,1.1,1.1,0,0,1,.259-.043c.086-.086.086-.086.173-.086a6.955,6.955,0,0,1,.725-.039c2.44,0,4.227,1.357,5.462,4.149a30.187,30.187,0,0,1,1.8,7.487l.005.036c.041.276.08.542.119.794a140.451,140.451,0,0,1,1.64,14.845c.02.37.008.821,0,1.3-.042,1.66-.1,3.722,1.04,4.657a4.334,4.334,0,0,0,2.32.379c1.209,0,2.634-.115,3.893-.217.339-.027.658-.053.95-.075a183.948,183.948,0,0,1-1.813-22.87q0-.2,0-.41c-.006-3.791-.012-8.088,4.4-9.17v0h0Zm37.668,39.345a17.358,17.358,0,0,1-8.152-1.8c-5.067-2.723-8.282-8.469-9.558-17.078a79.6,79.6,0,0,1,.151-20.637,22.652,22.652,0,0,1,5.421-12.279,15.115,15.115,0,0,1,11.408-5.311,16.952,16.952,0,0,1,5.179.847c4.843,1.587,8.816,5.737,11.187,11.683a27.986,27.986,0,0,1,1.413,16.538,1.391,1.391,0,0,1-.346.6,5.773,5.773,0,0,1-4.654,1.74c-.685,0-1.4-.049-2.09-.1-.536-.037-1.088-.075-1.627-.09-2.456-.043-4.932-.109-7.326-.173h-.02c-2.394-.064-4.869-.129-7.326-.173-.365,4.747-.126,9.486,4.056,12a5.517,5.517,0,0,0,2.206.493c3.359,0,5.656-3.506,7.546-6.793a1.242,1.242,0,0,1,1.088-.615,1.4,1.4,0,0,1,1.156.615,11.909,11.909,0,0,0,3.865,3.086c2.055,1.212,4,2.356,4.507,5.113a.844.844,0,0,1,.018.437,1.065,1.065,0,0,0-.018.167v.086c-.734,4.436-3.96,7.157-6.538,8.658A23.582,23.582,0,0,1,140.594,177.008Zm-.906-54.54c-4.229,0-7.856,2.137-10.49,6.18a26.273,26.273,0,0,0-3.833,12.9c-.327,7.7-.822,19.342,3.539,26.667a13.408,13.408,0,0,0,11.825,6.347,16.02,16.02,0,0,0,3.882-.478c4.04-1.01,10.43-4.257,11.479-9.062-.539-1.917-2.442-3.106-4.282-4.256a23.473,23.473,0,0,1-2.364-1.612c-2.672,4.342-5.693,6.544-8.978,6.544a8.726,8.726,0,0,1-3.449-.762,10.241,10.241,0,0,1-4.9-6.8,29.051,29.051,0,0,1-.367-8.738,1.347,1.347,0,0,1,1.468-1.209c.086-.086.172-.086.345-.086,3.539.086,7.163.173,10.788.259.582.02,1.349.1,2.238.2a41.812,41.812,0,0,0,4.463.326c1.981,0,3.318-.314,4.086-.959a25.789,25.789,0,0,0-1.348-14.51c-2.053-5.294-5.405-8.907-9.439-10.172A15.31,15.31,0,0,0,139.688,122.468Zm101.673,43.669a5.81,5.81,0,0,1-2.938-.771,5.242,5.242,0,0,1-2.471-3.285,6.2,6.2,0,0,1,.744-4.741,6.53,6.53,0,0,1,2.908-2.481,9.306,9.306,0,0,1,3.782-.757c.327,0,.66.015.991.044a1.455,1.455,0,0,1,.745-.216,1.236,1.236,0,0,1,.809.3,7.385,7.385,0,0,1,2.223,4.412,6.519,6.519,0,0,1-1.273,4.735A7.067,7.067,0,0,1,241.361,166.137Zm1.855-9.436a5.059,5.059,0,0,0-4.1,1.761,3.663,3.663,0,0,0-.767,2.859,2.677,2.677,0,0,0,1.285,1.887,3.157,3.157,0,0,0,1.687.467,4.492,4.492,0,0,0,3.664-2.107,4.024,4.024,0,0,0-.432-4.747A7.506,7.506,0,0,0,243.216,156.7Zm-61.335,5.527h0a5.945,5.945,0,0,1-1.884-.314,6.339,6.339,0,0,1-3.862-3.581,9.515,9.515,0,0,1-.625-5.394c.4-2.552,2.235-5.191,4.619-5.191a3.479,3.479,0,0,1,.818.1,1.066,1.066,0,0,1,.259-.032,1.3,1.3,0,0,1,.777.291,17.406,17.406,0,0,1,3.948,4.1,7.35,7.35,0,0,1,1.23,5.394,5.666,5.666,0,0,1-1.847,3.362A5.237,5.237,0,0,1,181.881,162.228Zm-1.914-11.869a1.26,1.26,0,0,0-1,.542c-1.019,1.286-1.106,4.484-.869,5.49.4,1.583,1.929,3.292,3.715,3.292a2.88,2.88,0,0,0,1.377-.358,2.909,2.909,0,0,0,1.67-2.216c.267-2.4-2.648-5.283-3.914-6.414A1.866,1.866,0,0,0,179.968,150.359Zm-45.334-4.3a1.028,1.028,0,0,1-.983-.715c-1.12-2.3-.622-5.643,1.3-8.715s4.7-4.972,7.245-4.972a5.518,5.518,0,0,1,3.968,1.777,8.982,8.982,0,0,1,2.417,5.35l.039.233c.274,1.619.687,4.067-.3,5.463a3.39,3.39,0,0,1-3.049,1.141c-.223,0-.445-.005-.661-.01s-.411-.009-.606-.009c-1.418.043-2.857.064-4.249.085s-2.862.043-4.294.087A1.455,1.455,0,0,1,134.634,146.058Zm7.353-11.6a4.381,4.381,0,0,0-3.158,1.565,17.692,17.692,0,0,0-2.384,3.247,5.988,5.988,0,0,0-.895,3.83c1.338-.043,2.676-.065,3.97-.086s2.632-.043,3.97-.086c.159,0,.368.016.589.034.258.02.549.043.8.043a1.676,1.676,0,0,0,.591-.077c.173-.077.292-.12.371-.149.179-.065.179-.065.205-.226a3.584,3.584,0,0,1,.114-.488,10.946,10.946,0,0,0-.431-4.056c-.561-2.189-2-3.55-3.745-3.55ZM213,122.087a7.973,7.973,0,0,1-4.874-1.426,5.58,5.58,0,0,1-2.082-5.567,14.115,14.115,0,0,1,2.513-5.825,1.794,1.794,0,0,0,1.553-1.208,7.615,7.615,0,0,1,4.683-1.681,7.519,7.519,0,0,1,4.449,1.5,8.479,8.479,0,0,1,2.864,3.694,7.112,7.112,0,0,1,.373,4.064,7.51,7.51,0,0,1-2.357,3.983A10.908,10.908,0,0,1,213,122.087Zm1.766-13a5.488,5.488,0,0,0-3.361,1.215,2.6,2.6,0,0,1-.69.345c-1.1,1.656-2.527,4.085-2.115,6.045a3.206,3.206,0,0,0,1.511,2.068,5.376,5.376,0,0,0,2.971.748,8.488,8.488,0,0,0,4.968-1.524,4.644,4.644,0,0,0,1.746-5.326A5.494,5.494,0,0,0,214.771,109.09ZM22.788,99.435a24.241,24.241,0,0,1-8.426-1.479,22.648,22.648,0,0,1-7.49-4.566A20.63,20.63,0,0,1,1.6,85.917,22.364,22.364,0,0,1,0,77.369a33.485,33.485,0,0,1,5.232-17.12A1.487,1.487,0,0,1,6.406,59.6a.927.927,0,0,1,.293.045c2.244.851,4.517,1.731,6.715,2.582l.011,0c2.683,1.038,5.455,2.111,8.117,3.11a1.58,1.58,0,0,1,.863,1.122,1.032,1.032,0,0,1,0,1.294c-1.592,2.247-3.02,4.479-3.02,7.077,0,3.115,1.858,5.291,4.518,5.291A5.588,5.588,0,0,0,25,80.013,7.263,7.263,0,0,0,29.32,75.6c1.442-3.915.254-9.1-1.563-12.5-1.888-3.691-4.932-6.744-7.94-9.493-1.119-1.013-2.281-2.016-3.405-2.986-3.471-2.995-7.06-6.091-9.8-9.873A23.577,23.577,0,0,1,2.158,26.019,25.211,25.211,0,0,1,7.476,11.488a23.716,23.716,0,0,1,7.96-6.574A21.922,21.922,0,0,1,25.3,2.483a19.023,19.023,0,0,1,9.1,2.274,21.476,21.476,0,0,1,6.357,5.17A26.765,26.765,0,0,1,44.867,16.8a49.129,49.129,0,0,1,3.344,15.923,1.024,1.024,0,0,1-.239.821,1.29,1.29,0,0,1-.97.387.779.779,0,0,1-.6.259c-2.56.26-5.143.521-7.725.781-2.553.257-5.105.515-7.637.772a1.192,1.192,0,0,1-.2.017.913.913,0,0,1-.84-.534,1.3,1.3,0,0,1-1.041-.48,1.179,1.179,0,0,1-.167-1.073c1.272-4.972,1.241-8.337-.1-10.287a4.273,4.273,0,0,0-3.184-1.8c-3.187.551-5.07,2-5.6,4.306-.484,2.122.237,4.983,2.032,8.057a21.736,21.736,0,0,0,5.378,6.277,53.876,53.876,0,0,0,6.825,4.053c1.252.663,2.548,1.348,3.791,2.075,5.954,3.514,9.6,7.628,11.478,12.946a27.8,27.8,0,0,1,1.671,9.148A32.247,32.247,0,0,1,39.839,93.3a27.144,27.144,0,0,1-8.083,4.561A26.605,26.605,0,0,1,22.788,99.435ZM19.56,96.842h0a20.059,20.059,0,0,0,3.268.27,21.478,21.478,0,0,0,7.26-1.307,30.249,30.249,0,0,1-8.214,1.119C21.11,96.925,20.332,96.9,19.56,96.842ZM8.771,91.577h0a19.087,19.087,0,0,0,3.28,2.415,1.393,1.393,0,0,0,.6.346.452.452,0,0,1-.087-.13.455.455,0,0,0-.085-.129A18.658,18.658,0,0,1,8.771,91.577Zm8.285-14.671h0a7.476,7.476,0,0,0,.691,2.243.963.963,0,0,0,.108.089c.023.017.047.035.068.052A5.945,5.945,0,0,1,17.4,78.2,7.306,7.306,0,0,1,17.056,76.907Zm5.61-24.079h0a4.9,4.9,0,0,1,.949.948v-.259c-.256-.171-.6-.43-.936-.68ZM13.6,44.715h0l.33.306c1.214,1.133,2.47,2.3,3.813,3.489v-.259l-.517-.517-.392-.313C15.693,46.509,14.613,45.646,13.6,44.715Zm10.27-3.884h0q.389.385.777.775c.086.129.173.238.258.343s.174.217.261.347c.375.259.765.523,1.143.778.755.509,1.533,1.035,2.222,1.552a10.088,10.088,0,0,1,1.554.346A37.335,37.335,0,0,1,23.874,40.832ZM5.4,32.115h0a14.92,14.92,0,0,0,1.209,3.278,14.777,14.777,0,0,1-.69-2.33v-.258a2.8,2.8,0,0,1-.418-.536C5.474,32.22,5.441,32.17,5.4,32.115Zm70.357,62.5a18.4,18.4,0,0,1-9.58-2.541A20.837,20.837,0,0,1,59.5,85.458C56.258,80.5,54.179,73.6,53.648,66.031a61.462,61.462,0,0,1,.812-15.49c1.146-5.9,3.237-10.515,6.215-13.7a16.4,16.4,0,0,1,12.511-5.163c.219,0,.434,0,.657.009a20.154,20.154,0,0,1,3.457-.31,16.093,16.093,0,0,1,8.736,2.5A21.034,21.034,0,0,1,92.3,40.26c4.153,6.351,5.522,13.952,5.968,17.918a83.349,83.349,0,0,1,.561,12.838,31.722,31.722,0,0,1-2.8,12.449,17.1,17.1,0,0,1-2.967,4.223,20.1,20.1,0,0,1-4,3.22,25.267,25.267,0,0,1-9.687,3.431A24.651,24.651,0,0,1,75.762,94.614ZM62.538,85.45h0a18.48,18.48,0,0,0,3.97,3.8c-.043-.13-.087-.283-.13-.432s-.087-.3-.13-.432A17.221,17.221,0,0,1,62.538,85.45Zm14.648-38.52a4.406,4.406,0,0,0-1.876.459c-5.017,3.742-5.437,9.9-5.437,15.881a25.683,25.683,0,0,0,2.053,9.291c1.121,2.515,3.137,5.513,6.377,5.513A7.777,7.777,0,0,0,82.56,76.56c1.319-1.664,2.065-6.058,1.945-11.468-.124-5.619-1.153-10.948-2.752-14.256C80.5,48.244,78.963,46.93,77.186,46.931Zm9.43,25.92h0a12.2,12.2,0,0,1-.431,1.9,2.65,2.65,0,0,1,.949-.517,4.2,4.2,0,0,1-.4-.994C86.7,73.113,86.661,72.985,86.616,72.85ZM148.43,92.819a1.3,1.3,0,0,1-1.316-1.242c-.445-7.134-.885-14.254-1.294-20.885a33.75,33.75,0,0,1-3.429,7.109,28.82,28.82,0,0,1-5,5.951,22.571,22.571,0,0,1-6.38,4.088,19.588,19.588,0,0,1-7.574,1.52,21.034,21.034,0,0,1-3.424-.286c-10.538-1.8-16.549-11.789-17.865-29.688a38.183,38.183,0,0,1,.476-9.237,32.56,32.56,0,0,1,2.879-8.929c3.071-6.142,7.88-10.1,13.906-11.435a18.448,18.448,0,0,1,4.036-.456,17.373,17.373,0,0,1,12.742,5.6A19.8,19.8,0,0,1,141.5,48.253a1.389,1.389,0,0,1-.949,1.209l-6.472,2.2-6.472,2.2a1.368,1.368,0,0,1-.881.31,1.178,1.178,0,0,1-1.191-.914c-.5-2.073-1.179-4.913-3.624-5.437-4.751.655-5.284,8.176-5.179,12.6a19.767,19.767,0,0,0,3.28,11.219,6.831,6.831,0,0,0,4.434,2.167c3.951,0,6.149-6.048,6.872-8.036a1.3,1.3,0,0,1,1.242-.9,1.283,1.283,0,0,1,.311.038c2.028.6,4.111,1.2,6.127,1.769l.01,0c2.013.572,4.094,1.163,6.119,1.766a1.561,1.561,0,0,1,.6.432l-2.33-37.8a1.094,1.094,0,0,1,1.035-1.209.311.311,0,0,0,.13-.043.311.311,0,0,1,.13-.043c2.518-.217,5.014-.434,7.51-.651,2.466-.215,4.933-.429,7.42-.644a.955.955,0,0,1,.118-.007,1.294,1.294,0,0,1,1.177,1.3l3.193,59.2a1.289,1.289,0,0,1-.95,1.209c-2.428.434-4.857.871-7.206,1.295s-4.786.862-7.206,1.295A1.644,1.644,0,0,1,148.43,92.819Zm-16.85-8.146a7.933,7.933,0,0,1-1.209.6A5.259,5.259,0,0,0,131.58,84.673Zm16.57-19.331h0c.172,2.579.325,5.217.473,7.769.149,2.579.3,5.247.478,7.851.482-3.65.037-7.939-.393-12.087-.109-1.049-.212-2.04-.3-3.016Zm-40.477,9.234h0a23.93,23.93,0,0,0,2.417,4.918,2.505,2.505,0,0,0,.086-.388,2.527,2.527,0,0,1,.086-.388A19.5,19.5,0,0,1,107.674,74.576ZM142.8,70.6h0a1.874,1.874,0,0,0,.13.217,1.922,1.922,0,0,1,.129.215.67.67,0,0,1,.043-.173.673.673,0,0,0,.043-.173l-.345-.086Zm-3.971-25.114a.321.321,0,0,0-.085.259,3.962,3.962,0,0,1-.352,1c-.06.13-.116.253-.166.378A2.041,2.041,0,0,0,138.829,45.491Zm7.775-4.705h0a6.634,6.634,0,0,1,.08,1.253V40.918a.113.113,0,0,0-.044-.087A.156.156,0,0,1,146.6,40.786Zm61.818,49.255a1.342,1.342,0,0,1-.9-.363c-.254-.254-.532-.521-.827-.8-1.534-1.471-3.442-3.3-4.093-5.325-5.027,2.056-10.888,4.249-16.817,4.25a20.536,20.536,0,0,1-7.175-1.229c-6-2.148-9.866-6.772-10.615-12.686A24.008,24.008,0,0,1,169.111,63.1a19.55,19.55,0,0,1,5.966-8.975C178.422,51.413,182.651,50.1,188,50.1a42.816,42.816,0,0,1,6.145.486c.335-3.789-.576-7.183-2.5-9.311a8.147,8.147,0,0,0-6.217-2.6c-3.088.656-5.006,2.838-5.006,5.7a1.359,1.359,0,0,1-1.348,1.3,1.221,1.221,0,0,1-.636-.177c-2.067-1.272-4.208-2.536-6.278-3.758-1.306-.771-2.656-1.568-3.992-2.369-.054.005-.11.008-.164.008a1.419,1.419,0,0,1-1.189-.559.923.923,0,0,1-.028-.917,20.684,20.684,0,0,1,8.051-11.2A22.127,22.127,0,0,1,187.5,22.853a24.257,24.257,0,0,1,13.037,3.824A30.25,30.25,0,0,1,213.567,46.1a45.282,45.282,0,0,1,.6,12.773c-.079.941-.2,1.908-.33,2.932-.692,5.491-1.477,11.712,4.732,14.415a1.059,1.059,0,0,1,.594.815,1.462,1.462,0,0,1-.336,1.257,22.368,22.368,0,0,0-2.634,3.207,28.64,28.64,0,0,1-1.94,2.49,19.022,19.022,0,0,1-1.715,1.7,10.906,10.906,0,0,0-2.859,3.387A1.378,1.378,0,0,1,208.422,90.041Zm-7.455-9.684c-.457.406-.961.774-1.5,1.163-.363.265-.738.538-1.094.823.477-.184.959-.353,1.425-.517.648-.228,1.259-.443,1.854-.691l-.017-.016A5.578,5.578,0,0,1,200.967,80.357ZM174.645,58.264a19.97,19.97,0,0,0-3.452,17.088,5.407,5.407,0,0,0,.348,1.174c.061.159.119.31.17.465a23.4,23.4,0,0,1-.517-9.924A19.323,19.323,0,0,1,174.645,58.264ZM190.2,64.487a6.9,6.9,0,0,0-4.943,1.8,4.828,4.828,0,0,0-1.371,3.429A3.421,3.421,0,0,0,185,72.245a3.6,3.6,0,0,0,2.546,1.008,5.714,5.714,0,0,0,4.7-2.819,5.4,5.4,0,0,0-.777-5.869A10.831,10.831,0,0,0,190.2,64.487Zm5.155,3.961a4.973,4.973,0,0,0-.086,1.036,2.3,2.3,0,0,0,.217-.26,2.32,2.32,0,0,1,.214-.258A1.814,1.814,0,0,1,195.358,68.448Zm1.121-16.193v.14a1.384,1.384,0,0,1-.345.6,1.882,1.882,0,0,0,.431.259A4.115,4.115,0,0,1,196.479,52.255Zm8.632-17.982h0a4.221,4.221,0,0,1,.086,1.035,12.613,12.613,0,0,1,1.64,1.381C206.23,35.78,205.65,34.967,205.111,34.273Zm-31.242-3.626a21.858,21.858,0,0,0-2.245,2.589l.017,0a3.133,3.133,0,0,0,.458-.042,3.247,3.247,0,0,1,.474-.043A13.672,13.672,0,0,1,173.868,30.647Zm52.756,53.7a1.385,1.385,0,0,1-1.407-.879c-3.779-26.282-6.566-53.024-8.285-79.484a1.289,1.289,0,0,1,.949-1.209l13.808-2.5a2.214,2.214,0,0,1,.357-.032,1.013,1.013,0,0,1,.765.291A1.479,1.479,0,0,1,233.966,0a1.23,1.23,0,0,1,.9.354,1.122,1.122,0,0,1,.276.863,368.83,368.83,0,0,0,.431,41.34c.259,3.708.611,7.576.95,11.218.042.407.075.78.108,1.141a7.55,7.55,0,0,0,.732,3.385c.5.719,1.393,1.012,3.079,1.012.2,0,.425,0,.656-.013a126.009,126.009,0,0,0,13.9-1.6c2.042-.312,4.153-.635,6.211-.9a1.066,1.066,0,0,1,.118-.007c.727,0,1.1.778,1.177,1.3.433,3.161.849,6.357,1.251,9.448s.82,6.3,1.252,9.452a.928.928,0,0,1-.2.666,1.247,1.247,0,0,1-.751.542c-6.209,1.035-12.5,2.065-18.583,3.061l-.016,0c-6.086,1-12.38,2.027-18.6,3.064A1.636,1.636,0,0,1,226.624,84.344Zm.838-3.813h0a4.337,4.337,0,0,1,.087.519,4.4,4.4,0,0,0,.085.516h0a6.654,6.654,0,0,0,1.288-.171c-.114-.059-.231-.113-.344-.165a3.616,3.616,0,0,1-1.12-.7Zm5-77.845c-.172,0-.258,0-.258.086a1.018,1.018,0,0,1,.081.1.792.792,0,0,0,.264.248V2.685ZM149.423,26.366a8.819,8.819,0,0,1-4.984-1.328,6.309,6.309,0,0,1-2.772-6.332,16.756,16.756,0,0,1,2.6-6.785,1.25,1.25,0,0,1,1.121-.6.779.779,0,0,1,.346-.691,10.034,10.034,0,0,1,6.3-2.341,8.642,8.642,0,0,1,8.6,8.7,9.018,9.018,0,0,1-2.3,5.987C156.465,25,152.884,26.366,149.423,26.366ZM146.769,12.7a1.5,1.5,0,0,0-.086.215,1.475,1.475,0,0,1-.087.216c-.085.085-.173.173-.173.259l.69-.69Z" transform="translate(110.093 2121.811)" fill="url(#linear-gradient)"/>
  </g>
</svg>
