<svg xmlns="http://www.w3.org/2000/svg" xmlns:xlink="http://www.w3.org/1999/xlink" width="567" height="395.291" viewBox="0 0 567 395.291">
  <defs>
    <linearGradient id="linear-gradient" x1="0.5" x2="0.5" y2="1" gradientUnits="objectBoundingBox">
      <stop offset="0" stop-color="#782ea0"/>
      <stop offset="1" stop-color="#279ced"/>
    </linearGradient>
  </defs>
  <g id="Group_632" data-name="Group 632" transform="translate(-30 -2378.044)" opacity="0.2">
    <path id="Path_560" data-name="Path 560" d="M141.768,27.467a99.939,99.939,0,0,1-18.117-.206h-.343c-.069,0-.206.069-.274.069-.069.069-.206.137-.274.206l-.069.069a1.5,1.5,0,0,0-.206.343v.069c0,.069-.069.137-.069.206-.686,4.049-1.3,8.1-1.99,12.147-.137.755-.206,1.51-.343,2.333-4.735.48-11.6-.892-14.343,4.255-1.922,3.637,1.029,6.176,4.392,7,10.019,2.676,12.627-6.863,13.794-15.647,4.872-.206,9.745-.137,14.549-.275-.274,1.51-.48,3.02-.755,4.529-.137.755-.206,1.51-.343,2.333-4.735.48-11.6-.892-14.343,4.255-1.922,3.637,1.029,6.176,4.392,7,13.108,3.431,13.519-13.931,14.686-23.2a26.567,26.567,0,0,1,1.029-3.843A1.4,1.4,0,0,0,141.768,27.467Zm-30.4,22.99ZM99.7,56.221a62.4,62.4,0,0,1-10.98-3.637c3.363-3.569,6.382-7.48,7.343-12.421a1.361,1.361,0,0,0-2.265-1.3,18.831,18.831,0,0,1-11.941,4.118,1.159,1.159,0,0,0-.686.206,21.11,21.11,0,0,0-7.686-6.108c-6.245-2.882-14.686-2.4-19.764,2.676C47.613,45.79,48.437,55.6,45.76,63.221a75.983,75.983,0,0,0-12.833-1.51c-3.5,0-6.108,1.853-5.7,5.627.343,3.157,2.4,5.421,5.216,7A41.491,41.491,0,0,1,15.5,74.75c.755-6.245,1.3-20.519-6.588-19.284-6.931,1.1-2.745,10.706.755,16.882C5.752,70.7,1.016,69.672.261,73.927a4.906,4.906,0,0,0,4.8,5.9c2.539.069,5.078-.961,7.412-2.059,4.6,18.6,23.058,26.284,40.489,24.156a30.508,30.508,0,0,0-2.059,4.872c-.549,1.716,2.127,2.4,2.676.755a26.622,26.622,0,0,1,2.745-5.833c.069-.069.069-.206.137-.274a45.924,45.924,0,0,0,8.441-2.539l-1.853,3.912c-.755,1.578,1.647,3.02,2.4,1.373,1.029-2.265,2.127-4.529,3.157-6.794a.413.413,0,0,0,.069-.274A34.54,34.54,0,0,0,84.4,80.378a44.213,44.213,0,0,0,3.225-16.813h.137a73.661,73.661,0,0,0,12.49-4.6A1.7,1.7,0,0,0,99.7,56.221ZM7.055,76.74a5.509,5.509,0,0,1-3.157.137c-.755-.343-1.647-2.059-1.029-2.814.961-1.1,3.912.206,4.941.618a14.173,14.173,0,0,1,2.333,1.029A32.552,32.552,0,0,1,7.055,76.74Zm5.7-4.255c-3.02-4.8-7.412-12.9-3.637-14.343C13.026,56.633,13.026,66.79,12.751,72.486ZM79.387,83.6c-14.343,22.921-56.754,21.343-64.234-6.176A41.7,41.7,0,0,0,36.29,75.985h0a31.658,31.658,0,0,0,5.421,1.1c-1.99,1.922-3.294,4.392-1.578,6.863,1.99,2.814,5.97,1.853,9.059.412.343,2.265,2.265,3.98,5.078,4.186,3.843.343,6.725-2.608,5.49-6.451-.549-1.647-3.157-.961-2.676.755,1.373,4.461-6.794,3.569-5.078-.275v-.137a.87.87,0,0,0,.069-.412v-.069A1.373,1.373,0,0,0,50.5,80.515a.953.953,0,0,0-.686.343c-1.716,1.1-5.147,2.951-7.068,1.922-2.745-1.51,2.265-5.147,3.637-5.7a1.4,1.4,0,0,0,.892-1.441,1.059,1.059,0,0,0-1.029-1.3h-.275c-4.255.48-14.686-.892-15.853-6.108s5.01-3.5,7.892-3.088c4.8.686,9.608,1.3,14.411,1.922,1.716.206,1.716-2.539,0-2.745-1.3-.206-2.676-.412-4.049-.618,2.059-6.039,1.784-13.039,4.872-18.666,4.8-8.99,17.019-8.441,23.882-2.127C87.554,52.447,86.387,72.348,79.387,83.6Zm3.569-37.95a21.474,21.474,0,0,0,9.264-2.539c-1.51,3.294-3.98,6.039-6.519,8.715A27.766,27.766,0,0,0,82.956,45.653Zm4.392,14.892a34.82,34.82,0,0,0-.892-5.97h0A65.9,65.9,0,0,0,95.1,57.868,43.133,43.133,0,0,1,87.348,60.545Zm9.676-29.029c11.117,1.922,12.147-8.51,11.735-17.843,4.255-1.029,8.441-2.059,12.7-3.088a1.49,1.49,0,0,0,.961-1.716,25.83,25.83,0,0,1,0-7.274A1.451,1.451,0,0,0,120.7-.121a79.561,79.561,0,0,1-13.931,2.814c-.137,0-.206.069-.275.069a1.231,1.231,0,0,0-1.1,1.3c.069,4.255.206,8.578.274,12.833,0,.549.069,1.1.069,1.716C101.21,20.055,94.553,19.85,92.563,25.2,91.328,28.771,93.73,30.967,97.024,31.516ZM66.142,45.172c-.069,0-.069,0-.137-.069a4.029,4.029,0,0,0-4.8,3.843A4.315,4.315,0,0,0,65.8,53.2a4.426,4.426,0,0,0,4.186-4.6A3.619,3.619,0,0,0,66.142,45.172Zm-.275,5.216c-1.853.275-2.333-2.265-1.029-2.608a1.313,1.313,0,0,0,1.167.206C67.721,47.368,67.652,50.182,65.868,50.388Z" transform="translate(453.823 2664.842)" fill="url(#linear-gradient)"/>
    <path id="Path_561" data-name="Path 561" d="M114.3,7.7C108.2,0,93.4,1.5,84.8.9a328.491,328.491,0,0,0-56.1.6c-9,.9-20.3.2-24.4,9.5a1.909,1.909,0,0,0-.3.8A157.856,157.856,0,0,0,.5,58.3C.9,64,.8,72.2,2.9,78.8v.5C5.1,88,8,97.3,15.3,103.2c6.8,5.5,16,6.1,24.3,6.8a239.7,239.7,0,0,0,41.5-.5c10.6-.9,22.6-1.2,32.8-4.6,17.9-5.9,17.6-27.7,18.3-43.4C133.1,41.7,130.1,20.9,114.3,7.7Zm14,44.1-7.8-12.3c0-2.4-.1-5.1-.2-7.7,2.4,3.9,4.9,7.7,7.3,11.6A59.489,59.489,0,0,1,128.3,51.8Zm-1.4-13.4c-2.3-3.6-4.5-7.2-6.8-10.8a86.641,86.641,0,0,0-1.3-9.1A50.479,50.479,0,0,1,126.9,38.4ZM4.6,60.3A157.335,157.335,0,0,1,7.8,12.9c3-8,16.1-6.9,22.6-7.5,6.6-.6,13.2-1,19.8-1.3,13.9-.5,27.7.4,41.5,1.3,9,.6,18,.1,21.6,10.4,2.7,7.5,2.9,16.6,3.1,24.5a151.122,151.122,0,0,1-.4,17.8c-.4,4.8-.3,15.5-2.7,20.2-6,12.1-30.1,9.9-41.8,10.3a315.463,315.463,0,0,1-40.1-1.1c-9.1-.8-19.7.6-24.4-9.2C4.8,73.3,5.1,65.7,4.6,60.3ZM9.8,88a16.411,16.411,0,0,0,4.9,1.5c1.8,4,3.7,8,5.8,11.9C15.1,98.3,12,93.5,9.8,88Zm13.6,14.9c-2.3-4.3-4.4-8.6-6.4-13,.7.1,1.5.2,2.2.3,1.2.2,2.4.3,3.7.4,2.1,4.9,4.5,9.6,7,14.3A35.029,35.029,0,0,1,23.4,102.9Zm8.9,2.4c-2.5-4.8-4.9-9.6-7.1-14.5,2.5.3,5.1.5,7.7.7,2.2,5,4.6,9.8,7.1,14.6A49.014,49.014,0,0,1,32.3,105.3Zm10,1c-2.6-4.8-4.9-9.6-7.2-14.6,2.3.2,4.5.3,6.8.4,2.2,4.9,4.5,9.6,7,14.3C46.7,106.4,44.5,106.4,42.3,106.3Zm10.5.2H51.1c-2.5-4.7-4.8-9.4-7-14.2,2.4.1,4.8.2,7.1.3,2.1,4.8,4.4,9.4,6.9,14C56.4,106.6,54.6,106.6,52.8,106.5Zm7.6,0c-2.5-4.6-4.7-9.2-6.9-14,2.4,0,4.8.1,7.3.1,2.1,4.7,4.3,9.2,6.7,13.8C65.1,106.5,62.7,106.5,60.4,106.5Zm9.3-.2c-2.4-4.5-4.6-9-6.7-13.7,2.4,0,4.7-.1,7.1-.2,2,4.6,4.2,9.1,6.5,13.5C74.3,106.1,72,106.2,69.7,106.3Zm9-.5c-2.3-4.4-4.5-8.9-6.5-13.4,2.1-.1,4.2-.2,6.2-.3,2,4.5,4.1,8.9,6.4,13.2C82.8,105.5,80.8,105.7,78.7,105.8Zm8.3-.7c-2.3-4.3-4.4-8.7-6.4-13.1,1.7-.1,3.5-.2,5.2-.4,1.9,4.4,4,8.7,6.2,12.9A42.605,42.605,0,0,1,87,105.1Zm7.1-.8c-2.2-4.2-4.3-8.5-6.2-12.8l6.3-.6a8.083,8.083,0,0,1,1.6-.1c1.9,4.2,3.9,8.3,6,12.4C99.2,103.6,96.7,104,94.1,104.3Zm13.3-2.1c-1.2.2-2.3.4-3.5.6-2.1-4-4.1-8.1-5.9-12.2a60.621,60.621,0,0,0,7.3-.9c1.8,3.9,3.6,7.8,5.6,11.6A22.508,22.508,0,0,1,107.4,102.2Zm5.3-1.6c-1.9-3.8-3.8-7.6-5.5-11.4a14.5,14.5,0,0,0,6.7-3.8c1.7,3.7,3.4,7.3,5.3,10.9A18.463,18.463,0,0,1,112.7,100.6Zm7.9-5.8c-1.9-3.6-3.7-7.3-5.3-11.1l.9-1.5a26.217,26.217,0,0,0,1.9-4.9c1.9,4.1,3.8,8.2,5.9,12.2A22.786,22.786,0,0,1,120.6,94.8Zm4.4-7.7c-2.2-4.2-4.2-8.5-6.2-12.8a59.96,59.96,0,0,0,1.1-7.4c2.4,3.8,4.8,7.6,7.2,11.5A38.061,38.061,0,0,1,125,87.1Zm2.7-11.9c-2.4-3.8-4.8-7.6-7.2-11.5,0-.1-.1-.1-.1-.2.2-2.6.3-5.3.3-7.8,2.6,3.7,5.1,7.4,7.7,11C128.1,69.6,128,72.4,127.7,75.2Zm.6-11.8c-2.6-3.7-5.1-7.4-7.7-11.1v-9c2.6,4.1,5.2,8.3,7.8,12.4v.4C128.4,58.4,128.3,60.9,128.3,63.4ZM52.4,71.3c4.8-1.6,9.7-5.8,14-8.4,5.8-3.5,12.7-6.7,18-10.9,9.7-7.7-6.5-14.7-12-18.3-4.7-3.1-24.3-21-27.2-8.2a1.986,1.986,0,0,0,.1,1.1c-.4,11.8-.7,23.7-1.1,35.6C44,68,45.2,73.7,52.4,71.3ZM47.9,51.8c.2-8.4.4-16.8.5-25.2,0-.1.1-.1.1-.2,2-5.3,21.7,10.2,24.2,11.9,2.4,1.5,8.4,4.1,9.9,6.5,2.4,3.9-2.2,5.2-4.9,6.8-4.4,2.7-8.8,5.4-13.3,8.1-3.5,2.1-8.1,6.3-12,7.4-3,.8-3.5,1.4-4.9-3.8C46.7,60,47.8,55.2,47.9,51.8Z" transform="translate(263.032 2604.994) rotate(-20)" fill="url(#linear-gradient)"/>
    <path id="Path_562" data-name="Path 562" d="M40.2,13.4C39,3.4,28.3,3.1,21.6,7.6,18.5-.1,8.4-3.2,2.7,4.2c-8.3,10.9,4.6,23,9.4,32a2.09,2.09,0,0,0,2.3.9C22.9,33.7,41.6,25.2,40.2,13.4Z" transform="translate(473.02 2616.018)" fill="url(#linear-gradient)"/>
    <path id="Path_563" data-name="Path 563" d="M23.07,7.685c-.689-5.741-6.832-5.913-10.678-3.33-1.78-4.42-7.578-6.2-10.85-1.952-4.765,6.258,2.641,13.2,5.4,18.371a1.2,1.2,0,0,0,1.32.517C13.138,19.339,23.874,14.459,23.07,7.685Z" transform="translate(142.311 2505.366) rotate(-47)" fill="url(#linear-gradient)"/>
    <g id="Group_628" data-name="Group 628" transform="translate(289.011 2527.991)">
      <g id="Group_627" data-name="Group 627">
        <path id="Path_564" data-name="Path 564" d="M15.8,2.5c.8,2.6,1.4,8.4,3.4,10.4s7.7,2.7,10.3,3.5c-.2-1.2-.3-2.4-.5-3.7-2.3,1.6-7.5,3.9-8.9,6.4s-.2,8.2-.2,10.9c1-.6,2-1.2,3-1.7-2.1-1.6-6-5.8-8.7-6.2S6.5,24.4,4,25.3l2.5,2.5c.9-2.5,3.7-7.5,3.3-10.2S5.3,11,3.7,8.8c-.6,1-1.2,2-1.7,3,2.7.1,8.5,1.3,10.9-.1,2.5-1.4,4.9-6.5,6.5-8.8,1.5-2.1-2-4.1-3.5-2-1,1.3-1.9,2.7-2.9,4a22.688,22.688,0,0,0-1.8,2.5c-.1.6-1.5,1.5-.2.9,1.1-.5-3-.4-3.8-.4-1.7,0-3.4-.1-5.2-.1C.6,7.8-.6,9.6.3,10.8c1,1.3,2,2.7,2.9,4A22.688,22.688,0,0,0,5,17.3c.2.2,1,1.9.8.8s-.4.7-.5,1a21.363,21.363,0,0,0-.9,2.7c-.6,1.6-1.1,3.2-1.7,4.9a2.083,2.083,0,0,0,2.5,2.5c1.6-.5,3.1-1,4.7-1.6a16.621,16.621,0,0,0,2.9-1c.4-.2,2.1-.3,1-.5-.5-.1,2.4,2.1,3.1,2.6,1.4,1,2.7,2.1,4.1,3.1,1.2.9,3-.3,3-1.7v-5c0-.9.1-5-.4-4-.6,1.3.4-.1.9-.3.8-.4,1.6-1.1,2.4-1.6,1.4-1,2.8-2,4.2-2.9a2.073,2.073,0,0,0-.5-3.7c-1.6-.5-3.2-1-4.7-1.5-.9-.3-4.6-1.7-3.9-.9.8.8-.6-2.9-.8-3.8-.5-1.6-1-3.3-1.5-4.9C19-1.1,15.1,0,15.8,2.5Z" fill="url(#linear-gradient)"/>
      </g>
    </g>
    <g id="Group_630" data-name="Group 630" transform="translate(181.959 2541.026)">
      <g id="Group_629" data-name="Group 629">
        <path id="Path_565" data-name="Path 565" d="M23.4,16C15.7,9.9,1.2,6.6.1,20.4c-1.3,16,19.2,26.8,29.2,35.9.8.8,2.6.8,3.1-.4C38.3,42.2,49.8,23,43,7.8c-7.8-17.3-19.7-2.1-22.9,9-.7,2.5,3.1,3.5,3.9,1.1,1.3-4.7,5-16.7,12.6-12.7,6.1,3.2,4.2,15.3,3.2,20.3C37.7,35.4,33,44.6,29,53.8c1-.1,2.1-.3,3.1-.4-6.6-6.1-14.2-11.1-20.5-17.7-3.8-4-9.7-10.8-7.3-17,2.9-7.7,11.9-3.4,16.3,0C22.6,20.4,25.4,17.6,23.4,16Z" fill="url(#linear-gradient)"/>
      </g>
    </g>
    <path id="Path_566" data-name="Path 566" d="M77.427,74.781c-2.714.123-5.367,1.974-5.367,5a5.393,5.393,0,0,0,10.733.247C82.979,76.879,80.264,74.9,77.427,74.781Zm0,7.464a2.748,2.748,0,0,1-2.9-2.529c0-1.6,1.542-2.406,2.9-2.529a2.748,2.748,0,0,1,2.9,2.529C80.388,81.258,78.846,82.245,77.427,82.245ZM59.908,74.781c-2.714.123-5.367,1.974-5.367,5a5.393,5.393,0,0,0,10.733.247C65.4,76.879,62.745,74.9,59.908,74.781Zm0,7.464a2.748,2.748,0,0,1-2.9-2.529c0-1.6,1.542-2.406,2.9-2.529a2.748,2.748,0,0,1,2.9,2.529A2.787,2.787,0,0,1,59.908,82.245Zm44.106-5.428c0-7.958,1.357-18.753-9.561-19.555-17.457-1.3-35.532,0-53.051,0-8.266,0-16.532-.123-24.8,0C8.77,57.386,5.192,62.012,5.192,69.6V85.515c0,3.763-.617,8.081,1.6,11.35,3.948,5.922,12.954,4.256,19.061,4.256,14.373,0,28.684.062,43.057.062H86.988c.555,0,2.653-.308,3.146,0s1.234,2.776,1.789,3.454c2.344,2.9,5.49,4.071,9.068,4.38a1.228,1.228,0,0,0,.864-2.1A13.891,13.891,0,0,1,97.66,100.5C106.481,96.988,104.014,84.836,104.014,76.817Zm-8.2,21.837a1.043,1.043,0,0,0-.8.864,1.225,1.225,0,0,0-.062.679,14.421,14.421,0,0,0,2.344,5.613,10.112,10.112,0,0,1-5.367-6.045,1.321,1.321,0,0,0-1.172-.925c-19.246,0-38.431-.062-57.677-.062-5.86,0-12.214.679-18.013,0-10.3-1.3-7.341-16.347-7.341-23.626,0-2.653-.37-5.613,0-8.2.864-5.675,4.441-6.909,8.945-7.156,6.354-.308,12.769,0,19.185,0H87.543a56.721,56.721,0,0,1,6.477,0c6.045.617,7.526,4.565,7.649,9.5.123,4.688,0,9.438,0,14.126C101.546,88.969,102.842,96.557,95.809,98.654ZM144.789,91.5c-5.182-7.156-14.743-9.006-22.947-7.156a19.849,19.849,0,0,0-13.879,18.136,1.085,1.085,0,0,0,.617,1.049c5.058,3.208,11.474,4.627,17.334,4.935a42.649,42.649,0,0,0,14.25-1.727c1.974-.617,5.86-1.48,7.464-3.023C150.464,100.936,146.763,94.213,144.789,91.5Zm-.308,11.042a20.318,20.318,0,0,1-2.406,1.049,31.358,31.358,0,0,0-2.036-8.2c-.432-1.11-2.221-.617-1.789.493a27.464,27.464,0,0,1,2.036,8.328,49.5,49.5,0,0,1-4.812,1.172c-5.243.987-12.707,1.357-18.629-.493a26.942,26.942,0,0,1,4.133-9.315c.679-.987-.925-1.912-1.6-.925a27.044,27.044,0,0,0-4.256,9.623,17.692,17.692,0,0,1-3.208-1.727c-2.282-1.6-2.159-.679-.8-4.133,2.282-5.8,5.367-9.623,11.474-11.659,9.5-2.159,22.516,2.221,23.379,13.571C146.022,102.108,146.639,101.43,144.48,102.54ZM43.746,74.781c-2.714.123-5.367,1.974-5.367,5a5.393,5.393,0,0,0,10.733.247C49.3,76.879,46.584,74.9,43.746,74.781Zm0,7.464a2.748,2.748,0,0,1-2.9-2.529c0-1.6,1.542-2.406,2.9-2.529a2.748,2.748,0,0,1,2.9,2.529C46.707,81.258,45.165,82.245,43.746,82.245Zm73.716-16.1c-1.974,5.8.987,12.584,6.971,14.373s13.756-1.6,15.545-7.834c1.727-6.169-1.789-12.893-8.266-13.879A11.564,11.564,0,0,0,117.461,66.145Zm20.357,5.243c-1.11,5.428-8.081,8.389-13.078,6.539-10.548-3.886-4.195-19.74,6.292-16.779C135.967,61.889,138.805,66.577,137.818,71.388Zm-110.6,3.393c-2.714.123-5.367,1.974-5.367,5a5.393,5.393,0,0,0,10.733.247C32.7,76.879,30.052,74.9,27.214,74.781Zm0,7.464a2.748,2.748,0,0,1-2.9-2.529c0-1.6,1.542-2.406,2.9-2.529a2.553,2.553,0,1,1,0,5.058Z" transform="translate(174.375 2365.277) rotate(14)" fill="url(#linear-gradient)"/>
    <path id="Path_567" data-name="Path 567" d="M115.746,29.707V13.114c0-6.09.447-12.459-7.375-12.738-19-.67-38.159,0-57.154,0H18.925C14.567.376,8.142-.8,3.952.823-.238,2.5.041,6.689.041,10.432V29.2c0,1.62-.168,3.408,0,5.14v.112c.056,3.631.223,8.716,2.57,11.621,1.62,1.955,3.408,1.732,5.866,1.732H25.629v9.274c-.559-.894-1.173-1.788-1.732-2.626-1.508-2.291-3.352-4.134-6.313-3.3h-.056c-.056,0-.056,0-.112.056a.055.055,0,0,0-.056.056c-.056,0-.112.056-.168.056-7.1,4.414,1.788,12.291,4.023,17.375,1.341,3.073,2.57,8.269,4.8,10.727,2.011,2.235,5.978,1.341,8.66,1.341,3.576,0,7.766.615,11.286,0,3.631-.67,4.581-5.419,5.419-8.548.95-3.352.5-7.039.5-10.5s.838-7.6-1.508-10.392v-.056c-.056-.056-.056-.112-.112-.112-.056-.056-.112-.112-.168-.112a.055.055,0,0,0-.056-.056h-.056c-.056-.056-.112-.056-.168-.112a4.171,4.171,0,0,0-4.414.279,3.613,3.613,0,0,0-.5-.894,1,1,0,0,0-.279-.391,1.7,1.7,0,0,0-.391-.279,4.527,4.527,0,0,0-4.358-.391,5.673,5.673,0,0,0-.335-1.4H94.46c4.8,0,12.459,1.788,16.649-1.285,3.687-2.738,4.525-7.822,4.693-12.068v-.112C115.858,32.836,115.746,31.215,115.746,29.707ZM5.069,44.847a4.031,4.031,0,0,1-1.285-1.285A11.158,11.158,0,0,1,2.5,39.372c.168.112.335.223.559.391a5.352,5.352,0,0,0,2.011.67Zm4.078.894a12.185,12.185,0,0,1-2.961-.447h0V40.546c.782.056,1.564,0,2.291,0H9.2C9.2,42.333,9.2,44.065,9.148,45.741Zm1.117,0c0-1.732.056-3.464.056-5.2h2.626l.168,5.028A23,23,0,0,1,10.265,45.741Zm6.7-.168H14.232c-.056-1.676-.112-3.352-.168-4.972h2.793A36.948,36.948,0,0,1,16.969,45.574Zm1.117,0a49.24,49.24,0,0,0-.112-4.972h3.3c.056,1.676.112,3.3.223,4.972Zm4.47,0c-.056-1.676-.112-3.3-.223-4.972h2.235a1.047,1.047,0,0,0,1.006-.67c.056.95.112,1.788.112,2.458v3.185ZM39.876,62.167V54.625c0-.615,0-1.229.056-1.844.056-.112.056-.223.112-.335C40.1,50.937,42,50.714,43,51.552a3.737,3.737,0,0,1,.726,2.291,3.27,3.27,0,0,0-.112.726,1.116,1.116,0,0,0,.112.5c-.056.838-.112,1.676-.112,2.291v4.8a1.118,1.118,0,0,0,2.235,0V54.4A1.915,1.915,0,0,1,48.7,52.893c1.9,2.291.894,7.263.894,10,0,2.682.391,5.643-.223,8.269-.559,2.4-1.62,6.648-4.023,7.431-2.626.838-6.984,0-9.665,0-1.955,0-6.369.838-7.989-.559-1.788-1.564-2.849-6.481-3.855-8.66A41.717,41.717,0,0,0,21.1,63.9c-1.453-2.4-6.872-7.933-2.961-10.5,2.458-.615,3.52,1.844,4.693,3.576.95,1.4,1.9,2.849,2.793,4.246v1.006a1.118,1.118,0,0,0,2.235,0V48.255c0-1.9-1.453-14.358,1.955-14.638,3.631,1.508,1.844,12.347,1.844,15.2V62.167a1.118,1.118,0,0,0,2.235,0V48.7c0-.056.056-.056.056-.112a1.929,1.929,0,0,1,3.3-.391,8.429,8.429,0,0,1,.559,3.631c0,.168-.056.335-.056.5a.205.205,0,0,0,.056.168c-.056,1.117-.168,2.235-.168,3.185v6.425A1.118,1.118,0,0,0,39.876,62.167ZM33.9,45.686V44.456c0-1.173.112-2.514.168-3.855h1.508v4.693A3.521,3.521,0,0,0,33.9,45.686Zm7.1-.112h-2.4a1.014,1.014,0,0,0-.782.335,2.77,2.77,0,0,0-1.117-.447v-4.8h4.47C41.161,42.277,41.1,43.9,40.993,45.574Zm5.531,0H42.166c.056-1.676.112-3.3.168-4.972h4.19Zm4.581,0H47.642V40.6h3.631C51.217,42.277,51.161,43.9,51.105,45.574Zm4.3,0H52.223c.056-1.676.112-3.3.168-4.972h3.185c-.056,1.564-.112,3.129-.223,4.693A.419.419,0,0,0,55.407,45.574Zm6.146,0h-5.14c.056-.056.056-.168.112-.279.056-1.564.112-3.129.223-4.693h5.14A18.494,18.494,0,0,0,61.553,45.574Zm5.084,0H62.67A24.536,24.536,0,0,1,62.95,40.6h3.687Zm4.693,0H67.754V40.6h3.687C71.386,42.277,71.33,43.9,71.33,45.574Zm4.693,0H72.447c.056-1.676.056-3.3.112-4.972h3.687C76.135,42.277,76.079,43.9,76.023,45.574Zm4.358,0H77.14c.056-1.676.112-3.3.168-4.972h3.185C80.437,42.277,80.437,43.9,80.381,45.574Zm4.023,0H81.5c.056-1.676.056-3.3.112-4.972h3.073C84.627,42.277,84.515,43.9,84.4,45.574Zm1.117,0c.112-1.676.168-3.3.279-4.972h3.017a37.034,37.034,0,0,0,.223,4.972Zm8.548,0H90.214A37.031,37.031,0,0,1,89.99,40.6h4.078v4.972Zm1.117,0V40.6h3.24c.056,1.676.168,3.3.223,4.972Zm7.654,0H99.712c-.056-1.676-.168-3.3-.223-4.972h3.352Zm4.581-.056a17.822,17.822,0,0,1-3.464.112V40.6h1.62c.615,0,1.229,0,1.9.056v4.861Zm2.961-1.4a5.407,5.407,0,0,1-1.788,1.062V40.546a8.372,8.372,0,0,0,4.246-1.006A9.135,9.135,0,0,1,110.383,44.121Zm3.129-10c-.559,4.693-4.358,4.246-7.933,4.246H34.121c-.056-2.961-.726-5.755-3.631-6.872h0c-.056,0-.112-.056-.168-.056a2.1,2.1,0,0,0-.559-.056c-3.967,0-4.358,4.023-4.246,7.6a1,1,0,0,0-.95-.615c-5.755,0-12.682,1.062-18.381,0-4.972-.95-3.911-6.2-3.911-10V13.114C2.276,9.2,1.1,3.56,6.187,2.61c3.967-.726,8.716,0,12.738,0h84.586c4.972,0,9.721-.782,10,5.755C113.846,16.634,114.461,25.908,113.511,34.121ZM82.113,11.55v15.42a1.118,1.118,0,0,0,2.235,0V11.55A1.118,1.118,0,0,0,82.113,11.55Zm14.079,1.9a13.233,13.233,0,0,0-8.325-3.017,1.015,1.015,0,0,0-.894.447,1.2,1.2,0,0,0-.223.67v15.42a1.2,1.2,0,0,0,.223.67.952.952,0,0,0,.894.447c3.129-.056,8.66-1.006,8.716-5.14a4.085,4.085,0,0,0-2.011-3.52C96.862,18.086,98.706,15.8,96.192,13.449ZM88.985,25.74v-5.7c2.067.168,5.419.726,5.363,2.849S91.052,25.629,88.985,25.74Zm3.52-7.822a1.06,1.06,0,0,0-.447.391,15.977,15.977,0,0,0-3.073-.5V12.779a12.041,12.041,0,0,1,4.8,1.676c.447.279,1.453.838,1.4,1.508C95.186,16.913,93.175,17.583,92.5,17.919Zm-16.09,1.117c1.732-.67,3.129-1.9,3.129-3.855,0-4.023-5.643-4.749-8.548-4.8a1.211,1.211,0,0,0-.782.279h0l-.112.112a.925.925,0,0,0-.279.67v15.42a1.118,1.118,0,0,0,2.235,0V19.93a14.778,14.778,0,0,0,2.123-.279c1.341,2.626,2.626,5.2,3.967,7.822.67,1.285,2.57.168,1.955-1.117C78.872,23.952,77.643,21.494,76.414,19.036ZM72.168,17.7V12.667c1.955.112,5.252.615,5.2,2.514S74.124,17.583,72.168,17.7Zm35.421-5.028a1.118,1.118,0,0,0,0-2.235h-7.542a1.062,1.062,0,0,0-.726.279l-.056.056-.056.056a.965.965,0,0,0-.279.726v15.42a1.062,1.062,0,0,0,.279.726l.056.056.056.056a.965.965,0,0,0,.726.279h7.542a1.118,1.118,0,0,0,0-2.235h-6.425V19.986h3.52a1.118,1.118,0,0,0,0-2.235h-3.52V12.667h6.425ZM29.261,11.55c.056,2.179.279,4.358.279,6.537,0,2.067.168,6.146-1.788,7.486-3.464,2.347-4.581-3.855-4.693-5.922-.112-2.682.279-5.363.335-8.045a1.118,1.118,0,0,0-2.235,0c-.056,4.47-2.123,17.99,6.313,16.481,6.2-1.117,4.134-12.291,4.078-16.481A1.146,1.146,0,0,0,29.261,11.55Zm-15.2,5.866c-.894-.67-2.626-1.285-3.017-2.346-.559-1.453,1.676-2.514,2.738-2.514,1.508-.056,2.626.95,3.576,2.011s2.514-.5,1.564-1.564c-1.788-2.011-4.47-3.352-7.151-2.235-1.9.782-3.855,2.905-2.905,5.084.782,1.844,3.24,2.905,4.693,4.19a17.274,17.274,0,0,1,3.017,2.682c.894,1.4.112,2.849-1.62,3.24s-3.129-.838-4.134-2.011c-.95-1.062-2.514.5-1.564,1.564,1.844,2.067,4.637,3.52,7.319,2.179,2.067-1.006,3.576-3.24,2.4-5.475C18.087,20.321,15.74,18.7,14.064,17.416Zm51.846,5.531c-.782,1.9-2.235,3.743-4.19,2.011a8.245,8.245,0,0,1-2.4-5.643,7.5,7.5,0,0,1,2.291-5.7c2.067-1.844,3.52.168,4.414,2.123.559,1.341,2.458.168,1.955-1.117-1.229-2.905-3.911-5.252-6.984-3.3-2.682,1.676-4.023,5.363-3.8,8.38.168,2.905,1.62,6.313,4.3,7.766,3.24,1.732,5.531-1.229,6.648-3.911C68.593,22.221,66.414,21.662,65.911,22.947Zm-22.571-9.5a13.233,13.233,0,0,0-8.324-3.017,1.015,1.015,0,0,0-.894.447,1.2,1.2,0,0,0-.223.67v15.42a1.2,1.2,0,0,0,.223.67.952.952,0,0,0,.894.447c3.129-.056,8.66-1.006,8.716-5.14a4.085,4.085,0,0,0-2.011-3.52C44.01,18.086,45.854,15.8,43.34,13.449ZM36.133,25.74v-5.7c2.067.168,5.419.726,5.363,2.849S38.2,25.629,36.133,25.74Zm3.576-7.822a1.06,1.06,0,0,0-.447.391,15.978,15.978,0,0,0-3.073-.5V12.779a12.041,12.041,0,0,1,4.8,1.676c.447.279,1.453.838,1.4,1.508C42.334,16.913,40.379,17.583,39.708,17.919Zm10.95-.5c-.894-.67-2.626-1.285-3.017-2.346-.559-1.453,1.676-2.514,2.738-2.514,1.508-.056,2.626.95,3.576,2.011s2.514-.5,1.564-1.564c-1.788-2.011-4.47-3.352-7.151-2.235-1.9.782-3.855,2.905-2.905,5.084.782,1.844,3.24,2.905,4.693,4.19a17.274,17.274,0,0,1,3.017,2.682c.894,1.4.112,2.849-1.62,3.24s-3.129-.838-4.134-2.011c-.95-1.062-2.514.5-1.564,1.564,1.844,2.067,4.637,3.52,7.319,2.179,2.067-1.006,3.576-3.24,2.4-5.475C54.625,20.321,52.335,18.7,50.659,17.416Z" transform="translate(30.033 2378.079)" fill="url(#linear-gradient)"/>
    <path id="Path_574" data-name="Path 574" d="M92.3,27.1c-1.3-.2-1.8,1.7-.5,1.9a17.281,17.281,0,0,0,6,.1c1.3-.2.7-2.1-.5-1.9A13.962,13.962,0,0,1,92.3,27.1Zm-3-5a47.318,47.318,0,0,1,7.1-3.6c1.2-.5.7-2.4-.5-1.9a53.9,53.9,0,0,0-7.6,3.8C87.2,21.1,88.2,22.8,89.3,22.1Zm14,25.4c-2-4.1-5.9-5.6-10.2-5.9-8-.6-16.3,0-24.4.4,3.1-9.3,4.9-20,2.6-29.5C69.6,5.7,64.4-1.5,56.4.3c-9.1,2-7.9,12.3-9,19.4-1.3,7.9-5.4,11-12.1,14.4-2.6,1.3-4.9,2.6-6.6,4.7a1.884,1.884,0,0,0-.8-.2H2a2.006,2.006,0,0,0-2,2V94.8a2.006,2.006,0,0,0,2,2H27.9a1.8,1.8,0,0,0,1.7-1.1c7.1,8.2,19.5,7.7,30,7.7,8.3,0,19.5-.6,21-10.3a10.175,10.175,0,0,0,8-14.1c6.3-3.1,8.8-9.9,5.6-15.9C101.4,61.7,107,55.1,103.3,47.5Zm-76,14.3H4V58.4a39.63,39.63,0,0,1,7.7.1,5,5,0,0,0,4.6,1.4,7.714,7.714,0,0,0,2.5-1h8.4C27.2,59.8,27.3,60.8,27.3,61.8Zm-.7-10.4c-2,0-4-.1-6.1-.1-1.1-1.3-3.1-1.7-5-1.7-.1,0-.1-.1-.2-.1a3.811,3.811,0,0,0-3.5,1.6c-.1,0-.1,0-.2-.1a49.683,49.683,0,0,0-7.7-.4v-.3c0-.1-.1-1.6-.3-3.3l22.9.4h0C26.6,48.8,26.6,50.1,26.6,51.4Zm-5.1,1.9c1.7,0,3.5,0,5.2.1.1,1.1.1,2.3.2,3.4H20.7a6.109,6.109,0,0,0,.8-3A.446.446,0,0,0,21.5,53.3ZM17,57.6c-5.6,2.4-5.6-6-2-6,.1,0,.2.1.3.1,1.7,0,3.8,0,4.2,2.1C20,55.4,18.5,56.9,17,57.6ZM10.8,53a5.907,5.907,0,0,0-.4,2.6,2.92,2.92,0,0,0,.2.9q-3.3-.15-6.6,0V52.8A30.778,30.778,0,0,1,10.8,53ZM2.5,42.4c2.6-1.1,22-.7,23.9.2,1.2.5.8,1.2.5,2.9-7.8-.1-15.6-.2-23.4-.4C3.2,43.6,2.8,42.4,2.5,42.4ZM26.1,92.8H18.8c-4,0-10.9,1.4-14.7,0-2.6-1-1.1,0-.1-3.7,0-.2.1-.3.1-.5,7.5-.2,15-.4,22.4-.6C26.4,89.6,26.3,91.2,26.1,92.8Zm.6-6.8-22.3.6a38.428,38.428,0,0,0,0-4.8c7.5.4,15,.6,22.5.5C26.8,83.5,26.8,84.7,26.7,86Zm.3-5.8c-7.6.1-15.2,0-22.7-.5-.1-1.4-.2-2.8-.3-4.1,7.7-.1,15.5-.3,23.2-.4C27.2,76.9,27.1,78.5,27,80.2Zm.3-7c-7.8.1-15.5.3-23.3.4V69.9l23.4-.1C27.4,70.9,27.3,72.1,27.3,73.2Zm.1-5.4c-7.8,0-15.6.1-23.4.1V63.7H27.4ZM52.7,9.1c.1-.3.3-.5.4-.8A12.529,12.529,0,0,1,55,13.6c.2,2.1-.7,6.1-3.4,5.2C51.8,15.6,51.5,11.7,52.7,9.1ZM90.6,59.4c-1.8-.1-2.5,2.2-1.4,3.4,4.6,4.9,2.4,11.1-3.6,13.1a3.552,3.552,0,0,0-.9.4,1.834,1.834,0,0,0-.8,2.3c0,.2.1.3.2.5a.1.1,0,0,0,.1.1c0,.1.1.1.1.2,3.6,4.5-.4,9.8-5.5,9.9a1.728,1.728,0,0,0-1.3.5h0c-.1.1-.2.2-.2.3a2.1,2.1,0,0,0-.4,1.1c-.3,9.7-15.8,8.2-22.6,8.1-9.2-.1-19.2-.7-23.9-9.8a261.789,261.789,0,0,0-.2-46,1.794,1.794,0,0,0,.5-.7c2.8-5.6,9.7-5.8,14.2-9.5,3.9-3.2,5.6-7.9,6.4-12.7a4.915,4.915,0,0,0,5.3-3.3c1.3-3.6-.2-8-2.3-11l-.1-.1c6-8.8,12.7,4.1,13.5,8.8,1.5,9.4-.5,19.3-3.7,28.2a1.68,1.68,0,0,0,.7,2.1,1.526,1.526,0,0,0,1.5.6c6.8-.3,13.6-.5,20.4-.5,3.9,0,10.5-.9,13,3.3C103.3,55.2,96.2,59.7,90.6,59.4ZM85.3,17.9a22.11,22.11,0,0,0,2.1-6.6c.2-1.3-1.7-1.8-1.9-.5a25.445,25.445,0,0,1-1.9,6.1C83,18,84.7,19,85.3,17.9Z" transform="translate(376 2430.98)" fill="url(#linear-gradient)"/>
  </g>
</svg>
