<svg xmlns="http://www.w3.org/2000/svg" width="64" height="64" viewBox="0 0 64 64"><g><g><g><path fill="#fff" d="M58.073 44.946c-.138 3.126-.663 4.814-1.1 5.94a10.618 10.618 0 0 1-6.078 6.075c-1.126.438-2.826.963-5.94 1.1-3.376.15-4.389.188-12.93.188-8.54 0-9.566-.037-12.93-.188-3.126-.137-4.814-.662-5.94-1.1a9.85 9.85 0 0 1-3.676-2.388 9.95 9.95 0 0 1-2.389-3.675c-.437-1.125-.962-2.826-1.1-5.939-.15-3.376-.187-4.388-.187-12.928 0-8.539.037-9.564.187-12.927.138-3.126.663-4.813 1.1-5.939A9.727 9.727 0 0 1 9.492 9.49a9.937 9.937 0 0 1 3.676-2.387c1.125-.438 2.826-.963 5.94-1.1 3.376-.15 4.39-.188 12.93-.188 8.553 0 9.566.037 12.93.187 3.126.138 4.814.663 5.94 1.1a9.843 9.843 0 0 1 3.676 2.388 9.948 9.948 0 0 1 2.388 3.676c.438 1.126.963 2.826 1.101 5.939.15 3.376.188 4.388.188 12.927 0 8.54-.038 9.54-.188 12.915zm5.764-26.13c-.15-3.4-.7-5.738-1.487-7.764a15.618 15.618 0 0 0-3.702-5.676 15.754 15.754 0 0 0-5.665-3.688C50.945.9 48.62.35 45.218.2 41.79.038 40.703 0 32.013 0c-8.691 0-9.78.038-13.193.188-3.401.15-5.74.7-7.765 1.487a15.619 15.619 0 0 0-5.678 3.701 15.757 15.757 0 0 0-3.689 5.664C.9 13.078.35 15.403.2 18.804.038 22.23 0 23.317 0 32.006c0 8.69.038 9.777.188 13.19.15 3.401.7 5.739 1.488 7.765a15.782 15.782 0 0 0 3.701 5.676 15.754 15.754 0 0 0 5.665 3.688c2.038.788 4.364 1.338 7.766 1.487C22.22 63.962 23.309 64 32 64c8.691 0 9.779-.037 13.193-.188 3.401-.15 5.74-.7 7.765-1.487a16.372 16.372 0 0 0 9.367-9.364c.787-2.038 1.338-4.364 1.487-7.764.15-3.414.188-4.501.188-13.19 0-8.69-.013-9.777-.163-13.19z"/></g><g><path fill="#fff" d="M32.012 42.819c-5.972 0-10.816-4.842-10.816-10.813 0-5.97 4.844-10.812 10.816-10.812 5.973 0 10.817 4.842 10.817 10.812S37.985 42.82 32.012 42.82zm0-27.481c-9.205 0-16.674 7.465-16.674 16.668s7.469 16.669 16.674 16.669c9.207 0 16.675-7.466 16.675-16.669s-7.468-16.668-16.675-16.668z"/></g><g><path fill="#fff" d="M52.924 14.882a3.782 3.782 0 1 1-7.565-.001 3.782 3.782 0 0 1 7.565 0z"/></g></g></g></svg>