<svg xmlns="http://www.w3.org/2000/svg" width="68" height="65" viewBox="0 0 68 65"><g><g><g><path fill="#fff" d="M8.145 0C3.22 0 0 3.234 0 7.484c0 4.157 3.124 7.483 7.956 7.483h.093c5.022 0 8.146-3.326 8.146-7.483C16.102 3.234 13.071 0 8.145 0z"/></g><g><path fill="#fff" d="M.851 20.881h14.398v43.316H.85z"/></g><g><path fill="#fff" d="M50.588 19.865c-7.767 0-12.975 7.298-12.975 7.298v-6.282H23.215v43.316h14.397v-24.19c0-1.294.094-2.587.474-3.513 1.04-2.586 3.41-5.265 7.387-5.265 5.21 0 7.293 3.972 7.293 9.795v23.173h14.397V39.361c0-13.305-7.103-19.496-16.575-19.496z"/></g></g></g></svg>