<svg xmlns="http://www.w3.org/2000/svg" width="567" height="636" viewBox="0 0 567 636"><defs><linearGradient id="ydsqa" x1="208.5" x2="208.5" y1=".11" y2="240.22" gradientUnits="userSpaceOnUse"><stop offset="0" stop-color="#782ea0"/><stop offset="1" stop-color="#279ced"/></linearGradient><linearGradient id="ydsqb" x1="214.1" x2="214.1" y1="18.81" y2="197.66" gradientUnits="userSpaceOnUse"><stop offset="0" stop-color="#782ea0"/><stop offset="1" stop-color="#279ced"/></linearGradient><linearGradient id="ydsqc" x1="495.5" x2="495.5" y1="526.68" y2="635.34" gradientUnits="userSpaceOnUse"><stop offset="0" stop-color="#782ea0"/><stop offset="1" stop-color="#279ced"/></linearGradient><linearGradient id="ydsqd" x1="295.22" x2="333.08" y1="444.86" y2="548.89" gradientUnits="userSpaceOnUse"><stop offset="0" stop-color="#782ea0"/><stop offset="1" stop-color="#279ced"/></linearGradient><linearGradient id="ydsqe" x1="463.15" x2="463.15" y1="478" y2="515.21" gradientUnits="userSpaceOnUse"><stop offset="0" stop-color="#782ea0"/><stop offset="1" stop-color="#279ced"/></linearGradient><linearGradient id="ydsqf" x1="118.97" x2="134.59" y1="360.3" y2="374.86" gradientUnits="userSpaceOnUse"><stop offset="0" stop-color="#782ea0"/><stop offset="1" stop-color="#279ced"/></linearGradient><linearGradient id="ydsqg" x1="275.02" x2="275.02" y1="390" y2="422.1" gradientUnits="userSpaceOnUse"><stop offset="0" stop-color="#782ea0"/><stop offset="1" stop-color="#279ced"/></linearGradient><linearGradient id="ydsqh" x1="174.53" x2="174.53" y1="403" y2="459.89" gradientUnits="userSpaceOnUse"><stop offset="0" stop-color="#782ea0"/><stop offset="1" stop-color="#279ced"/></linearGradient><linearGradient id="ydsqi" x1="205.33" x2="192.67" y1="300.09" y2="350.87" gradientUnits="userSpaceOnUse"><stop offset="0" stop-color="#782ea0"/><stop offset="1" stop-color="#279ced"/></linearGradient><linearGradient id="ydsqj" x1="57.93" x2="57.93" y1="240.04" y2="321.12" gradientUnits="userSpaceOnUse"><stop offset="0" stop-color="#782ea0"/><stop offset="1" stop-color="#279ced"/></linearGradient><linearGradient id="ydsqk" x1="398.24" x2="398.24" y1="293" y2="396.39" gradientUnits="userSpaceOnUse"><stop offset="0" stop-color="#782ea0"/><stop offset="1" stop-color="#279ced"/></linearGradient></defs><g><g><g opacity=".2"><path fill="url(#ydsqa)" d="M72.588 133.431c1.865 1.243 3.926 2.259 6.3 3.106 2.626.876 3.017 1.234 2.59 4.23 0 .205-.056.358-.12.536l-.054.153c-3.186-2.011-6.119-4.711-8.717-8.024v-.001zm32.948 3.785c.344 0 .68.006 1.007.011l.089.002H106.702c.304.007.663.014 1.018.014.297 0 .548-.005.769-.015 7.043-.246 14.15-.576 21.022-.895h.006l1.153-.054c-.233 2.086-.347 4.43-.347 7.163-7.522.647-14.575.962-21.56.962-.814 0-1.632-.005-2.432-.013l-2.405-3.911-1.737-2.82c1.027-.392 2.266-.444 3.343-.444zM88.583 11.984l.167-.004h.013c.756-.019 1.537-.038 2.294-.064l1.415-.055.016-.001.248-.01h.015c12.556-.49 25.539-.995 38.263-1.574l3.316-.132h.016l.027-.001C173.648 8.579 214.26 6.963 254.6 5.27c7.795-.315 15.733-.732 23.412-1.135h.005l.07-.004c15.5-.812 31.528-1.652 47.195-1.71 13.795 0 24.051 10.009 24.941 24.338.328 5.486.508 10.983.682 16.3v.01l.01.264c.051 1.58.11 3.37.171 5.088.23 5.672.491 11.426.744 16.99l.008.164.001.02c.507 11.154 1.032 22.687 1.32 34.004.18 8.33-2.905 13.276-7.941 18.554-.087.087-.087.087-.087.173-2.81-1.03-5.627-1.553-8.37-1.553-12.254-.155-25.642-.23-40.931-.23-13.663 0-27.514.058-40.908.115H254.847c-13.389.056-27.234.115-40.895.115h-57.133c-.434 0-.867-.002-1.3-.004l-1.29-.003c-4.473 0-8.829.185-12.945 2.423-3.01 1.65-5.31 3.725-7.033 6.344-1.509 2.292-2.54 4.96-3.15 8.155-7.217.302-18.48.77-31.156 1.295-.642 0-1.127.381-1.208.95-3.358 12.4-12.65 21.24-24.854 23.647 3.104-3.148 5.611-6.716 7.453-10.605 1.857-3.918 3.036-8.161 3.507-12.61.09-.541-.456-1.127-.95-1.21-12.189-2.26-19.803-11.81-20.367-25.545-.179-4.063-.336-8.155-.474-11.765l-.003-.093c-.147-3.812-.299-7.754-.473-11.702-.216-5.108-.488-10.283-.751-15.288l-.001-.02v-.016l-.001-.008c-.577-10.98-1.173-22.333-1.232-33.516-.087-13.646 9.605-24.172 23.044-25.028 1.647-.114 3.308-.153 4.915-.19h.025zM100.204 139.3l.013.02.002.004c1.267 2.027 2.577 4.122 3.783 6.276v.346c-2.803 6.149-6.02 12.426-11.738 15.706-2.736 1.583-5.77 2.385-9.017 2.385-2.907 0-5.906-.676-8.675-1.953 10.001-2.072 18.154-7.865 22.957-16.311.435-.79.791-1.817 1.169-2.905.44-1.268.895-2.579 1.506-3.568zm244.41 81.21c-.533-1.294-.972-2.803-1.381-4.746 4.512-1.289 8.17-3.786 10.874-7.421-1.844 6.251-4.95 10.231-9.493 12.168zm-204.02-7.334zm0 0c2.66 1.438 5.778 2.435 9.531 3.049 3.045.497 6.541.739 10.69.739 3.218 0 6.402-.139 9.481-.273l.034-.001c2.778-.121 5.4-.236 7.805-.236 28.394.087 57.22.087 85.095.087 13.493 0 27.445 0 41.166.086h16.313c.57 0 1.23-.051 1.93-.106l.018-.001.026-.002c.771-.06 1.569-.121 2.328-.121.827 0 1.48.075 1.997.23.118.03.217.06.297.084l.028.009.006.002.01.003c.142.043.245.075.349.075-1.044 1.528-1.778 3.223-2.243 5.179-.034 0-.068-.014-.108-.03l-.006-.003c-.054-.023-.128-.054-.23-.054-16.81.346-33.854.674-50.336.99l-.065.002h-.046l-2.008.04h-.069c-15.836.306-32.21.622-48.28.953l-.105.002c-8.524.187-17.34.381-26.026.381-7.73 0-14.596-.154-20.99-.47-11.038-.551-27.718-1.385-36.592-10.614zm19.764.604c-1.051 0-2.142.027-3.196.054h-.006c-.988.025-2.217.055-3.39.055-2.176 0-5.012-.09-7.65-.8-5.079-1.407-8.579-4.202-10.7-8.545-.17-.507-.345-1.032-.432-1.64-.092-.369-.271-.608-.518-.69-1.639-4.919-1.639-10.666-1.639-16.224v-33.14c0-1.567-.06-3.207-.124-4.944l-.001-.017v-.016l-.002-.023c-.244-6.616-.522-14.116 2.63-19.597 4.571-7.955 13.055-8.975 19.935-8.975h171.313c1.16 0 2.333-.009 3.466-.017h.009l.213-.002h.009l.01-.001.201-.002h.023a457.58 457.58 0 0 1 3.426-.017c1.376 0 2.583.013 3.69.039 13.552.458 18.38 11.58 18.38 21.835 0 6.04.098 12.16.192 18.077v.032l.001.033v.01c.188 11.892.383 24.19-.192 36.218-.443 9.301-5.927 16.109-14.671 18.21-.712.178-.947.796-.864 1.294v.26c.514 3.255 1.505 6.333 2.946 9.148a29.374 29.374 0 0 0 5.598 7.594c-8.603-1.72-15.131-7.36-18.382-15.88 0-.125-.047-.206-.106-.309l-.018-.033a3.068 3.068 0 0 1-.049-.09 5.359 5.359 0 0 0-.125-.333l-.003-.011-.003-.007a4.62 4.62 0 0 1-.127-.339c-.178-.532-.709-.948-1.208-.948-47.328 0-95.19-.088-141.476-.172l-.32-.001c-8.783 0-17.865 0-26.84-.086zm168.894 5.523l.144.275.13.25c.942 1.812 1.83 3.523 3.092 5.257a24.938 24.938 0 0 0 8.371 6.893c3.137 1.601 6.65 2.592 10.442 2.945-.56.962-1.316 1.92-2.244 2.849-8.676-2.343-16.047-7.417-21.315-14.672.396-1.49.848-2.733 1.38-3.797zm19.442 20.921c.212 0 .398-.062.58-.122.19.076.366.113.536.113.27 0 .519-.093.76-.286 1.626-1.301 2.874-3.043 3.71-5.178.079-.237.097-.588-.086-.863.075-.302.029-.754-.346-1.036-3.587-2.734-6.374-6.103-8.285-10.011 4.143-1.837 7.2-5.027 9.343-9.752 1.942-4.282 2.867-9.296 3.516-13.636.081-.483-.056-.84-.43-1.122.347-2.003.517-4.007.517-6.127v-33.918c.024-2.233.132-4.55.236-6.79v-.016c.276-5.967.56-12.138-.495-17.79-.586-3.181-1.85-6.056-3.754-8.543-1.81-2.364-4.118-4.28-6.862-5.696 5.128-5.458 8.288-10.537 8.199-18.987 0-1.222-.081-2.496-.153-3.62v-.008c-.038-.58-.076-1.202-.105-1.81-.211-4.792-.407-9.768-.58-14.158l-.026-.667-.003-.071-.002-.065c-.189-4.79-.383-9.742-.597-14.64l-.254-6.198-.305-7.438-.24-5.86-.495-12.09c-.024-.66-.046-1.348-.064-1.956l-.001-.035-.004-.109v-.009c-.095-3.158-.193-6.424-.696-9.572-.562-3.515-1.583-6.498-3.12-9.119-2.963-5.126-6.945-8.603-12.175-10.627-4.114-1.592-8.916-2.302-15.57-2.302-2.206 0-4.436.075-6.517.156-7.834.295-15.62.607-24.258.955l-.983.04c-7.536.302-15.33.615-23.002.904L132.05 7.601c-7.365.31-14.783.601-21.328.858h-.02l-.383.016-.039.001c-6.917.272-14.07.553-21.123.851-.552.018-1.115.033-1.6.045-2.098.054-4.267.11-6.338.386a25.808 25.808 0 0 0-9.441 3.024 25.956 25.956 0 0 0-7.378 6.082c-4.21 5.015-6.482 11.467-6.398 18.166.116 11.473.703 23.122 1.27 34.387v.016l.001.012.003.06.004.087.002.028c.278 5.526.565 11.24.791 16.847.074 2.051.103 4.14.134 6.35v.035l.002.134V95.029c.113 8.158.23 16.593 2.453 24.075v.605c1.516 4.987 3.859 9.788 6.776 13.883 3.206 4.501 6.966 8.019 11.175 10.454-.517 1.404-1.128 2.841-1.984 4.66-2.19 4.298-5.441 8.248-9.666 11.738-.442.353-.448.915-.305 1.323.163.46.587.924 1.17.924.027 0 .056-.002.084-.004.17 0 .345 0 .432-.086 3.804 2.59 8.192 3.958 12.688 3.958 2.98 0 5.853-.606 8.542-1.8 3.417-1.532 6.364-4.002 9.008-7.552 2.46-3.301 4.331-7.11 5.837-10.4.964.012 1.937.017 2.893.017 7.388 0 14.458-.325 21.011-.966v34.262c0 1.625-.06 3.309-.125 5.092v.013l-.003.087-.001.027c-.126 3.418-.256 6.952.028 10.39.323 3.893 1.147 7.031 2.518 9.591.256.513.515.945.766 1.364l.01.018c1.97 5.105 5.593 9.308 10.767 12.492 4.393 2.702 9.952 4.65 16.075 5.631 11.474 1.825 23.086 2.058 31.92 2.058 4.889 0 9.828-.083 14.604-.165l.139-.002.976-.016.08-.002c1.227-.02 2.477-.041 3.716-.06 28.119-.45 56.67-1.053 84.284-1.636l.466-.01 1.981-.041c8.67-.184 17.636-.373 26.587-.557.086 0 .177-.023.257-.043l.015-.004c.079-.02.16-.039.244-.04 2.785 3.9 6.15 7.235 10 9.914 3.833 2.667 8.134 4.675 12.785 5.966.094.024.187.036.282.036z"/></g><g><path fill="url(#ydsqb)" d="M226.862 31.507c-.043.086-.065.152-.086.215-.021.064-.043.13-.087.216-.085.085-.173.173-.173.26l.69-.691zm2.653 13.67c-1.987 0-3.71-.46-4.984-1.33-2.125-1.43-3.058-3.56-2.772-6.332.29-2.803 1.753-5.454 2.6-6.785.233-.39.631-.604 1.122-.604 0-.305.116-.538.345-.69 1.846-1.51 4.083-2.342 6.3-2.342 2.399 0 4.636.985 6.3 2.773 1.493 1.576 2.31 3.68 2.298 5.923a9.018 9.018 0 0 1-2.298 5.987c-1.869 2.033-5.45 3.4-8.91 3.4zm83.045-23.682c-.172 0-.258 0-.258.087.026.026.052.06.08.097.065.084.144.188.265.248v-.432zm-5.005 77.846c.044.173.065.349.087.52.02.17.043.344.085.516l.005-.001c.43 0 .866-.087 1.287-.172a8.747 8.747 0 0 0-.344-.165c-.404-.187-.785-.364-1.12-.698zm-.838 3.813c-.571 0-1.256-.275-1.406-.88a1029.831 1029.831 0 0 1-8.285-79.484c0-.496.406-1.118.95-1.208l13.807-2.503c.13-.021.25-.032.357-.032.324 0 .567.092.766.291.264-.33.696-.528 1.153-.528.36 0 .69.13.901.355.202.215.298.514.276.863-.624 14.267-.48 28.176.43 41.34.26 3.708.612 7.575.95 11.218.042.408.076.78.108 1.141.14 1.557.242 2.681.732 3.385.501.719 1.393 1.012 3.079 1.012.204 0 .424-.004.656-.013 4.588-.18 9.32-.902 13.897-1.601 2.042-.312 4.153-.635 6.21-.902.04-.005.08-.007.118-.007.728 0 1.103.778 1.178 1.301.433 3.161.849 6.357 1.251 9.448.403 3.098.82 6.3 1.252 9.452.037.186-.035.43-.199.666-.2.291-.488.499-.75.543-6.21 1.034-12.5 2.064-18.584 3.06l-.015.003c-6.087.997-12.38 2.028-18.599 3.064-.074.01-.152.016-.233.016zm-52.756-53.697c-.89.89-1.624 1.737-2.245 2.59l.018-.002c.166 0 .314-.021.458-.042.149-.02.302-.043.474-.043.374-.933.81-1.776 1.295-2.503zm31.242 3.626c.085.344.085.696.085 1.035.617.44 1.138.879 1.64 1.381a41.194 41.194 0 0 0-1.725-2.416zm-8.631 18.123c-.083.247-.166.425-.345.604.087.087.262.174.43.259-.085-.344-.085-.694-.085-1.003zm-1.122 16.052c-.086.432-.086.781-.086 1.036.087-.087.153-.175.217-.26a2.32 2.32 0 0 1 .214-.258 1.814 1.814 0 0 1-.345-.518zm-5.155-3.96c-1.432 0-3.452.312-4.943 1.803-.878.878-1.403 2.192-1.37 3.43.026 1.02.411 1.893 1.112 2.524.685.66 1.566 1.008 2.546 1.008 1.817 0 3.796-1.186 4.704-2.82.945-1.814.648-4.063-.777-5.868-.431-.051-.86-.078-1.272-.078zm-15.557-6.223zm-3.453 17.088c.061.424.207.806.348 1.174.06.16.119.31.17.465-.865-2.94-1.038-6.278-.518-9.924.424-3.226 1.618-6.27 3.453-8.803-3.65 4.583-5.038 11.45-3.453 17.088zm29.775 5.005c-.457.406-.961.773-1.495 1.163-.363.264-.738.538-1.094.822.477-.183.959-.353 1.425-.517.648-.228 1.259-.443 1.854-.691l-.017-.016c-.235-.236-.5-.503-.673-.761zm7.455 9.684c-.32 0-.63-.125-.896-.363-.254-.253-.532-.52-.827-.803-1.533-1.47-3.442-3.3-4.092-5.325-5.027 2.056-10.888 4.25-16.818 4.25-2.565 0-4.912-.402-7.174-1.23-5.997-2.147-9.866-6.771-10.616-12.686-.475-3.456-.08-7.287 1.111-10.788 1.272-3.733 3.334-6.837 5.966-8.975 3.346-2.708 7.575-4.025 12.928-4.025 1.873 0 3.883.16 6.145.486.334-3.789-.576-7.183-2.5-9.311-1.529-1.691-3.62-2.566-6.217-2.598-3.087.655-5.006 2.838-5.006 5.696 0 .692-.63 1.299-1.348 1.299-.226 0-.44-.06-.636-.177-2.067-1.272-4.208-2.536-6.278-3.758a647.87 647.87 0 0 1-3.992-2.37c-.054.006-.11.009-.164.009-.504 0-.97-.22-1.19-.559-.17-.265-.18-.582-.028-.917 1.406-4.657 4.19-8.529 8.051-11.197 3.642-2.516 8.019-3.846 12.658-3.846 4.597 0 9.105 1.322 13.036 3.823 6.596 4.205 11.224 11.101 13.032 19.419.786 3.852.984 8.03.604 12.773-.08.94-.201 1.907-.33 2.931-.693 5.491-1.477 11.713 4.732 14.415.311.139.522.428.594.815.086.465-.049.97-.336 1.257-1.026.978-1.843 2.11-2.634 3.207-.604.837-1.228 1.703-1.94 2.49-.462.554-1.07 1.112-1.714 1.704-1.16 1.065-2.36 2.166-2.86 3.386-.214.588-.709.968-1.261.968zm-61.818-49.255zm-.001 0c.08.416.08.842.08 1.253v-1.122c0-.043-.023-.065-.044-.086a.156.156 0 0 1-.035-.045zm-7.775 4.705c-.085.086-.085.174-.085.26-.061.366-.21.69-.352 1.001-.06.13-.116.253-.167.379.44-.44.604-.884.604-1.64zm3.971 25.114c.043.086.087.153.13.217.042.063.086.129.128.215a.67.67 0 0 1 .044-.173c.021-.064.043-.13.043-.173l-.345-.086zm-35.126 3.97zm0 0a23.93 23.93 0 0 0 2.417 4.919c.043-.13.065-.261.086-.389.021-.127.043-.259.086-.388-1.173-1.492-1.996-2.809-2.589-4.142zm40.477-9.234h-.001c.172 2.58.325 5.218.473 7.769.149 2.58.303 5.247.477 7.85.482-3.65.038-7.938-.392-12.086-.11-1.05-.212-2.04-.299-3.016a281.93 281.93 0 0 0-.258-.517zm-17.779 19.935c.43-.172.781-.347 1.209-.604m16.85 8.146c-.714 0-1.242-.499-1.316-1.242-.446-7.133-.885-14.253-1.294-20.885a33.75 33.75 0 0 1-3.43 7.11c-1.452 2.275-3.133 4.277-4.997 5.95-1.97 1.77-4.116 3.145-6.38 4.089a19.588 19.588 0 0 1-7.574 1.52c-1.125 0-2.277-.097-3.424-.287-10.538-1.8-16.55-11.789-17.865-29.688-.22-3.026-.055-6.22.476-9.237.571-3.247 1.54-6.251 2.879-8.93 3.07-6.14 7.88-10.095 13.906-11.434a18.448 18.448 0 0 1 4.036-.455c4.82 0 9.346 1.987 12.741 5.597 3.354 3.564 5.241 8.297 5.316 13.326 0 .5-.417 1.031-.95 1.209l-12.944 4.4c-.23.198-.551.311-.881.311-.465 0-1.022-.24-1.19-.914-.498-2.074-1.18-4.913-3.625-5.437-4.752.655-5.284 8.176-5.179 12.6.099 4.52 1.202 8.295 3.28 11.22 1.56 1.437 3.053 2.167 4.434 2.167 3.95 0 6.15-6.049 6.872-8.036.149-.522.671-.901 1.242-.901.104 0 .209.013.311.038 2.028.604 4.111 1.196 6.127 1.769l.01.003c2.012.572 4.093 1.163 6.118 1.766.259.087.434.262.604.432l-2.33-37.8c0-.704.348-1.111 1.035-1.21.043 0 .087-.021.13-.042a.31.31 0 0 1 .13-.043c2.517-.217 5.013-.434 7.509-.651 2.466-.215 4.933-.43 7.42-.644a.954.954 0 0 1 .118-.007c.616 0 1.177.62 1.177 1.302l3.194 59.203c0 .496-.406 1.118-.95 1.209-2.428.433-4.857.871-7.206 1.294-2.353.424-4.786.863-7.206 1.295-.11.022-.219.033-.324.033zm-61.814-19.968h-.001c-.086.69-.261 1.303-.431 1.897.32-.239.594-.428.95-.517-.192-.32-.287-.632-.397-.994-.037-.124-.076-.252-.121-.386zm-9.43-25.92c-.6 0-1.23.154-1.876.46-5.017 3.741-5.437 9.896-5.437 15.88.032 2.232.588 6.004 2.053 9.29 1.121 2.515 3.137 5.513 6.377 5.514 1.325 0 2.757-.51 4.256-1.514 1.32-1.664 2.065-6.058 1.946-11.468-.124-5.618-1.153-10.948-2.752-14.256-1.253-2.592-2.79-3.906-4.567-3.906zm-14.648 38.52h-.001a18.48 18.48 0 0 0 3.97 3.796c-.043-.13-.087-.283-.13-.431-.043-.152-.086-.303-.13-.432-1.208-.68-2.387-1.612-3.71-2.933zm13.224 9.164c-3.536 0-6.76-.855-9.58-2.541-2.565-1.533-4.812-3.758-6.68-6.615-3.244-4.96-5.323-11.859-5.854-19.427-.262-3.809-.334-9.587.812-15.49 1.146-5.905 3.237-10.515 6.215-13.705 3.198-3.426 7.407-5.163 12.511-5.163.22 0 .434.003.657.01 1.178-.207 2.34-.311 3.457-.311 3.178 0 6.117.84 8.736 2.495 2.355 1.488 4.461 3.639 6.262 6.392 4.153 6.351 5.522 13.953 5.968 17.918.353 3.213.796 8.038.562 12.838-.244 4.986-1.187 9.175-2.805 12.449a17.1 17.1 0 0 1-2.967 4.223 20.104 20.104 0 0 1-4.002 3.22c-2.834 1.75-6.184 2.937-9.688 3.431-1.23.183-2.443.276-3.604.276zM85.498 50.926h-.001c.246 1.062.653 2.165 1.209 3.278a14.777 14.777 0 0 1-.69-2.33v-.258c-.205-.205-.304-.359-.418-.537l-.1-.153zm18.469 8.716v.001l.776.775c.086.13.173.238.258.344.086.107.174.217.26.347.375.26.766.523 1.144.778.754.51 1.533 1.035 2.221 1.552.51.085 1.036.173 1.555.345-2.098-1.174-4.302-2.49-6.214-4.142zm-10.27 3.884l.33.307c1.213 1.133 2.469 2.304 3.812 3.49v-.26l-.517-.517-.393-.314c-1.143-.913-2.224-1.775-3.232-2.706zm9.062 8.112v.001c.344.257.69.603.949.948v-.259c-.256-.17-.602-.43-.936-.68zm-5.61 24.08zm-.001 0c.086.765.338 1.45.691 2.242.03.03.07.06.108.09l.068.051c-.215-.322-.371-.713-.522-1.09-.171-.432-.26-.87-.344-1.294zm-8.284 14.67zm0 0c1.05.955 2.184 1.79 3.279 2.416.18.18.358.263.604.345a.452.452 0 0 1-.087-.13c-.02-.042-.042-.086-.085-.129-1.238-.618-2.452-1.437-3.711-2.502zm10.789 5.264v.001c1.077.18 2.177.27 3.267.27 2.401 0 4.844-.44 7.26-1.307a30.25 30.25 0 0 1-8.213 1.12c-.764 0-1.543-.029-2.314-.084zm3.228 2.593c-2.933 0-5.768-.497-8.426-1.479a22.648 22.648 0 0 1-7.49-4.566c-2.341-2.134-4.114-4.648-5.268-7.472-1.07-2.616-1.61-5.492-1.604-8.548.01-5.586 1.869-11.666 5.232-17.12.219-.365.734-.65 1.174-.65.104 0 .203.015.293.045 2.244.851 4.517 1.731 6.715 2.582l.012.005a841.227 841.227 0 0 0 8.117 3.11c.458.228.764.627.863 1.122.304.404.304.84 0 1.294-1.592 2.247-3.02 4.479-3.02 7.077 0 3.115 1.858 5.29 4.518 5.29.352 0 .72-.037 1.091-.112 2.092-.82 3.547-2.307 4.325-4.417 1.442-3.916.254-9.099-1.563-12.498-1.888-3.691-4.932-6.744-7.94-9.493-1.119-1.014-2.281-2.017-3.406-2.986-3.47-2.995-7.06-6.092-9.798-9.874-3.105-4.321-4.646-9.413-4.455-14.725.187-5.231 2.026-10.256 5.318-14.532 2.11-2.726 4.863-5 7.96-6.574 3.128-1.59 6.54-2.43 9.867-2.43 3.229 0 6.29.764 9.1 2.273a21.476 21.476 0 0 1 6.356 5.17c1.624 1.935 3.006 4.246 4.108 6.87 1.838 4.377 2.932 9.585 3.344 15.922.036.323-.047.606-.239.82-.22.247-.573.388-.97.388a.779.779 0 0 1-.604.26c-2.56.26-5.142.52-7.725.78-2.553.258-5.105.515-7.637.773a1.192 1.192 0 0 1-.195.016c-.499 0-.74-.334-.84-.534-.422 0-.812-.18-1.041-.48-.155-.203-.31-.554-.167-1.073 1.272-4.973 1.24-8.338-.096-10.287-.7-1.023-1.772-1.627-3.184-1.796-3.187.551-5.07 2-5.597 4.307-.484 2.121.237 4.983 2.032 8.057 1.482 2.538 3.593 5.002 5.378 6.277 2.127 1.568 4.515 2.831 6.825 4.053 1.252.662 2.547 1.347 3.79 2.075 5.954 3.514 9.601 7.628 11.478 12.946 1.054 2.868 1.617 5.946 1.67 9.148a31.632 31.632 0 0 1-1.25 9.277c-1.774 6.17-5.325 11.703-10 15.578a27.144 27.144 0 0 1-8.082 4.56 26.605 26.605 0 0 1-8.97 1.571zm191.983 9.655c-1.172 0-2.334.42-3.361 1.215-.256.171-.43.258-.69.345-1.105 1.657-2.527 4.086-2.116 6.045.178.845.686 1.541 1.51 2.068.735.489 1.762.747 2.972.748 1.846 0 3.842-.613 4.968-1.525 1.794-1.452 2.43-3.393 1.747-5.326-.733-2.068-2.848-3.57-5.03-3.57zm-1.766 12.997c-1.962 0-3.694-.506-4.875-1.425-1.714-1.325-2.415-3.198-2.082-5.567.349-2.482 1.724-4.715 2.513-5.825.276-.46.745-.518 1.123-.518.085-.256.173-.519.43-.69 1.46-1.115 3.036-1.68 4.684-1.68 1.565 0 3.104.519 4.449 1.503a8.48 8.48 0 0 1 2.863 3.694c.523 1.333.652 2.738.374 4.064-.312 1.481-1.105 2.821-2.358 3.983-1.595 1.495-4.39 2.461-7.121 2.461zm-71.019 12.372c-1.106 0-2.198.54-3.158 1.565-1.026 1.14-1.828 2.232-2.384 3.247-.785 1.433-1.086 2.722-.894 3.83 1.338-.044 2.676-.066 3.97-.087 1.293-.021 2.631-.043 3.97-.086.158 0 .367.016.589.033.258.02.548.044.804.044.269 0 .462-.026.59-.077.174-.077.293-.12.372-.15.178-.064.178-.064.205-.226.016-.096.04-.241.114-.487.28-1.214-.255-3.353-.43-4.057-.562-2.19-1.997-3.55-3.746-3.55zm-7.353 11.6c-.45 0-.799-.254-.982-.715-1.12-2.304-.622-5.643 1.3-8.714 1.92-3.067 4.696-4.973 7.245-4.973 1.454 0 2.789.598 3.968 1.778 1.312 1.312 2.125 3.112 2.417 5.35l.04.233c.273 1.62.686 4.067-.299 5.463-.69 1.003-1.873 1.142-3.048 1.142-.223 0-.446-.005-.661-.01-.211-.005-.41-.01-.606-.01-1.418.043-2.857.065-4.25.086a283.04 283.04 0 0 0-4.294.086 1.455 1.455 0 0 1-.83.284zm45.334 4.3c-.38 0-.717.182-1.002.542-1.019 1.286-1.105 4.484-.869 5.49.396 1.583 1.93 3.292 3.716 3.292.472 0 .935-.12 1.376-.358 1.007-.56 1.57-1.305 1.67-2.217.268-2.395-2.648-5.283-3.913-6.413-.352-.223-.68-.336-.978-.336zm1.912 11.87c-.626 0-1.26-.106-1.884-.315-1.73-.563-3.066-1.801-3.862-3.581-.716-1.602-.938-3.517-.625-5.395.398-2.551 2.235-5.19 4.619-5.19.27 0 .545.033.818.1.085-.022.173-.033.259-.033.257 0 .519.098.777.29 1.827 1.452 3.081 2.755 3.948 4.1 1.143 1.776 1.545 3.54 1.23 5.395-.239 1.36-.877 2.522-1.847 3.362a5.237 5.237 0 0 1-3.431 1.266zm61.337-5.528c-1.75 0-3.207.626-4.103 1.762-.644.792-.938 1.887-.768 2.859a2.677 2.677 0 0 0 1.285 1.887c.501.31 1.069.467 1.688.467 1.412 0 2.919-.866 3.664-2.107.91-1.49.737-3.398-.432-4.746a7.506 7.506 0 0 0-1.334-.122zm-1.855 9.437a5.81 5.81 0 0 1-2.939-.771 5.242 5.242 0 0 1-2.47-3.285c-.403-1.584-.132-3.312.744-4.742.69-1.09 1.669-1.924 2.908-2.48 1.103-.495 2.41-.757 3.782-.757.327 0 .66.015.99.044.236-.141.494-.216.745-.216.297 0 .569.102.81.303 1.235 1.193 2.025 2.76 2.222 4.412a6.52 6.52 0 0 1-1.273 4.735c-1.29 1.7-3.405 2.757-5.52 2.757zM219.78 141.279c-4.229 0-7.856 2.137-10.49 6.18-2.237 3.434-3.634 8.135-3.833 12.898-.327 7.702-.822 19.342 3.54 26.667 2.333 3.974 6.753 6.347 11.824 6.347 1.308 0 2.613-.16 3.882-.478 4.04-1.01 10.43-4.257 11.478-9.062-.539-1.917-2.441-3.106-4.281-4.256-.812-.507-1.651-1.031-2.364-1.612-2.672 4.342-5.693 6.544-8.978 6.544-1.115 0-2.275-.257-3.45-.762-2.541-1.486-4.143-3.71-4.897-6.796-.684-2.8-.57-5.989-.367-8.738.089-.892.816-1.21 1.468-1.21.085-.086.172-.086.344-.086 3.54.087 7.163.173 10.789.26.581.02 1.35.104 2.238.202 1.394.153 2.972.326 4.463.326 1.98 0 3.317-.314 4.086-.96 1.004-4.32.5-9.744-1.348-14.51-2.053-5.294-5.405-8.907-9.44-10.172-1.615-.519-3.184-.782-4.664-.782zm.906 54.54c-3.138-.001-5.957-.625-8.152-1.804-5.067-2.722-8.282-8.468-9.558-17.077-1.094-7.384-.521-15.298.151-20.637.592-4.696 2.517-9.057 5.42-12.279 3.132-3.474 7.077-5.31 11.41-5.31 1.686 0 3.429.284 5.178.846 4.843 1.588 8.816 5.737 11.187 11.683 2.142 5.37 2.67 11.553 1.413 16.538-.082.246-.165.424-.346.604-1.369 1.534-3.12 1.74-4.654 1.74-.684 0-1.399-.049-2.09-.096a41.136 41.136 0 0 0-1.627-.09c-2.456-.043-4.932-.11-7.326-.173h-.02c-2.394-.064-4.87-.13-7.325-.173-.365 4.747-.127 9.486 4.056 11.996.749.327 1.49.493 2.206.493 3.359 0 5.656-3.506 7.546-6.793a1.242 1.242 0 0 1 1.088-.615c.46 0 .903.236 1.156.615 1.022 1.41 2.467 2.262 3.865 3.086 2.055 1.212 3.996 2.356 4.507 5.113.059.177.037.315.018.437-.01.058-.018.112-.018.167v.087c-.734 4.436-3.96 7.156-6.538 8.658-3.256 1.896-7.465 2.984-11.547 2.984zm-37.668-39.345h.605c4.328 1.119 4.913 6.109 5.384 10.119.074.633.144 1.23.226 1.79 1.19 7.614 1.952 15.772 2.33 24.941l.485-.04.037-.004c1.953-.163 4.384-.366 5.174-1.077 1.622-1.488 1.335-3.316 1.056-5.084-.076-.487-.156-.99-.193-1.475-.44-4.757-.881-9.43-1.295-13.81-.092-.92-.175-2.013-.262-3.171v-.006c-.65-8.595-1.738-22.98-10.669-22.98-1.267 0-2.67.293-4.172.871-2.114 1.253-4.034 2.817-6.04 4.92a1.237 1.237 0 0 1-.88.363 1.324 1.324 0 0 1-1.279-.967c-.786-3.27-2.652-4.928-5.548-4.928-3.507 0-7.859 2.51-10.418 4.842-.248.202-.548.31-.869.31a1.38 1.38 0 0 1-1.094-.522c-.231-.301-.3-.686-.194-1.084.362-1.223.312-2.155-.147-2.77-.456-.61-1.324-.92-2.58-.92-2.153 0-4.923.903-6.253 1.336l-.34.11c.698 9.172 1.396 18.418 2.07 27.359.079 1.3.086 2.705.094 4.193.018 3.474.037 7.065.942 9.96.731 2.266 1.11 2.306 2.703 2.472.293.03.625.065 1.008.118 1.548.14 2.845.212 3.855.212.998 0 1.675-.071 2.014-.212 2.63-1.079 1.847-4.84 1.156-8.16-.19-.919-.371-1.786-.466-2.542-.258-1.984-.521-4.022-.776-5.994-.242-1.874-.515-3.993-.777-6.002l-.087-.705-.003-.025c-.592-4.792-1.204-9.748 3.887-12.13.087 0 .174-.021.259-.042.085-.021.173-.043.258-.043.087-.086.087-.086.173-.086.247-.026.49-.04.725-.04 2.44 0 4.227 1.358 5.462 4.15 1.041 2.352 1.48 5.32 1.801 7.486l.006.036c.04.277.08.542.119.795.884 5.601 1.405 10.318 1.64 14.844.02.37.008.821-.004 1.298-.043 1.66-.095 3.722 1.04 4.657.318.255 1.077.378 2.32.378 1.208 0 2.634-.115 3.892-.217.34-.027.658-.053.95-.075-1.14-8.365-1.733-15.847-1.812-22.87v-.41c-.006-3.79-.013-8.087 4.402-9.17v.003zm7.266 39.56c-.76 0-1.31-.523-1.31-1.242-.163-5.456-.559-11.13-1.209-17.347a58.39 58.39 0 0 1-.165-2.133v-.005c-.32-4.772-.988-14.703-4.409-16.159-1.966.918-2.765 5.119-2.373 12.486.32 6.011 1.346 12.607 1.898 16.15l.001.007c.136.874.244 1.564.301 1.995.098.437.004.888-.25 1.205-.229.285-.56.435-.957.435H171.11c-.69 0-1.294-.605-1.294-1.295-.007-.33-.01-.783-.016-1.356-.032-3.613-.098-11.128-.996-17.886-1.114-8.386-3.125-12.656-5.979-12.69-1.815 1.064-2.712 3.332-2.74 6.93-.024 3.041.576 6.388 1.058 9.077.205 1.143.382 2.13.474 2.894l1.985 15.62c.034.27-.066.553-.28.797-.264.298-.671.498-1.015.498H148.24c-.837 0-1.22-.697-1.294-1.295a7834.796 7834.796 0 0 1-1.779-23.331v-.005c-.57-7.57-1.158-15.4-1.76-23.095a1.04 1.04 0 0 1 .253-.826c.222-.246.578-.392.952-.392.059 0 .118.003.175.01.087-.043.153-.087.216-.129.064-.043.13-.086.216-.13.904-.288 4.091-1.228 7.19-1.228 1.575 0 2.861.245 3.823.727 1.125.565 1.804 1.46 2.019 2.659 3.361-2.241 7.008-3.526 10.004-3.526 1.592 0 2.992.356 4.16 1.059 1.294.778 2.306 1.986 3.01 3.589 1.314-1.241 2.948-2.672 5.092-3.884.053-.053.107-.073.18-.102a1.68 1.68 0 0 0 .165-.07c1.757-.696 3.464-1.048 5.075-1.048 5.428 0 9.597 4.005 11.15 10.714 2.3 9.66 2.954 19.993 3.585 29.985v.008c.196 3.086.398 6.277.644 9.36.09.541-.456 1.126-.949 1.209-1.64.302-3.285.587-4.876.863h-.006c-1.589.276-3.232.561-4.87.863-.11.022-.222.033-.33.033zm100.506-2.582l.022.994c.769-.116 1.558-.254 2.32-.387 2.07-.361 4.208-.735 6.223-.735.602 0 1.036 0 1.294-.085 0-.26-.022-.523-.043-.777a9.43 9.43 0 0 1-.043-.778c-.415-5.102-.381-10.405-.348-15.534v-.01c.015-2.322.03-4.723.003-7.066-.03-2.566-.144-5.221-.255-7.79-.21-4.9-.429-9.965-.09-14.822v-1.208l-.1.001c-.287 0-.533.006-.85.085-1.887.4-3.982.455-5.783.455-.567 0-1.137-.006-1.687-.012h-.022c-.545-.005-1.108-.011-1.655-.011l1.014 47.68zm-1.207 3.793c-.774 0-1.274-.488-1.274-1.245-.173-8.586-.37-17.293-.561-25.714-.191-8.418-.389-17.121-.562-25.723 0-.568.226-.935.69-1.121 0-.086.086-.087.087-.087.086 0 .174-.022.259-.043.085-.021.173-.043.259-.043l5.575-.228.768-.03.072-.004 6.272-.256a.952.952 0 0 1 .117-.007c.616 0 1.177.62 1.177 1.302.174 16.982.436 33.898.69 50.258v.056c0 .415-.425 1.121-.95 1.209-2.038.26-4.133.546-6.159.824h-.005c-2 .274-4.07.557-6.09.816a1.855 1.855 0 0 1-.365.036zm-21.264-7.433c.368 0 .734.162.979.432.212.235.313.532.282.836-.081 1.757-.14 3.026.425 3.618.263.276.65.404 1.218.404.664 0 1.595-.18 2.931-.57 1.38-.398 2.26-1.256 2.686-2.622.38-1.22.376-2.733.372-4.195-.002-.775-.005-1.575.05-2.33.259-3.716.5-7.51.733-11.18l.003-.038c.232-3.656.473-7.438.731-11.135l1.553-23.56c.038-.512.142-1.2.262-1.998.434-2.886 1.029-6.84-.52-8.186-.715-.714-3.648-.805-6.123-.805-.71 0-1.423.008-2.051.016h-.005c-.54.006-1.048.013-1.488.013-1.286 9.093-1.638 18.428-1.978 27.454l-.006.162v.086c.344.431.405.963.166 1.459-.23.478-.687.8-1.14.8-.316 0-.606-.155-.839-.446 0-.086-.088-.174-.173-.26-.32-.106-.468-.457-.517-.603-2.402-2.666-5.11-4.019-8.048-4.019-3.263 0-6.63 1.715-9.484 4.828-3.719 4.06-5.849 9.805-5.425 14.639.921 10.35 9.303 17.862 19.93 17.862 1.7 0 3.416-.202 5.098-.601.119-.04.246-.06.378-.06zm-.496 7.835c-.616 0-1.177-.62-1.177-1.302l.017-.226.242-3.399a23.946 23.946 0 0 1-3.9.322c-6.65 0-12.95-2.797-17.29-7.674-4.169-4.686-6.053-10.78-5.304-17.157.5-4.348 2.726-8.769 6.108-12.13 1.66-1.649 3.492-2.952 5.446-3.873 2.045-.963 4.111-1.451 6.142-1.451 2.864 0 5.505.965 7.85 2.868.348-9.077.776-17.954 2.156-26.753.08-.478.312-.768.69-.863.087-.087.087-.087.174-.087h.43c2.146.172 4.328.324 6.438.472h.005c2.132.15 4.336.304 6.503.478.352.043.694.197.939.42.27.246.396.556.356.874-.931 12.795-1.764 25.757-2.57 38.292-.613 9.545-1.246 19.41-1.918 29.11-.086.774-.521 1.209-1.294 1.295l-4.877.382-.086.006a4290.177 4290.177 0 0 0-5.08.396zM334.728 189c.297 0 .583.148.805.418.28.342.41.825.329 1.23-.133.796.63 2.01 2.33 3.711.285-.342.605-.643.943-.962.171-.162.348-.33.524-.505.798-.76 1.537-1.579 2.252-2.371.94-1.042 1.826-2.024 2.84-2.893-2.319-1.718-3.625-4.158-3.883-7.25-.314-3.102.111-6.15.523-9.098.495-3.54 1.006-7.2.253-11.01-1.776-8.602-7.984-15.607-15.448-17.433a17.354 17.354 0 0 0-4.024-.477c-6.464 0-12.065 3.556-14.617 9.28 1.341.912 2.743 1.808 4.1 2.675.832.532 1.693 1.082 2.545 1.64.48-1.538 1.332-2.731 2.534-3.546 1.092-.74 2.444-1.13 3.91-1.13 3.182 0 6.411 1.8 8.228 4.589 0 .043.022.087.043.13.021.042.043.086.043.129 1.413 3.358 1.355 5.928.777 9.234-.076.604-.737.88-1.32.88-.08 0-.16-.006-.234-.017-2.587-.525-4.796-.78-6.753-.78-4.222 0-7.433 1.158-9.817 3.542-3.762 3.672-5.66 10.564-4.229 15.362 1.605 5.313 5.64 8.007 11.99 8.007 4.034 0 8.92-1.067 14.937-3.26.14-.063.28-.095.419-.095zm3.922 8.655c-.385 0-.75-.135-.975-.362l-.202-.201-.03-.03c-1.374-1.37-3.086-3.075-3.738-5.033-2.805.95-8.35 2.544-13.955 2.544-4.123 0-7.481-.857-9.98-2.547-2.954-1.998-4.686-5.162-5.15-9.404-.343-2.962.12-6.276 1.306-9.332 1.234-3.18 3.191-5.873 5.513-7.583 2.653-1.966 5.92-2.921 9.987-2.921 1.827 0 3.839.193 6.151.59.354-2.299.064-4.448-.863-6.386-1.314-1.949-3.914-3.363-6.182-3.363-2.38 0-3.87 1.54-4.088 4.226-.066.724-.677 1.335-1.335 1.335-.23 0-.448-.072-.65-.213-1.427-.908-2.879-1.854-4.283-2.769l-.011-.007c-1.393-.908-2.833-1.846-4.25-2.748a1.31 1.31 0 0 1-1.181-.525c-.207-.295-.247-.66-.114-1.028 1.326-3.78 3.735-6.928 6.965-9.102 3.08-2.072 6.733-3.168 10.565-3.168 3.603 0 7.18.99 10.346 2.863 2.835 1.693 5.274 3.958 7.25 6.732 1.92 2.696 3.313 5.744 4.142 9.061a33.151 33.151 0 0 1 .777 10.875c-.095 1.219-.338 2.533-.596 3.923-.452 2.449-.92 4.98-.625 7.263.336 2.595 1.639 4.441 3.983 5.643.295.147.525.46.63.856.11.418.067.86-.112 1.129-1.173 1.07-7.078 6.54-8.2 9.062-.172.388-.581.62-1.095.62z"/></g></g><g opacity=".2"><g opacity=".2"><path fill="url(#ydsqc)" d="M489.69 577.23c1.785-.206 1.853-3.02.138-2.402-.48.138-.892 0-1.167-.205-1.304.343-.823 2.882 1.03 2.607zm4.118-1.784c.206 2.402-1.853 4.46-4.186 4.598-2.47.137-4.598-1.784-4.598-4.255 0-2.608 2.402-4.186 4.804-3.843.068.069.068.069.137.069 1.922-.138 3.774 1.372 3.843 3.431zm27.039-17.088c-3.294-.549-5.696-2.745-4.461-6.313 1.99-5.353 8.647-5.147 13.176-6.588 0-.618-.068-1.167-.068-1.716-.07-4.255-.206-8.578-.275-12.833 0-.824.549-1.235 1.098-1.304.069 0 .137-.069.275-.069 4.735-.549 9.401-1.44 13.93-2.813 1.099-.275 1.853.755 1.716 1.715a25.83 25.83 0 0 0 0 7.275c.069.755-.206 1.51-.96 1.715-4.255 1.03-8.442 2.06-12.696 3.088.411 9.334-.618 19.765-11.735 17.843zm-1.922 26.353a65.895 65.895 0 0 1-8.647-3.295c.48 1.922.755 3.98.892 5.97 2.677-.617 5.285-1.577 7.755-2.675zm-12.147-12.216zm0 0c1.167 1.922 2.06 3.98 2.745 6.176 2.54-2.676 5.01-5.421 6.52-8.715a21.474 21.474 0 0 1-9.265 2.54zm-3.568 37.95c7-11.254 8.166-31.156-2.265-40.695-6.862-6.314-19.078-6.863-23.882 2.127-3.088 5.628-2.813 12.628-4.872 18.667 1.372.206 2.745.411 4.049.617 1.716.206 1.716 2.951 0 2.745-4.804-.617-9.608-1.235-14.412-1.921-2.882-.412-9.058-2.128-7.891 3.088 1.166 5.216 11.597 6.588 15.852 6.108h.275c.754 0 1.098.617 1.029 1.304 0 .617-.206 1.166-.892 1.44-1.373.55-6.382 4.187-3.637 5.697 1.921 1.03 5.352-.824 7.068-1.922.206-.206.412-.343.686-.343.893-.206 1.579.618 1.579 1.441v.069c0 .137 0 .274-.069.412v.137c-1.716 3.843 6.451 4.735 5.078.274-.48-1.715 2.128-2.402 2.677-.755 1.235 3.843-1.647 6.794-5.49 6.451-2.814-.206-4.735-1.921-5.079-4.186-3.088 1.441-7.068 2.402-9.058-.412-1.716-2.47-.412-4.94 1.578-6.862-1.715-.206-3.637-.55-5.421-1.098-6.726 2.402-14.137 2.676-21.137 1.44 7.48 27.52 49.891 29.098 64.234 6.177zm-70.273-25.46c-3.774 1.441.618 9.539 3.637 14.343m-2.608 3.225a14.174 14.174 0 0 0-2.333-1.03c-1.03-.41-3.98-1.715-4.941-.617-.618.755.275 2.47 1.03 2.814.892.412 2.264.068 3.156-.137 1.098-.275 2.128-.687 3.088-1.03zm89.557-19.49c1.098.275 1.373 2.06.55 2.746-4.05 1.784-8.167 3.568-12.49 4.597h-.138c0 5.97-1.167 11.941-3.225 16.814-3.157 7.411-8.853 13.039-15.716 16.745 0 .068 0 .205-.068.274-1.03 2.265-2.128 4.53-3.157 6.794-.755 1.647-3.157.206-2.402-1.373l1.853-3.911c-2.745 1.098-5.559 1.99-8.441 2.539-.069.069-.069.206-.137.274a26.622 26.622 0 0 0-2.745 5.834c-.55 1.647-3.226.96-2.677-.755.55-1.716 1.235-3.294 2.059-4.873-17.431 2.128-35.891-5.558-40.49-24.156-2.333 1.098-4.872 2.127-7.411 2.059-3.157-.069-5.353-2.745-4.804-5.902.755-4.255 5.49-3.225 9.402-1.578-3.5-6.177-7.686-15.784-.755-16.882 7.892-1.236 7.343 13.039 6.588 19.283 5.559.961 11.46.961 16.95-.411-2.813-1.579-4.872-3.843-5.215-7-.412-3.775 2.196-5.627 5.696-5.627 4.186 0 8.51.754 12.833 1.51 2.677-7.618 1.853-17.432 7.96-23.47 5.08-5.079 13.52-5.56 19.765-2.677a21.11 21.11 0 0 1 7.686 6.108 1.16 1.16 0 0 1 .686-.206c4.392 0 8.51-1.373 11.941-4.118 1.03-.892 2.54-.068 2.265 1.304-.96 4.941-3.98 8.853-7.343 12.421 3.568 1.579 7.206 2.745 10.98 3.637zm42.068-28.754c.892-.068 1.578.961 1.372 1.647-.48 1.304-.755 2.54-1.03 3.843-1.166 9.265-1.578 26.627-14.685 23.196-3.363-.824-6.314-3.363-4.392-7 2.745-5.147 9.607-3.774 14.343-4.255.137-.823.206-1.578.343-2.333.274-1.51.48-3.02.755-4.53-4.804.138-9.677.07-14.549.275-1.167 8.784-3.774 18.323-13.794 15.647-3.362-.824-6.313-3.363-4.392-7 2.745-5.147 9.608-3.774 14.343-4.255.137-.823.206-1.578.343-2.333.686-4.049 1.304-8.098 1.99-12.147 0-.069.069-.137.069-.206v-.068c.068-.138.137-.275.206-.344l.068-.068c.069-.069.206-.137.275-.206.068 0 .206-.069.274-.069H547.473c6.04.48 12.147.824 18.118.206z"/></g><g opacity=".2"><path fill="url(#ydsqd)" d="M295.76 499.287c-2.685-7.962-5.37-15.923-8.149-23.851-.034-.094.06-.128.026-.222.066-5.665 23.88 2.163 26.81 2.905 2.769.589 9.296.98 11.526 2.722 3.59 2.844-.289 5.64-2.278 8.066a1553.966 1553.966 0 0 1-9.728 12.16c-2.57 3.17-5.457 8.69-8.745 11.058-2.546 1.778-2.81 2.513-5.905-1.895-1.88-2.827-2.488-7.714-3.557-10.943zm10.898 16.785c3.963-3.145 7.131-8.768 10.283-12.682 4.253-5.272 9.642-10.64 13.186-16.399 6.482-10.553-11.135-11.59-17.535-13.092-5.477-1.305-30.017-11.422-28.364 1.598.043.41.273.752.47 1 3.66 11.224 7.448 22.51 11.142 33.829 1.796 5.518 4.873 10.464 10.818 5.746zm68.62-33.383zm-11.031-7.797l-2.292-6.296-.786-2.161c3.845 2.963 7.725 6.02 11.57 8.984l.137.376c.787 2.162 1.548 4.545 2.403 6.894-3.709-2.587-7.324-5.21-11.032-7.797zm14.504 19.09c-3.555-2.75-7.11-5.5-10.7-8.343-.033-.094-.127-.06-.162-.154a103.647 103.647 0 0 0-2.385-7.432c3.708 2.588 7.323 5.21 10.997 7.703.71 2.828 1.574 5.493 2.25 8.227zm1.533 12.107c-3.504-3.195-6.854-6.551-10.204-9.908-.351-2.426-.83-4.912-1.498-7.33 3.555 2.75 7.11 5.5 10.7 8.344.71 2.828.984 5.92 1.002 8.894zm-1.501 8.74zm-8.777-8.618l.333-1.717c.238-1.683.22-3.486.109-5.254 3.188 3.202 6.375 6.405 9.717 9.446-.196 2.093-.614 4.16-1.382 6.143-3.017-2.733-5.974-5.594-8.777-8.618zm3.337 16.77c-3.085-2.92-6.17-5.842-9.068-8.831 2.11-1.513 3.955-3.461 4.997-5.862 2.863 2.895 5.691 5.696 8.708 8.43-1.076 2.307-2.536 4.434-4.637 6.263zm-4.433 3.317c-1.06.598-2.025 1.162-3.084 1.76a195.261 195.261 0 0 1-9.717-9.446c2.187-1.009 4.468-2.052 6.552-3.342 3.025 3.049 6.05 6.098 9.23 8.985-.991.786-1.922 1.444-2.981 2.043zm-11.78 6.522a215.075 215.075 0 0 1-10.204-9.908l5.715-2.718c.436-.265.905-.436 1.47-.642a282.943 282.943 0 0 0 9.878 9.6c-2.306 1.266-4.518 2.497-6.859 3.668zm-6.398 3.18c-3.632-3.254-7.11-6.67-10.495-10.121 1.564-.676 3.22-1.385 4.75-2.155 3.29 3.485 6.734 6.808 10.238 10.002a42.606 42.606 0 0 1-4.493 2.274zm-7.56 3.496a235.848 235.848 0 0 1-10.691-10.368c1.939-.813 3.878-1.625 5.723-2.403 3.419 3.545 6.897 6.961 10.529 10.215-1.811.872-3.622 1.744-5.561 2.556zm-8.286 3.548a217.01 217.01 0 0 1-10.982-10.582c2.255-.82 4.382-1.701 6.603-2.616 3.453 3.638 7.06 7.115 10.726 10.463-2.093.974-4.22 1.855-6.347 2.735zm-8.671 3.37c-3.923-3.468-7.563-7.039-11.272-10.797 2.255-.82 4.544-1.547 6.894-2.402a250.243 250.243 0 0 0 11.015 10.676c-2.22.915-4.476 1.735-6.637 2.522zm-7.142 2.599l-1.597.58a266.727 266.727 0 0 1-11.435-10.949c2.29-.726 4.579-1.453 6.775-2.146 3.615 3.792 7.35 7.328 11.272 10.796-1.598.581-3.29 1.197-5.015 1.719zm-9.935 3.403c-4.085-3.622-7.888-7.345-11.76-11.257 2.23-.599 4.332-1.257 6.527-1.95a236.498 236.498 0 0 0 11.47 11.043c-2.068.753-4.136 1.505-6.237 2.164zm-9.739 2.48c-3.99-3.655-7.888-7.345-11.631-11.197 2.452-.573 4.963-1.274 7.475-1.976 3.777 3.946 7.674 7.636 11.665 11.291-2.477.796-4.989 1.497-7.509 1.882zm-9.184.789a223.43 223.43 0 0 1-10.46-10.027c.692-.146 1.478-.325 2.17-.47 1.196-.223 2.357-.54 3.613-.89 3.65 3.886 7.512 7.482 11.469 11.043-2.332.317-4.51.471-6.792.344zm-17.876-9.35c1.683.239 3.417.033 5.117-.266 3.06 3.143 6.213 6.252 9.52 9.198-6.134-1.066-10.689-4.516-14.637-8.932zm-14.36-24.25c-6.788-14.557-11.03-29.72-13.205-45.637.083-8.543 12.769-11.99 18.672-14.777 5.997-2.821 12.062-5.455 18.161-7.994 12.89-5.224 26.166-9.098 39.442-12.972 8.662-2.514 16.949-6.062 23.854 2.385 5.103 6.124 8.403 14.607 11.293 21.962 2.206 5.476 4.164 11.149 5.712 16.864 1.266 4.647 5.02 14.668 4.372 19.905-1.5 13.422-24.9 19.598-35.757 23.975-12.42 5.053-25.15 9.26-38.058 12.682-8.824 2.36-18.306 7.301-26.075-.3-3.777-3.946-6.095-11.19-8.411-16.094zm107.434-62.41c-3.393-2.595-6.691-5.226-10.084-7.822-1.342-2.81-2.778-5.587-4.334-8.107 5.965 4.108 10.64 9.643 14.418 15.93zm5.898 12.114l-11.536-8.89c-.82-2.256-1.838-4.759-2.822-7.168 3.59 2.844 7.239 5.56 10.828 8.404 1.427 2.46 2.479 5.057 3.53 7.654zm-28.238-36.652c-8.366-5.15-21.76 1.322-30.047 3.7a328.49 328.49 0 0 0-52.512 19.75c-8.149 3.924-19.007 7.131-19.679 17.273-.025.222-.11.572-.008.854 2.132 15.506 6.023 30.584 12.615 44.893 2.325 5.22 5.036 12.96 9.266 18.443l.171.47c5.043 7.423 10.95 15.17 19.827 18.217 8.271 2.843 17.121.26 25.16-1.92 13.378-3.593 26.27-8.817 38.826-14.665 9.653-4.47 20.827-8.857 29.25-15.54 14.802-11.667 7.064-32.05 2.352-47.042-5.926-18.914-15.86-37.433-35.221-44.433z"/></g><g opacity=".2"><path fill="url(#ydsqe)" d="M483.22 491.418c-1.2-10-11.9-10.3-18.6-5.8-3.1-7.7-13.2-10.8-18.9-3.4-8.3 10.9 4.6 23 9.4 32 .4.7 1.5 1.2 2.3.9 8.5-3.4 27.2-11.9 25.8-23.7z"/></g><g opacity=".2"><path fill="url(#ydsqf)" d="M133.665 355.735c-4.668-3.411-8.983.964-9.717 5.539-4.447-1.713-9.703 1.313-8.828 6.604 1.327 7.752 11.458 7.074 17.116 8.582.45.106 1.091-.16 1.279-.613 1.9-4.9 5.653-16.08.15-20.112z"/></g><g opacity=".2"><g opacity=".2"><g opacity=".2"><path fill="url(#ydsqg)" d="M274.811 392.491c.8 2.6 1.4 8.4 3.4 10.4s7.7 2.7 10.3 3.5c-.2-1.2-.3-2.4-.5-3.7-2.3 1.6-7.5 3.9-8.9 6.4-1.4 2.5-.2 8.2-.2 10.9 1-.6 2-1.2 3-1.7-2.1-1.6-6-5.8-8.7-6.2-2.7-.4-7.7 2.3-10.2 3.2l2.5 2.5c.9-2.5 3.7-7.5 3.3-10.2-.4-2.7-4.5-6.6-6.1-8.8-.6 1-1.2 2-1.7 3 2.7.1 8.5 1.3 10.9-.1 2.5-1.4 4.9-6.5 6.5-8.8 1.5-2.1-2-4.1-3.5-2-1 1.3-1.9 2.7-2.9 4-.6.8-1.3 1.6-1.8 2.5-.1.6-1.5 1.5-.2.9 1.1-.5-3-.4-3.8-.4-1.7 0-3.4-.1-5.2-.1-1.4 0-2.6 1.8-1.7 3 1 1.3 2 2.7 2.9 4 .6.8 1.1 1.8 1.8 2.5.2.2 1 1.9.8.8-.2-1.1-.4.7-.5 1-.4.8-.6 1.8-.9 2.7-.6 1.6-1.1 3.2-1.7 4.9-.5 1.4 1.1 2.9 2.5 2.5 1.6-.5 3.1-1 4.7-1.6.9-.3 2-.5 2.9-1 .4-.2 2.1-.3 1-.5-.5-.1 2.4 2.1 3.1 2.6 1.4 1 2.7 2.1 4.1 3.1 1.2.9 3-.3 3-1.7v-5c0-.9.1-5-.4-4-.6 1.3.4-.1.9-.3.8-.4 1.6-1.1 2.4-1.6 1.4-1 2.8-2 4.2-2.9 1.4-1 1.2-3.1-.5-3.7-1.6-.5-3.2-1-4.7-1.5-.9-.3-4.6-1.7-3.9-.9.8.8-.6-2.9-.8-3.8-.5-1.6-1-3.3-1.5-4.9-.7-2.6-4.6-1.5-3.9 1z"/></g></g></g><g opacity=".2"><g opacity=".2"><g opacity=".2"><path fill="url(#ydsqh)" d="M175.359 419.026c-7.7-6.1-22.2-9.4-23.3 4.4-1.3 16 19.2 26.8 29.2 35.9.8.8 2.6.8 3.1-.4 5.9-13.7 17.4-32.9 10.6-48.1-7.8-17.3-19.7-2.1-22.9 9-.7 2.5 3.1 3.5 3.9 1.1 1.3-4.7 5-16.7 12.6-12.7 6.1 3.2 4.2 15.3 3.2 20.3-2.1 9.9-6.8 19.1-10.8 28.3 1-.1 2.1-.3 3.1-.4-6.6-6.1-14.2-11.1-20.5-17.7-3.8-4-9.7-10.8-7.3-17 2.9-7.7 11.9-3.4 16.3 0 2 1.7 4.8-1.1 2.8-2.7z"/></g></g></g><g opacity=".2"><path fill="url(#ydsqi)" d="M154.309 311.91c.388-1.556-.84-2.752-2.202-3.155-1.346-.208-3.037.197-3.425 1.753-.373 1.496.825 2.812 2.202 3.155 1.376.344 3.052-.256 3.425-1.752zm-1.62-5.49c2.724.807 4.82 3.364 3.94 6.387-.792 2.663-3.784 3.952-6.357 3.31-2.634-.656-4.7-3.333-3.999-6.146.731-2.933 3.753-4.087 6.416-3.55zm108.14 23.467c2.122-4.43.502-9.666-4.107-11.578-9.459-5.41-19.459 8.436-10.164 14.758 4.4 3.005 11.88 1.818 14.27-3.18zm-18.484-10.013c3.363-5.328 10.26-6.724 15.603-3.675 6.046 2.524 7.83 9.9 4.662 15.467-3.243 5.612-11.605 7.024-16.978 3.84-5.373-3.183-6.605-10.483-3.287-15.632zm-71.995-3.964c.388-1.556-.84-2.752-2.202-3.155-1.346-.209-3.037.196-3.425 1.752-.373 1.497.825 2.813 2.202 3.156 1.376.343 3.111-.242 3.425-1.753zm-1.62-5.49c2.724.807 4.88 3.379 3.94 6.386-.792 2.664-3.784 3.952-6.357 3.31-2.634-.656-4.7-3.333-3.999-6.146.731-2.933 3.753-4.087 6.416-3.55zm91.027 51.305c2.363-.555 1.6-.046 1.974-1.797 1.908-11.222-9.662-18.62-19.402-18.824-6.418.498-10.336 3.463-13.953 8.537-2.153 3.023-2.049 2.096-.222 4.204.793.897 1.677 1.69 2.694 2.452 1.63-3.218 3.782-5.987 6.458-8.308.897-.793 2.23.493 1.333 1.286-2.602 2.276-4.665 4.94-6.264 8.038 5.298 3.229 12.63 4.675 17.957 4.986 1.57.074 3.276.118 4.952.027.462-2.873.475-5.73.04-8.573-.151-1.182 1.704-1.228 1.854-.046a31.358 31.358 0 0 1-.01 8.453c.854-.105 1.706-.21 2.589-.435zm2.769 1.898c-1.93 1.108-5.91 1.006-7.974 1.127-4.757.213-9.635-.368-14.244-1.771-5.611-1.717-11.493-4.646-15.625-8.982-.314-.27-.51-.763-.345-1.167 2.703-8.29 9.148-13.486 17.855-14.24 8.408.19 17.238 4.299 20.534 12.495 1.26 3.111 3.224 10.531-.201 12.538zm-49.054-17.444c7.33-.333 7.91-8.009 9.372-13.366 1.134-4.549 2.403-9.128 3.418-13.707 1.074-4.818.592-9.007-5.124-11.068-1.975-.747-4.25-1.06-6.285-1.567l-50.158-12.505c-6.225-1.552-12.375-3.404-18.614-4.642-4.43-.85-8.2-.518-10.41 4.78-.986 2.424-1.343 5.387-1.985 7.96-1.761 7.063-8.275 20.951 1.407 24.7 5.462 2.062 11.791 2.94 17.477 4.358 18.675 4.656 37.275 9.357 55.95 14.013.538.134.852.658.913 1.182.36 3.141 1.619 5.49 3.744 7.164-.749-1.84-.974-3.74-.916-6.014 0-.255.12-.48.224-.644.15-.344.478-.643.987-.644zm13.243-19.203c-1.94 7.78-2.485 20.169-11.895 21.447.121 2.573 1.02 5.086 2.518 7.24.614.852-.358 2.199-1.345 1.825-3.397-1.164-6.166-3.063-7.74-6.443-.374-.793-.495-3.366-.9-3.785-.404-.418-2.513-.626-3.052-.76l-17.537-4.373c-13.946-3.477-27.818-7-41.764-10.477-5.925-1.477-15.067-2.04-17.465-8.74-1.364-3.71.28-7.751 1.19-11.402l3.85-15.442c1.835-7.363 6.426-10.986 14.058-9.21 8.05 1.88 16.04 3.999 24.061 5.999 16.999 4.238 34.85 7.353 51.475 12.834 10.4 3.42 6.472 13.565 4.546 21.287zm-40.684-7.156c.388-1.556-.84-2.752-2.2-3.155-1.348-.209-3.038.196-3.426 1.752-.373 1.497.825 2.812 2.201 3.156 1.317.328 3.052-.257 3.425-1.753zm-1.619-5.49c2.724.806 4.82 3.364 3.939 6.386-.791 2.664-3.783 3.952-6.356 3.31-2.634-.656-4.7-3.333-3.999-6.146.731-2.933 3.753-4.087 6.416-3.55zm18.618 9.728c.388-1.556-.84-2.752-2.201-3.155-1.347-.209-3.037.196-3.425 1.752-.373 1.497.824 2.813 2.201 3.156 1.377.343 3.112-.241 3.425-1.753zm-1.62-5.49c2.724.807 4.88 3.379 3.94 6.386-.792 2.664-3.783 3.953-6.357 3.31-2.633-.656-4.7-3.332-3.998-6.146.73-2.932 3.752-4.086 6.416-3.55z"/></g><g opacity=".2"><path fill="url(#ydsqj)" d="M50.692 257.495c-.894-.67-2.626-1.285-3.017-2.346-.559-1.453 1.676-2.514 2.738-2.514 1.508-.056 2.625.95 3.575 2.01.95 1.062 2.514-.502 1.564-1.564-1.787-2.01-4.47-3.352-7.15-2.234-1.9.782-3.856 2.905-2.906 5.084.782 1.843 3.24 2.905 4.693 4.19.95.838 2.29 1.62 3.017 2.682.894 1.396.112 2.849-1.62 3.24-1.732.391-3.129-.838-4.135-2.011-.95-1.062-2.514.503-1.564 1.564 1.844 2.067 4.637 3.52 7.319 2.179 2.067-1.006 3.576-3.24 2.402-5.475-.95-1.9-3.24-3.52-4.916-4.805zm-10.95.503c-.224.112-.392.28-.447.391a15.978 15.978 0 0 0-3.073-.503v-5.028c1.676.223 3.408.782 4.805 1.676.446.28 1.452.838 1.396 1.509-.056.95-2.011 1.62-2.681 1.955zm-3.576 2.123c2.067.168 5.42.726 5.363 2.85-.056 2.122-3.296 2.737-5.363 2.849zm7.207-6.593c-2.067-1.955-5.531-2.96-8.324-3.017-.392 0-.727.168-.894.447a1.198 1.198 0 0 0-.224.67v15.42c0 .28.112.504.224.671.167.28.447.447.894.447 3.128-.056 8.66-1.006 8.715-5.14 0-1.62-.838-2.737-2.011-3.52 2.29-1.34 4.134-3.631 1.62-5.978zm22.571 9.498c-.782 1.9-2.235 3.743-4.19 2.011-1.509-1.34-2.347-3.687-2.402-5.642-.056-2.012.726-4.358 2.29-5.699 2.067-1.844 3.52.168 4.414 2.123.559 1.34 2.458.168 1.955-1.117-1.229-2.906-3.91-5.252-6.983-3.297-2.682 1.676-4.023 5.364-3.8 8.38.168 2.906 1.62 6.314 4.302 7.767 3.24 1.731 5.531-1.23 6.649-3.911.447-1.341-1.732-1.9-2.235-.615zm-51.846-5.53c-.894-.671-2.626-1.286-3.017-2.347-.559-1.453 1.676-2.514 2.737-2.514 1.509-.056 2.626.95 3.576 2.01.95 1.062 2.514-.502 1.564-1.564-1.788-2.01-4.47-3.352-7.151-2.234-1.9.782-3.855 2.905-2.905 5.084.782 1.843 3.24 2.905 4.693 4.19.95.838 2.29 1.62 3.017 2.682.894 1.396.111 2.849-1.62 3.24-1.732.391-3.13-.838-4.135-2.011-.95-1.062-2.514.503-1.564 1.564 1.844 2.067 4.637 3.52 7.319 2.179 2.067-1.006 3.575-3.24 2.402-5.475-.894-1.9-3.24-3.52-4.916-4.805zm15.196-5.867c.056 2.179.28 4.358.28 6.537 0 2.067.167 6.145-1.788 7.486-3.464 2.346-4.582-3.855-4.693-5.922-.112-2.682.279-5.364.335-8.045 0-1.453-2.235-1.453-2.235 0-.056 4.47-2.123 17.99 6.313 16.481 6.202-1.117 4.135-12.291 4.079-16.481-.056-1.509-2.291-1.509-2.291-.056zm78.328 1.117c1.453 0 1.453-2.235 0-2.235h-7.542c-.28 0-.559.112-.726.28l-.056.056-.056.056c-.168.167-.28.39-.28.726v15.42c0 .28.112.558.28.726l.056.056.056.056c.167.167.39.28.726.28h7.542c1.453 0 1.453-2.236 0-2.236h-6.424v-5.866h3.52c1.452 0 1.452-2.235 0-2.235h-3.52v-5.084h6.424zm-35.42 0c1.955.112 5.251.615 5.195 2.514-.056 1.9-3.24 2.403-5.196 2.514zm4.246 6.37c1.731-.671 3.128-1.9 3.128-3.856 0-4.022-5.643-4.749-8.548-4.804-.335 0-.558.111-.782.279l-.112.112a.925.925 0 0 0-.279.67v15.42c0 1.453 2.235 1.453 2.235 0v-6.928c.67-.056 1.396-.112 2.123-.28 1.34 2.627 2.626 5.197 3.966 7.823.67 1.285 2.57.167 1.956-1.118-1.23-2.402-2.458-4.86-3.687-7.319zm16.09-1.118c-.224.112-.391.28-.447.391a15.977 15.977 0 0 0-3.073-.503v-5.028c1.676.223 3.408.782 4.805 1.676.447.28 1.452.838 1.397 1.509 0 .95-2.012 1.62-2.682 1.955zm-3.52 2.123c2.067.168 5.42.726 5.363 2.85-.055 2.122-3.296 2.737-5.363 2.849zm7.207-6.593c-2.067-1.955-5.53-2.96-8.324-3.017-.391 0-.727.168-.894.447a1.198 1.198 0 0 0-.224.67v15.42c0 .28.112.504.224.671.167.28.447.447.894.447 3.128-.056 8.66-1.006 8.715-5.14 0-1.62-.838-2.737-2.011-3.52 2.29-1.34 4.134-3.631 1.62-5.978zm-14.079-1.9v15.42c0 1.453 2.235 1.453 2.235 0v-15.42c0-1.452-2.235-1.452-2.235 0zm31.399 22.572c-.56 4.693-4.358 4.246-7.934 4.246H34.155c-.056-2.961-.727-5.755-3.632-6.872-.056 0-.112-.056-.167-.056-.224-.056-.392-.056-.56-.056-3.966 0-4.357 4.023-4.245 7.599-.168-.336-.447-.615-.95-.615-5.754 0-12.682 1.062-18.38 0-4.973-.95-3.912-6.201-3.912-10v-15.253c0-3.91-1.173-9.553 3.911-10.503 3.967-.726 8.716 0 12.738 0h84.586c4.972 0 9.721-.782 10 5.754.336 8.269.95 17.543 0 25.756zm-3.13 10a5.407 5.407 0 0 1-1.787 1.062v-4.637c1.509-.056 3.017-.224 4.246-1.006-.447 1.844-1.229 3.408-2.458 4.582zm-2.96 1.397c-1.118.168-2.29.168-3.464.112v-5.028h1.62c.615 0 1.23 0 1.9.056v4.86zm-4.581.056h-3.13c-.055-1.676-.167-3.296-.223-4.972h3.353zm-7.654 0v-4.972h3.24c.056 1.676.168 3.296.223 4.972zm-4.973 0c-.167-1.676-.28-3.296-.223-4.972h4.078v4.972zm-4.693 0c.112-1.676.168-3.296.28-4.972h3.016c-.055 1.676.056 3.296.224 4.972zm-1.117 0h-2.905c.055-1.676.055-3.296.111-4.972h3.073c-.056 1.676-.167 3.296-.28 4.972zm-4.023 0h-3.24c.056-1.676.112-3.296.167-4.972h3.185c-.056 1.676-.056 3.296-.112 4.972zm-4.358 0h-3.575c.056-1.676.056-3.296.112-4.972h3.687a147.942 147.942 0 0 0-.224 4.972zm-8.268 0v-4.972h3.687c-.056 1.676-.112 3.296-.112 4.972zm-1.118 0h-3.966c-.056-1.676 0-3.352.279-4.972h3.687zm-5.084 0zm-5.14 0c.056-.056.056-.167.112-.28.056-1.564.112-3.128.224-4.692h5.14a18.494 18.494 0 0 0-.336 4.972zm-1.005 0h-3.185l.168-4.972h3.184c-.056 1.564-.111 3.128-.223 4.693 0 .111 0 .223.056.28zm-7.766 0v-4.972h3.631c-.055 1.676-.111 3.296-.167 4.972zm-1.117 0H42.2l.167-4.972h4.19zm-5.531 0h-2.403c-.335 0-.559.112-.782.335a2.77 2.77 0 0 0-1.117-.447v-4.804h4.47a73.5 73.5 0 0 1-.168 4.916zm-7.096.112v-1.23c0-1.172.112-2.513.168-3.854h1.508v4.693c-.558 0-1.173.112-1.676.39zm5.978 16.481v-7.542c0-.615 0-1.23.056-1.844.056-.112.056-.223.112-.335.056-1.508 1.955-1.732 2.96-.894.504.559.671 1.397.727 2.29a3.27 3.27 0 0 0-.112.727c0 .224.056.391.112.503-.056.838-.112 1.676-.112 2.29v4.805c0 1.453 2.235 1.453 2.235 0v-7.766c.112-1.452 1.62-2.123 2.85-1.508 1.899 2.29.893 7.263.893 10 0 2.682.391 5.643-.223 8.27-.559 2.402-1.62 6.648-4.023 7.43-2.626.838-6.983 0-9.665 0-1.955 0-6.37.838-7.99-.559-1.787-1.564-2.849-6.48-3.854-8.66-.838-1.9-1.62-3.687-2.738-5.475-1.452-2.402-6.872-7.933-2.96-10.503 2.457-.615 3.519 1.843 4.692 3.575.95 1.397 1.9 2.85 2.794 4.246v1.006c0 1.453 2.234 1.453 2.234 0v-13.967c0-1.9-1.452-14.359 1.956-14.638 3.631 1.509 1.843 12.347 1.843 15.197v13.352c0 1.453 2.235 1.453 2.235 0v-13.464c0-.056.056-.056.056-.112.67-1.285 2.402-1.62 3.296-.391.503 1.006.559 2.346.559 3.631 0 .168-.056.336-.056.503 0 .056 0 .112.056.168-.056 1.117-.168 2.235-.168 3.184v6.425c0 1.509 2.235 1.509 2.235.056zm-17.32-16.593a147.968 147.968 0 0 0-.223-4.972h2.235c.503 0 .838-.28 1.006-.67.056.95.111 1.787.111 2.458v3.184zm-4.469 0c.056-1.676 0-3.296-.112-4.972h3.297c.056 1.676.111 3.296.223 4.972zm-1.117 0h-2.738l-.167-4.972h2.793c.168 1.676.168 3.296.112 4.972zm-6.704.168c0-1.732.055-3.464.055-5.196h2.626l.168 5.028c-.894.112-1.844.168-2.85.168zm-1.118 0c-1.061-.056-2.067-.168-2.96-.447v-4.75c.781.057 1.563 0 2.29 0h.726c0 1.789 0 3.52-.056 5.197zm-4.078-.894c-.503-.335-.95-.726-1.285-1.285-.727-1.173-1.062-2.682-1.285-4.19.167.111.335.223.558.39.615.392 1.341.56 2.012.671zm110.676-15.14v-16.594c0-6.09.447-12.459-7.374-12.738-18.996-.67-38.159 0-57.154 0H18.958c-4.358 0-10.783-1.173-14.973.447-4.19 1.676-3.91 5.866-3.91 9.61v18.771c0 1.62-.168 3.408 0 5.14v.112c.055 3.632.223 8.716 2.57 11.62 1.62 1.956 3.407 1.733 5.866 1.733h17.152v9.274c-.56-.894-1.174-1.788-1.732-2.626-1.509-2.29-3.353-4.134-6.314-3.296h-.055c-.056 0-.056 0-.112.056-.056 0-.056.056-.056.056-.056 0-.112.056-.168.056-7.095 4.413 1.788 12.29 4.023 17.375 1.34 3.073 2.57 8.269 4.805 10.727 2.01 2.235 5.978 1.34 8.66 1.34 3.575 0 7.765.615 11.285 0 3.631-.67 4.581-5.419 5.42-8.547.949-3.352.502-7.04.502-10.504 0-3.464.838-7.598-1.508-10.391v-.056c-.056-.056-.056-.112-.112-.112-.056-.056-.112-.112-.168-.112 0 0 0-.056-.056-.056h-.056c-.055-.055-.111-.055-.167-.111-1.509-.782-3.185-.615-4.414.279a3.613 3.613 0 0 0-.503-.894c-.056-.167-.167-.28-.279-.391a1.698 1.698 0 0 0-.391-.28c-1.34-.893-3.017-1.005-4.358-.39a5.673 5.673 0 0 0-.335-1.397h54.92c4.804 0 12.458 1.788 16.648-1.285 3.688-2.738 4.526-7.822 4.693-12.068v-.112c.056-1.508-.056-3.128-.056-4.637z"/></g><g opacity=".2"><path fill="url(#ydsqk)" d="M429.6 309.88c.9-1.9 1.5-4 1.9-6.1.2-1.3 2.1-.8 1.9.5-.3 2.3-1.1 4.5-2.1 6.6-.6 1.1-2.3.1-1.7-1zm7 42.5c5.6.3 12.7-4.2 9-10.7-2.5-4.2-9.1-3.3-13-3.3-6.8 0-13.6.2-20.4.5-.7.1-1.2-.2-1.5-.6-.7-.4-1-1.2-.7-2.1 3.2-8.9 5.2-18.8 3.7-28.2-.8-4.7-7.5-17.6-13.5-8.8l.1.1c2.1 3 3.6 7.4 2.3 11-.9 2.3-3.1 3.7-5.3 3.3-.8 4.8-2.5 9.5-6.4 12.7-4.5 3.7-11.4 3.9-14.2 9.5-.1.3-.3.5-.5.7 1.4 15.4 1.5 30.7.2 46 4.7 9.1 14.7 9.7 23.9 9.8 6.8.1 22.3 1.6 22.6-8.1 0-.4.2-.8.4-1.1 0-.1.1-.2.2-.3.3-.3.7-.5 1.3-.5 5.1-.1 9.1-5.4 5.5-9.9 0-.1-.1-.1-.1-.2-.1 0-.1-.1-.1-.1-.1-.2-.2-.3-.2-.5-.3-.8-.1-1.8.8-2.3.3-.2.6-.3.9-.4 6-2 8.2-8.2 3.6-13.1-1.1-1.2-.4-3.5 1.4-3.4zm-39-40.6c2.7.9 3.6-3.1 3.4-5.2-.2-1.9-.9-3.7-1.9-5.3-.1.3-.3.5-.4.8-1.2 2.6-.9 6.5-1.1 9.7zm-24.2 44.9H350v4.2c7.8 0 15.6-.1 23.4-.1v-4.1zm-.1 9.5c0-1.1.1-2.3.1-3.4l-23.4.1v3.7c7.8-.1 15.5-.3 23.3-.4zm-.1 2c-7.7.1-15.5.3-23.2.4.1 1.3.2 2.7.3 4.1 7.5.5 15.1.6 22.7.5.1-1.7.2-3.3.2-5zm-.3 7.1c-7.5.1-15-.1-22.5-.5.1 1.6.1 3.3 0 4.8l22.3-.6c.1-1.3.1-2.5.2-3.7zm-.4 5.7c-7.4.2-14.9.4-22.4.6 0 .2-.1.3-.1.5-1 3.7-2.5 2.7.1 3.7 3.8 1.4 10.7 0 14.7 0h7.3c.2-1.6.3-3.2.4-4.8zm-23-42.9c7.8.2 15.6.3 23.4.4.3-1.7.7-2.4-.5-2.9-1.9-.9-21.3-1.3-23.9-.2.3 0 .7 1.2 1 2.7zm.5 7.7v3.7c2.2-.1 4.4-.1 6.6 0-.1-.3-.2-.6-.2-.9-.1-.9.1-1.7.4-2.6-2.2-.3-4.5-.4-6.8-.2zm15.5 1c-.4-2.1-2.5-2.1-4.2-2.1-.1 0-.2-.1-.3-.1-3.6 0-3.6 8.4 2 6 1.5-.7 3-2.2 2.5-3.8zm2 0c0 1.1-.3 2.1-.8 3h6.2c-.1-1.1-.1-2.3-.2-3.4-1.7-.1-3.5-.1-5.2-.1.1.2.1.4 0 .5zm5-6.4l-22.9-.4c.2 1.7.3 3.2.3 3.3v.3c2.6-.1 5.1.1 7.7.4.1.1.1.1.2.1.9-1.1 2.1-1.8 3.5-1.6.1 0 .1.1.2.1 1.9 0 3.9.4 5 1.7 2.1 0 4.1.1 6.1.1 0-1.3 0-2.6-.1-4zm.7 11.5h-8.4c-.8.5-1.6.8-2.5 1-1.8.3-3.5-.2-4.6-1.4-2.6-.3-5.1-.3-7.7-.1v3.4h23.3c0-1-.1-2-.1-2.9zm76.1-11.4c3.7 7.6-1.9 14.2-9.1 15.6 3.2 6 .7 12.8-5.6 15.9 2.7 6.1-1.2 13-8 14.1-1.5 9.7-12.7 10.3-21 10.3-10.5 0-22.9.5-30-7.7-.3.6-.8 1.1-1.7 1.1H348c-1.1 0-2-.9-2-2v-54.2c0-1.1.9-2 2-2h25.9c.3 0 .6.1.8.2 1.7-2.1 4-3.4 6.6-4.7 6.7-3.4 10.8-6.5 12.1-14.4 1.1-7.1-.1-17.4 9-19.4 8-1.8 13.2 5.4 14.9 12.2 2.3 9.5.5 20.2-2.6 29.5 8.1-.4 16.4-1 24.4-.4 4.3.3 8.2 1.8 10.2 5.9zm-15-27.1c2.4-1.5 5-2.7 7.6-3.8 1.2-.5 1.7 1.4.5 1.9-2.5 1-4.8 2.2-7.1 3.6-1.1.7-2.1-1-1-1.7zm9 6.8c1.2-.2 1.8 1.7.5 1.9-2 .3-4 .3-6-.1-1.3-.2-.8-2.1.5-1.9 1.6.3 3.3.4 5 .1z"/></g></g></g></svg>