<svg xmlns="http://www.w3.org/2000/svg" width="64" height="64" viewBox="0 0 64 64"><g><g><g><path fill="#fff" d="M39.98 13.327V10.66h-5.33v29.32c0 4.41-3.587 7.995-7.996 7.995-4.41 0-7.997-3.586-7.997-7.996s3.587-7.996 7.997-7.996h2.665v-5.33h-2.665c-7.35 0-13.327 5.978-13.327 13.326 0 7.349 5.978 13.327 13.327 13.327 7.348 0 13.326-5.978 13.326-13.327V23.963a13.241 13.241 0 0 0 7.996 2.69h2.666v-5.33h-2.666c-4.41 0-7.996-3.586-7.996-7.996z"/></g><g><path fill="#fff" d="M5.33 5.33h53.308v53.308H5.33zM0 63.97h63.969V0H0z"/></g></g></g></svg>