<svg xmlns="http://www.w3.org/2000/svg" width="76" height="62" viewBox="0 0 76 62"><g><g><g><g><path fill="#fff" d="M76.277 7.337a32.603 32.603 0 0 1-9.01 2.47c3.242-1.936 5.716-4.978 6.879-8.644-3.022 1.802-6.36 3.075-9.916 3.785A15.67 15.67 0 0 0 52.808 0C44.15 0 37.18 7.027 37.18 15.642c0 1.24.105 2.43.363 3.566-13-.635-24.504-6.865-32.232-16.357-1.35 2.34-2.14 5.02-2.14 7.904 0 5.416 2.788 10.216 6.945 12.996-2.512-.048-4.977-.777-7.065-1.926v.171c0 7.6 5.42 13.911 12.529 15.365-1.273.348-2.66.515-4.1.515-1.001 0-2.012-.057-2.96-.267 2.025 6.193 7.775 10.746 14.611 10.894a31.42 31.42 0 0 1-19.389 6.67c-1.282 0-2.512-.058-3.742-.215 6.927 4.467 15.136 7.017 23.99 7.017 28.775 0 44.507-23.836 44.507-44.498 0-.691-.024-1.359-.057-2.021 3.103-2.203 5.71-4.954 7.837-8.12z"/></g></g></g></g></svg>