<svg xmlns="http://www.w3.org/2000/svg" width="438" height="228" viewBox="0 0 438 228"><defs><linearGradient id="87bwa" x1="285.05" x2="285.05" y1="164.94" y2="227.45" gradientUnits="userSpaceOnUse"><stop offset="0" stop-color="#782ea0"/><stop offset="1" stop-color="#279ced"/></linearGradient><linearGradient id="87bwb" x1="169.84" x2="191.62" y1="117.87" y2="177.72" gradientUnits="userSpaceOnUse"><stop offset="0" stop-color="#782ea0"/><stop offset="1" stop-color="#279ced"/></linearGradient><linearGradient id="87bwc" x1="266.44" x2="266.44" y1="136.94" y2="158.34" gradientUnits="userSpaceOnUse"><stop offset="0" stop-color="#782ea0"/><stop offset="1" stop-color="#279ced"/></linearGradient><linearGradient id="87bwd" x1="68.44" x2="77.43" y1="69.23" y2="77.61" gradientUnits="userSpaceOnUse"><stop offset="0" stop-color="#782ea0"/><stop offset="1" stop-color="#279ced"/></linearGradient><linearGradient id="87bwe" x1="158.22" x2="158.22" y1="86.31" y2="104.78" gradientUnits="userSpaceOnUse"><stop offset="0" stop-color="#782ea0"/><stop offset="1" stop-color="#279ced"/></linearGradient><linearGradient id="87bwf" x1="100.4" x2="100.4" y1="93.79" y2="126.51" gradientUnits="userSpaceOnUse"><stop offset="0" stop-color="#782ea0"/><stop offset="1" stop-color="#279ced"/></linearGradient><linearGradient id="87bwg" x1="118.12" x2="110.84" y1="34.59" y2="63.8" gradientUnits="userSpaceOnUse"><stop offset="0" stop-color="#782ea0"/><stop offset="1" stop-color="#279ced"/></linearGradient><linearGradient id="87bwh" x1="33.33" x2="33.33" y1=".04" y2="46.69" gradientUnits="userSpaceOnUse"><stop offset="0" stop-color="#782ea0"/><stop offset="1" stop-color="#279ced"/></linearGradient><linearGradient id="87bwi" x1="229.1" x2="229.1" y1="30.51" y2="89.98" gradientUnits="userSpaceOnUse"><stop offset="0" stop-color="#782ea0"/><stop offset="1" stop-color="#279ced"/></linearGradient><linearGradient id="87bwj" x1="361.79" x2="361.79" y1="37.3" y2="158.22" gradientUnits="userSpaceOnUse"><stop offset="0" stop-color="#782ea0"/><stop offset="1" stop-color="#279ced"/></linearGradient><linearGradient id="87bwk" x1="364.62" x2="364.62" y1="46.72" y2="136.78" gradientUnits="userSpaceOnUse"><stop offset="0" stop-color="#782ea0"/><stop offset="1" stop-color="#279ced"/></linearGradient></defs><g><g opacity=".2"><g opacity=".2"><path fill="url(#87bwa)" d="M281.709 194.02c1.026-.118 1.066-1.737.079-1.381a.755.755 0 0 1-.671-.119c-.75.198-.474 1.658.592 1.5zm.158-3c1.105-.079 2.171.79 2.21 1.974.12 1.382-1.065 2.566-2.408 2.645-1.42.08-2.645-1.026-2.645-2.447 0-1.5 1.382-2.409 2.764-2.211.04.04.04.04.079.04zm17.765-7.856c-1.895-.316-3.276-1.58-2.566-3.632 1.145-3.08 4.975-2.961 7.58-3.79 0-.356-.04-.671-.04-.987-.039-2.448-.118-4.935-.157-7.383 0-.474.316-.71.632-.75.039 0 .078-.04.157-.04 2.725-.315 5.41-.828 8.015-1.618.631-.158 1.066.434.987.987a14.86 14.86 0 0 0 0 4.185c.04.434-.119.868-.553.987-2.448.592-4.856 1.184-7.304 1.776.237 5.37-.355 11.37-6.75 10.265zm-1.105 15.16a37.907 37.907 0 0 1-4.974-1.895c.276 1.105.434 2.29.513 3.434 1.54-.355 3.04-.908 4.461-1.54zm-5.409-3.474c1.461-1.54 2.882-3.12 3.75-5.014a12.354 12.354 0 0 1-5.329 1.46 15.973 15.973 0 0 1 1.58 3.554zm-3.632 18.278c4.027-6.474 4.698-17.923-1.303-23.41-3.947-3.633-10.975-3.949-13.738 1.223-1.777 3.238-1.619 7.264-2.803 10.739.79.118 1.579.236 2.329.355.987.118.987 1.697 0 1.579a595.88 595.88 0 0 1-8.29-1.105c-1.659-.237-5.212-1.224-4.54 1.776.67 3 6.671 3.79 9.119 3.514h.158c.434 0 .632.355.592.75 0 .355-.118.671-.513.829-.79.316-3.672 2.408-2.092 3.277 1.105.592 3.079-.474 4.066-1.106.118-.118.237-.197.395-.197.513-.119.908.355.908.829v.04c0 .078 0 .157-.04.236v.08c-.987 2.21 3.711 2.723 2.922.157-.277-.987 1.223-1.382 1.54-.434.71 2.21-.948 3.908-3.159 3.71-1.619-.118-2.724-1.105-2.921-2.407-1.777.829-4.067 1.381-5.212-.237-.987-1.421-.237-2.843.908-3.948-.987-.119-2.092-.316-3.119-.632-3.868 1.382-8.132 1.54-12.16.83 4.304 15.83 28.702 16.738 36.953 3.552zm-40.426-14.646c-2.172.829.355 5.487 2.092 8.25m-3.277 2.449c.632-.158 1.224-.395 1.777-.593a8.153 8.153 0 0 0-1.342-.592c-.593-.237-2.29-.987-2.843-.355-.355.434.158 1.421.592 1.618.514.237 1.303.04 1.816-.078zm53.297-11.805c.632.158.79 1.185.316 1.58-2.33 1.026-4.698 2.052-7.185 2.645h-.08c0 3.434-.67 6.869-1.855 9.672-1.816 4.264-5.092 7.5-9.04 9.633 0 .04 0 .118-.04.158-.592 1.303-1.224 2.605-1.816 3.908-.434.948-1.816.119-1.382-.79l1.066-2.25c-1.579.632-3.198 1.145-4.856 1.461-.04.04-.04.118-.079.158a15.315 15.315 0 0 0-1.579 3.356c-.316.947-1.855.552-1.54-.435a17.55 17.55 0 0 1 1.185-2.803c-10.028 1.224-20.648-3.197-23.293-13.896-1.342.631-2.803 1.224-4.263 1.184-1.817-.04-3.08-1.58-2.764-3.395.434-2.448 3.158-1.856 5.409-.908-2.014-3.553-4.422-9.08-.435-9.712 4.54-.71 4.225 7.501 3.79 11.094 3.198.552 6.593.552 9.752-.237-1.619-.908-2.803-2.211-3-4.027-.238-2.171 1.263-3.237 3.276-3.237 2.408 0 4.895.434 7.383.868 1.54-4.382 1.066-10.028 4.58-13.502 2.92-2.921 7.777-3.197 11.37-1.54a12.144 12.144 0 0 1 4.42 3.514.667.667 0 0 1 .396-.118c2.526 0 4.895-.79 6.869-2.369.592-.513 1.46-.04 1.303.75-.553 2.843-2.29 5.093-4.225 7.146 2.053.908 4.146 1.58 6.317 2.092zm24.2-16.541c.514-.04.909.552.79.947-.276.75-.434 1.46-.592 2.21-.671 5.33-.908 15.319-8.448 13.345-1.935-.474-3.632-1.935-2.527-4.027 1.58-2.961 5.527-2.171 8.251-2.448.08-.474.119-.908.198-1.342.157-.869.276-1.737.434-2.606-2.764.08-5.567.04-8.37.158-.67 5.054-2.171 10.541-7.935 9.001-1.935-.473-3.632-1.934-2.527-4.026 1.58-2.961 5.527-2.172 8.251-2.448.08-.474.119-.908.198-1.342.395-2.33.75-4.659 1.145-6.988 0-.04.04-.08.04-.119v-.04c.039-.078.078-.157.118-.196l.04-.04c.039-.04.118-.079.157-.118.04 0 .118-.04.158-.04h.197c3.474.276 6.988.474 10.423.119z"/></g><g opacity=".2"><path fill="url(#87bwb)" d="M170.145 149.181c-1.545-4.58-3.09-9.16-4.688-13.72-.02-.055.034-.074.014-.129.039-3.258 13.738 1.245 15.424 1.672 1.593.339 5.348.564 6.63 1.566 2.066 1.636-.165 3.244-1.31 4.64a894.043 894.043 0 0 1-5.596 6.996c-1.48 1.823-3.14 4.999-5.031 6.361-1.465 1.023-1.617 1.445-3.397-1.09-1.082-1.627-1.431-4.438-2.046-6.296zm6.27 9.656c2.28-1.809 4.102-5.044 5.915-7.295 2.446-3.033 5.547-6.12 7.585-9.434 3.73-6.071-6.406-6.668-10.087-7.532-3.15-.75-17.268-6.57-16.318.92.025.235.158.432.27.574 2.106 6.458 4.286 12.95 6.41 19.462 1.034 3.174 2.804 6.02 6.224 3.305zm39.475-19.204c-2.133-1.489-4.213-2.997-6.346-4.486l-1.319-3.621-.452-1.244c2.212 1.705 4.444 3.464 6.656 5.169l.079.216c.452 1.243.89 2.614 1.382 3.966zm1.998 6.497a665.12 665.12 0 0 1-6.155-4.8c-.02-.054-.074-.035-.094-.089a59.626 59.626 0 0 0-1.372-4.275c2.133 1.488 4.213 2.997 6.327 4.431.408 1.627.905 3.16 1.294 4.733zm.881 6.964c-2.015-1.837-3.942-3.768-5.87-5.7a34.492 34.492 0 0 0-.861-4.216 665.12 665.12 0 0 1 6.155 4.8c.408 1.627.566 3.406.576 5.116zm-.863 5.028a81.336 81.336 0 0 1-5.05-4.957l.192-.988c.138-.969.127-2.006.063-3.023 1.834 1.843 3.668 3.685 5.59 5.434-.113 1.204-.353 2.394-.795 3.534zm-3.13 4.69c-1.774-1.68-3.55-3.36-5.216-5.08 1.214-.87 2.275-1.992 2.874-3.373 1.647 1.666 3.275 3.277 5.01 4.85-.619 1.327-1.459 2.551-2.668 3.603zm-2.55 1.908c-.61.344-1.164.669-1.774 1.013a112.325 112.325 0 0 1-5.59-5.434c1.258-.58 2.57-1.18 3.77-1.923 1.74 1.754 3.48 3.508 5.31 5.169-.57.452-1.106.83-1.716 1.175zm-6.776 3.752zm-5.87-5.7l3.287-1.564c.25-.152.521-.25.845-.368a162.782 162.782 0 0 0 5.684 5.522c-1.327.728-2.6 1.436-3.946 2.11a123.722 123.722 0 0 1-5.87-5.7zm2.189 7.53c-2.09-1.873-4.09-3.838-6.037-5.823.899-.389 1.852-.797 2.732-1.24a110.062 110.062 0 0 0 5.89 5.754c-.86.497-1.686.92-2.585 1.308zm-4.35 2.01a135.684 135.684 0 0 1-6.15-5.964c1.116-.467 2.231-.934 3.293-1.382 1.966 2.04 3.967 4.004 6.057 5.876-1.042.502-2.084 1.004-3.2 1.47zm-4.766 2.042a124.839 124.839 0 0 1-6.318-6.088c1.298-.472 2.521-.979 3.8-1.505a120.604 120.604 0 0 0 6.17 6.02c-1.205.56-2.429 1.066-3.652 1.573zm-4.988 1.938c-2.257-1.995-4.351-4.049-6.485-6.21 1.297-.473 2.615-.89 3.966-1.383a143.954 143.954 0 0 0 6.337 6.142c-1.278.526-2.575.998-3.818 1.451zm-4.109 1.495l-.919.335a153.44 153.44 0 0 1-6.578-6.3c1.317-.417 2.634-.836 3.897-1.234a104.51 104.51 0 0 0 6.485 6.21c-.919.335-1.892.69-2.885.99zm-5.715 1.958c-2.35-2.083-4.538-4.225-6.765-6.476a89.156 89.156 0 0 0 3.755-1.121 136.048 136.048 0 0 0 6.597 6.353c-1.189.433-2.378.865-3.587 1.244zm-5.603 1.427zm-6.691-6.441c1.41-.33 2.855-.734 4.3-1.137 2.173 2.27 4.415 4.393 6.711 6.496-1.425.457-2.87.86-4.32 1.082-2.296-2.103-4.538-4.225-6.691-6.441zm1.408 6.895a128.537 128.537 0 0 1-6.018-5.768c.398-.084.85-.187 1.248-.271.688-.128 1.357-.31 2.08-.512 2.099 2.236 4.32 4.304 6.597 6.353-1.342.182-2.595.271-3.907.198zm-10.284-5.379c.968.137 1.966.02 2.944-.153 1.76 1.808 3.574 3.597 5.477 5.292-3.53-.614-6.15-2.599-8.421-5.139zm-8.261-13.951c-3.905-8.374-6.346-17.097-7.597-26.253.048-4.915 7.346-6.898 10.742-8.502 3.45-1.622 6.939-3.137 10.448-4.598 7.416-3.005 15.053-5.234 22.69-7.463 4.983-1.446 9.75-3.487 13.723 1.372 2.935 3.524 4.834 8.404 6.496 12.635 1.27 3.15 2.396 6.413 3.286 9.7.728 2.674 2.888 8.439 2.515 11.452-.863 7.722-14.324 11.274-20.57 13.793a181.48 181.48 0 0 1-21.894 7.295c-5.076 1.358-10.531 4.2-15-.173-2.173-2.27-3.506-6.437-4.84-9.258zm61.804-35.902c-1.951-1.494-3.849-3.007-5.8-4.5-.773-1.617-1.599-3.215-2.494-4.664 3.432 2.363 6.121 5.547 8.294 9.164zm3.394 6.968l-6.637-5.114c-.472-1.298-1.057-2.738-1.623-4.124 2.065 1.637 4.164 3.199 6.229 4.835.82 1.415 1.426 2.91 2.03 4.403zm-16.245-21.085c-4.813-2.962-12.518.76-17.286 2.128a188.974 188.974 0 0 0-30.208 11.363c-4.689 2.257-10.935 4.102-11.322 9.936-.014.128-.063.33-.004.492 1.226 8.92 3.465 17.594 7.257 25.826 1.338 3.002 2.897 7.455 5.33 10.61l.1.27c2.9 4.27 6.298 8.727 11.405 10.48 4.758 1.635 9.85.15 14.474-1.105 7.696-2.067 15.112-5.072 22.336-8.436 5.553-2.572 11.981-5.096 16.826-8.94 8.516-6.712 4.064-18.438 1.354-27.063-3.41-10.88-9.124-21.534-20.262-25.561z"/></g><g opacity=".2"><path fill="url(#87bwc)" d="M277.986 144.655c-.69-5.753-6.846-5.926-10.7-3.337-1.783-4.43-7.594-6.213-10.873-1.956-4.774 6.27 2.647 13.231 5.408 18.409.23.403.863.69 1.323.518 4.89-1.956 15.648-6.846 14.842-13.634z"/></g><g opacity=".2"><path fill="url(#87bwd)" d="M76.895 66.599c-2.686-1.963-5.168.554-5.59 3.186-2.558-.985-5.582.756-5.079 3.8.764 4.46 6.592 4.069 9.847 4.937.259.06.627-.092.735-.353 1.093-2.82 3.252-9.25.087-11.57z"/></g><g opacity=".2"><g opacity=".2"><g opacity=".2"><path fill="url(#87bwe)" d="M158.093 87.744c.46 1.496.806 4.832 1.956 5.983 1.15 1.15 4.43 1.553 5.926 2.013-.115-.69-.173-1.38-.288-2.128-1.323.92-4.315 2.243-5.12 3.682-.805 1.438-.115 4.717-.115 6.27.575-.345 1.15-.69 1.726-.978-1.208-.92-3.452-3.336-5.005-3.567-1.553-.23-4.43 1.324-5.868 1.841l1.438 1.439c.518-1.439 2.129-4.315 1.899-5.868-.23-1.554-2.59-3.797-3.51-5.063-.345.575-.69 1.15-.978 1.726 1.554.058 4.89.748 6.271-.057 1.438-.806 2.819-3.74 3.74-5.063.862-1.208-1.151-2.359-2.014-1.15-.575.747-1.093 1.553-1.668 2.3-.346.46-.748.921-1.036 1.439-.057.345-.863.863-.115.518.633-.288-1.726-.23-2.186-.23-.978 0-1.956-.058-2.992-.058-.805 0-1.495 1.035-.978 1.726.576.748 1.151 1.553 1.669 2.3.345.461.633 1.036 1.035 1.44.115.114.576 1.092.46.46-.115-.633-.23.402-.287.575-.23.46-.345 1.035-.518 1.553-.345.92-.633 1.84-.978 2.819-.287.805.633 1.668 1.438 1.438.92-.288 1.784-.575 2.704-.92.518-.173 1.15-.288 1.668-.576.23-.115 1.209-.172.576-.287-.288-.058 1.38 1.208 1.783 1.495.806.576 1.553 1.208 2.359 1.784.69.517 1.726-.173 1.726-.978v-2.877c0-.517.057-2.876-.23-2.3-.346.747.23-.058.517-.173.46-.23.92-.633 1.38-.92.806-.576 1.612-1.151 2.417-1.67.805-.574.69-1.783-.288-2.128-.92-.287-1.84-.575-2.703-.863-.518-.172-2.647-.978-2.244-.517.46.46-.345-1.669-.46-2.186-.288-.92-.575-1.899-.863-2.82-.403-1.495-2.646-.862-2.244.576z"/></g></g></g><g opacity=".2"><g opacity=".2"><g opacity=".2"><path fill="url(#87bwf)" d="M100.88 103.009c-4.43-3.51-12.77-5.408-13.404 2.53-.747 9.205 11.046 15.418 16.799 20.653.46.46 1.495.46 1.783-.23 3.394-7.881 10.01-18.926 6.098-27.67-4.487-9.953-11.333-1.209-13.174 5.177-.403 1.438 1.783 2.013 2.244.633.747-2.704 2.876-9.607 7.248-7.306 3.51 1.84 2.416 8.801 1.841 11.678-1.208 5.695-3.912 10.988-6.213 16.28.575-.057 1.208-.172 1.783-.23-3.796-3.509-8.169-6.385-11.793-10.182-2.186-2.301-5.58-6.213-4.2-9.78 1.669-4.43 6.846-1.956 9.378 0 1.15.978 2.761-.633 1.61-1.553z"/></g></g></g><g opacity=".2"><path fill="url(#87bwg)" d="M88.77 41.388c.224-.896-.482-1.584-1.266-1.816-.774-.12-1.747.113-1.97 1.009-.215.86.474 1.617 1.266 1.815.792.197 1.756-.148 1.97-1.008zm-.93-3.159c1.566.464 2.772 1.935 2.265 3.674-.455 1.532-2.176 2.274-3.657 1.905-1.515-.378-2.704-1.918-2.3-3.536.42-1.688 2.159-2.352 3.691-2.043zm62.21 13.5c1.22-2.549.289-5.56-2.363-6.66-5.442-3.113-11.194 4.852-5.847 8.49 2.531 1.728 6.834 1.045 8.21-1.83zm-1.658-7.875c3.478 1.453 4.505 5.695 2.682 8.898-1.865 3.229-6.676 4.041-9.767 2.21-3.091-1.832-3.8-6.031-1.89-8.993 1.934-3.066 5.901-3.868 8.975-2.115zm-50.393-.166c.223-.895-.483-1.583-1.267-1.815-.774-.12-1.747.113-1.97 1.008-.215.861.474 1.618 1.266 1.816.792.197 1.79-.14 1.97-1.009zm1.334.516c-.455 1.532-2.176 2.273-3.657 1.904-1.515-.377-2.703-1.917-2.3-3.536.42-1.687 2.159-2.35 3.691-2.042 1.567.464 2.807 1.944 2.266 3.674zm50.1 25.84c1.36-.319.92-.026 1.135-1.033 1.098-6.456-5.558-10.712-11.161-10.83-3.692.287-5.946 1.993-8.027 4.912-1.239 1.74-1.179 1.206-.128 2.419.457.516.965.972 1.55 1.41a15.558 15.558 0 0 1 3.715-4.78c.517-.456 1.283.284.767.74a15.499 15.499 0 0 0-3.603 4.625c3.048 1.857 7.265 2.69 10.33 2.868.903.042 1.885.068 2.849.015a15.8 15.8 0 0 0 .022-4.931c-.086-.68.981-.707 1.067-.027a18.04 18.04 0 0 1-.005 4.863c.49-.06.981-.121 1.489-.25zm1.709-6.12c.724 1.79 1.854 6.058-.116 7.213-1.11.637-3.4.578-4.587.648a24.535 24.535 0 0 1-8.195-1.02c-3.228-.987-6.611-2.672-8.989-5.166-.18-.155-.292-.439-.198-.671 1.555-4.77 5.263-7.758 10.272-8.192 4.837.109 9.916 2.473 11.813 7.188zm-28.336-2.822c4.217-.192 4.55-4.608 5.392-7.69.652-2.617 1.382-5.25 1.966-7.885.618-2.772.34-5.182-2.948-6.367-1.136-.43-2.445-.61-3.615-.902l-28.855-7.194c-3.581-.893-7.12-1.958-10.709-2.67-2.548-.489-4.717-.298-5.988 2.75-.568 1.394-.773 3.098-1.142 4.58-1.013 4.062-4.76 12.052.81 14.209 3.141 1.185 6.782 1.69 10.054 2.506 10.743 2.679 21.443 5.383 32.186 8.062.31.077.49.378.525.68.208 1.807.932 3.158 2.155 4.12-.431-1.058-.561-2.15-.528-3.459 0-.146.069-.275.13-.37a.6.6 0 0 1 .567-.37zm7.619-11.048c-1.116 4.476-1.43 11.603-6.844 12.338.07 1.48.588 2.926 1.45 4.165.352.49-.207 1.265-.775 1.05-1.954-.67-3.547-1.762-4.452-3.706-.215-.456-.285-1.937-.518-2.178-.232-.24-1.446-.36-1.756-.437l-10.089-2.516c-8.023-2-16.002-4.026-24.025-6.027-3.41-.85-8.668-1.173-10.048-5.028-.784-2.134.161-4.459.685-6.56l2.215-8.883c1.056-4.235 3.697-6.32 8.087-5.298 4.63 1.081 9.228 2.3 13.842 3.451 9.779 2.438 20.048 4.23 29.612 7.383 5.983 1.967 3.723 7.804 2.616 12.246zm-23.405-4.116c.223-.896-.483-1.584-1.266-1.816-.775-.12-1.747.113-1.97 1.009-.215.86.474 1.617 1.266 1.815.757.189 1.755-.148 1.97-1.008zm1.334.515c-.455 1.533-2.176 2.274-3.656 1.905-1.515-.378-2.704-1.918-2.3-3.536.42-1.688 2.158-2.351 3.69-2.043 1.567.464 2.773 1.935 2.266 3.674zm8.445 1.923c.223-.895-.483-1.584-1.266-1.815-.775-.12-1.747.113-1.97 1.008-.215.86.474 1.618 1.266 1.815.792.197 1.79-.139 1.97-1.008zm1.334.515c-.455 1.533-2.176 2.274-3.656 1.905-1.515-.378-2.704-1.918-2.3-3.536.42-1.687 2.158-2.351 3.69-2.042 1.567.463 2.808 1.943 2.266 3.673z"/></g><g opacity=".2"><path fill="url(#87bwh)" d="M29.162 10.083c-.514-.385-1.51-.739-1.736-1.35-.321-.835.965-1.446 1.575-1.446.868-.032 1.51.547 2.057 1.157.547.611 1.447-.289.9-.9-1.028-1.157-2.571-1.928-4.114-1.285-1.093.45-2.217 1.671-1.671 2.925.45 1.06 1.864 1.67 2.7 2.41.546.482 1.317.932 1.735 1.543.515.803.065 1.639-.932 1.864-.996.225-1.8-.482-2.378-1.157-.547-.61-1.446.29-.9.9 1.06 1.189 2.668 2.025 4.21 1.253 1.19-.578 2.057-1.864 1.382-3.15-.546-1.092-1.864-2.024-2.828-2.764zm-6.3.29a.61.61 0 0 0-.257.225 9.191 9.191 0 0 0-1.767-.29V7.416c.964.128 1.96.45 2.764.964.257.16.835.482.803.868-.032.546-1.157.932-1.543 1.125zm-2.056 1.221c1.189.097 3.117.418 3.085 1.64-.032 1.22-1.896 1.574-3.085 1.638zm4.146-3.792c-1.19-1.125-3.182-1.704-4.79-1.736-.224 0-.417.096-.514.257a.69.69 0 0 0-.128.386v8.87c0 .161.064.29.128.386.097.16.258.257.515.257 1.8-.032 4.981-.578 5.014-2.957 0-.932-.483-1.575-1.157-2.024 1.317-.772 2.378-2.09.932-3.44zm12.984 5.463c-.45 1.093-1.285 2.154-2.41 1.157-.868-.77-1.35-2.12-1.382-3.246-.032-1.157.418-2.507 1.317-3.278 1.19-1.06 2.025.096 2.54 1.221.321.772 1.414.097 1.124-.643-.707-1.67-2.25-3.02-4.017-1.896-1.543.964-2.314 3.086-2.186 4.821.097 1.672.932 3.632 2.475 4.468 1.864.996 3.182-.707 3.825-2.25.257-.771-.996-1.093-1.286-.354zM8.11 10.083c-.514-.385-1.51-.739-1.736-1.35-.32-.835.965-1.446 1.575-1.446.868-.032 1.511.547 2.057 1.157.547.611 1.447-.289.9-.9C9.878 6.387 8.335 5.616 6.792 6.26 5.7 6.709 4.575 7.93 5.121 9.184c.45 1.06 1.864 1.67 2.7 2.41.546.482 1.318.932 1.735 1.543.515.803.065 1.639-.932 1.864-.996.225-1.8-.482-2.378-1.157-.546-.61-1.446.29-.9.9 1.06 1.189 2.668 2.025 4.21 1.253 1.19-.578 2.057-1.864 1.382-3.15-.514-1.092-1.864-2.024-2.828-2.764zm8.742-3.374c.032 1.253.16 2.507.16 3.76 0 1.19.097 3.536-1.028 4.307-1.992 1.35-2.635-2.218-2.7-3.407-.064-1.543.161-3.085.193-4.628 0-.836-1.285-.836-1.285 0-.032 2.571-1.221 10.35 3.632 9.481 3.567-.643 2.378-7.07 2.346-9.481-.032-.868-1.318-.868-1.318-.032zm45.061.643c.836 0 .836-1.286 0-1.286h-4.339a.611.611 0 0 0-.418.16l-.064.065a.555.555 0 0 0-.16.418v8.87c0 .161.064.322.16.418l.064.065c.097.096.225.16.418.16h4.339c.836 0 .836-1.285 0-1.285h-3.696v-3.375h2.025c.835 0 .835-1.286 0-1.286h-2.025V7.352h3.696zm-20.377 0c1.125.064 3.021.353 2.99 1.446-.033 1.093-1.865 1.382-2.99 1.446zm2.443 3.664c.996-.386 1.8-1.093 1.8-2.218 0-2.314-3.247-2.732-4.918-2.764a.697.697 0 0 0-.45.16l-.064.065a.532.532 0 0 0-.16.385v8.871c0 .836 1.285.836 1.285 0V11.53c.385-.032.803-.064 1.221-.16.771 1.51 1.51 2.988 2.282 4.499.386.739 1.478.096 1.125-.643-.707-1.382-1.414-2.796-2.121-4.21zm9.256-.643a.61.61 0 0 0-.257.225 9.191 9.191 0 0 0-1.768-.29V7.416c.964.128 1.96.45 2.764.964.257.16.836.482.804.868 0 .546-1.157.932-1.543 1.125zm-2.025 1.221c1.19.097 3.118.418 3.086 1.64-.032 1.22-1.897 1.574-3.086 1.638zm4.146-3.792c-1.189-1.125-3.182-1.704-4.789-1.736-.225 0-.417.096-.514.257a.69.69 0 0 0-.128.386v8.87c0 .161.064.29.128.386.097.16.257.257.514.257 1.8-.032 4.982-.578 5.014-2.957 0-.932-.482-1.575-1.157-2.024 1.318-.772 2.379-2.09.932-3.44zm-8.099-1.093v8.87c0 .836 1.286.836 1.286 0V6.71c0-.836-1.286-.836-1.286 0zM65.32 19.693c-.322 2.7-2.507 2.443-4.564 2.443H19.648c-.032-1.703-.417-3.31-2.089-3.953-.032 0-.064-.032-.096-.032-.129-.032-.225-.032-.321-.032-2.282 0-2.507 2.314-2.443 4.37-.097-.192-.257-.353-.547-.353-3.31 0-7.295.61-10.574 0-2.86-.546-2.25-3.567-2.25-5.753V7.609c0-2.25-.674-5.496 2.25-6.043 2.282-.418 5.014 0 7.328 0h48.66c2.861 0 5.593-.45 5.754 3.31.193 4.758.546 10.093 0 14.817zm-1.8 5.754a3.11 3.11 0 0 1-1.028.61V23.39c.867-.033 1.735-.129 2.442-.579-.257 1.06-.707 1.96-1.414 2.636zm-1.703.803c-.643.096-1.318.096-1.993.064v-2.892h.932c.353 0 .707 0 1.093.032v2.796zm-2.636.032H57.381c-.032-.964-.096-1.896-.128-2.86h1.928zm-4.403 0v-2.86h1.864c.032.964.096 1.896.129 2.86zm-.643 0h-2.218c-.096-.964-.16-1.896-.128-2.86h2.346zm-4.917 0c.064-.964.096-1.896.16-2.86h1.736c-.032.964.032 1.896.128 2.86zm-2.315 0c.033-.964.033-1.896.065-2.86h1.767c-.032.964-.096 1.896-.16 2.86zm-2.506 0l.096-2.86h1.832c-.032.964-.032 1.896-.064 2.86zm-2.7 0c.032-.964.032-1.896.064-2.86h2.121a85.099 85.099 0 0 0-.128 2.86zm-2.7 0v-2.86h2.121c-.032.964-.064 1.896-.064 2.86zm-.643 0h-2.282c-.032-.964 0-1.928.16-2.86h2.122zm-5.882 0c.033-.032.033-.096.065-.16.032-.9.064-1.8.128-2.7h2.957a10.64 10.64 0 0 0-.193 2.86zm-.578 0h-1.832l.096-2.86h1.832c-.032.9-.064 1.8-.128 2.7 0 .064 0 .128.032.16zm-2.475 0h-1.993v-2.86h2.09l-.097 2.86zm-2.635 0h-2.507l.096-2.86h2.41zm-3.182 0H22.22a.584.584 0 0 0-.45.193 1.594 1.594 0 0 0-.643-.257v-2.764h2.571c0 .932-.032 1.864-.096 2.828zm-4.082-.643c0-.675.064-1.446.096-2.217h.868v2.7c-.321 0-.675.064-.964.224zm3.439 10.189v-4.34c0-.353 0-.706.032-1.06.032-.064.032-.128.064-.193.032-.867 1.125-.996 1.704-.514.289.322.385.804.418 1.318-.033.129-.065.29-.065.418s.032.225.065.29c-.033.481-.065.963-.065 1.317v2.764c0 .836 1.286.836 1.286 0V31.36c.064-.835.932-1.221 1.64-.867 1.092 1.317.513 4.178.513 5.753 0 1.542.225 3.246-.128 4.756-.322 1.383-.932 3.825-2.314 4.275-1.51.482-4.018 0-5.56 0-1.126 0-3.665.482-4.597-.321-1.028-.9-1.639-3.729-2.217-4.982-.482-1.093-.932-2.121-1.575-3.15-.836-1.382-3.954-4.564-1.704-6.042 1.414-.354 2.025 1.06 2.7 2.057.546.803 1.093 1.639 1.607 2.443v.578c0 .836 1.286.836 1.286 0v-8.035c0-1.093-.836-8.26 1.125-8.42 2.089.867 1.06 7.102 1.06 8.741v7.682c0 .836 1.286.836 1.286 0v-7.746c0-.032.032-.032.032-.064.386-.74 1.382-.932 1.896-.225.29.578.322 1.35.322 2.089 0 .096-.032.193-.032.29 0 .031 0 .063.032.096-.032.642-.097 1.285-.097 1.832v3.696c0 .868 1.286.868 1.286.032zm-9.964-9.546a85.125 85.125 0 0 0-.128-2.86h1.285c.29 0 .483-.161.579-.386.032.546.064 1.029.064 1.414v1.832zm-2.57 0c.031-.964 0-1.896-.065-2.86h1.896c.032.964.064 1.896.129 2.86zm-2.219 0l-.096-2.86h1.607c.097.964.097 1.896.064 2.86H8.206zm-2.25-2.892h1.511l.097 2.892a13.23 13.23 0 0 1-1.64.097c0-.997.033-1.993.033-2.99zm-.674 2.989zm-1.704-.258V23.39c.45.032.9 0 1.318 0h.418c0 1.028 0 2.024-.032 2.989-.611-.033-1.19-.097-1.704-.258zm-.643-.257c-.289-.192-.546-.417-.739-.739-.418-.675-.61-1.543-.739-2.41.096.064.193.128.321.225.354.225.772.321 1.157.385zm63.67-8.71V7.61c0-3.504.258-7.168-4.242-7.328-10.928-.386-21.952 0-32.88 0H10.906C8.4.28 4.703-.394 2.293.538c-2.41.964-2.25 3.375-2.25 5.528v10.8c0 .931-.097 1.96 0 2.956v.064c.032 2.09.128 5.014 1.478 6.685.932 1.125 1.96.997 3.375.997h9.867v5.335c-.321-.514-.675-1.028-.996-1.51-.868-1.318-1.929-2.379-3.632-1.897h-.032c-.032 0-.032 0-.065.032-.032 0-.032.033-.032.033-.032 0-.064.032-.096.032-4.082 2.539 1.028 7.07 2.314 9.995.771 1.768 1.478 4.757 2.764 6.171 1.157 1.286 3.44.772 4.982.772 2.057 0 4.467.353 6.492 0 2.09-.386 2.636-3.118 3.118-4.918.546-1.928.29-4.05.29-6.042 0-1.993.481-4.371-.869-5.978v-.032c-.032-.033-.032-.065-.064-.065-.032-.032-.064-.064-.096-.064 0 0 0-.032-.033-.032h-.032c-.032-.032-.064-.032-.096-.064-.868-.45-1.832-.354-2.54.16a2.078 2.078 0 0 0-.288-.514c-.033-.096-.097-.16-.161-.225a.977.977 0 0 0-.225-.16c-.772-.515-1.736-.58-2.507-.226a3.264 3.264 0 0 0-.193-.803H54.36c2.764 0 7.167 1.028 9.578-.74 2.121-1.574 2.603-4.5 2.7-6.942v-.064c.032-.868-.033-1.8-.033-2.668z"/></g><g opacity=".2"><path fill="url(#87bwi)" d="M247.14 40.22c.518-1.093.863-2.301 1.093-3.51.115-.747 1.208-.46 1.093.288-.172 1.323-.633 2.589-1.208 3.797-.345.633-1.323.057-.978-.575zm9.205 18.294c-1.439-2.417-5.235-1.899-7.48-1.899-3.911 0-7.823.115-11.735.288a.878.878 0 0 1-.863-.345c-.402-.23-.575-.69-.402-1.209 1.84-5.12 2.991-10.815 2.128-16.222-.46-2.704-4.314-10.125-7.766-5.063l.057.058c1.208 1.726 2.071 4.257 1.324 6.328-.518 1.323-1.784 2.128-3.05 1.898-.46 2.762-1.438 5.465-3.681 7.306-2.589 2.129-6.558 2.244-8.17 5.465-.057.173-.172.288-.287.403.806 8.86.863 17.661.115 26.463 2.704 5.235 8.457 5.58 13.75 5.638 3.911.057 12.828.92 13-4.66 0-.23.116-.46.23-.633 0-.057.058-.115.116-.172.172-.173.403-.288.748-.288 2.934-.058 5.235-3.107 3.164-5.695 0-.058-.058-.058-.058-.115-.057 0-.057-.058-.057-.058-.058-.115-.115-.173-.115-.288-.173-.46-.058-1.035.46-1.323.172-.115.345-.172.518-.23 3.451-1.15 4.717-4.717 2.07-7.536-.632-.69-.23-2.014.806-1.956 3.222.173 7.306-2.416 5.178-6.155zM228.73 41.313c1.553.517 2.071-1.784 1.956-2.992-.115-1.093-.518-2.128-1.093-3.049-.057.173-.173.288-.23.46-.69 1.496-.518 3.74-.633 5.58zm-13.922 25.83h-13.461v2.416c4.487 0 8.974-.058 13.461-.058v-2.358zm-.057 5.465c0-.633.057-1.323.057-1.956l-13.461.057v2.129c4.487-.058 8.917-.173 13.404-.23zm-.058 1.15c-4.43.058-8.917.173-13.346.23.057.748.115 1.554.172 2.36 4.315.287 8.687.344 13.06.287.057-.978.114-1.899.114-2.877zm-.287 6.213c.057-.747.057-1.438.115-2.128-4.315.057-8.63-.058-12.944-.288.057.92.057 1.899 0 2.762 4.257-.115 8.572-.23 12.829-.346zm-.345 3.912c.115-.92.172-1.84.23-2.761-4.257.115-8.572.23-12.887.345 0 .115-.057.173-.057.288-.575 2.128-1.438 1.553.057 2.128 2.186.806 6.156 0 8.457 0h4.2zm-13.002-27.44c4.487.115 8.975.172 13.462.23.172-.978.402-1.381-.288-1.669-1.093-.517-12.253-.748-13.75-.115.174 0 .404.69.576 1.554zm4.2 4.544zm0 0a17.705 17.705 0 0 0-3.912-.115v2.129a41.785 41.785 0 0 1 3.797 0c-.058-.173-.115-.345-.115-.518-.058-.518.057-.978.23-1.496zm3.566 2.647c.863-.403 1.726-1.266 1.439-2.187-.23-1.208-1.439-1.208-2.417-1.208-.057 0-.115-.057-.172-.057-2.071 0-2.071 4.832 1.15 3.452zm2.59-2.187c0 .633-.173 1.209-.461 1.726h3.567c-.058-.633-.058-1.323-.115-1.956-.978-.057-2.014-.057-2.992-.057.058.115.058.23 0 .287zm2.933-1.38c0-.748 0-1.496-.057-2.301l-13.174-.23c.115.978.172 1.84.172 1.898v.173c1.496-.058 2.934.057 4.43.23.057.057.057.057.115.057.518-.633 1.208-1.035 2.013-.92.058 0 .058.057.116.057 1.093 0 2.243.23 2.876.978 1.208 0 2.359.058 3.51.058zm.403 5.983c0-.576-.058-1.15-.058-1.669h-4.832c-.46.288-.92.46-1.438.576-1.036.172-2.014-.115-2.647-.806-1.495-.172-2.933-.172-4.43-.057v1.956h13.405zm43.721-8.227c2.129 4.372-1.093 8.17-5.235 8.975 1.841 3.451.403 7.363-3.222 9.146 1.554 3.51-.69 7.48-4.602 8.112-.863 5.58-7.306 5.925-12.08 5.925-6.041 0-13.175.288-17.259-4.43-.173.346-.46.633-.978.633h-14.9c-.633 0-1.15-.517-1.15-1.15v-31.18c0-.633.517-1.15 1.15-1.15h14.9c.173 0 .345.057.46.114.978-1.208 2.301-1.956 3.797-2.704 3.854-1.956 6.213-3.739 6.961-8.284.633-4.084-.058-10.01 5.177-11.16 4.603-1.036 7.594 3.107 8.572 7.018 1.323 5.466.288 11.621-1.496 16.971 4.66-.23 9.435-.575 14.037-.23 2.474.173 4.718 1.036 5.868 3.394zm-8.63-15.59c1.382-.863 2.877-1.553 4.373-2.186.69-.288.978.805.288 1.093-1.439.575-2.762 1.266-4.085 2.071-.633.403-1.208-.575-.575-.978zm5.178 3.912c.69-.115 1.036.978.288 1.093-1.15.173-2.301.173-3.452-.057-.747-.116-.46-1.209.288-1.094.92.173 1.898.23 2.876.058z"/></g></g><g><g opacity=".2"><path fill="url(#87bwj)" d="M293.346 104.443c.94.626 1.977 1.137 3.173 1.564 1.323.441 1.52.622 1.304 2.13 0 .103-.028.18-.06.27l-.027.077c-1.604-1.013-3.082-2.372-4.39-4.04v-.001zm16.593 1.906c.173 0 .343.003.507.006h.045l.03.001h.005c.153.003.334.006.513.006.15 0 .276-.002.387-.007 3.547-.124 7.126-.29 10.587-.45h.003l.58-.028c-.117 1.05-.174 2.23-.174 3.607a125.563 125.563 0 0 1-12.083.478l-1.211-1.97-.875-1.42c.517-.197 1.142-.223 1.684-.223zm-8.537-63.066l.084-.002h.006c.38-.01.774-.02 1.155-.033l.713-.028h.008l.125-.005h.008c6.322-.246 12.86-.501 19.269-.793l1.67-.066H324.46c19.779-.788 40.23-1.602 60.546-2.454 3.926-.159 7.923-.369 11.79-.572h.003l.035-.002c7.806-.409 15.878-.832 23.767-.86 6.948 0 12.113 5.04 12.56 12.256.166 2.762.257 5.53.344 8.208v.005l.005.133c.026.796.056 1.697.087 2.563.115 2.856.247 5.753.374 8.556l.004.082v.01c.256 5.617.52 11.426.665 17.125.091 4.195-1.463 6.685-3.999 9.344-.044.043-.044.043-.044.087-1.415-.52-2.833-.783-4.215-.783-6.17-.078-12.913-.116-20.613-.116-6.88 0-13.855.03-20.6.058h-.038c-6.743.029-13.715.058-20.595.058h-28.772l-.655-.001-.65-.002c-2.252 0-4.445.093-6.519 1.22-1.515.831-2.674 1.876-3.541 3.195-.76 1.154-1.279 2.498-1.587 4.107-3.634.152-9.306.388-15.69.652-.323 0-.567.192-.608.478-1.691 6.245-6.37 10.697-12.516 11.909a19.47 19.47 0 0 0 3.753-5.34 19.61 19.61 0 0 0 1.766-6.352c.045-.272-.23-.567-.478-.608-6.139-1.138-9.973-5.948-10.257-12.865-.09-2.046-.17-4.107-.239-5.925l-.002-.046c-.074-1.92-.15-3.905-.238-5.894a762.867 762.867 0 0 0-.378-7.699v-.017l-.001-.005c-.29-5.529-.59-11.247-.62-16.878-.044-6.873 4.837-12.173 11.605-12.604.83-.058 1.666-.077 2.475-.096h.013zm5.852 64.115l.006.01.002.002c.637 1.02 1.297 2.076 1.905 3.16v.175c-1.412 3.096-3.032 6.258-5.911 7.91a8.95 8.95 0 0 1-4.542 1.2c-1.464 0-2.974-.34-4.368-.983 5.036-1.044 9.142-3.96 11.56-8.214.22-.399.4-.915.59-1.463.22-.639.45-1.299.758-1.797zm123.084 40.897c-.268-.652-.49-1.411-.695-2.39 2.272-.649 4.114-1.906 5.476-3.737-.929 3.148-2.493 5.152-4.78 6.127zm-102.744-3.693zm0 0c1.34.724 2.91 1.226 4.8 1.535 1.533.25 3.294.372 5.383.372 1.62 0 3.224-.07 4.775-.137h.017c1.399-.062 2.72-.12 3.93-.12 14.3.044 28.816.044 42.854.044 6.795 0 13.821 0 20.731.044h8.215c.287 0 .62-.026.973-.053l.009-.001.013-.001c.388-.03.79-.061 1.172-.061.416 0 .746.038 1.006.116.06.015.11.03.15.042l.014.004.002.001.005.002a.617.617 0 0 0 .176.038c-.525.77-.895 1.623-1.13 2.608-.016 0-.034-.007-.054-.015l-.003-.002c-.027-.011-.064-.027-.116-.027-8.465.174-17.048.34-25.349.499h-.032l-.024.001-1.01.02h-.035c-7.975.154-16.222.313-24.315.48h-.052c-4.293.095-8.732.193-13.107.193-3.893 0-7.35-.078-10.57-.237-5.559-.278-13.959-.698-18.428-5.345zm9.953.304c-.53 0-1.078.014-1.61.027h-.003c-.497.012-1.116.028-1.706.028-1.096 0-2.525-.046-3.853-.403-2.558-.709-4.32-2.116-5.389-4.303-.085-.256-.173-.52-.217-.826-.046-.186-.137-.306-.26-.347-.826-2.478-.826-5.372-.826-8.17v-16.69c0-.79-.03-1.615-.063-2.49v-.016l-.001-.012c-.123-3.332-.263-7.109 1.324-9.869 2.302-4.006 6.575-4.52 10.04-4.52h86.272c.585 0 1.175-.005 1.746-.009h.116l.005-.001h.101l.012-.001c.565-.004 1.15-.009 1.725-.009.693 0 1.3.007 1.858.02 6.825.23 9.257 5.831 9.257 10.996 0 3.042.049 6.123.096 9.104v.037c.096 5.99.194 12.182-.096 18.24-.223 4.684-2.985 8.112-7.388 9.17a.561.561 0 0 0-.435.652v.13a15.35 15.35 0 0 0 1.483 4.608 14.796 14.796 0 0 0 2.82 3.824c-4.333-.866-7.62-3.707-9.258-7.997 0-.063-.023-.104-.053-.156l-.01-.016-.024-.045a2.77 2.77 0 0 0-.063-.169l-.001-.005-.002-.004a2.327 2.327 0 0 1-.064-.17c-.09-.268-.357-.478-.608-.478-23.835 0-47.938-.044-71.247-.086h-.161c-4.423 0-8.997 0-13.517-.044zm85.055 2.781l.072.139.066.126c.474.912.922 1.774 1.557 2.647a12.559 12.559 0 0 0 4.216 3.472c1.58.806 3.349 1.305 5.258 1.483a7.149 7.149 0 0 1-1.13 1.434c-4.37-1.18-8.081-3.735-10.734-7.389.2-.75.427-1.376.695-1.912zm9.79 10.536c.107 0 .201-.03.293-.061a.723.723 0 0 0 .27.057.598.598 0 0 0 .382-.144c.82-.656 1.448-1.533 1.87-2.608a.517.517 0 0 0-.044-.435.5.5 0 0 0-.175-.521c-1.806-1.377-3.21-3.074-4.172-5.042 2.087-.925 3.626-2.531 4.705-4.91.978-2.158 1.444-4.682 1.771-6.868.04-.243-.028-.423-.217-.565.175-1.009.26-2.018.26-3.086v-17.08c.013-1.125.067-2.292.12-3.42v-.008c.138-3.005.282-6.113-.25-8.959a9.972 9.972 0 0 0-1.89-4.303 10.194 10.194 0 0 0-3.456-2.868c2.582-2.748 4.174-5.307 4.129-9.562 0-.615-.04-1.257-.077-1.823v-.004a53.637 53.637 0 0 1-.053-.911c-.106-2.413-.205-4.92-.292-7.13l-.013-.336-.001-.036-.002-.033a1736.87 1736.87 0 0 0-.3-7.373l-.128-3.12-.154-3.746-.12-2.952-.25-6.088c-.012-.332-.023-.679-.032-.985v-.018l-.003-.054v-.005c-.047-1.59-.097-3.235-.35-4.82-.283-1.77-.797-3.273-1.572-4.593-1.492-2.581-3.497-4.332-6.13-5.352-2.073-.801-4.491-1.159-7.842-1.159-1.11 0-2.234.038-3.282.079-3.945.149-7.866.306-12.216.48l-.495.02c-3.795.153-7.72.31-11.584.456l-67.8 2.738c-3.71.157-7.445.303-10.741.432h-.01l-.193.008-.02.001a3598.8 3598.8 0 0 0-10.637.429c-.279.009-.562.016-.806.022-1.057.027-2.149.056-3.192.195a12.996 12.996 0 0 0-8.47 4.585c-2.12 2.526-3.264 5.775-3.222 9.149.059 5.777.354 11.644.64 17.317v.014l.001.03.003.044v.014c.14 2.783.285 5.66.4 8.484.036 1.033.05 2.085.066 3.198v.018l.001.067v.022c.057 4.108.116 8.356 1.236 12.124v.304c.763 2.512 1.943 4.93 3.412 6.992 1.615 2.267 3.508 4.038 5.628 5.264a28.72 28.72 0 0 1-1 2.347c-1.102 2.165-2.74 4.154-4.867 5.911-.223.179-.225.461-.154.667.082.231.296.465.59.465.013 0 .028 0 .042-.002.085 0 .173 0 .217-.043 1.916 1.304 4.126 1.993 6.39 1.993 1.5 0 2.948-.305 4.302-.907 1.72-.771 3.204-2.015 4.536-3.802 1.239-1.663 2.181-3.581 2.94-5.238.485.006.975.009 1.457.009 3.72 0 7.28-.164 10.58-.487v17.255c0 .818-.03 1.666-.062 2.564v.006l-.002.044v.013c-.064 1.722-.13 3.502.014 5.233.162 1.96.577 3.54 1.268 4.83.129.258.26.476.386.687l.005.009c.992 2.57 2.816 4.687 5.422 6.29 2.212 1.362 5.012 2.342 8.095 2.837 5.779.919 11.626 1.036 16.075 1.036 2.462 0 4.95-.042 7.355-.083l.07-.001.49-.008h.042c.617-.011 1.247-.022 1.87-.031 14.161-.227 28.54-.53 42.446-.824l.235-.005.997-.021c4.367-.092 8.882-.188 13.39-.28.043 0 .088-.012.129-.022l.008-.002c.039-.01.08-.02.122-.02a20.736 20.736 0 0 0 5.037 4.993 21.132 21.132 0 0 0 6.438 3.004.566.566 0 0 0 .142.018z"/></g><g><path fill="url(#87bwk)" d="M371.039 53.114c-.022.044-.033.077-.044.109a.743.743 0 0 1-.043.108c-.043.043-.088.087-.088.13l.348-.347zm1.336 6.884c-1.001 0-1.87-.231-2.51-.669-1.07-.72-1.54-1.793-1.396-3.189.145-1.412.883-2.747 1.31-3.417a.63.63 0 0 1 .564-.304c0-.154.059-.271.174-.348.93-.76 2.056-1.18 3.173-1.18 1.208 0 2.334.497 3.172 1.397a4.276 4.276 0 0 1 1.157 2.983 4.542 4.542 0 0 1-1.157 3.015c-.94 1.024-2.744 1.712-4.487 1.712zm41.82-11.926c-.086 0-.13 0-.13.044.014.013.027.03.041.049.033.042.073.095.133.125v-.218zm-2.52 39.203c.022.087.033.176.044.262.01.085.022.173.043.26h.002c.217 0 .437-.044.649-.087a4.394 4.394 0 0 0-.174-.083c-.203-.094-.395-.183-.564-.352zm-.422 1.92c-.288 0-.632-.138-.708-.442a518.62 518.62 0 0 1-4.172-40.028c0-.25.204-.564.478-.61l6.954-1.26c.065-.01.125-.016.18-.016a.51.51 0 0 1 .385.147.745.745 0 0 1 .58-.266.62.62 0 0 1 .454.179c.102.108.15.259.14.435-.315 7.184-.242 14.189.216 20.818.13 1.868.308 3.815.479 5.65l.054.574c.07.784.122 1.35.369 1.705.252.362.7.51 1.55.51.103 0 .214-.003.33-.007 2.31-.09 4.694-.454 6.999-.807 1.028-.157 2.091-.32 3.128-.454a.536.536 0 0 1 .059-.003c.366 0 .555.392.593.655.218 1.592.427 3.202.63 4.758.203 1.56.413 3.173.63 4.76.02.094-.017.216-.1.336-.1.146-.246.25-.378.273-3.127.52-6.295 1.04-9.358 1.541l-.008.002c-3.065.502-6.235 1.02-9.366 1.542a.823.823 0 0 1-.118.009zm-26.567-27.041c-.449.448-.818.875-1.13 1.304h.008c.084 0 .158-.011.23-.022.075-.01.153-.022.24-.022.188-.47.407-.894.652-1.26zm15.733 1.826zm0 0c.043.173.043.35.043.521.31.222.573.443.826.696a20.741 20.741 0 0 0-.869-1.217zm-4.347 9.126a.697.697 0 0 1-.173.305c.044.044.131.087.216.13a2.072 2.072 0 0 1-.043-.505zm-.565 8.084zm-.043.522a1.16 1.16 0 0 0 .11-.131c.031-.043.064-.087.107-.13a.913.913 0 0 1-.174-.26c-.043.217-.043.393-.043.521zm-2.553-2.516c-.72 0-1.738.157-2.489.908a2.431 2.431 0 0 0-.69 1.727c.013.514.207.954.56 1.272.345.332.789.507 1.282.507.915 0 1.912-.597 2.369-1.42.476-.913.326-2.046-.391-2.955a5.454 5.454 0 0 0-.64-.04zm-7.834-3.134c-1.839 2.308-2.537 5.767-1.739 8.606.03.213.104.405.175.591.03.08.06.156.086.234-.436-1.48-.523-3.162-.26-4.998a9.731 9.731 0 0 1 1.738-4.433zm13.256 11.126zm-.753.586c-.183.133-.372.27-.551.414.24-.093.483-.178.717-.26.327-.115.634-.224.934-.349l-.009-.008c-.118-.118-.252-.253-.338-.383-.23.205-.485.39-.753.586zm4.507 4.291a.676.676 0 0 1-.451-.183c-.128-.127-.268-.262-.417-.404-.772-.74-1.733-1.662-2.06-2.682-2.532 1.036-5.484 2.14-8.47 2.14-1.292 0-2.474-.202-3.613-.619-3.02-1.081-4.969-3.41-5.346-6.389-.24-1.74-.04-3.67.56-5.432.64-1.88 1.679-3.444 3.004-4.52 1.685-1.364 3.814-2.027 6.51-2.027.944 0 1.956.08 3.095.245.168-1.908-.29-3.618-1.26-4.69-.769-.851-1.822-1.291-3.13-1.308-1.555.33-2.52 1.43-2.52 2.869 0 .348-.318.654-.68.654a.615.615 0 0 1-.32-.09c-1.041-.64-2.12-1.276-3.162-1.892-.657-.388-1.337-.79-2.01-1.193a.844.844 0 0 1-.082.004c-.254 0-.49-.11-.6-.281-.085-.134-.09-.293-.014-.462.708-2.345 2.11-4.295 4.055-5.639 1.834-1.267 4.038-1.937 6.374-1.937 2.315 0 4.585.666 6.565 1.926 3.321 2.117 5.652 5.59 6.563 9.779.396 1.94.495 4.044.304 6.432-.04.474-.101.96-.166 1.476-.35 2.766-.744 5.899 2.383 7.26.157.07.263.215.299.41.043.234-.025.489-.17.633-.516.493-.928 1.063-1.326 1.615-.304.422-.618.858-.976 1.254-.233.28-.54.56-.864.858-.584.536-1.188 1.091-1.44 1.706-.108.296-.357.487-.635.487zM370.955 67.26c.04.21.04.424.04.631v-.565c0-.021-.011-.033-.022-.043a.078.078 0 0 1-.018-.023zm-3.915 2.37c-.043.043-.043.087-.043.13-.031.185-.106.348-.178.505-.03.066-.058.127-.083.19.221-.221.304-.445.304-.825zm2 12.647a.942.942 0 0 0 .065.11c.02.031.043.064.064.107 0-.021.011-.055.022-.087a.339.339 0 0 0 .022-.087l-.174-.043zm-17.69 2c.294.837.726 1.717 1.217 2.476.022-.065.033-.131.043-.195.011-.064.022-.13.044-.196-.591-.751-1.005-1.414-1.304-2.085zm20.384-4.65c.086 1.298.163 2.627.238 3.912.075 1.299.152 2.642.24 3.953.243-1.838.019-3.998-.198-6.087-.054-.528-.106-1.027-.15-1.519l-.13-.26zm-8.953 10.039c.216-.087.393-.175.608-.305m8.486 4.103c-.36 0-.626-.252-.663-.626-.224-3.592-.446-7.178-.652-10.518a16.996 16.996 0 0 1-1.726 3.58 14.514 14.514 0 0 1-2.517 2.998 11.367 11.367 0 0 1-3.213 2.059 9.864 9.864 0 0 1-3.814.765c-.567 0-1.147-.049-1.725-.144-5.307-.907-8.334-5.937-8.997-14.951a19.229 19.229 0 0 1 .24-4.652c.288-1.635.776-3.148 1.45-4.497 1.546-3.093 3.968-5.084 7.003-5.758a9.29 9.29 0 0 1 2.032-.23c2.428 0 4.707 1.001 6.417 2.82 1.689 1.794 2.64 4.178 2.677 6.71 0 .252-.21.52-.478.609l-3.26 1.108-3.259 1.108a.689.689 0 0 1-.444.156c-.234 0-.514-.12-.6-.46-.25-1.044-.593-2.474-1.825-2.738-2.392.33-2.66 4.117-2.607 6.345.05 2.277.605 4.178 1.651 5.65.786.725 1.538 1.092 2.233 1.092 1.99 0 3.097-3.046 3.46-4.047a.653.653 0 0 1 .783-.434c1.021.304 2.07.602 3.085.89l.005.002c1.014.288 2.062.586 3.082.89.13.043.218.131.304.217l-1.174-19.036c0-.355.176-.56.522-.61.021 0 .043-.01.065-.02a.157.157 0 0 1 .065-.022 5779.974 5779.974 0 0 0 7.519-.652.48.48 0 0 1 .06-.004c.31 0 .592.313.592.656l1.608 29.814c0 .25-.204.563-.478.609-1.223.218-2.446.439-3.629.652-1.185.213-2.41.434-3.63.652a.828.828 0 0 1-.162.017zm-31.13-10.056zm0 0c-.043.347-.131.656-.217.955.161-.12.3-.216.478-.26-.096-.162-.144-.319-.2-.5-.018-.063-.038-.128-.06-.195zm-4.749-13.054c-.301 0-.62.078-.944.232-2.527 1.884-2.738 4.984-2.738 7.997.016 1.124.296 3.024 1.034 4.679.564 1.266 1.58 2.776 3.211 2.776.667 0 1.388-.256 2.144-.762.664-.838 1.04-3.05.98-5.775-.063-2.83-.581-5.514-1.387-7.18-.63-1.305-1.404-1.967-2.3-1.967zm-7.376 19.399a9.307 9.307 0 0 0 1.999 1.912c-.022-.066-.044-.143-.065-.218a5.553 5.553 0 0 0-.066-.217c-.609-.342-1.202-.812-1.868-1.477zm6.66 4.615c-1.781 0-3.404-.43-4.825-1.28-1.291-.772-2.423-1.892-3.364-3.331-1.634-2.498-2.68-5.972-2.948-9.784-.132-1.917-.168-4.828.409-7.8.577-2.974 1.63-5.296 3.13-6.902 1.61-1.725 3.73-2.6 6.3-2.6.11 0 .219.001.331.005a10.15 10.15 0 0 1 1.741-.157c1.6 0 3.08.423 4.4 1.257 1.185.75 2.246 1.832 3.153 3.22 2.091 3.197 2.78 7.025 3.006 9.023.177 1.617.4 4.047.282 6.465-.122 2.51-.597 4.62-1.412 6.269a8.612 8.612 0 0 1-1.494 2.127 10.124 10.124 0 0 1-2.016 1.621c-1.427.882-3.114 1.48-4.878 1.728-.62.092-1.23.139-1.816.139zm-35.432-31.474c.123.534.328 1.09.608 1.65a7.442 7.442 0 0 1-.347-1.173v-.13c-.103-.103-.153-.18-.21-.27a5.122 5.122 0 0 0-.051-.077zm9.3 4.39l.392.39c.043.065.087.12.13.173.043.054.087.11.13.175l.576.392c.38.256.773.52 1.12.781.256.043.521.087.782.174-1.056-.592-2.166-1.255-3.13-2.086zm-5.171 1.955l.166.155c.611.57 1.243 1.16 1.92 1.757v-.13a70.364 70.364 0 0 1-.26-.261l-.198-.158c-.576-.46-1.12-.894-1.628-1.363zm4.564 4.085c.173.13.347.304.477.478v-.13c-.128-.086-.303-.217-.471-.343zm-2.826 12.126c.043.386.17.73.348 1.13.015.015.035.03.054.045a.909.909 0 0 1 .035.026c-.109-.163-.187-.36-.263-.55a3.68 3.68 0 0 1-.174-.65zm-4.172 7.389c.529.48 1.1.901 1.651 1.216.091.091.18.133.304.174a.228.228 0 0 1-.043-.065c-.01-.022-.022-.044-.043-.065a9.396 9.396 0 0 1-1.869-1.26zm5.433 2.65v.001c.543.09 1.097.136 1.646.136 1.209 0 2.44-.221 3.656-.658a15.233 15.233 0 0 1-4.136.563c-.385 0-.777-.014-1.166-.041zm1.626 1.306c-1.477 0-2.905-.25-4.243-.744a11.405 11.405 0 0 1-3.772-2.3 10.39 10.39 0 0 1-2.653-3.763c-.54-1.317-.81-2.766-.808-4.305.005-2.813.941-5.875 2.635-8.622a.75.75 0 0 1 .591-.327c.052 0 .102.008.148.023 1.13.429 2.274.872 3.381 1.3l.006.003c1.351.523 2.747 1.063 4.088 1.566.23.115.385.316.435.565.153.203.153.423 0 .652-.802 1.131-1.521 2.255-1.521 3.564 0 1.568.935 2.664 2.275 2.664.177 0 .362-.019.55-.056 1.053-.414 1.786-1.162 2.177-2.225.727-1.972.128-4.582-.787-6.294-.95-1.859-2.483-3.396-3.998-4.78-.564-.511-1.15-1.016-1.715-1.505-1.748-1.508-3.556-3.067-4.935-4.972a11.873 11.873 0 0 1-2.244-7.415c.095-2.635 1.02-5.165 2.679-7.319a11.943 11.943 0 0 1 4.009-3.31c1.575-.801 3.293-1.224 4.969-1.224a9.58 9.58 0 0 1 4.582 1.145 10.815 10.815 0 0 1 3.201 2.603c.818.975 1.514 2.139 2.069 3.46.925 2.204 1.476 4.827 1.684 8.018a.515.515 0 0 1-.12.414.65.65 0 0 1-.489.195.392.392 0 0 1-.304.13l-3.89.394a5056.581 5056.581 0 0 0-3.945.397.46.46 0 0 1-.422-.27.657.657 0 0 1-.525-.24c-.078-.103-.156-.28-.084-.541.64-2.505.625-4.2-.048-5.18-.353-.516-.893-.82-1.604-.905-1.605.277-2.553 1.007-2.818 2.169-.244 1.068.12 2.51 1.023 4.057.746 1.279 1.81 2.52 2.708 3.161 1.072.79 2.274 1.426 3.437 2.041.63.334 1.283.679 1.909 1.045 2.998 1.77 4.835 3.842 5.78 6.52.531 1.444.814 2.994.842 4.607a15.93 15.93 0 0 1-.63 4.672c-.893 3.107-2.682 5.893-5.036 7.845a13.67 13.67 0 0 1-4.07 2.296c-1.47.525-2.99.791-4.517.791zm96.682 4.863c-.59 0-1.175.211-1.693.612-.129.086-.216.13-.347.173-.557.834-1.273 2.058-1.065 3.044.089.426.345.776.76 1.042.37.246.887.376 1.497.376.93 0 1.935-.308 2.502-.767.903-.732 1.224-1.71.879-2.683-.369-1.041-1.434-1.797-2.533-1.797zm-.89 6.545c-.987 0-1.86-.255-2.454-.718-.864-.667-1.216-1.61-1.049-2.803.176-1.25.869-2.375 1.266-2.934.139-.231.375-.26.565-.26.043-.13.088-.262.217-.348.735-.562 1.529-.847 2.359-.847.788 0 1.563.262 2.24.758a4.27 4.27 0 0 1 1.442 1.86c.263.671.329 1.379.188 2.047-.156.746-.556 1.42-1.187 2.005-.803.753-2.211 1.24-3.586 1.24zm-35.764 6.23c-.557 0-1.107.273-1.59.788-.517.574-.921 1.124-1.2 1.635-.396.722-.548 1.371-.451 1.93.673-.023 1.347-.034 1.999-.044.651-.011 1.325-.022 1.999-.044.08 0 .185.008.297.017.13.01.276.022.405.022a.844.844 0 0 0 .297-.039 2.64 2.64 0 0 1 .187-.075c.09-.033.09-.033.104-.114.008-.048.02-.122.057-.246.141-.61-.129-1.688-.217-2.042-.283-1.103-1.005-1.788-1.886-1.788zm-3.703 5.842c-.227 0-.402-.128-.495-.36-.564-1.16-.313-2.842.655-4.389.967-1.544 2.365-2.504 3.648-2.504.733 0 1.405.301 1.999.895.66.661 1.07 1.568 1.217 2.695l.02.117c.138.816.346 2.048-.15 2.751-.348.506-.943.575-1.536.575-.112 0-.224-.002-.332-.005a13.62 13.62 0 0 0-.305-.004c-.714.021-1.44.032-2.14.043-.71.01-1.442.021-2.163.043a.732.732 0 0 1-.418.143zm22.83 2.166c-.191 0-.361.091-.504.272-.514.648-.557 2.259-.438 2.765.2.797.971 1.658 1.87 1.658.239 0 .472-.06.694-.18.507-.282.79-.657.841-1.116.135-1.207-1.333-2.661-1.97-3.23-.178-.113-.343-.17-.493-.17zm.963 5.977c-.315 0-.634-.053-.949-.158-.871-.284-1.544-.908-1.945-1.804-.36-.806-.472-1.771-.315-2.716.2-1.286 1.126-2.615 2.326-2.615.136 0 .275.017.412.05a.537.537 0 0 1 .13-.016c.13 0 .262.05.392.147.92.73 1.552 1.387 1.988 2.064.576.895.778 1.783.62 2.717-.12.685-.442 1.27-.93 1.693a2.637 2.637 0 0 1-1.728.638zm30.889-2.784c-.881 0-1.615.316-2.066.887-.325.4-.473.951-.387 1.44.072.411.296.74.647.95.253.157.538.236.85.236.711 0 1.47-.436 1.845-1.06a2.027 2.027 0 0 0-.217-2.391 3.78 3.78 0 0 0-.672-.062zm-.934 4.753c-.535 0-1.033-.131-1.48-.389a2.64 2.64 0 0 1-1.244-1.654 3.124 3.124 0 0 1 .375-2.388c.347-.549.84-.969 1.464-1.249.555-.25 1.214-.381 1.905-.381.164 0 .332.007.499.022a.733.733 0 0 1 .375-.109c.149 0 .286.052.407.153a3.72 3.72 0 0 1 1.12 2.222 3.283 3.283 0 0 1-.642 2.384 3.559 3.559 0 0 1-2.78 1.389zm-51.203-21.992c-2.129 0-3.956 1.076-5.282 3.112-1.127 1.73-1.83 4.097-1.93 6.496-.165 3.879-.414 9.74 1.782 13.43 1.175 2 3.401 3.195 5.955 3.196.658 0 1.316-.081 1.955-.241 2.034-.509 5.252-2.144 5.78-4.564-.271-.965-1.23-1.564-2.156-2.143-.409-.255-.831-.52-1.19-.812-1.346 2.187-2.867 3.296-4.522 3.296-.561 0-1.145-.13-1.737-.384-1.28-.749-2.087-1.868-2.466-3.423-.344-1.41-.287-3.015-.185-4.4.045-.449.411-.609.739-.609.043-.043.087-.043.174-.043l5.433.13c.293.01.68.053 1.127.102.702.077 1.496.164 2.247.164.998 0 1.671-.158 2.058-.483.506-2.175.252-4.907-.679-7.307-1.034-2.666-2.722-4.486-4.753-5.123a7.71 7.71 0 0 0-2.35-.394zm.457 27.466c-1.58 0-3-.314-4.106-.908-2.551-1.371-4.17-4.265-4.813-8.6-.55-3.718-.263-7.704.076-10.393.298-2.365 1.268-4.561 2.73-6.183 1.577-1.75 3.564-2.675 5.745-2.675.85 0 1.727.144 2.608.427 2.439.799 4.44 2.888 5.634 5.883 1.079 2.705 1.345 5.818.712 8.328a.7.7 0 0 1-.175.305c-.689.772-1.571.876-2.343.876-.345 0-.705-.025-1.053-.048a20.71 20.71 0 0 0-.82-.046c-1.236-.022-2.483-.055-3.689-.087h-.01a409.844 409.844 0 0 0-3.689-.087c-.183 2.39-.063 4.777 2.043 6.041.377.165.75.248 1.11.248 1.692 0 2.85-1.765 3.801-3.42a.625.625 0 0 1 .548-.31c.232 0 .455.119.582.31.515.71 1.243 1.139 1.947 1.554 1.035.61 2.012 1.186 2.27 2.575.029.089.018.158.008.22a.536.536 0 0 0-.009.084v.043c-.37 2.234-1.994 3.604-3.292 4.36-1.64.956-3.76 1.503-5.815 1.503zm-18.97-19.814h.305c2.18.564 2.474 3.077 2.711 5.096.038.32.073.62.114.902.6 3.834.983 7.942 1.174 12.56l.244-.02.018-.002c.984-.082 2.208-.185 2.606-.543.817-.749.672-1.67.532-2.56-.039-.245-.079-.498-.097-.743-.222-2.395-.444-4.749-.652-6.954-.047-.463-.088-1.014-.133-1.598v-.002c-.327-4.329-.875-11.573-5.372-11.573-.638 0-1.345.147-2.101.439-1.065.63-2.032 1.418-3.042 2.477a.623.623 0 0 1-.443.183c-.301 0-.566-.2-.644-.487-.396-1.647-1.336-2.482-2.794-2.482-1.767 0-3.958 1.264-5.247 2.439a.684.684 0 0 1-.437.156.695.695 0 0 1-.551-.263.615.615 0 0 1-.098-.546c.182-.616.157-1.085-.074-1.395-.23-.307-.667-.463-1.3-.463-1.084 0-2.478.454-3.148.673l-.172.055c.352 4.619.703 9.275 1.043 13.778.04.654.043 1.362.047 2.112.01 1.749.019 3.558.475 5.016.368 1.14.558 1.16 1.36 1.244.148.016.315.033.508.06.78.07 1.433.107 1.942.107.502 0 .844-.036 1.014-.107 1.324-.543.93-2.438.582-4.11-.096-.462-.187-.9-.234-1.28l-.391-3.018-.392-3.023a124.42 124.42 0 0 0-.043-.355l-.002-.012c-.298-2.414-.606-4.91 1.958-6.109.043 0 .087-.01.13-.021.043-.011.087-.022.13-.022.044-.043.044-.043.087-.043a3.5 3.5 0 0 1 .365-.02c1.23 0 2.129.683 2.751 2.09.524 1.184.745 2.678.907 3.77l.003.018.06.4c.445 2.82.707 5.196.826 7.476.01.186.004.413-.003.653-.02.836-.047 1.875.524 2.345.16.128.543.19 1.169.19.608 0 1.326-.057 1.96-.109l.479-.037c-.575-4.213-.874-7.98-.913-11.518v-.206c-.003-1.909-.007-4.073 2.216-4.618v.001zm3.66 19.922c-.383 0-.66-.263-.66-.625a117.101 117.101 0 0 0-.61-8.736c-.026-.245-.05-.61-.082-1.074v-.002c-.162-2.404-.498-7.405-2.22-8.138-.99.462-1.393 2.578-1.196 6.288.161 3.027.678 6.349.956 8.133v.003c.07.44.124.788.153 1.005a.724.724 0 0 1-.127.607.594.594 0 0 1-.482.22h-5.39a.67.67 0 0 1-.65-.653 72.52 72.52 0 0 1-.009-.683c-.016-1.82-.05-5.604-.501-9.007-.561-4.224-1.574-6.374-3.011-6.391-.915.536-1.366 1.678-1.38 3.49-.012 1.532.29 3.217.533 4.571.103.576.192 1.073.238 1.457l1 7.867a.513.513 0 0 1-.141.4.736.736 0 0 1-.511.252h-7.084c-.422 0-.615-.351-.652-.652-.306-3.91-.606-7.895-.896-11.75v-.002c-.287-3.813-.583-7.755-.886-11.63a.524.524 0 0 1 .127-.417.651.651 0 0 1 .568-.192c.043-.022.077-.044.109-.065a.96.96 0 0 1 .109-.065c.454-.146 2.06-.62 3.62-.62.793 0 1.441.124 1.925.367.567.285.91.735 1.017 1.339 1.693-1.129 3.53-1.776 5.038-1.776.802 0 1.507.18 2.095.534.652.392 1.162 1 1.516 1.807.662-.625 1.485-1.346 2.565-1.956a.226.226 0 0 1 .09-.051.844.844 0 0 0 .083-.036c.885-.35 1.745-.527 2.556-.527 2.733 0 4.833 2.017 5.615 5.395 1.158 4.866 1.487 10.069 1.805 15.1v.005c.099 1.554.2 3.16.325 4.714.045.272-.23.567-.478.608-.826.152-1.655.296-2.456.435h-.003c-.8.139-1.628.283-2.453.434a.849.849 0 0 1-.165.017zm50.103-25.311l.511 24.011.01.501c.388-.058.785-.128 1.17-.195 1.042-.182 2.119-.37 3.133-.37.303 0 .522 0 .652-.043 0-.13-.01-.263-.022-.391a4.748 4.748 0 0 1-.021-.392c-.21-2.57-.192-5.24-.176-7.823v-.005c.008-1.17.016-2.379.002-3.559-.015-1.292-.073-2.629-.128-3.922-.107-2.468-.217-5.019-.046-7.465v-.608h-.05c-.145 0-.268.004-.428.043-.95.202-2.006.23-2.912.23-.286 0-.573-.004-.85-.007h-.011a82.556 82.556 0 0 0-.834-.005zm-.097 25.922c-.39 0-.642-.246-.642-.628-.087-4.323-.186-8.708-.282-12.95-.096-4.238-.196-8.621-.283-12.953 0-.286.114-.471.348-.565 0-.043.043-.043.043-.043a.549.549 0 0 0 .13-.022.547.547 0 0 1 .13-.022l2.809-.114.387-.016.036-.002 3.158-.128a.48.48 0 0 1 .06-.004c.31 0 .592.312.592.655.088 8.553.22 17.072.347 25.31v.029c0 .209-.214.564-.478.608-1.026.131-2.081.276-3.101.415h-.003c-1.008.139-2.05.281-3.067.411a.934.934 0 0 1-.184.019zm-10.709-3.744c.186 0 .37.082.494.218a.542.542 0 0 1 .142.421c-.041.885-.071 1.524.214 1.822.132.139.327.203.613.204.335 0 .804-.092 1.476-.287.695-.201 1.138-.633 1.353-1.321.192-.615.19-1.376.187-2.113-.001-.39-.002-.793.025-1.173.13-1.871.252-3.782.37-5.63v-.02c.118-1.84.24-3.745.37-5.607l.781-11.865c.02-.258.072-.604.132-1.006.219-1.453.518-3.444-.262-4.122-.36-.36-1.837-.406-3.083-.406-.358 0-.717.004-1.033.008h-.003c-.271.003-.528.007-.749.007-.648 4.58-.825 9.28-.996 13.826l-.003.081v.044a.672.672 0 0 1 .084.734c-.116.24-.347.403-.574.403a.538.538 0 0 1-.423-.225c0-.043-.044-.087-.087-.13-.162-.054-.236-.23-.26-.304-1.21-1.343-2.574-2.024-4.054-2.024-1.643 0-3.339.864-4.776 2.431-1.872 2.045-2.945 4.938-2.732 7.372.464 5.213 4.685 8.996 10.037 8.996.856 0 1.72-.102 2.567-.303.06-.02.124-.03.19-.03zm-.25 3.946c-.31 0-.592-.313-.592-.656l.009-.114.121-1.711a12.06 12.06 0 0 1-1.963.162c-3.35 0-6.522-1.409-8.707-3.865-2.1-2.36-3.049-5.428-2.672-8.64.252-2.19 1.373-4.416 3.076-6.108a9.875 9.875 0 0 1 2.743-1.951c1.03-.485 2.07-.731 3.093-.731 1.442 0 2.772.486 3.953 1.445.175-4.571.391-9.042 1.086-13.473.04-.24.157-.387.348-.435.043-.043.043-.043.087-.043h.217c1.08.086 2.18.163 3.242.237h.002c1.074.076 2.184.153 3.275.24.177.023.35.1.473.212.136.124.2.28.18.44-.47 6.444-.889 12.972-1.295 19.284a2981.6 2981.6 0 0 1-.966 14.66c-.043.39-.262.609-.652.652l-2.456.192-.043.004a2181.927 2181.927 0 0 0-2.558.199zm33.694-4.354c.15 0 .293.074.405.21a.78.78 0 0 1 .166.62c-.067.4.317 1.012 1.173 1.869.144-.173.305-.324.475-.485.086-.082.175-.166.264-.254.402-.383.774-.795 1.134-1.194.473-.525.92-1.02 1.43-1.457-1.168-.865-1.826-2.094-1.955-3.65-.159-1.563.056-3.098.263-4.583.25-1.783.507-3.626.128-5.545-.895-4.331-4.021-7.86-7.78-8.779a8.74 8.74 0 0 0-2.027-.24c-3.255 0-6.076 1.79-7.36 4.673.675.46 1.38.91 2.064 1.347.42.268.853.546 1.282.826.241-.774.67-1.375 1.276-1.785.55-.373 1.23-.57 1.97-.57 1.601 0 3.228.908 4.142 2.312 0 .021.011.043.022.065.01.021.022.043.022.065.712 1.69.682 2.986.391 4.65-.038.305-.371.443-.665.443a.834.834 0 0 1-.117-.008c-1.303-.265-2.416-.393-3.401-.393-2.126 0-3.744.583-4.944 1.784-1.895 1.85-2.85 5.32-2.13 7.736.809 2.676 2.84 4.032 6.038 4.032 2.032 0 4.492-.537 7.522-1.641a.51.51 0 0 1 .212-.048zm1.975 4.358a.702.702 0 0 1-.492-.182l-.101-.101-.015-.015c-.692-.69-1.554-1.549-1.883-2.535-1.412.479-4.204 1.281-7.027 1.281-2.077 0-3.768-.431-5.026-1.282-1.488-1.006-2.36-2.6-2.594-4.736-.173-1.492.061-3.16.658-4.7.621-1.601 1.607-2.957 2.776-3.819 1.336-.99 2.981-1.47 5.03-1.47.92 0 1.933.097 3.098.297.177-1.158.031-2.24-.435-3.216-.662-.982-1.971-1.694-3.113-1.694-1.2 0-1.95.776-2.06 2.128-.032.365-.34.673-.672.673a.562.562 0 0 1-.327-.108c-.719-.457-1.45-.933-2.157-1.394l-.005-.004c-.702-.457-1.427-.93-2.14-1.383a.66.66 0 0 1-.595-.265.551.551 0 0 1-.058-.518c.668-1.904 1.881-3.489 3.508-4.583 1.551-1.044 3.39-1.596 5.32-1.596 1.815 0 3.616.499 5.21 1.442a12.056 12.056 0 0 1 3.651 3.39 13.45 13.45 0 0 1 2.087 4.564c.43 1.76.564 3.654.39 5.476-.047.614-.17 1.275-.3 1.976-.227 1.233-.463 2.507-.314 3.657.17 1.307.825 2.237 2.006 2.842.148.074.264.231.317.431.056.21.034.433-.057.568-.59.54-3.564 3.294-4.129 4.564-.086.196-.293.312-.551.312z"/></g></g></g></svg>