<svg xmlns="http://www.w3.org/2000/svg" width="55" height="65" viewBox="0 0 55 65"><g><g><g><g><path fill="#fff" d="M43.568 48.046v3.2c0 1.672.547 2.507 1.672 2.507.806 0 1.275-.438 1.462-1.312.03-.178.073-.905.073-2.217h3.338v.477c0 1.055-.04 1.781-.07 2.108a4.663 4.663 0 0 1-.764 1.96c-.906 1.312-2.249 1.959-3.958 1.959-1.712 0-3.015-.617-3.96-1.85-.694-.904-1.05-2.327-1.05-4.246v-6.325c0-1.93.315-3.343 1.01-4.255.946-1.236 2.248-1.851 3.92-1.851 1.642 0 2.943.615 3.86 1.85.686.913 1.013 2.325 1.013 4.256v3.739zm-5.805 3.012c0 1.67-.112 2.874-.33 3.64-.438 1.343-1.313 2.029-2.614 2.029-1.165 0-2.288-.647-3.383-1.998v1.75h-3.271V32.242h3.271v7.915c1.057-1.3 2.18-1.958 3.383-1.958 1.301 0 2.177.685 2.613 2.037.22.726.331 1.92.331 3.63zm-15.705 5.42v-1.97c-1.301 1.492-2.536 2.219-3.74 2.219-1.054 0-1.78-.427-2.108-1.342-.178-.546-.288-1.41-.288-2.685V38.42h3.271v13.296c0 .766 0 1.165.03 1.272.079.508.327.766.765.766.657 0 1.343-.506 2.069-1.533V38.42h3.275v18.059zm-6.613-20.825h-3.92v20.825h-3.64V35.653H4.038v-3.41h11.407zm37.766-3.178c-.663-2.88-3.018-5.004-5.854-5.32-6.712-.75-13.51-.754-20.274-.75-6.767-.004-13.563 0-20.278.75-2.834.316-5.188 2.44-5.85 5.32-.944 4.1-.955 8.577-.955 12.8 0 4.222 0 8.698.944 12.799.662 2.879 3.016 5.003 5.851 5.32 6.714.75 13.51.754 20.276.75 6.767.004 13.562 0 20.277-.75 2.834-.317 5.19-2.441 5.852-5.32.943-4.101.948-8.577.948-12.8-.001-4.223.006-8.698-.937-12.8z"/></g><g><path fill="#fff" d="M45.211 41.145c-1.094 0-1.642.835-1.642 2.505v1.67h3.272v-1.67c0-1.67-.548-2.505-1.63-2.505z"/></g><g><path fill="#fff" d="M33.068 41.145c-.54 0-1.085.255-1.632.796v11.006c.546.548 1.093.807 1.632.807.943 0 1.423-.807 1.423-2.437v-7.708c0-1.629-.48-2.464-1.423-2.464z"/></g><g><path fill="#fff" d="M34.896 24.74c1.206 0 2.46-.733 3.777-2.24v1.99h3.307V6.24h-3.307v13.948c-.733 1.036-1.427 1.548-2.089 1.548-.443 0-.703-.262-.775-.775-.04-.108-.04-.51-.04-1.285V6.239h-3.297V20.67c0 1.29.11 2.162.293 2.714.332.925 1.066 1.356 2.13 1.356z"/></g><g><path fill="#fff" d="M11.873 14.571v9.919h3.667V14.57L19.952 0h-3.709l-2.502 9.617L11.138 0H7.28c.773 2.27 1.578 4.551 2.35 6.824 1.177 3.415 1.912 5.99 2.244 7.747z"/></g><g><path fill="#fff" d="M23.289 11.526c0-1.688.512-2.53 1.578-2.53s1.577.841 1.577 2.53v7.677c0 1.689-.511 2.533-1.577 2.533-1.066 0-1.578-.844-1.578-2.533zm1.578 13.214c1.656 0 2.944-.623 3.857-1.868.694-.913 1.027-2.352 1.027-4.292v-6.39c0-1.952-.332-3.378-1.027-4.3-.913-1.248-2.2-1.871-3.857-1.871-1.649 0-2.935.623-3.85 1.871-.703.922-1.036 2.348-1.036 4.3v6.39c0 1.94.333 3.379 1.035 4.292.915 1.245 2.202 1.868 3.85 1.868z"/></g></g></g></g></svg>